<svg width="91" height="76" viewBox="0 0 91 76" fill="none" xmlns="http://www.w3.org/2000/svg">
<path d="M35.7117 34.3595C34.3224 32.1187 30.6144 32.0658 28.2344 31.8611C26.6484 31.7202 25.6019 31.9605 24.523 30.7899C23.5141 29.69 22.6961 28.6116 21.4132 27.7791C20.7596 27.3544 19.981 27.7748 20.0052 28.5617C20.1269 31.8135 21.419 35.7071 24.8598 36.5708C27.7776 37.3037 33.4031 38.2896 35.6807 35.8815C36.0781 35.4582 35.9867 34.8086 35.7107 34.3661L35.7117 34.3595Z" fill="#D1C143" fill-opacity="0.12"/>
<path d="M62.8566 43.8041C60.7718 43.9577 60.0943 45.7322 58.9508 47.2168C57.2765 49.3928 56.7024 50.6938 53.7246 50.7288C48.5202 50.7892 43.8973 49.3623 38.8292 48.365C36.4159 47.8876 33.9786 47.5271 31.5304 47.2855C29.5447 47.0856 26.2579 47.4899 24.6895 46.0528C24.1291 45.5414 23.1301 45.8222 22.8551 46.5046C21.6983 49.3464 24.2249 50.5971 26.6808 50.7863C31.6255 51.1694 36.4612 51.4294 41.3303 52.5043C46.1479 53.565 50.8552 55.5534 55.7937 55.842C60.1883 56.0969 62.8283 54.8604 64.7015 50.7052C65.6978 48.4959 67.0329 43.4979 62.8688 43.8126L62.8566 43.8041Z" fill="#D1C143" fill-opacity="0.12"/>
<path d="M70.114 20.6273C68.4873 17.9095 65.8923 14.5865 62.6883 13.7511C62.6687 13.7482 62.6461 13.765 62.6498 13.7856C63.4263 17.0003 65.6757 19.9441 66.9925 22.9911C67.9557 25.2157 68.5963 28.0823 69.7892 30.428C69.6148 30.4758 69.4459 30.5312 69.2957 30.596C69.2435 30.3606 69.1837 30.1309 69.1174 29.9001C67.6734 24.7254 65.0297 19.1054 61.7866 14.8229C61.5745 14.5371 61.1567 14.7364 61.1747 15.0672C61.4976 21.7566 64.796 27.9286 64.0951 34.2524C63.5179 34.4884 62.9127 34.6867 62.2797 34.8475C58.2975 35.8788 54.1114 35.5275 50.0845 36.3178C49.491 36.4376 49.489 37.2206 50.0709 37.3603C54.0087 38.3042 58.084 40.0384 62.1926 40.144C61.6527 42.1195 64.334 43.9087 66.0172 42.5776C67.4729 41.427 68.4523 39.9651 69.0316 38.3569C70.8581 37.2344 72.465 35.6041 72.7271 33.7414C73.6204 33.994 74.671 33.5 74.7838 32.4655C75.2218 28.5534 72.0713 23.9163 70.1074 20.6264L70.114 20.6273Z" fill="#D1C143" fill-opacity="0.12"/>
<path d="M62.3609 67.3917C60.5145 64.3936 55.5161 65.2344 52.4637 65.0039C48.1126 64.6818 43.7951 64.1771 39.4656 63.664C35.3532 63.1763 31.2445 62.7092 27.1479 62.0698C24.6414 61.679 21.0348 60.2618 18.407 61.0984C17.2178 60.2664 16.3919 58.6981 15.2893 57.7784C14.8658 57.4279 14.3061 57.9075 14.4695 58.387C15.1686 60.4052 16.7417 64.3001 18.7834 65.2984C20.7691 66.2683 23.6174 66.4753 25.7657 66.9337C28.5362 67.5309 31.322 68.0701 34.108 68.5625C39.2627 69.4722 44.4575 70.0196 49.6737 70.4228C53.1362 70.6872 59.9528 72.4921 62.3118 69.172C62.7174 68.6027 62.7036 67.9713 62.3478 67.3897L62.3609 67.3917Z" fill="#D1C143" fill-opacity="0.12"/>
<path d="M85.7815 43.1174C85.9155 39.495 83.7226 36.1244 80.3598 34.8236C78.3611 34.0325 76.3061 36.882 78.2889 38.2331C78.7388 38.5407 79.1792 38.867 79.5802 39.2343C79.5296 40.5725 78.4963 42.3077 77.9723 42.9533C77.1789 43.9273 76.3153 44.4691 75.3469 45.223C73.5979 46.5913 72.3142 48.0283 71.2974 50.0137C70.1369 52.2925 69.335 54.7717 68.2997 57.1092C67.6243 58.6429 66.8535 60.1424 66.1276 61.6553C63.5821 61.2119 60.8457 61.47 58.2746 61.4713C54.2235 61.4748 50.1891 61.3199 46.1387 61.1829C39.1439 60.945 31.8102 59.3315 24.8706 60.2601C24.7749 60.2727 24.7706 60.3926 24.8444 60.437C30.9793 64.0894 39.115 64.8976 46.0959 65.8632C49.6846 66.3605 53.3157 66.6163 56.9294 66.8093C59.4998 66.9485 62.4506 67.2778 65.1359 66.9117C65.3432 67.2302 65.6088 67.5172 65.9177 67.737C65.6069 67.8919 65.3092 68.0487 65.1256 68.2492C64.8214 68.5858 64.3105 69.0526 64.4147 69.5701C64.4302 69.6461 64.4458 69.722 64.4623 69.7914C64.6003 70.488 65.1159 71.1669 65.8817 71.24C69.5713 71.5982 71.2987 68.3387 72.5535 65.3775C74.301 61.2573 75.307 54.9988 78.9651 52.0851C82.2968 49.4311 85.5796 47.9683 85.7618 43.1145L85.7815 43.1174Z" fill="#D1C143" fill-opacity="0.12"/>
<path d="M15.0554 26.5843C15.0554 26.5843 15.0328 26.6011 15.0375 26.6151C15.2611 28.1814 16.4965 29.3349 17.054 30.8167C17.3322 31.5608 17.528 32.3196 17.6825 33.0856C17.6085 33.088 17.542 33.0849 17.467 33.0939C16.8558 33.1976 16.4162 33.454 15.8948 33.7652C15.6148 33.938 15.3242 34.183 14.9757 34.185C14.2179 34.1934 13.6856 33.3113 13.1434 32.903C12.7878 32.6362 12.2668 32.6729 11.9794 33.0321C10.5297 34.8665 12.4706 37.3161 14.2756 37.8776C15.4278 38.2355 17.0671 38.016 18.1817 37.2703C18.1904 37.3921 18.1992 37.5139 18.2145 37.6367C18.4299 40.119 18.6115 42.603 18.7528 45.0877C18.873 47.1274 18.6851 48.76 19.8361 50.4836C20.3122 51.2034 21.2839 50.9253 21.6467 50.2827C23.3334 47.2984 22.2391 23.4623 15.0498 26.5768L15.0554 26.5843Z" fill="#D1C143" fill-opacity="0.12"/>
<path d="M78.1075 43.2678C77.5123 43.173 76.9564 43.2649 76.3641 43.3313C75.9761 43.3743 75.404 43.5307 75.0174 43.4736C74.2967 43.367 73.9318 42.7104 73.4216 42.2668C72.8472 41.76 71.705 41.8321 71.2708 42.5043C70.0136 44.4408 71.2403 46.9655 73.2019 47.8716C75.3392 48.8572 78.6406 48.3546 79.5361 45.8759C79.9464 44.7315 79.3626 43.4735 78.1 43.2734L78.1075 43.2678Z" fill="#D1C143" fill-opacity="0.12"/>
<path d="M16.4357 65.9153C16.0688 65.861 15.8035 65.5272 15.839 65.1508C15.8952 64.59 15.8914 64.0271 15.8859 63.4304C15.8821 62.6866 15.8746 61.9223 15.9899 61.1426C16.0374 60.8216 16.1007 60.5297 16.1836 60.2406C16.2922 59.8684 16.6792 59.6511 17.0515 59.7597C17.4237 59.8683 17.641 60.2553 17.5324 60.6276C17.4657 60.8521 17.4177 61.086 17.3799 61.3415C17.2811 62.0098 17.2871 62.6936 17.2948 63.4111C17.2975 63.7998 17.3003 64.1886 17.288 64.5885C18.3618 64.7071 19.4683 64.8306 20.561 64.9119C20.5823 64.7677 20.6046 64.617 20.6259 64.4729C20.7975 63.3132 20.8805 62.435 20.8919 61.6333C20.8957 61.2455 21.2157 60.938 21.6035 60.9418C21.9912 60.9456 22.2988 61.2656 22.295 61.6533C22.2804 62.5215 22.1962 63.4531 22.0149 64.6783C21.9607 65.0452 21.9074 65.4056 21.8466 65.7715C21.7942 66.1253 21.4689 66.3785 21.1102 66.3589C19.7234 66.2743 18.3277 66.1148 16.9843 65.9629C16.9843 65.9629 16.4704 65.907 16.4442 65.9031L16.4357 65.9153Z" fill="#288357"/>
<path d="M63.8106 73.0694C63.221 72.9822 62.6512 72.8511 62.0935 72.7284C61.5424 72.6068 61.0176 72.489 60.4869 72.4105C60.1069 72.3543 59.8379 71.9998 59.8951 71.6133L60.5724 67.0335C60.6286 66.6535 60.9831 66.3845 61.3696 66.4417C61.7562 66.4989 62.0186 66.8524 61.9614 67.2389L61.3839 71.1439C61.7282 71.2149 62.066 71.2849 62.4028 71.3615C63.1476 71.5319 63.8812 71.6873 64.5356 71.7439L65.1888 67.3279C65.245 66.9479 65.5994 66.679 65.986 66.7361C66.3725 66.7933 66.6349 67.1468 66.5778 67.5334L65.8316 72.5783C65.7802 72.9256 65.4821 73.1761 65.1336 73.1781C64.7187 73.177 64.2889 73.1402 63.8106 73.0694Z" fill="#288357"/>
<path d="M40.572 64.6912L16.6495 60.892C16.6168 60.8871 16.5775 60.8813 16.5457 60.8699C14.2517 60.1289 11.735 57.8151 11.5851 54.9809C11.4976 53.3544 11.485 51.1766 11.4649 48.4152C11.4561 47.3427 11.4488 46.17 11.4383 44.8829C11.4239 43.6221 11.2455 42.3839 11.0572 41.0772L11.0263 40.8785C7.64076 39.8221 4.74941 36.1941 5.51881 30.9919C6.44521 24.7283 11.5931 23.7824 14.4956 24.2117C15.0918 24.2999 15.6597 24.4442 16.187 24.636C21.2526 26.51 21.7841 34.7768 22.2149 41.4152C22.2856 42.4768 22.3453 43.4765 22.427 44.3724C22.5647 45.8858 22.6762 47.3953 22.7933 48.9124L22.8444 49.5626C27.3701 50.5601 32.3479 51.4436 38.4608 52.3477C39.7384 52.5367 41.0161 52.7256 42.3022 52.9024C43.591 53.1064 44.8686 53.2954 46.1462 53.4844C52.2591 54.3885 57.2805 54.9771 61.9002 55.339L62.1497 54.693C63.0254 52.4391 63.9324 50.1094 64.917 47.7978C65.3586 46.7584 65.7606 45.5793 66.1864 44.33C67.8079 39.5685 69.8295 33.641 75.6361 33.4017C76.1476 33.3837 76.6861 33.4098 77.2299 33.4902C80.1259 33.9185 84.7861 36.315 83.8597 42.5786C83.0903 47.7808 79.2725 50.4165 75.7196 50.4467L75.6306 50.6411C75.0721 51.8373 74.5429 52.9708 74.1717 54.1679C73.7891 55.3968 73.4416 56.5238 73.1227 57.5479C71.9024 61.4983 71.0943 64.1104 70.3267 65.7243C69.3745 67.7259 66.9329 67.8468 65.1529 67.9317C64.9374 67.94 64.7285 67.9493 64.5251 67.9661C64.4783 67.9659 64.4315 67.9656 64.3856 67.9589L40.571 64.6978L40.572 64.6912ZM16.9271 59.5136L40.7774 63.3022L64.5059 66.5572C64.6952 66.5451 64.891 66.5339 65.0858 66.5292C66.671 66.449 68.4708 66.367 69.0567 65.1213C69.777 63.6009 70.5728 61.0272 71.7779 57.1347C72.0977 56.1041 72.4452 54.9771 72.8278 53.7482C73.2322 52.4623 73.8021 51.2343 74.3531 50.0437L74.6372 49.4363C74.7565 49.1728 75.0279 49.0121 75.3135 49.0275C78.354 49.2027 81.7839 46.9716 82.4651 42.3657C83.407 35.9972 77.6751 34.962 77.0199 34.8651C76.5612 34.7973 76.1099 34.7707 75.6855 34.7883C70.8354 34.9882 69.1426 39.9601 67.5012 44.7655C67.065 46.04 66.6591 47.2454 66.1901 48.3343C65.2159 50.6206 64.3109 52.9371 63.4427 55.1855L63.0006 56.3186C62.8915 56.6037 62.603 56.7887 62.2922 56.7628C57.4973 56.4085 52.298 55.8002 45.923 54.8573C44.6389 54.6674 43.3612 54.4785 42.079 54.2754C40.806 54.1005 39.5219 53.9106 38.2377 53.7207C31.8627 52.7778 26.7109 51.8485 22.0178 50.8062C21.7193 50.742 21.4967 50.4814 21.4682 50.1759L21.3794 49.0112C21.2613 47.5007 21.1489 45.9977 21.0102 44.4909C20.9304 43.5819 20.8661 42.5682 20.7974 41.4935C20.4191 35.5859 19.8952 27.4943 15.686 25.9411C15.2475 25.7825 14.7769 25.6593 14.2725 25.5847C13.6173 25.4878 7.83104 24.8195 6.88914 31.1879C6.20695 35.8004 8.84411 38.9288 11.8061 39.6347C12.084 39.7026 12.2973 39.935 12.3352 40.2218L12.4266 40.8714C12.6094 42.1705 12.806 43.5118 12.82 44.8663C12.8305 46.1534 12.8378 47.3261 12.8465 48.3986C12.863 51.1394 12.8776 53.3041 12.9634 54.8969C13.0729 57.0087 15.0446 58.8871 16.9074 59.5107L16.9271 59.5136Z" fill="#D1C143"/>
<path d="M17.4633 26.9672C17.2077 26.9294 16.9801 26.7485 16.898 26.4886C16.778 26.1227 16.9842 25.7247 17.3501 25.6048C22.0108 24.1048 24.7568 20.5674 27.6612 16.8192C30.8635 12.6865 34.1798 8.41668 40.2797 6.82825C40.6558 6.72988 41.0378 6.95375 41.1361 7.32984C41.2345 7.70593 41.0106 8.08792 40.6345 8.18629C35.0017 9.64964 31.8334 13.7338 28.7725 17.6798C25.8616 21.4271 22.8573 25.3079 17.7818 26.9407C17.6768 26.972 17.5681 26.9827 17.4633 26.9672Z" fill="#D1C143"/>
<path d="M72.8937 35.4265C72.743 35.4042 72.5991 35.3361 72.4901 35.2129C69.9528 32.5411 68.5969 28.8524 67.1531 24.9431C64.3821 17.423 61.5206 9.65509 49.8386 7.92731C47.5127 7.5833 45.3484 7.50424 43.4124 7.69325C43.0253 7.72974 42.6848 7.45174 42.6483 7.06472C42.6118 6.6777 42.8898 6.33719 43.2768 6.3007C45.3216 6.10098 47.5992 6.18341 50.043 6.54486C62.544 8.39377 65.6931 16.9339 68.4622 24.4672C69.8532 28.2348 71.161 31.7959 73.5018 34.2578C73.7683 34.5382 73.7558 34.9849 73.4753 35.2514C73.3116 35.408 73.0949 35.4697 72.8918 35.4396L72.8937 35.4265Z" fill="#D1C143"/>
<path d="M21.1807 38.8118C20.9186 38.7731 20.6919 38.5856 20.6108 38.3191C20.4983 37.9477 20.7101 37.5572 21.0816 37.4448C28.2774 35.2819 35.6433 34.731 42.9683 35.8144C51.4595 37.0703 58.7947 39.8959 67.1953 43.7562C67.5467 43.9153 67.6992 44.3328 67.5401 44.6842C67.381 45.0356 66.969 45.1956 66.612 45.029C58.3179 41.218 51.0913 38.4285 42.7638 37.1969C35.6419 36.1435 28.4794 36.6776 21.4862 38.7834C21.3811 38.8147 21.2799 38.8198 21.1816 38.8053L21.1807 38.8118Z" fill="#D1C143"/>
</svg>
