<svg width="22" height="34" viewBox="0 0 22 34" fill="none" xmlns="http://www.w3.org/2000/svg">
<path d="M4.56705 22.2146L11.5668 29.7325L17.4581 21.9738L15.3411 18.6983L11.1498 20.9206L11.5668 23.9759L8.54093 21.0719L14.9562 14.2579L21.6565 22.0942L11.6773 32.6709L0.379333 22.0288L12.9104 10.9334L11.6773 0.959717L4.56705 22.2146Z" fill="#D1C143"/>
<path fill-rule="evenodd" clip-rule="evenodd" d="M4.56665 22.2145L11.5664 29.7324L17.4577 21.9736L15.3407 18.6981L11.1494 20.9204L11.5664 23.9757L8.54052 21.0718L14.9558 14.2578L21.6561 22.0941L11.6769 32.6707L0.378931 22.0287L6.41737 16.682L4.56665 22.2145ZM6.41737 16.682L12.91 10.9332L11.6769 0.959548L6.41737 16.682ZM6.19657 16.5359L-0.000244141 22.0228L11.6875 33.0321L21.9998 22.1025L14.965 13.875L8.18069 21.0809L11.919 24.6686L11.4269 21.0627L15.2532 19.0339L17.1456 21.9618L11.5465 29.3357L4.85739 22.1515L6.63817 16.8281L13.1803 11.0354L11.9613 1.17569C11.9434 1.03093 11.8276 0.917841 11.6825 0.903293C11.5374 0.888745 11.4015 0.976612 11.3552 1.11494L6.19657 16.5359Z" fill="#D1C143"/>
</svg>
