<svg width="102" height="86" viewBox="0 0 102 86" fill="none" xmlns="http://www.w3.org/2000/svg">
<path d="M44.7108 56.5421C42.8995 54.1511 38.6978 51.2712 35.6082 51.4824C34.9159 51.5329 34.6996 52.384 35.1742 52.8262C37.2438 54.7592 38.7361 55.5691 39.0395 58.5625C39.2834 60.9371 39.6668 63.0719 38.936 65.4151C37.0888 71.3647 30.085 72.0186 25.1011 69.784C24.9933 69.7382 24.8886 69.8389 24.9203 69.9471C25.9081 73.3992 30.0044 73.9183 33.1115 73.933C37.3604 73.9544 41.3923 72.07 44.0154 68.6846C46.602 65.3544 47.3636 60.0672 44.6939 56.5341L44.7108 56.5421Z" fill="#D1C143" fill-opacity="0.12"/>
<path d="M81.1993 36.8586C80.04 36.8228 79.2796 38.4733 80.0252 39.3391C81.1127 40.6103 80.8844 43.1396 81.072 44.7466C81.3123 46.8552 81.5714 49.154 80.7501 51.1849C80.0044 53.0341 78.4121 54.5809 76.7412 55.5932C75.0909 56.5841 73.0879 56.8641 71.5431 57.993C71.4318 58.075 71.4207 58.2408 71.5294 58.3285C73.5499 60.0258 77.0472 59.5774 79.3494 58.6982C82.3728 57.554 84.7944 55.3168 86.0093 52.3012C87.7456 48.0089 87.61 37.0638 81.1971 36.8523L81.1993 36.8586Z" fill="#D1C143" fill-opacity="0.12"/>
<path d="M68.8174 55.1903C68.7549 55.2126 68.7906 55.3127 68.8532 55.2903C68.9157 55.268 68.88 55.1679 68.8174 55.1903Z" fill="#D1C143" fill-opacity="0.12"/>
<path d="M80.1186 36.7877C79.9871 36.4197 79.7455 36.0981 79.3686 35.9094C76.4477 34.4284 73.3974 36.4614 71.1498 38.3199C70.7423 38.6555 70.333 39.0058 69.9196 39.3645C69.2185 39.6855 68.5284 40.0377 67.8625 40.4375C66.8015 41.0701 62.2847 43.782 63.9011 45.5885C63.8584 45.646 63.8134 45.6972 63.7769 45.7525C62.0156 48.1054 62.5887 50.299 64.1674 52.5902C65.078 53.9176 66.6398 56.1024 68.4564 55.439C68.5438 55.4077 68.5754 55.3191 68.5526 55.2358C68.0781 53.5345 66.7942 52.3827 66.827 50.4086C66.8723 48.3316 69.6037 46.4689 71.0779 45.1823C72.5954 43.8591 74.2065 42.6993 75.9139 41.6318C76.1723 41.4691 76.4329 41.3126 76.685 41.1522C78.2745 40.7387 79.7984 40.2009 80.9605 39.1033C81.8 38.3038 81.0458 37.04 80.1356 36.7957L80.1186 36.7877Z" fill="#D1C143" fill-opacity="0.12"/>
<path d="M28.4411 52.7998C26.5859 54.2015 24.2119 56.1193 22.3373 58.2736C21.9151 58.7058 21.5205 59.1564 21.1526 59.5833C21.0547 59.7027 21.0177 59.8355 21.0227 59.9674C20.2611 61.0836 19.6827 62.2399 19.4127 63.4126C18.6149 66.9263 21.7221 70.3452 24.9662 71.2744C25.2086 71.3425 25.4108 71.1014 25.4041 70.8858C25.3569 69.4748 24.6446 68.6041 24.1849 67.2984C23.5486 65.4791 24.1264 65.0686 25.496 63.9811C28.0171 61.9826 30.5884 59.8888 32.6549 57.4057C34.9013 54.7177 31.3328 50.5985 28.4264 52.7981L28.4411 52.7998Z" fill="#D1C143" fill-opacity="0.12"/>
<path d="M38.9535 52.418C38.5309 51.6687 37.7698 51.153 36.7723 51.3338C35.2322 51.61 34.251 52.3476 33.076 53.3304C32.3023 53.9797 31.1669 54.7584 30.834 55.7355C30.7253 56.0416 30.8074 56.3499 31.1104 56.5089C31.7864 56.8651 32.6596 56.8483 33.4776 56.7951C33.2945 57.0504 33.1177 57.3035 32.9449 57.5482C31.6437 59.3779 30.5055 61.4869 30.3681 63.7586C30.3083 64.7718 31.0704 65.5262 32.099 65.2359C36.1471 64.1053 42.748 60.0223 42.0382 55.0853C41.8065 53.473 40.5101 52.3257 38.9619 52.422L38.9535 52.418Z" fill="#D1C143" fill-opacity="0.12"/>
<path d="M78.4352 37.5301C76.3652 38.7835 74.9666 41.3443 74.1092 43.5499C73.4383 45.2738 72.5195 47.5436 72.7798 49.4129C72.8784 50.1021 73.6048 50.7568 74.3371 50.4247C78.3414 48.6205 82.8474 45.6029 84.0565 41.1545C84.9515 37.8734 80.898 36.0377 78.4289 37.5323L78.4352 37.5301Z" fill="#D1C143" fill-opacity="0.12"/>
<path d="M29.4675 24.7623C25.1411 26.1964 22.6585 31.8245 21.333 35.8292C20.8549 37.2662 20.458 38.7726 20.1831 40.3058C19.926 40.2359 19.5727 40.3692 19.4828 40.6686C18.8054 42.9646 17.7988 45.1462 17.149 47.4604C16.663 49.2097 15.7801 51.2063 17.2499 52.6222C17.5088 52.8743 17.9753 52.9396 18.3098 52.813C19.9799 52.1527 20.1477 50.2217 20.2577 48.5225C20.4375 49.2812 20.6694 50.0282 20.9721 50.757C21.4318 51.8658 22.9912 51.9976 23.5433 50.8859C27.4539 42.9959 24.6503 32.9693 30.0104 25.5529C30.291 25.1572 29.95 24.5968 29.4591 24.7583L29.4675 24.7623Z" fill="#D1C143" fill-opacity="0.12"/>
<path d="M51.7669 54.716C50.56 56.0618 49.762 57.6272 48.9927 59.2527C48.1935 60.9521 47.8136 62.9589 46.9587 64.6009C46.5664 65.353 45.4948 66.3691 44.6259 67.5589C43.456 69.1658 42.0686 70.3019 40.3665 71.3253C36.8364 73.4524 33.0403 74.1272 28.9772 74.2714C28.0666 74.3015 26.8196 74.473 25.9801 74.1119C25.0074 73.693 24.1726 72.5776 23.4355 71.8142C21.8351 70.1707 20.245 68.5165 18.6754 66.841C18.4802 66.6294 18.2125 66.9431 18.3324 67.1605C19.6091 69.5316 20.9838 71.7833 22.5705 73.9592C23.7708 75.6051 24.7777 77.4185 26.7049 78.284C30.5783 80.0293 36.4421 79.2554 40.4341 78.3418C44.6534 77.3751 50.6193 74.4476 51.9443 69.9296C52.6662 67.463 50.86 65.6961 51.188 63.2296C51.541 60.5573 52.9162 58.5605 54.3202 56.3494C55.2785 54.8392 52.8839 53.4726 51.7731 54.7138L51.7669 54.716Z" fill="#D1C143" fill-opacity="0.12"/>
<path d="M88.541 35.0644C84.6879 40.1837 91.6727 47.3861 87.5067 52.2796C85.2122 54.9708 81.1926 57.6175 77.9643 58.9756C75.4523 60.0353 71.5001 61.4341 68.7631 60.9988C68.3973 60.9396 68.1809 61.3968 68.4586 61.6422C71.115 63.9773 73.6923 65.2645 77.3516 64.4628C81.9179 63.4635 85.8411 60.4292 89.3626 57.5104C92.4003 54.9896 93.7761 52.247 93.5811 48.2583C93.4928 46.3978 93.0436 44.6101 92.6506 42.8023C92.1603 40.565 92.4568 38.3841 92.0703 36.2012C91.7892 34.6277 89.6918 33.5417 88.5472 35.0621L88.541 35.0644Z" fill="#D1C143" fill-opacity="0.12"/>
<path d="M77.4415 30.4016C75.7629 28.0476 73.6136 26.0095 71.6246 23.9282C69.7492 21.968 67.9157 19.81 65.4832 18.5343C65.354 18.468 65.2271 18.6048 65.2654 18.7317C66.0169 21.2273 67.657 23.356 69.1212 25.4842C70.7717 27.8976 72.2997 30.4602 74.2491 32.6471C75.8722 34.4724 78.9408 32.5103 77.4415 30.4016Z" fill="#D1C143" fill-opacity="0.12"/>
<path d="M89.3232 25.5281C84.3163 20.6712 76.2552 19.607 70.1279 16.7121C69.6708 16.4957 69.2446 17.1334 69.6497 17.4598C72.1184 19.447 74.4758 21.4177 77.1339 23.1473C79.4796 24.6721 81.9914 25.9335 84.2475 27.5817C86.2461 29.0406 87.6416 30.7996 88.4201 32.9971C88.1992 33.048 88.0206 33.2173 88.0768 33.4926C88.3106 34.6189 88.1933 35.6877 88.2199 36.8247C88.2308 37.3272 88.7066 37.5369 89.1067 37.4361C89.1122 39.6356 88.9436 41.9185 90.1551 43.694C90.6744 44.4579 91.7739 44.4447 92.3631 43.7909C94.4149 41.503 93.9325 37.1036 93.5173 34.2698C93.0302 30.92 91.7774 27.9074 89.321 25.5219L89.3232 25.5281Z" fill="#D1C143" fill-opacity="0.12"/>
<path d="M73.8379 29.1364C71.0238 30.0791 68.3552 31.9404 65.8332 33.5031C63.1022 35.1898 60.4728 37.023 58.0699 39.1551C55.8313 41.137 53.7255 43.2543 51.2632 44.9645C48.6935 46.7483 45.8478 47.7796 42.8827 48.713C42.8265 48.733 42.8137 48.815 42.8605 48.8475C47.8041 52.4258 53.9126 47.8507 57.6505 44.5732C60.3069 42.245 62.9539 39.9694 65.8987 37.9953C68.9445 35.9499 72.5849 34.4656 75.3986 32.1445C76.8497 30.9505 75.7472 28.496 73.8379 29.1364Z" fill="#D1C143" fill-opacity="0.12"/>
<path d="M76.121 61.5334C73.7476 60.954 71.3269 60.6166 68.9686 59.9615C68.4923 59.8293 68.0262 59.6865 67.5642 59.5351C67.7609 58.9443 67.6921 58.2796 67.1707 57.7064C64.7735 55.0535 60.5624 53.5837 56.9743 54.0927C54.9735 54.3788 52.1882 55.9724 52.8095 58.3598C52.8621 58.566 53.1638 58.6622 53.3263 58.5267C55.3614 56.8215 56.8899 57.9491 58.936 58.9902C60.3044 59.6897 61.7116 60.4386 63.1882 60.9095C66.8038 64.3929 72.0354 66.7499 76.7104 64.2839C77.9657 63.6241 77.2478 61.8128 76.1148 61.5356L76.121 61.5334Z" fill="#D1C143" fill-opacity="0.12"/>
<path d="M77.8599 60.8076C71.2674 63.1633 66.8967 60.2449 63.0425 57.6695C59.9557 55.6075 57.2919 53.8234 53.9578 54.9445C50.6995 56.1791 49.7646 59.2492 48.6851 62.7999C47.3377 67.2341 45.8146 72.2586 39.2159 74.6166C26.4614 79.1742 22.572 73.3338 18.0634 66.5682C17.3942 65.5624 16.7077 64.5277 15.9712 63.5108C15.8839 63.542 15.7903 63.5754 15.703 63.6066C13.7134 64.3176 12.4152 63.4803 11.4896 60.8923C10.8071 58.9839 13.2705 48.5243 15.9129 40.3358C18.1389 33.4214 22.5586 21.5875 27.1365 19.9516C29.2757 19.1872 31.0588 20.1607 31.5517 21.5389C32.0914 23.0481 30.9384 24.5643 29.5232 25.2881C27.4821 26.3269 26.0184 27.4267 24.9113 28.7366C23.9881 29.8331 22.2311 33.9284 20.83 49.0302L20.7981 49.3933C20.7125 50.2749 20.6691 51.0781 20.6587 51.8555C20.6566 52.2431 20.3386 52.5537 19.9488 52.5453C19.5611 52.5431 19.2505 52.2251 19.2588 51.8353C19.2705 51.0223 19.3151 50.1834 19.4061 49.2577L19.4381 48.8946C20.5419 37.0921 22.0223 30.001 23.842 27.8316C25.0716 26.3724 26.6712 25.1608 28.8905 24.0301C29.7525 23.5885 30.4939 22.7116 30.2397 22.0007C30.0189 21.3833 29.0603 20.7482 27.6133 21.2653C24.7318 22.2949 20.8588 29.5798 17.2525 40.7574C14.0978 50.5426 12.4144 59.2888 12.8158 60.4113C13.6812 62.831 14.4733 62.548 15.2342 62.2761C15.4649 62.1936 15.6975 62.0965 15.9278 61.9931C16.212 61.8634 16.5828 61.9559 16.7749 62.2178C17.6514 63.4098 18.4547 64.6138 19.23 65.7786C23.5848 72.3107 27.0217 77.4759 38.7471 73.286C44.6784 71.1665 46.0356 66.7007 47.3456 62.3783C48.4816 58.6315 49.5531 55.0977 53.4868 53.6077C57.4989 52.2584 60.5687 54.3123 63.8235 56.4901C67.5779 59.0028 71.4597 61.5965 77.3848 59.4793C89.1102 55.2893 88.4925 49.1168 87.7176 41.3054C87.5785 39.9133 87.4363 38.473 87.3581 36.9958C87.3384 36.6653 87.5687 36.365 87.8707 36.2852C88.1144 36.2192 88.3559 36.147 88.5866 36.0645C89.3475 35.7926 90.1396 35.5096 89.2743 33.0899C88.8728 31.9673 82.0179 26.2723 73.3785 20.7014C63.5069 14.3401 55.8915 11.1604 53.0038 12.1923C51.5568 12.7093 51.2182 13.808 51.439 14.4254C51.6932 15.1363 52.8228 15.3446 53.7695 15.1399C56.203 14.608 58.2062 14.5251 60.0848 14.8807C62.868 15.4054 68.5078 19.9451 76.8467 28.3733L77.1101 28.6379C77.7591 29.2922 78.3319 29.9104 78.8588 30.538C79.1062 30.8364 79.0676 31.2792 78.7754 31.5243C78.4792 31.7778 78.0363 31.7392 77.7889 31.4407C77.2879 30.8461 76.745 30.2524 76.1196 29.6248L75.8562 29.3603C65.1932 18.5834 61.2434 16.5274 59.834 16.2644C58.151 15.9445 56.3238 16.0277 54.0802 16.52C52.5267 16.8571 50.6734 16.4151 50.1337 14.9059C49.6408 13.5276 50.4087 11.6426 52.5417 10.8804C57.1134 9.24679 68.0387 15.6044 74.1493 19.5328C81.3884 24.1973 89.9247 30.7193 90.6072 32.6276C91.5328 35.2157 91.0597 36.6859 89.0701 37.3969C88.9828 37.4281 88.8955 37.4593 88.8019 37.4927C88.8858 38.7498 89.0025 39.9811 89.1229 41.183C89.9268 49.2724 90.6228 56.254 77.8683 60.8116L77.8599 60.8076Z" fill="#D1C143"/>
<path d="M52.2261 48.7774C52.0827 48.8287 51.9392 48.88 51.7958 48.9313C51.696 48.9669 51.5525 49.0182 51.4091 49.0695C48.9207 49.9591 46.2631 49.8048 43.188 49.624C38.3532 49.3407 32.3394 48.9866 23.4148 52.1769C19.5543 53.557 15.9746 55.4275 12.7734 57.7465C12.4558 57.9796 12.0205 57.9031 11.7958 57.5895C11.5712 57.2759 11.6393 56.8366 11.9528 56.612C15.2615 54.2194 18.9592 52.2856 22.9444 50.861C32.1372 47.5748 38.3082 47.936 43.2709 48.2228C46.4886 48.4089 48.9862 48.5289 51.3209 47.6029C51.4893 47.5427 51.6203 47.4959 51.7512 47.449C53.9715 46.6553 55.7442 45.0229 57.981 42.9572C61.631 39.5915 66.1807 35.3978 75.3735 32.1116C79.3588 30.6869 83.4444 29.8383 87.5199 29.5912C87.9049 29.5661 88.236 29.8627 88.2611 30.2476C88.2861 30.6326 87.9917 30.9699 87.6045 30.9888C83.6609 31.231 79.7044 32.0474 75.844 33.4275C66.9193 36.6179 62.4929 40.7042 58.9333 43.9883C56.6698 46.0776 54.7123 47.8816 52.2239 48.7712L52.2261 48.7774Z" fill="#D1C143"/>
<path d="M44.1858 71.5006C44.0049 71.5652 43.8035 71.5528 43.6235 71.4624C43.2844 71.2812 43.1475 70.8589 43.3327 70.5113C45.6072 66.2096 45.8295 61.8536 44.0303 56.8207C41.8499 50.7212 36.9355 51.219 28.0483 54.396C24.4186 55.6936 20.6508 57.3922 20.2039 60.1755C19.9638 61.668 20.1594 63.3565 20.7636 65.0466C21.7981 67.9404 23.2152 70.5075 25.1018 72.8928C25.3429 73.1934 25.2918 73.6407 24.9889 73.8756C24.6883 74.1167 24.2409 74.0656 24.0061 73.7627C22.0267 71.2559 20.5357 68.5605 19.4499 65.5233C18.7655 63.6086 18.5501 61.6881 18.8312 59.9558C19.3906 56.4641 23.3681 54.585 27.5903 53.0757C35.3487 50.3022 42.5429 48.4689 45.361 56.352C47.3028 61.7841 47.0588 66.4925 44.5893 71.1734C44.5069 71.3365 44.3648 71.4506 44.2089 71.5064L44.1858 71.5006Z" fill="#D1C143"/>
<path d="M72.0257 61.5481C71.8636 61.6061 71.6876 61.6057 71.5205 61.5318C66.6455 59.4834 63.4718 55.9968 61.5277 50.5585C58.7097 42.6754 65.4357 39.5324 73.194 36.7589C77.41 35.2518 81.6751 34.1773 84.3276 36.5208C85.6346 37.6783 86.6941 39.3042 87.3786 41.2188C88.4643 44.2561 89.0199 47.2859 89.0783 50.4794C89.0824 50.8648 88.7751 51.1856 88.3898 51.1898C88.0044 51.1939 87.6835 50.8866 87.6794 50.5012C87.6263 47.4605 87.0949 44.5768 86.0604 41.683C85.4562 39.9929 84.5371 38.563 83.4052 37.561C81.2951 35.6917 77.3044 36.7666 73.6747 38.0642C64.7875 41.2412 60.6775 43.9694 62.8579 50.0689C64.6593 55.1081 67.5843 58.3319 72.0704 60.2169C72.4277 60.3705 72.5958 60.7817 72.4484 61.1368C72.3687 61.3271 72.2124 61.4603 72.0378 61.5227L72.0257 61.5481Z" fill="#D1C143"/>
</svg>
