<svg width="95" height="86" viewBox="0 0 95 86" fill="none" xmlns="http://www.w3.org/2000/svg">
<path d="M47.1579 25.0744C46.0372 24.1194 44.7032 25.2936 44.7293 26.4978C44.799 29.8496 44.6621 32.6888 42.1458 35.1917C40.0175 37.3016 37.2158 38.5522 34.2478 38.8563C31.2146 39.1624 28.1034 38.3219 25.5632 36.6553C23.609 35.3765 21.6927 32.8765 19.3954 32.3377C17.7867 35.6161 22.1144 39.6947 24.5151 41.2119C28.229 43.5619 32.8486 44.3139 37.1356 43.4014C41.4225 42.4888 45.4927 40.1375 47.777 36.304C49.8541 32.8225 50.5421 27.9554 47.1604 25.0683L47.1579 25.0744Z" fill="#D1C143" fill-opacity="0.12"/>
<path d="M75.1795 56.1977C74.0779 54.3499 71.4061 55.2101 69.7029 55.1624C65.7615 55.0644 58.8784 53.1797 57.3882 49.0658C57.2171 48.589 56.5195 48.6348 56.3341 49.0742C54.9229 52.447 58.4369 55.9239 61.0414 57.538C64.357 59.5836 70.0002 61.2654 73.7675 59.4845C75.0224 58.8929 75.9896 57.5484 75.1857 56.2002L75.1795 56.1977Z" fill="#D1C143" fill-opacity="0.12"/>
<path d="M57.7861 55.0598C52.465 49.1487 43.5727 43.883 35.2923 45.0195C34.4104 44.7975 33.5043 44.7229 32.5988 44.7702C33.2361 44.4855 33.8465 44.1613 34.3567 43.6965C35.0053 43.1019 35.1794 42.2148 34.6431 41.4754C33.132 39.3686 30.1396 39.627 27.9966 40.4873C25.2115 41.6088 23.0901 43.843 21.1226 46.0325C19.0735 48.3175 17.108 50.3433 14.1461 51.4075C12.6984 51.928 10.7401 52.4916 9.21884 51.9602C7.67055 51.425 7.39916 50.0855 6.62674 48.8358C6.5828 48.768 6.48193 48.7699 6.41656 48.8077C5.08275 49.6818 5.40863 51.4508 6.14966 52.8307C5.72121 52.6712 5.29889 52.5141 4.85683 52.3705C4.76228 52.3393 4.6254 52.4124 4.65557 52.5319C5.63243 56.2375 10.3098 57.992 13.7679 58.33C18.8154 58.8196 23.5436 56.9782 27.8271 54.5061C32.1847 51.9926 35.9141 49.6531 41.1798 50.3098C46.8536 51.0177 51.3261 54.6691 56.3799 56.9052C57.4354 57.3691 58.596 55.953 57.7886 55.0537L57.7861 55.0598Z" fill="#D1C143" fill-opacity="0.12"/>
<path d="M74.3477 73.3287C75.68 67.7367 75.9696 62.1076 78.9633 57.0538C81.5713 52.6512 84.1935 47.1037 82.0662 41.9879C81.693 41.0932 80.3598 41.1026 79.9938 42.0048C79.2131 43.9467 78.7825 45.9949 78.0632 47.9616C77.2704 50.1273 76.0832 51.9614 74.671 53.7686C71.9852 57.2177 69.7411 60.3885 68.72 64.7201C68.229 66.7938 68.0279 68.9279 67.6696 71.0269C67.4581 72.2705 67.2828 74.6581 66.1851 75.5493C63.1932 77.9736 58.6255 72.3896 56.4842 71.1492C56.2818 71.0314 56.0205 71.1469 56.0439 71.4066C56.5012 75.7233 59.9408 79.8419 64.2685 80.6613C69.4195 81.6359 73.2001 78.1308 74.3453 73.3348L74.3477 73.3287Z" fill="#D1C143" fill-opacity="0.12"/>
<path d="M57.1485 51.8921C56.4555 51.5038 55.2464 52.0354 54.7565 52.6085C54.3075 53.134 53.7646 53.4855 53.2018 53.8862C52.9204 54.0865 53.1335 54.5303 53.4572 54.4901C53.8103 54.4475 54.1635 54.405 54.5167 54.3624C54.8847 54.3187 55.1489 54.3545 55.5116 54.3944C55.8619 54.4293 56.2243 54.2761 56.5531 54.1879C57.0851 54.0393 57.5303 53.8053 57.715 53.2441C57.9036 52.6559 57.6649 52.1874 57.146 51.8983L57.1485 51.8921Z" fill="#D1C143" fill-opacity="0.12"/>
<path d="M71.6801 48.8246C71.5017 47.5729 69.655 46.9453 68.9016 48.0977C68.5174 48.6923 68.2569 49.6516 67.4069 49.6855C66.4978 49.7241 66.0239 48.7957 65.5262 48.2078C65.0615 47.6619 64.3596 47.8418 64.0358 48.4109C62.9131 50.3855 65.2778 52.7315 67.1574 52.9079C69.3776 53.1082 72.0212 51.243 71.6715 48.8283L71.6801 48.8246Z" fill="#D1C143" fill-opacity="0.12"/>
<path d="M67.3486 42.5358C67.2585 42.1061 66.9356 41.7393 66.4832 41.6915C65.3781 41.5791 64.6998 42.4404 63.7049 42.6729C62.859 42.873 61.9934 42.3288 61.5083 41.6746C61.1735 41.2314 60.3394 41.279 60.1619 41.8574C59.5807 43.7658 61.1564 45.4843 63.0347 45.6817C64.7422 45.8598 67.8014 44.7494 67.3486 42.5358Z" fill="#D1C143" fill-opacity="0.12"/>
<path d="M72.2546 37.7718C71.8773 38.2262 71.4345 38.2253 70.8916 38.0836C70.3426 37.9395 69.744 37.8468 69.5721 37.2839C69.4208 36.7937 68.8231 36.787 68.474 36.9957C67.8462 37.3628 67.6058 38.2373 67.8657 38.9002C68.19 39.7394 69.0679 40.2885 69.8534 40.6429C71.6365 41.4449 73.9169 41.1621 74.7775 39.2169C75.464 37.6657 73.2926 36.5346 72.2608 37.7743L72.2546 37.7718Z" fill="#D1C143" fill-opacity="0.12"/>
<path d="M76.1401 45.5661C75.3966 45.7076 74.848 46.2141 74.1141 46.4024C73.837 46.4687 73.5738 46.4834 73.2898 46.4611C73.1791 46.4519 73.0585 46.4673 72.9517 46.4311C72.8719 46.3988 72.8208 46.278 72.8547 46.4061C72.7327 45.9492 72.2311 45.6528 71.8052 45.9803C70.4743 47.0057 71.7557 48.7978 72.9391 49.2636C74.6527 49.9373 77.0134 49.5799 77.9075 47.8341C78.4738 46.7201 77.3084 45.3468 76.1315 45.5698L76.1401 45.5661Z" fill="#D1C143" fill-opacity="0.12"/>
<path d="M39.9872 30.1705C40.2613 28.7021 40.1424 27.11 39.2162 25.8694C38.7653 25.2719 38.1696 25.1018 37.6455 24.6318C36.9904 24.0444 37.126 24.4854 37.5089 23.3828C37.998 21.9659 36.3073 21.1299 35.3283 22.1336C34.2974 23.1949 33.7435 25.0358 34.7088 26.3209C35.4982 27.3701 36.5798 27.2586 36.6158 28.9671C36.6685 31.0041 35.3804 30.8318 33.88 30.5661C33.1083 30.4246 32.3997 30.9734 32.0915 31.6274C31.8156 32.2016 31.9991 32.9122 31.8551 33.4256C31.976 32.8457 30.8227 33.0282 30.2255 32.9146C29.6824 32.8086 27.5497 32.5866 27.1957 32.2787C26.3225 31.5241 27.0291 29.8881 27.1234 28.9686C27.1569 28.6392 26.9679 28.3123 26.6574 28.1792C25.8841 27.8655 25.2781 27.7912 24.4513 27.856C23.9875 27.8894 23.8755 28.6588 24.3373 28.789C24.7415 28.8672 25.127 29.0093 25.4815 29.2103C25.0983 30.3485 24.5528 31.4995 24.8937 32.7028C25.3242 34.214 26.9012 34.6608 28.2347 35.1088C29.6566 35.5856 31.7353 36.5576 33.2821 36.1273C34.4977 35.7913 34.6749 35.0198 34.8771 34.1513C37.4446 34.2708 39.4291 33.1318 39.9786 30.1741L39.9872 30.1705Z" fill="#D1C143" fill-opacity="0.12"/>
<path d="M47.6177 25.1394C47.6584 24.8629 47.6111 24.4863 47.4746 24.2237C47.4641 23.862 47.333 23.5158 47.1219 23.1729C46.9352 22.8755 46.5891 22.7066 46.2315 22.6544C46.2365 22.6421 46.2317 22.6187 46.2367 22.6065C46.3773 22.0131 45.5746 21.666 45.1487 21.9936C44.6525 22.3712 44.3511 22.885 44.3111 23.5121C44.295 23.7986 44.3083 24.0827 44.3721 24.3659C44.4082 24.5235 44.4566 24.6861 44.5186 24.8328C44.5442 24.8932 44.8576 25.442 44.7296 25.2114C44.8576 25.442 45.0433 25.6889 45.2775 25.834C45.6228 26.1456 46.0672 26.3187 46.5559 26.2239C47.1124 26.1209 47.5338 25.6986 47.6116 25.137L47.6177 25.1394Z" fill="#D1C143" fill-opacity="0.12"/>
<path d="M66.473 78.2036C61.8277 77.1982 59.7187 71.368 59.1711 67.1504C58.6458 63.142 59.8768 58.9098 58.3079 55.0427C56.9262 51.6303 53.6805 49.1128 50.7114 47.1292C47.1722 44.7714 43.1694 42.1468 38.9157 41.286C38.8588 41.0914 38.802 40.8968 38.739 40.6997C38.6639 40.462 38.3358 40.4075 38.1567 40.5493C37.7889 40.8217 37.4283 41.1115 37.0739 41.4037C36.3923 41.9563 36.3997 42.9599 37.0759 43.513C40.9261 46.6545 45.7594 48.4652 49.7691 51.4428C51.5925 52.7972 53.2393 54.323 54.3611 56.3148C55.6646 58.6162 55.5771 60.9107 55.6272 63.4827C55.7057 67.5528 56.7188 71.6448 58.69 75.2248C60.2761 78.0983 63.1145 81.4083 66.7346 80.0608C67.719 79.6954 67.3404 78.3911 66.4669 78.2011L66.473 78.2036Z" fill="#D1C143" fill-opacity="0.12"/>
<path d="M80.2935 36.3155C79.6019 35.6418 78.2991 36.457 78.5037 37.362C79.7811 43.0049 79.0033 48.1285 74.0574 51.7399C71.3987 53.6775 68.4293 54.7601 65.3417 53.1215C62.741 51.7448 60.3741 49.8626 58.9255 47.3022C58.7535 47.0037 58.338 46.9709 58.1863 47.3096C56.7925 50.3751 60.5749 53.5606 62.6625 55.2152C66.4556 58.2335 70.4957 57.9999 74.5977 55.6758C80.8248 52.1482 86.6343 42.4616 80.3021 36.3118L80.2935 36.3155Z" fill="#D1C143" fill-opacity="0.12"/>
<path d="M76.1336 24.2998C74.3917 23.8718 73.0302 24.6203 71.1797 23.7553C69.4557 22.9486 67.9273 21.6067 66.3991 20.4935C64.0068 18.744 61.2734 16.3557 58.0801 16.7041C56.0447 16.929 53.7192 18.38 53.5963 20.6387C53.5288 21.8622 54.2632 22.3245 55.1441 23.0249C56.3325 23.9716 57.5615 24.9062 58.844 25.7267C58.7817 25.8801 58.7318 26.0386 58.6634 26.1895C58.6111 26.3184 58.6457 26.5326 58.7794 26.6082C59.7826 27.201 60.602 26.8902 61.224 25.956C61.6043 25.3885 61.5066 24.7484 61.0045 24.2946C59.8854 23.2831 58.6115 22.4589 57.371 21.6055C56.9849 21.3416 56.0023 20.8215 55.9189 20.516C55.7146 19.8042 57.4755 19.1105 58.0823 19.0065C61.0648 18.5082 64.0576 21.7021 66.2375 23.3584C68.3707 24.9886 74.7561 29.5804 76.8179 25.4494C77.0875 24.9083 76.6176 24.4104 76.1299 24.2911L76.1336 24.2998Z" fill="#D1C143" fill-opacity="0.12"/>
<path d="M12.7708 51.857C11.2731 51.7783 9.792 51.3418 8.74351 50.2089C7.84794 49.2452 7.56391 47.972 7.03335 46.8133C6.95791 46.6469 6.71339 46.5978 6.59823 46.7583C5.55657 48.2513 6.11248 50.2636 7.15129 51.6142C8.476 53.3524 10.6885 54.1356 12.799 53.6196C13.7029 53.4001 13.8602 51.9201 12.7769 51.8595L12.7708 51.857Z" fill="#D1C143" fill-opacity="0.12"/>
<path d="M76.6268 72.009C76.6789 69.9074 76.4123 67.8337 76.2072 65.7492C75.9261 62.8834 76.0914 60.2559 76.4362 57.4153C76.5771 56.2574 75.1428 55.8113 74.4354 56.6036C69.7373 61.8594 74.2776 69.748 70.9669 75.4952C67.191 82.0542 60.0693 74.362 56.6356 71.5681C56.4959 71.4542 56.2839 71.554 56.2646 71.7249C55.286 78.947 65.6961 85.6862 71.7975 81.693C75.0475 79.5664 76.5296 75.7721 76.6206 72.0065L76.6268 72.009Z" fill="#D1C143" fill-opacity="0.12"/>
<path d="M18.4649 32.782C18.3422 32.7322 18.2282 32.6431 18.1476 32.5246C16.8752 30.6576 15.9235 25.5685 17.2208 22.3709C20.1961 15.0368 28.6566 12.0293 36.899 15.3731C39.4092 16.3915 41.5835 17.9383 43.1951 19.8501C43.4471 20.1452 43.4105 20.5878 43.1091 20.8372C42.814 21.0892 42.3677 21.0439 42.1219 20.7512C40.6607 19.0148 38.6752 17.6018 36.3737 16.6681C28.745 13.5732 21.2408 16.1968 18.5219 22.8988C17.4438 25.5563 18.2282 30.1415 19.3064 31.7297C19.5274 32.0481 19.4429 32.4855 19.1184 32.704C18.9184 32.8445 18.6699 32.858 18.4613 32.7734L18.4649 32.782Z" fill="#D1C143"/>
<path d="M27.1895 40.3813C25.8454 39.836 24.6563 39.032 23.6505 37.9878C23.3788 37.7061 23.3859 37.2658 23.6676 36.9942C23.9469 36.7286 24.3871 36.7357 24.6613 37.0113C25.5313 37.9146 26.5574 38.6096 27.7173 39.0802C32.8911 41.1791 40.3274 38.8639 43.3276 31.4685C44.6348 28.2464 44.247 26.0663 43.2001 23.5903C43.0506 23.2366 43.2174 22.8254 43.5736 22.6697C43.9273 22.5202 44.3385 22.687 44.4942 23.0432C45.6505 25.778 46.1127 28.3384 44.6287 31.9963C41.3023 40.1958 32.9893 42.7342 27.1895 40.3813Z" fill="#D1C143"/>
<path d="M62.2494 79.242C54.6575 76.1621 54.9783 64.9063 55.2042 56.6855C55.2218 56.1137 55.2343 55.5542 55.2481 55.0094C54.4382 53.1298 52.4335 50.3367 44.9214 47.2892C39.1278 44.9388 31.2077 43.0908 26.3753 47.6203C18.6172 54.8867 12.2294 57.5772 7.38709 55.6128C5.12855 54.6965 2.6852 51.0822 5.20243 44.8773C6.35024 42.048 7.96814 39.4165 9.52779 36.8758C10.3708 35.5024 11.2375 34.0886 12.0119 32.6731C12.7652 31.2919 13.5762 29.927 14.3612 28.6087C15.0358 27.4743 15.734 26.2995 16.3953 25.1097C16.5827 24.7712 17.0101 24.6515 17.3486 24.8389C17.6871 25.0263 17.8068 25.4536 17.6194 25.7921C16.9445 26.9978 16.2438 28.1788 15.5642 29.3254C14.7903 30.634 13.9843 31.9866 13.2409 33.3432C12.448 34.787 11.5739 36.2192 10.7172 37.6085C9.18362 40.1026 7.60289 42.6777 6.4974 45.4027C4.3661 50.6562 6.17807 53.607 7.9088 54.3092C13.2544 56.4778 20.375 51.3114 25.4124 46.5935C30.7872 41.5551 39.2751 43.4833 45.4432 45.9856C53.6242 49.3045 55.7253 52.4941 56.598 54.6064C56.6345 54.6927 56.6512 54.7924 56.6532 54.8933C56.6404 55.4885 56.6202 56.1021 56.6012 56.7305C56.3739 64.9722 56.0851 75.2331 62.7687 77.9445C66.1074 79.299 68.6443 78.1196 70.0958 74.5416C71.281 71.6202 72.7044 64.0067 74.0761 56.6438L74.5219 54.2587C74.5902 53.879 74.9567 53.6275 75.3425 53.6982C75.7197 53.7726 75.9713 54.1392 75.903 54.5189L75.4597 56.8978C74.0729 64.3332 72.6369 72.013 71.397 75.0694C69.6491 79.3778 66.316 80.8989 62.2408 79.2457L62.2494 79.242Z" fill="#D1C143"/>
<path d="M63.5377 55.8062C56.9707 53.1421 56.1057 47.9452 55.7771 45.9893C55.7496 45.828 55.7294 45.684 55.7028 45.5732C55.6223 45.1903 55.8701 44.8262 56.2468 44.7432C56.6211 44.6663 56.9938 44.9104 57.0768 45.2872C57.1045 45.4128 57.1258 45.5715 57.1581 45.7562C57.4772 47.6653 58.2228 52.1348 64.0655 54.5051C69.5891 56.7459 76.5849 55.4814 79.7744 47.6195C82.0526 42.0038 80.9531 34.9535 73.3612 31.8736C70.5196 30.7208 67.2669 30.3876 64.203 30.9457C61.4049 31.4473 58.7168 33.616 57.6636 36.2121C57.5292 36.5436 57.4193 36.8849 57.3389 37.224C57.2497 37.6024 56.8698 37.8342 56.4914 37.745C56.1069 37.6534 55.8812 37.2759 55.9704 36.8975C56.0658 36.486 56.2007 36.0832 56.3625 35.6843C57.6049 32.6218 60.6561 30.1572 63.9551 29.5658C67.28 28.9634 70.8081 29.3226 73.8952 30.575C80.0141 33.0573 84.6097 39.4532 81.0816 48.1498C78.0515 55.6189 70.8411 58.7691 63.5438 55.8087L63.5377 55.8062Z" fill="#D1C143"/>
<path d="M64.5784 30.9697C64.4802 30.9299 64.392 30.8655 64.3174 30.7852C63.7339 30.1268 62.8619 29.387 60.4376 28.4036C58.0134 27.4201 55.6949 26.6868 53.3482 25.9349C50.6356 25.0631 47.826 24.1663 45.1627 23.0144C44.8093 22.8638 44.6428 22.4461 44.7995 22.0951C44.95 21.7416 45.3505 21.5825 45.7065 21.7269C48.3293 22.8552 51.0971 23.7494 53.779 24.6087C56.1564 25.373 58.6124 26.155 60.9691 27.1111C63.6572 28.2016 64.6738 29.0786 65.3649 29.8593C65.6193 30.1483 65.5974 30.5897 65.3059 30.8503C65.1033 31.0325 64.8153 31.073 64.576 30.9759L64.5784 30.9697Z" fill="#D1C143"/>
<path d="M46.861 22.9525C46.4989 22.8056 46.3274 22.4001 46.4743 22.038C46.5241 21.9153 46.5691 21.7691 46.6191 21.6107C46.689 21.4032 46.7577 21.1809 46.8399 20.9784C47.2308 20.0148 48.3624 19.7449 50.1977 20.1893C51.4544 20.4918 52.8255 21.0409 53.7436 21.4205L53.9216 21.4927C54.4678 21.7143 55.769 22.2422 56.8914 22.8405C58.1782 23.5269 59.4384 24.3669 59.0127 25.4164C58.938 25.6006 58.8349 25.8017 58.7307 25.9882C58.6636 26.1182 58.5954 26.2335 58.5531 26.3378C58.4062 26.6999 58.0007 26.8714 57.6386 26.7245C57.2765 26.5776 57.1051 26.1721 57.252 25.81C57.3092 25.6688 57.3999 25.4983 57.4905 25.3278C57.5451 25.2285 57.5997 25.1291 57.6457 25.0334C57.455 24.7988 56.6625 24.1271 53.422 22.8124L53.2072 22.7253C52.3418 22.3742 51.0161 21.8364 49.8626 21.5614C48.5395 21.2462 48.1598 21.4424 48.1299 21.516C48.0602 21.6879 48.0003 21.8708 47.9428 22.0477C47.8804 22.2368 47.8204 22.4197 47.7607 22.567C47.6138 22.9291 47.2083 23.1006 46.8462 22.9537L46.861 22.9525Z" fill="#D1C143"/>
<path d="M52.4509 21.7686C52.4509 21.7686 52.4264 21.7586 52.408 21.7511C52.062 21.5822 51.9103 21.1633 52.0792 20.8173C54.1891 16.427 56.3802 14.2854 61.3453 16.2997C63.8678 17.323 65.2104 18.9112 66.3954 20.3068C67.3186 21.3961 68.1208 22.3433 69.3237 22.8314C71.1526 23.5733 73.3841 23.235 75.0027 21.9761C75.3076 21.7353 75.7489 21.7928 75.9897 22.0977C76.2305 22.4027 76.173 22.844 75.868 23.0848C73.8544 24.648 71.0851 25.0612 68.802 24.135C67.28 23.5175 66.331 22.4035 65.332 21.2191C64.2021 19.8816 63.0269 18.4971 60.8236 17.6033C56.7852 15.9649 55.2565 17.4604 53.3455 21.431C53.1815 21.7648 52.7921 21.9141 52.4485 21.7747L52.4509 21.7686Z" fill="#D1C143"/>
<path d="M26.3674 33.1933C26.2201 33.1335 26.0988 33.0272 26.0196 32.8878C25.9232 32.7201 25.9046 32.5195 25.9559 32.3402C26.1946 31.5579 26.4813 30.7808 26.758 30.0282C26.8901 29.6672 27.0248 29.3002 27.1569 28.9392C26.2908 28.7308 25.4299 28.4745 24.5803 28.1727C24.2255 28.043 24.0318 27.6571 24.1492 27.2973C24.3102 26.8123 24.501 26.2893 24.7549 25.6633C24.9143 25.2705 25.0736 24.8777 25.2452 24.4899C25.4021 24.1033 25.5688 23.7277 25.7256 23.3411L25.753 23.2736C25.8227 23.1017 25.9575 22.9634 26.13 22.8904C26.3026 22.8175 26.5079 22.8222 26.6675 22.8869L27.2014 23.1035C28.03 23.4397 28.7187 23.6976 29.3523 23.8975C29.7219 22.7752 30.0977 21.6197 30.4255 20.4947C30.4793 20.3092 30.6092 20.1475 30.7867 20.0623C30.9581 19.9746 31.1623 19.9645 31.3489 20.0331C32.7816 20.5714 34.2521 20.9107 35.896 21.2631C36.0803 21.3021 36.2409 21.4173 36.3422 21.5728C36.441 21.7344 36.477 21.9276 36.4318 22.1094C36.0965 23.5173 35.6103 24.8567 35.1421 26.0462C36.0587 26.4824 36.9342 26.7732 37.7588 26.9076C37.9517 26.943 38.1147 27.0521 38.2283 27.2125C38.3358 27.3704 38.3692 27.5699 38.3277 27.7603C38.1984 28.3082 38.0776 28.8524 37.9544 29.4028C37.7658 30.2555 37.5734 31.0995 37.3664 31.9446C37.2848 32.2689 36.9874 32.4913 36.6504 32.4761C35.4602 32.415 34.3176 32.1659 33.2981 31.8952C33.0607 32.6566 32.8739 33.3813 32.7277 34.0939C32.6887 34.2782 32.5858 34.4438 32.4217 34.5488C32.2601 34.6476 32.0669 34.6835 31.8826 34.6445C30.8052 34.3932 29.7243 34.0977 28.6802 33.8171C27.9396 33.6167 27.2051 33.4188 26.4656 33.2331C26.4349 33.2207 26.4017 33.2144 26.371 33.2019L26.3674 33.1933ZM28.3433 27.7766C28.4845 27.8339 28.6057 27.9402 28.6874 28.0735C28.7874 28.2498 28.8123 28.4529 28.7498 28.642C28.5438 29.2732 28.3108 29.9005 28.0827 30.5156C27.8919 31.0386 27.7001 31.5468 27.5316 32.0503C28.0352 32.1831 28.5449 32.3184 29.046 32.4574C29.8567 32.679 30.6821 32.8995 31.5125 33.1078C31.6859 32.3633 31.906 31.6092 32.1793 30.8123C32.3003 30.4612 32.6826 30.2589 33.0387 30.3676C33.966 30.6366 35.0395 30.9149 36.1422 31.0334C36.2966 30.3885 36.4363 29.7447 36.5846 29.0973C36.6575 28.7766 36.7279 28.4621 36.8008 28.1415C35.8795 27.9107 34.9196 27.5284 33.9283 27.0119C33.6094 26.8468 33.4723 26.4623 33.6067 26.1309C34.1445 24.8053 34.5708 23.6488 34.8926 22.4856C33.7316 22.2291 32.6469 21.9605 31.5762 21.6048C31.2811 22.5787 30.9652 23.5512 30.6531 24.4967L30.4871 24.994C30.3722 25.3476 29.9961 25.5524 29.6375 25.4498C28.5775 25.1556 27.5697 24.7682 26.7939 24.4606C26.7142 24.657 26.6345 24.8534 26.5487 25.0473C26.3918 25.4339 26.2227 25.8156 26.0683 26.1961C25.9389 26.5153 25.8193 26.8099 25.7246 27.0788C26.5534 27.3435 27.3911 27.569 28.2303 27.7379C28.2696 27.7467 28.3151 27.758 28.3519 27.773L28.3433 27.7766Z" fill="#288357"/>
<path d="M69.7791 39.0473C68.3736 38.4772 67.7108 36.9575 68.266 35.5888C68.8885 34.0545 70.7504 33.3232 72.1978 34.1248L72.2972 34.1794C72.4395 34.2514 72.6432 34.3484 72.8304 34.5387C73.7691 35.4842 74.0398 36.4731 73.6339 37.4735C73.0513 38.9096 71.2521 39.6449 69.7791 39.0473ZM71.3767 35.2855C70.7139 35.0166 69.8535 35.4109 69.5671 36.1167C69.3082 36.755 69.6318 37.4723 70.3069 37.7462C71.1171 38.0749 72.0764 37.5778 72.3328 36.9456C72.4698 36.6081 72.5062 36.2012 71.8294 35.5263C71.8098 35.5041 71.7448 35.4706 71.6736 35.4346C71.6184 35.4121 71.5656 35.3836 71.5092 35.3464C71.4601 35.3265 71.4197 35.3029 71.3706 35.283L71.3767 35.2855Z" fill="#288357"/>
<path d="M62.6291 43.4228C61.2114 42.8476 60.5163 41.372 61.0442 40.0709C61.4799 38.9969 62.9224 37.7666 64.3831 38.3592C65.2853 38.7252 65.9543 39.4898 66.159 40.3948C66.2698 40.8615 66.2129 41.6889 66.0486 42.094C65.6726 43.0207 64.1143 44.0253 62.6291 43.4228ZM63.8553 39.6603C63.3029 39.4363 62.5569 40.0771 62.3453 40.5987C62.0739 41.2677 62.5591 41.8863 63.1545 42.1278C63.8541 42.4116 64.6465 41.8325 64.7511 41.5748C64.8059 41.4397 64.8428 40.9258 64.7935 40.7128C64.6357 40.027 64.0394 39.735 63.8553 39.6603Z" fill="#288357"/>
<path d="M66.0954 50.84C64.8188 50.3221 64.1313 48.5637 64.6791 47.2135C65.07 46.2499 66.5318 44.8488 68.06 45.4688C68.2503 45.546 68.4404 45.6588 68.6144 45.7937C69.0763 46.1527 69.706 46.644 69.9824 47.478C70.1496 47.9819 70.0647 48.7551 69.8929 49.1785C69.5518 50.0194 67.7648 51.5173 66.0954 50.84ZM67.5322 46.7699C66.9123 46.5184 66.1495 47.324 65.9777 47.7475C65.7212 48.3796 66.0623 49.3185 66.6208 49.545C67.4186 49.8687 68.4625 48.9342 68.5979 48.6532C68.6726 48.4691 68.6967 48.0572 68.6506 47.9241C68.5185 47.5274 68.194 47.2528 67.7504 46.9013C67.6806 46.8444 67.6058 46.7998 67.5383 46.7724L67.5322 46.7699Z" fill="#288357"/>
<path d="M73.3887 47.838C71.836 47.208 71.4412 45.4326 71.9616 44.1499C72.4297 42.9961 73.5407 42.1602 74.7959 42.0262C75.0936 41.9969 75.3849 42.0364 75.6673 42.151C76.6185 42.5369 78.1493 44.1371 77.3625 46.0765C76.4662 48.2859 74.1375 48.1417 73.3887 47.838ZM75.1394 43.4521C75.0719 43.4247 75.0117 43.4146 74.944 43.4228C74.2044 43.5016 73.528 44.0063 73.2541 44.6814C72.9802 45.3565 73.1837 46.2467 73.9141 46.543C73.9263 46.548 75.4813 46.9787 76.0589 45.5548C76.5395 44.3703 75.3272 43.5354 75.1369 43.4582L75.1394 43.4521Z" fill="#288357"/>
<path d="M48.8218 35.9131C47.8705 35.5272 46.9305 35.0958 46.1009 34.7093C45.7525 34.5465 45.5921 34.1312 45.7574 33.7766C45.9203 33.4281 46.3478 33.2727 46.6902 33.4331C47.5038 33.806 48.429 34.2385 49.3496 34.612C50.35 35.0179 51.2316 35.3112 52.0497 35.5145C52.4256 35.6098 52.6513 35.9872 52.5621 36.3656C52.4668 36.7415 52.0869 36.9733 51.711 36.878C50.829 36.656 49.8835 36.3439 48.8218 35.9131Z" fill="#D1C143"/>
<path d="M47.4298 38.8506C46.5399 38.4896 45.6526 38.0868 44.7055 37.6025C44.362 37.4274 44.2189 37.0048 44.394 36.6613C44.5691 36.3178 44.9831 36.1784 45.3352 36.3498C47.4356 37.4092 49.2929 38.1341 51.2778 38.6678C51.6537 38.7631 51.8744 39.1528 51.773 39.5262C51.6715 39.8996 51.2879 40.1228 50.9145 40.0213C49.7341 39.7069 48.5898 39.3212 47.4237 38.8482L47.4298 38.8506Z" fill="#D1C143"/>
</svg>
