<svg width="108" height="117" viewBox="0 0 108 117" fill="none" xmlns="http://www.w3.org/2000/svg">
<path d="M74.1783 36.9283C75.1675 32.2453 73.137 26.4033 70.0206 22.9076C69.1888 21.9809 67.3484 22.978 68.0768 24.1355C69.7434 26.7955 70.4117 32.5337 69.4635 35.5535C68.9971 37.0423 68.0455 38.1526 66.9024 39.0781C66.8131 39.1126 66.73 39.1302 66.6376 39.1732C64.5223 40.2139 62.4809 41.3678 60.3195 42.3245C59.3009 42.7776 58.1534 43.4521 57.0642 43.6781C57.0442 43.6803 57.0242 43.6826 57.0041 43.6849C60.8706 40.8667 63.2701 36.4969 63.696 31.6756C63.8175 30.2912 61.7731 29.8235 61.3 31.1467C59.8635 35.2158 57.2514 38.2231 53.6226 40.4952C52.938 40.9263 52.5925 41.5578 52.5056 42.2165C52.2345 42.434 52.0595 42.7825 52.0945 43.1596C52.5934 48.9416 57.6265 48.4188 62.2955 46.5549C62.7032 46.7516 63.1595 46.8413 63.6313 46.7833C68.3197 46.1539 73.2116 41.5235 74.1876 36.9029L74.1783 36.9283Z" fill="#D1C143" fill-opacity="0.12"/>
<path d="M48.8043 53.677C49.8707 48.6771 47.3418 44.1491 44.0787 40.293C43.3945 39.4873 42.0207 40.3094 42.4945 41.2973C43.7141 43.8421 44.957 46.875 44.6685 49.7423C42.5747 48.7004 40.4769 47.6954 38.4587 46.4989C36.5242 45.3617 34.6252 47.9388 36.4178 49.3598C38.5587 51.0613 40.7781 52.7052 43.1471 54.0968C43.1277 54.2815 43.1083 54.4662 43.1319 54.6379C37.9752 56.4197 32.835 55.4747 27.2632 54.4777C26.1205 54.2718 25.4922 56.0467 26.476 56.6357C33.2592 60.6732 41.9517 62.5784 48.9193 57.9093C50.5166 56.8427 50.0369 54.7404 48.8043 53.677Z" fill="#D1C143" fill-opacity="0.12"/>
<path d="M79.9071 63.8339C76.0586 65.7094 73.438 68.0041 68.8315 67.5414C65.5293 67.2094 62.4663 65.6701 60.0758 63.4173C62.0417 63.1276 63.9488 63.2096 65.9008 63.7203C69.0123 64.5485 69.8331 59.6699 66.8094 59.5737C66.126 59.5546 65.4417 59.5639 64.7652 59.6047C66.352 59.0137 68.0009 58.6468 69.7298 58.3761C72.2515 57.9823 71.5429 53.9842 69.0188 54.4634C65.661 55.0987 62.5176 56.9341 60.0278 59.2382C59.5948 59.6364 59.5105 60.1042 59.6332 60.5038C59.3345 60.5866 59.0412 60.681 58.7478 60.7753C58.4545 60.8697 58.2504 61.0349 58.1109 61.2334C57.4082 60.4784 56.3199 61.28 56.4314 62.1837C56.3444 62.1328 56.2514 62.0988 56.1467 62.0702C54.1109 61.5002 52.0036 61.5465 49.9321 61.9415C48.1586 62.2822 48.684 64.7848 50.4204 64.6511C52.1368 64.5197 53.8012 64.82 55.4825 65.1265C56.3358 65.2844 56.9291 64.657 57.1007 63.9237C59.131 68.3465 62.9966 71.6553 67.9235 72.58C72.8505 73.5048 80.1104 72.0299 82.8757 67.4196C84.0476 65.469 82.201 62.7242 79.904 63.8424L79.9071 63.8339Z" fill="#D1C143" fill-opacity="0.12"/>
<path d="M62.9577 83.8286C63.1356 82.973 61.9762 82.5501 61.3847 83.0151C59.543 84.4624 58.0765 86.3534 56.7191 88.313C57.3624 86.9176 57.9411 85.489 58.4236 84.0349C58.4638 83.9249 58.4754 83.814 58.4786 83.7001C61.5072 84.3351 63.192 79.7429 60.0981 78.9978C49.6107 76.4666 39.4825 72.6088 28.9047 70.4569C27.8505 70.2449 27.3609 71.8499 28.1977 72.3949C35.2674 76.9875 43.2579 79.7394 51.3783 81.925C49.7061 87.7971 46.4059 93.0849 43.562 98.4624C43.4386 98.6955 43.3183 98.9201 43.198 99.1447C43.0985 99.3386 43.0306 99.5247 42.9743 99.7056C41.2808 99.222 39.6345 98.5831 38.3295 98.27C34.6332 97.3627 29.8162 97.1877 26.5304 95.2603C25.4005 94.5988 24.3215 96.0846 25.3465 96.9284C29.729 100.502 35.9149 102.26 41.1595 104.154C45.4902 105.715 50.6152 107.096 53.8513 102.772C54.3931 102.049 54.4386 101.241 54.1907 100.527C55.6878 98.1585 57.1456 95.7657 58.5442 93.3513C60.2874 90.3339 62.2245 87.3104 62.9338 83.8679L62.9577 83.8286Z" fill="#D1C143" fill-opacity="0.12"/>
<path d="M85.3266 43.1428C85.2185 43.439 85.0288 43.8013 84.4548 43.6398C84.1355 43.5425 83.8981 43.1682 83.6852 42.9371C83.2593 42.4749 82.8064 42.0604 82.298 41.6928C81.3067 40.9668 80.149 41.9061 80.241 42.9944C80.4525 45.4112 81.4959 47.8343 84.0411 48.5327C86.7164 49.2689 89.6795 47.6649 90.5619 45.0622C91.7113 41.6747 86.4791 39.7468 85.3235 43.1512L85.3266 43.1428Z" fill="#D1C143" fill-opacity="0.12"/>
<path d="M42.9188 13.6919C41.69 12.5916 40.1407 12.6593 38.816 13.5569C37.8718 14.2001 37.6294 14.9171 36.4307 15.2853C36.1836 15.3582 35.8942 15.4156 35.6371 15.4369C35.5486 15.443 35.33 15.4112 35.1453 15.3918C34.7286 14.3 33.1111 14.0551 32.2284 14.74C31.0661 15.6392 30.9151 17.2622 31.5611 18.5143C32.2908 19.9312 33.9179 20.5439 35.3984 20.7963C37.9877 21.2423 42.0323 20.3013 43.3571 17.7737C44.0797 16.3976 44.1836 14.8246 42.9188 13.6919Z" fill="#D1C143" fill-opacity="0.12"/>
<path d="M17.5094 78.5353C17.027 78.3593 16.5485 78.1464 16.0962 77.9143C15.6047 77.6583 15.4052 77.0485 15.6613 76.557C15.9173 76.0655 16.527 75.866 17.0185 76.122C17.7293 76.4868 18.5048 76.7793 19.3142 76.9786C19.8521 77.1077 20.1871 77.6614 20.058 78.1993C19.9258 78.7456 19.3752 79.0721 18.8374 78.943C18.3872 78.8363 17.941 78.6927 17.5179 78.5384L17.5094 78.5353ZM24.7197 78.8259C24.4235 78.7178 24.1852 78.4775 24.0916 78.1557C23.9413 77.6214 24.2505 77.063 24.7879 76.9042L24.8741 76.8781C25.4115 76.7194 25.973 77.0201 26.1318 77.5575C26.2905 78.0948 25.9898 78.6563 25.4524 78.8151L25.3431 78.8519C25.1306 78.9087 24.9144 78.8969 24.7197 78.8259ZM11.9429 73.791C11.7145 73.7076 11.5168 73.5397 11.3893 73.3109C11.1973 72.9436 11.0283 72.5656 10.8825 72.1768C10.6806 71.6525 10.5103 71.1205 10.3685 70.5893C10.2297 70.0496 10.5474 69.4943 11.087 69.3555C11.6267 69.2168 12.182 69.5344 12.3208 70.0741C12.4419 70.5306 12.5969 70.9995 12.7719 71.466C12.8886 71.7771 13.0337 72.0889 13.185 72.3839C13.4446 72.8813 13.2508 73.4914 12.7565 73.7426C12.4962 73.8778 12.2053 73.8867 11.9429 73.791ZM10.8396 65.2763C10.3656 65.1034 10.0891 64.5998 10.2027 64.1042C10.3164 63.6087 10.467 63.1171 10.6429 62.6347C10.8004 62.2031 10.9894 61.7638 11.1976 61.3508C11.4483 60.8477 12.058 60.6482 12.5526 60.8958C13.0557 61.1464 13.2583 61.7477 13.0076 62.2508C12.8326 62.5992 12.6798 62.9654 12.547 63.3293C12.4019 63.7271 12.2792 64.1425 12.1848 64.5588C12.0642 65.0997 11.519 65.4378 10.978 65.3172C10.9357 65.3018 10.9019 65.2894 10.8596 65.274L10.8396 65.2763ZM15.7046 58.2484C15.51 58.1774 15.337 58.0472 15.214 57.8585C14.9051 57.391 15.0366 56.7677 15.4956 56.4557C16.1548 56.0154 16.8286 55.6667 17.5085 55.4065C17.7302 55.3244 17.9604 55.2453 18.1875 55.1748C18.7249 55.016 19.2864 55.3167 19.4452 55.8541C19.6039 56.3915 19.3032 56.953 18.7658 57.1117C18.5818 57.1693 18.3978 57.2268 18.2192 57.2959C17.6833 57.5031 17.1397 57.7843 16.6083 58.137C16.3295 58.3229 15.9924 58.3534 15.7046 58.2484ZM26.1291 59.1649C25.9767 59.1094 25.8314 59.0084 25.7153 58.8797C25.1933 58.2866 24.5912 57.8081 23.9112 57.4641C23.4197 57.2081 23.2202 56.5983 23.4677 56.1037C23.7238 55.6122 24.3335 55.4127 24.8281 55.6603C25.7327 56.1245 26.5471 56.7572 27.2343 57.5545C27.5987 57.9751 27.558 58.6123 27.1375 58.9767C26.854 59.228 26.4591 59.2853 26.1291 59.1649Z" fill="#288357"/>
<path d="M83.3427 62.748L83.2496 62.714C82.9449 62.6029 82.6464 62.4748 82.3541 62.3298C81.8511 62.0792 81.6485 61.4779 81.8991 60.9748C82.1498 60.4718 82.7542 60.2607 83.2541 60.5198C83.4818 60.6317 83.7042 60.7319 83.9496 60.8215L84.0342 60.8524C84.5335 61.0345 85.0398 61.1712 85.5446 61.2595C86.0917 61.3632 86.459 61.8807 86.3553 62.4278C86.2601 62.978 85.7341 63.3423 85.1839 63.2471C84.5714 63.1387 83.952 62.9703 83.3427 62.748ZM90.8955 62.3101C90.667 62.2268 90.4694 62.0588 90.3503 61.8332C90.0907 61.3357 90.2814 60.7341 90.7704 60.4714C91.4703 60.1034 92.125 59.6231 92.7051 59.058C93.1065 58.6674 93.7445 58.6796 94.1351 59.081C94.5256 59.4824 94.5134 60.1204 94.112 60.511C93.3971 61.209 92.5853 61.8047 91.709 62.2617C91.4487 62.3969 91.1463 62.4112 90.8924 62.3186L90.8955 62.3101ZM77.6244 51.4279C77.1505 51.255 76.874 50.7514 76.9907 50.2474C77.0811 49.8681 77.1916 49.4864 77.3243 49.1225C77.3583 49.0294 77.3922 48.9364 77.4262 48.8433C77.616 48.3755 77.8397 47.9201 78.0856 47.4825C78.367 47.0002 78.9898 46.8438 79.4667 47.1137C79.949 47.3951 80.1169 48.0125 79.8355 48.4948C79.6288 48.8509 79.4476 49.2163 79.3002 49.594C79.2724 49.6702 79.2447 49.7464 79.2169 49.8225C79.1119 50.1103 79.0208 50.4126 78.9466 50.7212C78.8144 51.2675 78.2723 51.5971 77.7344 51.468C77.7006 51.4557 77.6583 51.4402 77.6244 51.4279ZM95.9004 55.4771C95.4434 55.3104 95.1576 54.8322 95.2512 54.339C95.4014 53.5595 95.4499 52.743 95.3846 51.9232C95.3374 51.3691 95.7643 50.8823 96.3154 50.8436C96.8665 50.805 97.3563 51.2234 97.395 51.7745C97.4725 52.7712 97.416 53.767 97.2296 54.725C97.1259 55.2721 96.5914 55.6333 96.0443 55.5296C95.9904 55.5196 95.9396 55.501 95.8889 55.4825L95.9004 55.4771ZM83.0661 44.9748C82.8122 44.8821 82.6039 44.6911 82.4887 44.4285C82.2637 43.9149 82.4998 43.3202 83.0134 43.0953C83.9451 42.6968 84.9212 42.4392 85.9072 42.3386C86.4645 42.283 86.9605 42.6845 87.0161 43.2418C87.0717 43.799 86.6702 44.295 86.1129 44.3506C85.3355 44.4314 84.5603 44.6376 83.8135 44.9501C83.5624 45.0599 83.3031 45.0612 83.0661 44.9748ZM93.5274 47.4198C93.392 47.3704 93.2605 47.2841 93.1467 47.1754C92.587 46.6069 91.9488 46.096 91.2373 45.6542C90.7581 45.3644 90.6133 44.7362 90.9086 44.2686C91.1984 43.7894 91.8181 43.6415 92.2942 43.9398C93.1487 44.4625 93.9208 45.0798 94.5912 45.7654C94.9818 46.1668 94.9696 46.8048 94.5682 47.1954C94.2839 47.4752 93.8713 47.5548 93.5159 47.4252L93.5274 47.4198Z" fill="#288357"/>
<path d="M23.6466 69.2291C23.1473 69.0469 22.8716 68.5148 23.0199 68.0032C23.4678 66.4598 23.9581 64.9318 24.4329 63.4461L24.7703 62.3898C24.8607 62.1159 25.0579 61.8906 25.3205 61.7754C25.583 61.6602 25.8824 61.6544 26.144 61.7786C26.884 62.1157 27.6148 62.4781 28.3256 62.8429C29.4356 63.4012 30.5932 63.9866 31.7357 64.4033C32.7258 64.7645 33.6176 64.9748 34.4849 65.0419C35.0367 65.0801 35.4533 65.5677 35.412 66.128C35.3706 66.6882 34.8861 67.0964 34.3259 67.055C33.2823 66.9716 32.2036 66.7219 31.0442 66.299C29.7832 65.839 28.5779 65.2267 27.4117 64.6383C27.0548 64.4601 26.7009 64.2735 26.3325 64.1007C25.9611 65.2502 25.5805 66.425 25.2283 67.6006C29.9662 69.0701 34.5569 70.7064 38.4666 72.1327C40.0999 72.7285 41.7332 73.3243 43.3604 73.9371C44.9937 74.5329 46.6239 75.1372 48.2572 75.733C53.5041 77.647 59.1449 79.6377 64.9916 81.3007C65.4245 80.1929 65.8342 79.2012 66.2446 78.2866C60.4266 76.4135 54.5834 74.3203 48.918 72.2919C45.3998 71.0277 41.7685 69.7317 38.1979 68.5059C37.6794 68.2976 37.3898 67.7508 37.5727 67.2231C37.7557 66.6953 38.3278 66.415 38.8556 66.5979C42.4346 67.8268 46.0713 69.1343 49.5926 70.3901C55.5965 72.542 61.7982 74.7564 67.9332 76.7067C68.2102 76.7886 68.4324 76.9943 68.553 77.2684C68.6681 77.531 68.6624 77.8357 68.5467 78.1004C67.895 79.4927 67.2623 81.0167 66.54 82.8916C66.361 83.3824 65.8266 83.6381 65.3288 83.5045C59.0935 81.7764 53.1141 79.6623 47.5626 77.6371C45.9293 77.0413 44.296 76.4455 42.6604 75.8296C41.0271 75.2338 39.3969 74.6295 37.7636 74.0337C33.6168 72.521 28.7046 70.7674 23.6689 69.2468C23.652 69.2406 23.6351 69.2344 23.6181 69.2283L23.6466 69.2291Z" fill="#D1C143"/>
<path d="M29.2681 97.7166C21.237 94.7868 21.226 93.45 23.6637 80.4066C24.1969 77.5518 24.8609 73.9968 25.5626 69.7076C25.6493 69.1544 26.17 68.7785 26.7202 68.8738C27.2704 68.969 27.6493 69.4812 27.554 70.0314C26.8431 74.3459 26.176 77.9094 25.6398 80.7726C24.4465 87.1454 23.7895 90.655 24.5418 92.4829C25.1974 94.1028 27.143 94.8414 31.8445 96.4893C32.8662 96.8429 33.9864 97.2419 35.2304 97.6957C42.2037 100.24 46.2474 101.667 48.3094 101.508C49.8403 101.386 50.3339 100.348 51.6533 97.0992C53.0252 93.7065 55.1069 88.5783 60.4159 81.6741C60.7588 81.2334 61.3939 81.1487 61.8345 81.4916C62.2752 81.8345 62.3599 82.4695 62.017 82.9102C56.8737 89.5968 54.8591 94.5673 53.5243 97.8584C50.5359 105.235 49.3402 104.991 34.5389 99.5914C33.3033 99.1407 32.1801 98.7501 31.1699 98.3912C30.4898 98.1527 29.8436 97.9265 29.2512 97.7104L29.2681 97.7166Z" fill="#D1C143"/>
<path d="M32.0105 65.3571C31.6551 65.2274 31.3876 64.9093 31.3503 64.5122C31.2947 63.9549 31.6962 63.4589 32.2534 63.4033C32.9108 63.3362 33.6174 63.2392 34.3525 63.143C37.5792 62.7091 41.2377 62.2219 44.2674 63.3271C45.9261 63.9322 46.4089 64.396 46.914 64.9829C47.256 65.3858 47.645 65.8441 50.0907 66.7363C51.7663 67.3476 53.0449 68.6003 54.2874 69.8207C54.8364 70.3661 55.3607 70.8739 55.9067 71.3223C56.3358 71.6706 56.4005 72.308 56.0492 72.7455C55.7008 73.1746 55.0635 73.2394 54.626 72.888C54.0131 72.3863 53.4249 71.817 52.8706 71.26C51.7335 70.1451 50.6686 69.0951 49.3992 68.632C46.6742 67.6379 45.9906 67.0146 45.3811 66.2936C45.0913 65.9577 44.8706 65.6951 43.5758 65.2227C41.0116 64.2873 37.6164 64.7364 34.6213 65.1397C33.8662 65.2382 33.1396 65.3375 32.4623 65.4068C32.3022 65.4251 32.1575 65.4011 32.0136 65.3486L32.0105 65.3571Z" fill="#D1C143"/>
<path d="M47.7928 67.3843C47.2489 67.1667 46.9917 66.5839 47.2 66.0654C47.4763 65.3607 47.7471 64.6444 48.0064 63.9336C49.5253 59.7699 50.7704 55.4105 51.9746 51.1895C52.7524 48.4528 53.5611 45.6314 54.4305 42.8801C54.5966 42.3462 55.1633 42.0543 55.6972 42.2203C56.2312 42.3863 56.5231 42.9531 56.3571 43.487C55.4884 46.2098 54.6913 49.0258 53.9112 51.7426C52.6947 55.9974 51.4457 60.3937 49.9021 64.6251C49.6366 65.3529 49.3596 66.0861 49.0771 66.8077C48.8719 67.3177 48.309 67.5727 47.7928 67.3843Z" fill="#D1C143"/>
<path d="M53.8972 44.3159C53.8211 44.2881 53.7395 44.2488 53.6695 44.204C47.8091 40.1867 45.6491 34.5947 47.7422 28.857C49.4618 24.1433 53.239 21.9637 56.9031 19.8579C60.0835 18.0264 63.0814 16.3009 64.6502 12.9993C64.85 12.5831 65.2981 12.3534 65.7544 12.4432C66.2107 12.5329 66.542 12.9127 66.5777 13.3668C66.7196 15.4226 67.6598 17.8656 68.6593 20.4357C70.5276 25.25 72.6316 30.7065 70.6218 36.2158C68.3743 42.3766 63.8083 43.0123 58.0175 43.8245C56.8676 43.9803 55.6829 44.1522 54.4259 44.3649C54.2512 44.397 54.075 44.3807 53.9057 44.319L53.8972 44.3159ZM65.0225 16.1844C63.1137 18.6044 60.4692 20.1233 57.9056 21.6045C54.4095 23.6181 51.1074 25.5203 49.6379 29.5485C47.3287 35.8787 51.5226 40.1798 54.4865 42.3062C55.6204 42.1157 56.6903 41.9691 57.7318 41.8216C63.4393 41.027 66.887 40.5395 68.7177 35.5212C70.5484 30.5028 68.5868 25.8653 66.7637 21.1633C66.0967 19.4433 65.448 17.7779 65.031 16.1874L65.0225 16.1844Z" fill="#D1C143"/>
<path d="M54.88 40.4932C54.7192 40.4346 54.5738 40.3336 54.4608 40.1965C54.0995 39.7675 54.1487 39.1333 54.5777 38.7721C55.982 37.5775 57.0157 35.9793 57.8338 33.7366C58.3802 32.2387 58.7829 30.5829 59.1724 28.9894C59.572 27.3421 59.9847 25.6324 60.5713 24.0245C60.809 23.3728 61.0536 22.7812 61.3312 22.2305C61.5734 21.7243 62.1747 21.5217 62.6808 21.7639C63.187 22.0061 63.3865 22.6159 63.1474 23.1136C62.9083 23.6113 62.6884 24.1352 62.4754 24.7191C61.929 26.217 61.5263 27.8728 61.1368 29.4663C60.7341 31.1221 60.3245 32.8233 59.7379 34.4313C58.7963 37.0124 57.5784 38.879 55.8968 40.308C55.608 40.5479 55.2216 40.6083 54.8915 40.4879L54.88 40.4932Z" fill="#D1C143"/>
<path d="M55.9145 34.8969C55.7284 34.829 55.5553 34.6988 55.4347 34.5301C55.032 33.9517 54.7956 33.3381 54.5699 32.7475C54.2644 31.9553 54.0042 31.2754 53.405 30.8938C52.9405 30.5901 52.8041 29.9651 53.1079 29.5005C53.4116 29.036 54.0366 28.8996 54.5012 29.2033C55.6402 29.9449 56.0709 31.0513 56.4424 32.0306C56.6335 32.5318 56.8169 33.0015 57.0798 33.385C57.4033 33.8387 57.2888 34.4681 56.8351 34.7917C56.5532 34.9861 56.2046 35.0219 55.9084 34.9139L55.9145 34.8969Z" fill="#D1C143"/>
<path d="M61.6715 34.4655C61.4261 34.3759 61.2231 34.1964 61.1049 33.9423C60.8683 33.4341 61.0875 32.8333 61.5957 32.5967C62.9124 31.9839 64.1943 31.4927 65.4247 31.0114C65.949 30.8095 66.526 31.0679 66.7279 31.5922C66.9297 32.1166 66.6713 32.6935 66.147 32.8954C64.9428 33.3575 63.704 33.8357 62.442 34.4301C62.1879 34.5483 61.9085 34.5519 61.6715 34.4655Z" fill="#D1C143"/>
<path d="M65.5032 68.2548C61.9996 66.9767 58.7619 63.8394 56.6579 61.4322C56.4012 61.1372 56.3416 60.7223 56.4912 60.3646C59.7868 52.8025 63.81 45.7169 73.5506 49.2702C74.7608 49.7117 75.9685 50.2386 77.1394 50.7616C78.2794 51.2638 79.4618 51.7814 80.6128 52.2012C83.0331 53.0842 84.9284 53.3824 86.7472 53.1542C87.119 53.1076 87.4821 53.2688 87.6957 53.5769C87.9094 53.885 87.9382 54.279 87.7693 54.6106L87.2989 55.5321C84.0152 62.0629 78.5219 72.9944 65.4978 68.2432L65.5032 68.2548ZM58.6083 60.5807C60.2972 62.4434 63.2074 65.2694 66.1947 66.3591C77.1624 70.3601 82.0093 61.5421 85.1897 55.2421C83.5866 55.1943 81.9015 54.8193 79.9212 54.0969C78.7026 53.6523 77.4979 53.117 76.324 52.6024C75.1839 52.1002 74.01 51.5857 72.8591 51.1658C65.615 48.5232 62.3133 52.2379 58.6083 60.5807Z" fill="#D1C143"/>
<path d="M60.389 61.719C60.1267 61.6233 59.9129 61.4207 59.8008 61.1497C59.5959 60.6338 59.8404 60.0422 60.3648 59.8403C65.7574 57.6747 71.525 57.6884 77.1132 57.6941C78.0422 57.6973 78.9627 57.6975 79.8777 57.6861C80.4365 57.679 80.894 58.1336 80.8926 58.6892C80.8997 59.248 80.4452 59.7055 79.8895 59.7041C78.966 59.7124 78.037 59.7091 77.0965 59.7113C71.7107 59.7027 66.134 59.6916 61.1101 61.7136C60.8738 61.8096 60.6144 61.8108 60.3859 61.7275L60.389 61.719Z" fill="#D1C143"/>
<path d="M66.5048 57.0177C66.4371 56.993 66.3609 56.9652 66.3025 56.9151C65.838 56.6114 65.7016 55.9863 66.0053 55.5218C66.9434 54.0804 68.3916 53.554 69.6728 53.0912C69.9145 53.0068 70.1563 52.9224 70.3926 52.8264C70.9085 52.6214 71.497 52.8745 71.702 53.3903C71.9069 53.9062 71.6539 54.4947 71.138 54.6997C70.8816 54.7979 70.6252 54.8962 70.3635 54.9829C69.2379 55.3873 68.2763 55.7365 67.7074 56.6125C67.4453 57.0155 66.948 57.1697 66.5164 57.0123L66.5048 57.0177Z" fill="#D1C143"/>
<path d="M73.8253 66.8892C73.8253 66.8892 73.7915 66.8769 73.7746 66.8707C72.3806 66.2759 71.0691 65.5865 69.7968 64.921C69.1199 64.5686 68.443 64.2162 67.7461 63.8661C67.243 63.6154 67.0404 63.0141 67.2911 62.511C67.5417 62.008 68.1515 61.8085 68.6461 62.0561C69.3515 62.4093 70.0453 62.7678 70.7307 63.1233C72.0283 63.7981 73.2498 64.4451 74.5707 65.0036C75.0862 65.2204 75.3203 65.814 75.1035 66.3295C74.8929 66.828 74.3277 67.0629 73.8284 66.8808L73.8253 66.8892Z" fill="#D1C143"/>
<path d="M30.5866 56.3035C17.444 51.5091 21.2765 37.4019 23.333 29.8194C23.581 28.903 23.8128 28.0574 23.9875 27.3157C24.0586 27.0156 24.2651 26.7649 24.5423 26.6359C24.8195 26.5069 25.1443 26.5103 25.4281 26.6522C40.2295 34.1805 48.4717 39.2392 45.5966 55.4792C45.5386 55.8224 45.3112 56.1038 44.9856 56.2344C40.5021 58.0892 34.3471 57.6657 30.5812 56.2919L30.5866 56.3035ZM25.6435 29.0321C25.5292 29.4507 25.4171 29.8893 25.2873 30.3501C23.2633 37.7911 19.8819 50.241 31.2812 54.3994C34.4547 55.5571 39.7862 55.9774 43.7128 54.5714C45.996 40.5319 39.081 35.9094 25.6435 29.0321Z" fill="#D1C143"/>
<path d="M41.8795 55.1014C41.8118 55.0767 41.7525 55.0551 41.691 55.0135C31.3407 48.6103 30.6592 45.9837 29.2954 40.7588C29.0815 39.9521 28.8584 39.0652 28.5639 38.0852C28.4051 37.5478 28.7143 36.9894 29.2517 36.8306C29.789 36.6719 30.3475 36.9811 30.5062 37.5184C30.8031 38.5185 31.04 39.4199 31.2561 40.2467C32.5663 45.2506 33.1037 47.3261 42.7594 53.2937C43.2355 53.592 43.3834 54.2117 43.0882 54.6793C42.8315 55.0939 42.3226 55.2535 41.8825 55.0929L41.8795 55.1014Z" fill="#D1C143"/>
<path d="M28.6556 48.6375C27.8855 48.3566 27.1309 48.0333 26.3931 47.7162C25.8777 47.4995 25.6436 46.9058 25.8604 46.3904C26.0772 45.875 26.6762 45.6524 27.1862 45.8576C27.8901 46.1624 28.6278 46.4794 29.3387 46.7388C30.8451 47.2883 32.0301 47.5096 33.1884 47.4623C33.7449 47.4352 34.217 47.8759 34.2357 48.4293C34.2628 48.9857 33.8221 49.4578 33.2687 49.4765C31.8364 49.5389 30.4074 49.2765 28.6472 48.6344L28.6556 48.6375Z" fill="#D1C143"/>
<path d="M35.9538 47.6082C35.5053 47.4446 35.2164 46.9749 35.31 46.4816C35.4416 45.7529 35.4655 45.0041 35.4963 44.2099C35.5461 42.9431 35.5859 41.6248 36.0737 40.2877C36.12 40.1607 36.1663 40.0338 36.2211 39.9099C36.4379 39.3945 37.0369 39.1719 37.5469 39.3772C38.0623 39.594 38.2965 40.1876 38.0797 40.703C38.0457 40.7961 38.0118 40.8892 37.9778 40.9823C37.5981 42.0232 37.5615 43.1222 37.5203 44.2866C37.4887 45.1093 37.4647 45.9636 37.3091 46.8369C37.2139 47.3871 36.6879 47.7514 36.1377 47.6561C36.0754 47.643 36.0215 47.6329 35.9623 47.6113L35.9538 47.6082Z" fill="#D1C143"/>
<path d="M48.213 62.4746C48.0437 62.4129 47.8984 62.3119 47.7715 62.1601C47.1105 61.3437 46.6227 60.4466 46.1626 59.5787C45.6018 58.5399 45.0679 57.5589 44.2937 56.8161C43.8885 56.4286 43.8722 55.7898 44.2598 55.3846C44.6473 54.9794 45.2861 54.9631 45.6913 55.3507C46.7016 56.3137 47.33 57.4827 47.9422 58.617C48.3893 59.4417 48.8064 60.2171 49.349 60.8849C49.6988 61.3194 49.6296 61.9558 49.1952 62.3055C48.9094 62.5369 48.5377 62.5835 48.2161 62.4661L48.213 62.4746Z" fill="#D1C143"/>
<path d="M49.7786 63.046C49.4824 62.9379 49.2441 62.6975 49.1536 62.3673C49.0033 61.833 49.321 61.2777 49.8552 61.1274C51.9346 60.553 54.0782 60.3282 56.4093 60.4306C56.9673 60.452 57.3985 60.9258 57.3656 61.4891C57.3358 62.044 56.8705 62.4783 56.3072 62.4454C54.187 62.3432 52.2519 62.5482 50.385 63.0658C50.1726 63.1226 49.9563 63.1108 49.7701 63.0429L49.7786 63.046Z" fill="#D1C143"/>
<path d="M35.3451 19.0222C33.2463 18.2566 31.6109 15.1956 32.6297 12.4029C33.5898 9.77102 36.4903 7.76065 38.8185 6.13605C39.0773 5.95237 39.4091 5.91038 39.7114 6.0015C40.0253 6.08725 40.2521 6.33299 40.355 6.6294C40.5575 7.23069 40.8086 7.83049 41.0758 8.46494C42.0101 10.714 42.9736 13.0408 42.1123 15.4019C41.0873 18.2115 37.8701 19.9337 35.3566 19.0168L35.3451 19.0222ZM38.9107 8.53814C37.1193 9.82158 35.1397 11.4104 34.5253 13.0945C33.911 14.7785 35.0042 16.7499 36.0366 17.1265C37.5007 17.6606 39.566 16.4675 40.2051 14.7157C40.7978 13.0909 40.0209 11.2253 39.2017 9.2388C39.1057 9.00242 39.0098 8.76605 38.9138 8.52968L38.9107 8.53814Z" fill="#288357"/>
<path d="M85.1926 38.2143C83.7962 37.7049 81.6474 35.4731 82.7711 32.3926C83.6355 30.0231 86.1194 28.2347 88.3037 26.6631L88.8505 26.268C89.1239 26.0705 89.4788 26.0178 89.7919 26.132C90.105 26.2462 90.3457 26.5066 90.4277 26.8338C91.1658 29.7784 91.8061 32.8598 90.9509 35.204C89.8673 38.1744 86.4227 38.6534 85.1956 38.2058L85.1926 38.2143ZM88.8141 28.7862C87.0511 30.0704 85.2441 31.5016 84.6668 33.0842C83.9351 35.0898 85.554 36.1982 85.8841 36.3186C86.1018 36.3789 88.3606 36.4166 89.0522 34.5209C89.611 32.9892 89.2401 30.6676 88.8141 28.7862Z" fill="#288357"/>
</svg>
