<svg width="76" height="78" viewBox="0 0 76 78" fill="none" xmlns="http://www.w3.org/2000/svg">
<path d="M69.4589 44.3859C69.9298 41.3251 69.7133 38.3198 67.7241 35.817C65.9352 33.5579 63.5624 32.6329 61.0261 31.6473C61.181 28.9411 61.47 25.9107 60.3042 23.4479C60.2386 23.306 60.0141 23.2466 59.9315 23.419C58.7221 26.0582 58.9528 29.3572 58.6557 32.1966C58.596 32.7522 58.7889 33.1973 59.2786 33.4801C60.008 33.9133 60.8279 34.4326 61.6202 35.0207C61.858 35.5764 62.2274 36.0509 62.4534 36.6312C62.8514 37.6591 62.8458 38.9087 62.7189 39.9914C62.433 42.3464 61.7651 44.7178 61.2768 47.0381C60.3887 51.3114 59.5188 55.5953 58.6372 59.87C58.2322 59.8007 57.8194 59.7365 57.4145 59.6671C56.5968 59.5336 55.7245 59.4024 54.8531 59.366C55.3285 56.4481 55.8214 53.4122 53.4088 51.1945C50.5474 48.5605 45.5756 47.881 41.9648 46.9595C37.1253 45.7325 32.1699 44.5764 27.2024 44.0736C25.2484 43.8765 19.3992 42.4631 18.4681 45.0308C18.0698 45.2264 17.7617 45.5758 17.6827 46.0937C17.406 47.8421 17.1423 49.5932 16.8708 51.3494C16.8467 51.5 16.8213 51.657 16.7973 51.8076C16.654 51.616 16.4443 51.4514 16.1667 51.354C13.9957 50.5987 11.6154 50.4699 9.34243 50.1467C7.64844 49.9014 5.72929 49.1706 4.45099 50.66C3.89214 51.3095 3.86094 52.1888 4.28765 52.9116C4.43716 53.172 4.64405 53.3834 4.87571 53.5728C4.85063 53.6623 4.83717 53.7609 4.83938 53.8493C5.00892 55.7296 6.60111 56.3732 8.21854 56.8935C9.68938 57.3703 11.1803 57.7159 12.6842 58.0643C14.31 58.4443 15.949 59.0907 17.6066 58.7539C18.2905 58.6167 18.9067 57.918 18.8746 57.249C19.3891 56.3537 19.4102 55.1276 19.5691 54.1528C19.8802 52.2695 20.1964 50.394 20.5074 48.5106C24.7386 49.8363 29.2182 50.5096 33.529 51.446C38.8819 52.609 44.2374 53.7591 49.6088 54.8314C49.6035 54.8573 49.5995 54.8768 49.5982 54.8833C49.6022 54.8638 49.6048 54.8509 49.6088 54.8314C49.5995 54.8768 49.5955 54.8963 49.5982 54.8833C49.561 55.065 49.5238 55.2467 49.4866 55.4284C48.9869 54.765 48.1748 54.5379 46.9153 55.0103C45.034 55.7137 44.7462 59.0688 44.3688 60.6817C44.0073 62.2167 43.7107 63.765 43.3427 65.2987C43.184 65.9422 42.9131 67.2659 42.6111 68.279C41.9524 68.3267 41.2859 68.3458 40.6235 68.3455C40.0961 68.3457 39.6531 68.6607 39.3745 69.0971C38.9916 69.0188 38.6205 68.9496 38.2544 68.8882C35.978 68.4832 33.7094 68.0392 31.4317 67.6068C26.9867 66.7647 22.3272 65.6489 17.7806 65.7325C16.9532 65.7457 16.6904 66.9967 17.4526 67.3352C23.3485 69.9412 30.3466 70.9272 36.6461 72.1556C39.3831 72.6887 43.1983 73.8008 45.9642 73.1026C47.1969 72.7938 47.7561 71.7792 48.0783 70.6012C48.2905 70.4892 48.4989 70.3628 48.6892 70.226C50.3885 68.9918 50.6875 66.9032 50.656 64.943C52.0165 65.3972 53.4989 65.6194 54.8056 65.9071C56.1526 66.1963 57.8756 66.9275 59.3877 66.9057C60.4522 67.9145 62.4986 68.0562 63.1126 66.4106C64.4706 62.781 65.5485 59.0332 66.6407 55.3154C67.6919 51.7312 68.8891 48.0619 69.455 44.3716L69.4589 44.3859ZM35.0692 48.6108C30.4974 47.6616 25.6448 47.0268 21.2121 45.4639C23.6431 45.8735 26.0435 46.4662 28.4781 46.9577C32.2117 47.7083 35.9326 48.4224 39.6199 49.3663C41.4441 49.8343 43.401 50.2483 45.3105 50.7946C41.9003 50.0494 38.4861 49.3236 35.0692 48.6108ZM51.5037 61.8579C51.5587 61.4568 51.6086 61.0479 51.6637 60.6468C51.6906 60.7131 51.7268 60.7679 51.7759 60.8252C51.8014 60.9319 51.8217 61.0306 51.8537 61.1386C52.1071 61.9814 53.0788 62.2547 53.8048 61.9773C54.0862 62.089 54.3689 62.1942 54.6594 62.2942C53.6079 62.1466 52.563 62.0004 51.5102 61.8593L51.5037 61.8579Z" fill="#D1C143" fill-opacity="0.12"/>
<path d="M50.9213 39.4969C50.6819 39.0153 49.894 38.9013 49.4873 39.2035C48.8813 39.6541 48.7779 40.1264 48.4153 40.7418C48.1771 41.146 47.8231 41.3236 47.3541 41.3358C46.3421 41.3586 46.0696 40.1468 45.8132 39.3845C45.7351 39.1386 45.4251 39.0346 45.2062 39.1791C43.1907 40.5379 45.0368 43.3765 46.8194 43.8495C49.2001 44.4719 52.143 41.9509 50.9149 39.4956L50.9213 39.4969Z" fill="#D1C143" fill-opacity="0.12"/>
<path d="M57.592 40.5309C57.2248 40.1448 56.4807 40.1142 56.0598 40.4201C55.4734 40.841 55.4143 41.2615 55.1271 41.872C54.9816 42.187 54.8054 42.3538 54.4531 42.4237C53.6913 42.5787 53.288 41.8404 52.735 41.4704C52.6107 41.3841 52.4274 41.421 52.3102 41.4984C51.6055 41.9355 51.6291 43.0423 51.9769 43.6881C52.4923 44.6387 53.5132 45.2329 54.5887 45.23C56.7046 45.2303 59.4485 42.4928 57.5985 40.5322L57.592 40.5309Z" fill="#D1C143" fill-opacity="0.12"/>
<path d="M56.3045 10.6838C55.7548 10.1656 54.7396 10.3364 54.4208 11.0351C54.0675 10.7465 53.7169 10.4449 53.3454 10.1458C52.816 9.72645 51.8735 10.2028 52.1729 10.9199C52.7049 12.2186 53.2865 13.4396 54.1062 14.5876C54.6858 15.389 55.9808 15.4039 56.4384 14.4564C56.993 13.299 57.3406 11.6665 56.3045 10.6838Z" fill="#D1C143" fill-opacity="0.12"/>
<path d="M55.103 18.2392C54.6589 17.6345 53.9268 17.5117 53.2797 17.866C52.9515 18.049 52.7502 18.339 52.6823 18.7037C52.2833 18.4733 51.8894 18.2508 51.4721 18.0437C50.4482 17.5299 49.4484 16.8656 48.2729 16.8616C47.8742 16.8612 47.6267 17.3108 47.7381 17.6581C48.1506 18.9459 49.5074 19.9469 50.5417 20.74C51.5061 21.4782 52.9786 22.7395 54.1843 22.9592C54.8826 23.0818 55.505 22.7495 55.8492 22.1574C56.4186 21.1923 55.6981 19.064 55.09 18.2365L55.103 18.2392Z" fill="#D1C143" fill-opacity="0.12"/>
<path d="M56.0783 31.3446C56.3546 28.5077 57.6721 24.6467 56.6298 21.878C56.5117 21.5631 56.0771 21.4404 55.8446 21.7173C55.5326 22.0861 55.2982 22.5046 55.0987 22.9505C54.9982 22.1863 54.7456 21.4721 54.1787 21.0045C54.0869 20.9249 53.9363 20.9008 53.832 20.9809C53.7838 21.0183 53.7433 21.0506 53.7016 21.0894C53.6681 20.4606 53.5929 19.8368 53.4411 19.2243C53.3773 18.9746 53.0356 18.9926 52.9217 19.1856C51.9085 20.932 51.6288 23.0584 51.2681 25.0195C51.1217 25.8008 50.9297 26.6065 50.8547 27.4024C47.4044 26.622 43.6083 26.4738 40.2159 26.104C35.8316 25.6259 31.2037 24.7193 26.7909 25.0737C26.5922 25.0871 26.4255 25.1747 26.2912 25.3027C26.2941 25.2221 26.2906 25.1403 26.2805 25.0571C26.2567 24.8765 26.1977 24.7021 26.1048 24.5614C26.1314 24.4317 26.1579 24.3019 26.1624 24.1811C26.1966 23.7825 26.0983 23.4041 25.8543 23.077C25.3236 22.3667 24.3615 22.2779 23.7299 22.9194C23.345 23.3138 22.6417 23.4471 22.1459 23.6566C21.4795 23.9394 20.9755 24.2553 20.6322 24.9085C20.3754 25.4035 20.8769 25.9591 21.3972 25.7951C21.9904 25.6056 22.5944 25.594 23.1868 25.5732C23.3166 25.8973 23.5361 26.1788 23.8405 26.3763C24.5321 26.8288 25.4992 26.6617 25.9824 26.0845C26.0033 26.3457 26.1412 26.597 26.4472 26.7205C30.5314 28.3676 35.1531 28.9078 39.4604 29.7623C41.6108 30.1889 43.7548 30.6141 45.9159 30.955C48.2212 31.3186 50.6187 31.958 52.9522 31.8204C53.1367 31.8108 53.3084 31.7648 53.4697 31.7032C54.0107 32.7265 55.9435 32.73 56.077 31.3511L56.0783 31.3446Z" fill="#D1C143" fill-opacity="0.12"/>
<path d="M4.36893 53.6716C3.99908 53.5959 3.74871 53.2336 3.81924 52.856C4.36919 49.8384 5.01677 45.3198 5.71231 40.5338C6.28728 36.5682 6.87718 32.4636 7.49578 28.6151C7.55334 28.2347 7.91818 27.9714 8.29718 28.0354C8.67884 28.0865 8.94088 28.4579 8.87684 28.8369C8.26088 32.6724 7.67231 36.7705 7.09734 40.7361C6.45655 45.1886 5.84412 49.4034 5.32013 52.4262L15.3602 54.3052C15.6331 52.245 15.9455 50.0578 16.3336 47.5006C16.355 47.363 16.3764 47.2254 16.403 47.0957C16.9288 44.5262 18.4658 44.4486 19.3353 44.6265L50.9912 50.4561C51.0561 50.4693 51.1145 50.4813 51.1689 50.5127C52.653 51.2221 53.3843 52.3723 53.1876 53.6638C52.864 55.7406 52.4415 58.4327 51.9889 61.1727L60.1601 62.703C60.3247 61.8984 60.4496 61.2885 60.6408 60.3541C61.9196 54.1055 63.168 47.675 64.4501 40.6834C64.9653 37.9021 63.1329 35.1948 60.3622 34.6277L60.3104 34.6171L13.303 25.4769C12.3205 25.2893 11.2817 25.5094 10.4557 26.0772C10.3371 26.1611 10.225 26.2463 10.1168 26.3459C9.82725 26.6044 9.38053 26.5738 9.12853 26.2856C8.87004 25.9961 8.90063 25.5494 9.18882 25.2974C9.33749 25.1656 9.49129 25.0415 9.65544 24.9332C10.7903 24.1446 12.2179 23.8419 13.5702 24.1051L60.5776 33.2453C60.5776 33.2453 60.623 33.2546 60.6424 33.2586C64.1528 33.977 66.4794 37.4075 65.8232 40.9441C64.5333 47.9408 63.29 54.3792 62.0086 60.6408C61.7669 61.8217 61.6301 62.4901 61.3819 63.6697C61.3049 64.046 60.9389 64.2821 60.5677 64.2129L51.0481 62.4337C50.7042 62.3633 50.4252 62.0087 50.4827 61.6284C50.974 58.6665 51.4379 55.7057 51.7896 53.4588C51.9114 52.6657 51.2487 52.138 50.6356 51.83L19.0576 46.0165C18.7072 45.9448 18.0908 45.8186 17.7681 47.3953C17.7455 47.5056 17.7229 47.6159 17.7068 47.7276C17.2771 50.5872 16.9378 52.9718 16.6432 55.2371C16.6177 55.4279 16.5143 55.6028 16.3631 55.7138C16.2055 55.8235 16.013 55.872 15.8249 55.8335C15.8249 55.8335 4.37792 53.6937 4.36495 53.691L4.36893 53.6716Z" fill="#D1C143"/>
<path d="M46.731 41.9381C45.6863 41.7244 44.4171 40.5925 44.7385 39.0222C45.032 37.5882 46.3668 36.8136 47.379 37.0207C47.4958 37.0446 47.61 37.0815 47.7306 37.1197C47.8007 37.1408 47.8694 37.1684 47.9408 37.183C48.966 37.3928 49.9298 38.2661 49.7851 39.5345C49.7743 39.6202 49.7649 39.6994 49.7476 39.7837C49.4408 41.2826 47.8716 42.1783 46.7296 41.9446L46.731 41.9381ZM47.0962 38.4028C46.8302 38.3484 46.2456 38.6614 46.1128 39.3103C45.9534 40.0889 46.7257 40.5106 47.0112 40.569C47.3486 40.6381 48.2073 40.3068 48.372 39.5022C48.38 39.4633 48.3879 39.4244 48.3959 39.3854C48.465 38.7506 47.7423 38.5824 47.6644 38.5664C47.5476 38.5425 47.4334 38.5056 47.3128 38.4674C47.2428 38.4463 47.1741 38.4188 47.1027 38.4042L47.0962 38.4028Z" fill="#288357"/>
<path d="M54.1038 43.3726C52.6049 43.0659 51.7233 41.8241 52.0101 40.4225C52.1629 39.6763 52.6462 39.0654 53.3283 38.7385C53.8138 38.5134 54.3739 38.4522 54.9579 38.5718C56.4827 38.8838 57.3226 40.1644 57.1274 41.1182C56.7781 42.8248 55.129 43.5824 54.1038 43.3726ZM53.9266 40.0102C53.5374 40.1942 53.4151 40.5275 53.3779 40.7092C53.2478 41.3451 53.6443 41.8521 54.384 42.0035C54.6371 42.0553 55.5552 41.797 55.7504 40.8432C55.7772 40.6797 55.4472 40.1119 54.675 39.9538C54.396 39.8967 54.1283 39.9163 53.9252 40.0167L53.9266 40.0102Z" fill="#288357"/>
<path d="M19.0922 26.5874C18.7158 26.5104 18.4668 26.1417 18.5451 25.7588C19.0949 23.0725 19.5371 20.3169 19.9738 17.6548L20.1501 16.5619C20.257 15.9077 20.6272 15.3209 21.1654 14.9376C21.7035 14.5542 22.3887 14.4105 23.0351 14.5225L26.8417 15.2136C27.2402 15.2817 27.4762 15.6477 27.4044 16.0319C27.3338 16.4096 26.9703 16.6664 26.5862 16.5945L22.7795 15.9034C22.5005 15.8463 22.2014 15.9203 21.9656 16.0816C21.7298 16.2429 21.5688 16.5007 21.5247 16.7823L21.3484 17.8753C20.9156 20.5517 20.4641 23.319 19.9091 26.0312C19.8307 26.4141 19.4633 26.6566 19.0805 26.5783L19.0922 26.5874Z" fill="#D1C143"/>
<path d="M57.4328 34.0419C57.0694 33.9675 56.8242 33.6131 56.8791 33.2458C57.336 30.4188 57.8743 27.6896 58.3457 25.3861L58.6511 23.8937C58.7255 23.5303 58.6493 23.1429 58.4415 22.8367C58.2337 22.5305 57.8996 22.3134 57.5349 22.2455L55.0131 21.7835C54.6367 21.7403 54.3786 21.3495 54.4505 20.9653C54.5223 20.5811 54.8846 20.3308 55.2687 20.4026L57.7905 20.8646C58.5263 21.0017 59.1895 21.4281 59.6088 22.0548C60.0295 22.675 60.1819 23.4498 60.0319 24.183L59.7278 25.6689C59.2603 27.9529 58.7182 30.6678 58.2666 33.4689C58.2026 33.8479 57.8442 34.1126 57.4328 34.0419Z" fill="#D1C143"/>
<path d="M25.0023 27.7362C24.6389 27.6619 24.3975 27.3218 24.4473 26.9466L24.6095 25.8238C25.575 19.0581 26.5739 12.0627 27.38 5.21707C27.4004 5.01842 27.5103 4.84486 27.6693 4.72867C27.8282 4.61248 28.0155 4.55616 28.2205 4.61163C30.8509 5.17024 33.4853 5.70939 36.1172 6.22773C36.5001 6.30608 36.7426 6.67347 36.6656 7.04982C36.5886 7.42616 36.2198 7.67519 35.8435 7.59817C33.4595 7.1238 31.0717 6.63512 28.68 6.13214C27.8867 12.7505 26.9265 19.4902 25.9972 26.0131L25.835 27.136C25.7839 27.5176 25.4256 27.7823 25.0439 27.7312C25.0309 27.7286 25.0179 27.7259 25.0049 27.7232L25.0023 27.7362Z" fill="#D1C143"/>
<path d="M53.3047 33.2376C52.9413 33.1632 52.6948 32.8153 52.751 32.4414C53.8134 25.4996 54.9144 18.3357 55.6571 11.1391C50.9272 10.401 46.1599 9.58084 41.0893 8.62424C40.7156 8.53425 40.4561 8.18368 40.5266 7.80601C40.6037 7.42966 40.9672 7.17281 41.3449 7.24334C46.6309 8.23727 51.5942 9.09076 56.5215 9.85578C56.8875 9.91716 57.151 10.2483 57.1155 10.6196C56.3613 18.0707 55.2293 25.4851 54.1334 32.6568C54.0759 33.0371 53.7175 33.3018 53.3371 33.2442C53.3242 33.2415 53.3112 33.2389 53.3047 33.2376Z" fill="#D1C143"/>
<path d="M55.48 18.215C55.3178 18.1818 55.161 18.0889 55.0552 17.9455L54.0649 16.6071C52.4548 14.432 50.7932 12.1787 49.2759 9.88065C49.0643 9.56017 49.1533 9.12543 49.4751 8.90735C49.7956 8.69576 50.2303 8.78473 50.4484 9.10654C51.9437 11.3798 53.5964 13.611 55.1961 15.7704L56.185 17.1154C56.4122 17.4255 56.3492 17.8656 56.0377 18.0993C55.8709 18.2206 55.6668 18.26 55.4786 18.2215L55.48 18.215Z" fill="#D1C143"/>
<path d="M55.3834 18.9524C53.0568 18.429 50.9624 17.9598 48.8147 17.5202L47.9322 17.3396C47.5624 17.264 47.3172 16.9095 47.3799 16.537C47.7283 14.4382 48.1144 12.3201 48.4925 10.2747L48.6762 9.27796C48.7467 8.90029 49.1103 8.64343 49.4944 8.71529C49.8761 8.76636 50.129 9.14938 50.0571 9.53354L49.8734 10.5303C49.5405 12.3551 49.1957 14.2383 48.8808 16.1073L49.1079 16.1538C51.2686 16.596 53.3694 17.0665 55.6896 17.5886C56.0646 17.6721 56.3058 18.046 56.221 18.4275C56.1375 18.8025 55.7714 19.0386 55.3951 18.9616L55.3834 18.9524Z" fill="#D1C143"/>
<path d="M17.0258 66.0849C16.656 66.0092 16.4121 65.6483 16.4748 65.2758C16.6878 64.1025 16.9023 62.9228 17.118 61.7365C17.8968 57.5016 18.7061 53.1175 19.2124 48.8268C19.2379 48.636 19.3349 48.4598 19.4939 48.3436C19.6528 48.2274 19.844 48.1854 20.04 48.2187L49.3698 53.6871C49.7357 53.7823 49.9979 54.1199 49.9352 54.4924C49.5818 56.5496 49.2183 58.5236 48.8589 60.4782C48.2013 64.0213 47.585 67.3633 47.0763 71.0382C47.0507 71.2291 46.9487 71.3975 46.7897 71.5137C46.632 71.6234 46.4396 71.6718 46.2514 71.6333C46.2514 71.6333 17.0401 66.081 17.0272 66.0784L17.0258 66.0849ZM20.5203 49.7367C20.0057 53.8364 19.2455 57.9804 18.5054 61.9934C18.331 62.9447 18.1579 63.8896 17.9835 64.8409L45.7892 70.1258C46.2799 66.7041 46.8629 63.5581 47.4766 60.2291C47.7974 58.4965 48.1209 56.7509 48.4368 54.9429L20.5203 49.7367Z" fill="#288357"/>
<path d="M35.4369 58.2113C33.7564 57.8674 32.0683 57.4611 30.4386 57.0667C28.7959 56.6697 27.0962 56.2542 25.3897 55.905C25.0134 55.8279 24.7643 55.4592 24.8427 55.0764C24.921 54.6936 25.2884 54.451 25.6712 54.5294C27.3972 54.8826 29.1112 55.2942 30.7656 55.7004C32.3823 56.0921 34.0573 56.4958 35.712 56.8344C38.1906 57.3417 40.2754 57.6263 42.2688 57.7301C42.6584 57.7422 42.9544 58.0799 42.9292 58.4669C42.9041 58.8539 42.5794 59.1525 42.1924 59.1274C40.1263 59.0155 37.9753 58.724 35.4253 58.2022L35.4369 58.2113Z" fill="#288357"/>
<path d="M24.2734 60.6656C23.8906 60.5873 23.648 60.2199 23.7263 59.8371C23.8047 59.4542 24.1721 59.2117 24.5549 59.29C30.3882 60.4838 36.2832 61.5415 42.0698 62.4351C42.4566 62.494 42.7148 62.851 42.6559 63.2378C42.5984 63.6182 42.24 63.8828 41.8532 63.8239C36.0406 62.9251 30.1262 61.8634 24.2734 60.6656Z" fill="#288357"/>
</svg>
