<svg width="98" height="92" viewBox="0 0 98 92" fill="none" xmlns="http://www.w3.org/2000/svg">
<path d="M48.4283 52.2549C52.2011 51.307 55.128 47.6847 55.3674 43.8095C55.501 41.6497 54.7019 39.5528 53.3066 38.0092L48.4283 52.2549Z" fill="#D1C143" fill-opacity="0.12"/>
<path d="M44.4204 52.0754L49.9691 35.8661C49.4857 35.717 48.9789 35.6242 48.4544 35.5848C47.4767 35.5147 46.5352 35.6339 45.6507 35.9099L41.0272 49.4112C41.8703 50.6253 43.047 51.5743 44.4145 52.0784L44.4204 52.0754Z" fill="#D1C143" fill-opacity="0.12"/>
<path d="M40.3828 19.1008C37.2875 20.6118 34.0459 22.5381 30.5853 23.0317C30.3188 23.0624 30.0612 23.096 29.7918 23.1207C29.6852 23.13 29.5846 23.1512 29.4899 23.1841C29.2261 23.117 28.9651 23.0411 28.7041 22.9503C26.5745 22.2152 25.5013 25.7324 27.6002 26.1714C33.2356 27.3546 38.6889 25.929 42.418 21.4268C43.4733 20.1519 41.713 18.4439 40.3739 19.0979L40.3828 19.1008Z" fill="#D1C143" fill-opacity="0.12"/>
<path d="M25.8922 41.9034C25.5882 42.1831 25.2902 42.4745 25.0011 42.7689C24.986 42.7097 24.971 42.6505 24.956 42.5914C24.589 41.174 22.715 40.6661 21.8404 41.961C20.851 43.4251 20.8132 44.3494 20.8464 46.0169C20.8999 49.032 17.9871 50.2431 15.9445 52.0462C15.918 52.067 15.9092 52.0937 15.8915 52.1175C15.5074 52.356 15.1382 52.6092 14.7957 52.9008C14.2053 53.3919 14.6057 54.273 15.2932 54.371C17.1307 54.6303 19.012 53.9919 20.7155 53.3395C22.4516 52.678 24.4535 51.8229 25.5284 50.2636C25.7257 49.9785 25.7926 49.6554 25.7647 49.3504C27.555 48.1644 28.1562 45.902 29.0699 44.0235C29.9602 42.2013 27.2557 40.651 25.8952 41.9094L25.8922 41.9034Z" fill="#D1C143" fill-opacity="0.12"/>
<path d="M71.813 8.74244C70.4052 10.0098 70.786 11.9395 70.7842 13.7138C70.7805 15.7783 70.8686 17.8187 71.0277 19.8678C67.7166 21.4656 64.2633 23.0462 61.1967 25.0547C60.0597 24.3898 58.6671 25.041 58.4269 26.446C58.2572 26.9917 58.0579 27.5227 57.8141 28.039C57.5265 28.7184 58.3465 29.3283 58.9496 29.0386C59.0205 29.0028 59.1004 28.9699 59.1713 28.9341C61.2872 34.4172 64.4856 39.5317 66.5218 45.0774C67.4949 47.7245 68.3011 50.0998 70.2967 52.1564C70.8708 52.7495 71.4479 53.3929 72.04 54.0511C67.6778 56.5061 63.7556 60.0968 60.6786 63.9655C60.6019 64.0635 60.7328 64.2052 60.8393 64.1514C64.7229 62.0271 68.6662 60.0062 72.7678 58.3283C70.8975 60.2373 68.5664 61.7335 66.4342 63.3295C64.0509 65.1043 61.6676 66.8791 59.2873 68.6598C54.6832 72.1051 49.8682 75.3972 45.7224 79.3975C45.279 79.6214 44.8475 79.8541 44.4071 80.0839C44.4298 79.8499 44.3607 79.5954 44.1672 79.3444C40.4937 74.7146 38.8153 68.9809 35.5082 64.1215C35.386 63.9383 35.0965 64.1142 35.1416 64.3066C36.2534 69.7996 38.3459 76.8527 42.7003 80.6565C42.7924 80.7361 42.8874 80.792 42.9854 80.839C42.5804 81.0509 42.1695 81.2658 41.7646 81.4777C41.4099 81.6568 41.4746 82.2993 41.9218 82.2886C44.4394 82.249 46.9215 81.5076 49.3402 80.4494C49.4084 80.4521 49.4705 80.443 49.5445 80.4131C50.5498 79.9796 51.5341 79.4603 52.4975 78.8997C54.9448 77.5897 57.2968 76.1201 59.5253 74.9205C60.9559 74.1536 62.3805 73.3749 63.8081 72.6021C65.0555 71.9721 66.297 71.3304 67.5266 70.665C68.2773 70.2562 69.0102 69.8268 69.7282 69.3826C72.5836 67.8962 75.8036 66.5002 78.1112 64.3111C78.2027 64.2278 78.2527 64.1209 78.2848 64.0083C80.1269 63.1894 82.0163 62.3614 83.0526 60.7549C84.1948 58.9909 83.277 57.5846 82.2431 56.0515C80.211 53.0265 78.2439 49.9538 76.3803 46.8214C72.7186 40.6721 69.7698 34.2888 67.4682 27.5268C69.1984 26.898 70.9257 26.2483 72.5755 25.4895C74.0242 24.8173 76.2514 24.0265 76.8047 22.3745C77.4165 20.5593 76.2003 17.8569 75.7933 16.0665C75.2448 13.6724 74.5396 11.3797 73.6508 9.09059C73.3725 8.37786 72.3531 8.25454 71.8278 8.72758L71.813 8.74244ZM72.1004 64.0594C69.3773 66.0577 66.4814 67.7723 63.5288 69.4042C61.8471 70.335 59.9226 71.2698 57.9985 72.3082C58.6394 71.8584 59.2893 71.4115 59.9332 70.9676C62.2462 69.3767 64.5561 67.78 66.875 66.1861C69.1199 64.637 71.3875 62.8093 73.8348 61.4993C74.5118 61.9143 75.4239 61.8544 76.3497 61.5427C74.9131 62.2829 73.5032 63.032 72.1063 64.0564L72.1004 64.0594ZM64.0699 27.3063C64.0971 27.4336 64.1331 27.5637 64.1662 27.688C63.9244 27.9585 64.0857 28.3074 64.3706 28.4455C64.3947 28.5372 64.4187 28.6289 64.4457 28.7117C64.1598 28.3071 63.8679 27.9202 63.5702 27.5363C63.7388 27.4587 63.9073 27.381 64.0758 27.3033L64.0699 27.3063ZM72.3661 46.6448C72.9058 47.5668 73.4574 48.4829 74.0179 49.387C73.3125 48.5338 72.7875 47.6117 72.3661 46.6448ZM79.0128 60.1163C78.8178 60.2296 78.6257 60.334 78.4336 60.4385C79.0066 60.0304 79.5054 59.5782 79.8503 59.1592C80.0301 58.9423 80.1117 58.6191 80.1104 58.2933C80.486 58.8901 80.3605 59.3615 79.0158 60.1222L79.0128 60.1163Z" fill="#D1C143" fill-opacity="0.12"/>
<path d="M40.3266 74.3687C39.4937 72.7192 38.8492 70.0471 37.1188 69.1327C37.006 69.071 36.8967 69.1484 36.9091 69.2757C37.057 71.4789 37.7914 73.6826 38.5253 75.7531C39.1603 77.5397 39.7536 79.9928 41.655 80.7021C41.9546 80.8105 42.3775 80.634 42.4591 80.3109C42.9722 78.2265 41.2521 76.1866 40.3355 74.3716L40.3266 74.3687Z" fill="#D1C143" fill-opacity="0.12"/>
<path d="M53.8352 37.4237C53.1888 37.2456 52.5782 37.873 52.8769 38.5086C53.1756 39.1295 53.5156 39.7294 53.8704 40.3144C53.8767 40.4151 53.889 40.5128 53.9279 40.6193C54.9257 43.5211 55.8424 46.1151 53.9848 48.9897C52.0212 52.0365 48.8372 52.8133 45.5195 53.5017C45.3922 53.5289 45.3008 53.627 45.2539 53.7398C45.097 53.7818 44.9372 53.818 44.7804 53.8601C44.3899 53.9683 44.2826 54.5493 44.7245 54.6897C49.6417 56.2578 55.596 54.2082 58.1132 49.5983C60.3393 45.5286 58.6597 38.7641 53.8323 37.4178L53.8352 37.4237Z" fill="#D1C143" fill-opacity="0.12"/>
<path d="M48.9082 79.4233C48.6895 79.5338 48.4766 79.6412 48.2579 79.7517C45.5647 81.0743 43.5533 81.8079 41.7874 82.4101C41.459 82.524 41.103 82.3773 40.9388 82.0669C40.6194 81.4491 40.2371 80.6776 39.7503 79.6843C36.6294 73.3138 35.8928 70.5918 35.3064 68.4024C34.9366 67.0384 34.6509 65.9585 33.8445 64.3178C33.0352 62.6712 32.1961 61.7149 31.2141 60.6081C30.0655 59.3035 28.7592 57.8336 27.3556 54.9661C26.3461 52.9086 25.4756 50.7736 24.6261 48.7096C23.2194 49.5237 21.7859 50.329 20.3998 51.1105C18.3251 52.2767 16.1823 53.4846 14.1049 54.7338C13.7975 54.889 13.4301 54.8519 13.2068 54.5862C11.186 52.2158 8.70705 49.3348 5.82944 46.0318C5.60031 45.7691 5.59871 45.3693 5.83168 45.1107C9.86852 40.5277 12.069 37.4654 14.0103 34.7714C14.4904 34.1061 14.947 33.4675 15.4066 32.8496C15.6364 32.5407 16.0745 32.4679 16.3865 32.7036C16.6955 32.9334 16.7624 33.3745 16.5326 33.6834C16.0789 34.2983 15.6252 34.9279 15.151 35.5903C13.2539 38.2249 11.1182 41.1951 7.29092 45.5759C9.82336 48.4893 12.0404 51.0574 13.8945 53.23C15.8302 52.0821 17.7985 50.9696 19.7166 49.8899C21.3332 48.9772 23.0031 48.0377 24.6196 47.0954C24.788 46.9881 25.0101 46.9724 25.197 47.0339C25.3927 47.0983 25.5414 47.2458 25.6222 47.435L25.9243 48.1802C26.7619 50.2206 27.6235 52.3379 28.615 54.3599C29.941 57.0589 31.1223 58.3989 32.265 59.6917C33.2677 60.8251 34.214 61.8906 35.104 63.7116C35.9671 65.4794 36.2859 66.6688 36.6646 68.0505C37.236 70.1808 37.9516 72.8318 41.0098 79.0781C41.3622 79.7906 41.6548 80.3847 41.9116 80.8932C43.4084 80.3749 45.2096 79.6955 47.6486 78.5012C52.8015 75.9664 57.7466 72.5942 62.5292 69.3263C67.1671 66.1537 71.548 63.1628 75.9796 60.9922C77.3484 60.3234 78.7588 59.6929 80.1161 59.1041C78.49 56.1931 76.2042 53.4742 74.1685 51.0594C72.1803 48.6948 70.3052 46.4659 69.2749 44.3671C69.2629 44.3434 69.254 44.3257 69.242 44.302C69.2151 44.234 66.7089 37.5086 62.1272 27.3349C61.9688 26.992 62.1153 26.5916 62.4523 26.4214L62.9312 26.1796C63.3333 25.9767 63.7353 25.7737 64.1373 25.5707C66.0294 24.6451 68.1058 23.8935 70.1083 23.1719C71.4068 22.7018 72.7438 22.2197 74.042 21.6903C72.9606 17.933 71.9711 14.1813 71.0445 10.6278C62.8844 11.5128 57.4882 12.464 53.5188 13.1697C50.0644 13.7786 47.7407 14.1875 45.5371 14.2317C43.4352 16.02 39.9295 18.6136 34.8327 21.0978C31.5541 22.7012 28.4009 23.8183 25.2016 24.4914C23.1765 26.2261 21.5122 27.8083 20.1112 29.3243C19.8487 29.6127 19.4045 29.6292 19.122 29.3637C18.8395 29.0983 18.8229 28.6541 19.0825 28.3746C20.5572 26.7843 22.3042 25.1306 24.4267 23.3097C24.5152 23.2353 24.6276 23.1786 24.74 23.1515C27.8862 22.5053 30.9891 21.4209 34.2175 19.8355C39.3319 17.3275 42.808 14.7341 44.8183 12.9995C44.9423 12.8924 45.1049 12.8325 45.2738 12.8289C47.4331 12.8145 49.7568 12.4055 53.2792 11.7845C57.3611 11.0665 62.9527 10.0761 71.5007 9.16581C71.8472 9.13187 72.165 9.34979 72.2522 9.68414C73.2661 13.5868 74.358 17.7469 75.5624 21.8947C75.6615 22.2378 75.4971 22.6028 75.1629 22.7344C73.6578 23.383 72.0931 23.943 70.5875 24.488C68.5288 25.2306 66.5825 25.9313 64.7555 26.8241C64.4008 27.0032 64.0401 27.1853 63.6854 27.3644C67.9534 36.8729 70.3605 43.2551 70.5492 43.7756C71.5048 45.7119 73.3233 47.8728 75.2401 50.1548C77.4723 52.8117 80.0081 55.8198 81.7127 59.1215C81.7993 59.293 81.8149 59.5002 81.7505 59.6811C81.6861 59.8621 81.5504 60.0048 81.37 60.0884C79.8235 60.7579 78.1765 61.4782 76.5948 62.2545C72.2549 64.3863 67.9183 67.3473 63.3218 70.4842C58.6987 73.6419 53.922 76.9068 48.9142 79.4351L48.9082 79.4233Z" fill="#D1C143"/>
<path d="M29.201 45.1218C28.935 45.2561 28.606 45.2071 28.383 44.9858C28.2164 44.8176 28.0794 44.6197 27.9629 44.3743C27.8166 44.0846 27.7295 43.7799 27.6425 43.49C27.5705 43.2592 27.5044 43.0403 27.4267 42.8718C27.2596 42.5407 26.9488 42.6012 26.7182 42.7176C26.0914 43.0044 25.821 43.5416 25.5474 44.0137C25.2768 44.4768 24.9797 45.0052 24.3517 44.981C23.6555 44.9542 23.2115 44.2806 22.4201 42.6546L22.1455 42.1107C21.9214 41.6377 21.6498 41.0997 21.3221 40.6271C21.1016 40.3081 21.1769 39.8694 21.4959 39.6489C21.812 39.4226 22.2536 39.5038 22.4741 39.8228C22.8643 40.3751 23.1658 40.9723 23.4196 41.4896L23.6943 42.0335C23.993 42.6691 24.2078 43.0504 24.3538 43.2809C24.6656 42.7376 25.1335 41.9449 26.0735 41.4702C26.0853 41.4642 26.0971 41.4583 26.109 41.4523C26.9899 41.0223 28.1634 41.1568 28.695 42.2536C28.8293 42.5197 28.9134 42.8037 28.9945 43.0818C29.0665 43.3273 29.1415 43.564 29.2282 43.7503C29.2819 43.8567 29.3355 43.9335 29.3891 43.9955C29.6627 44.2728 29.6555 44.7142 29.3782 44.9878C29.3221 45.0384 29.2631 45.083 29.2039 45.1129L29.201 45.1218Z" fill="#288357"/>
<path d="M58.1248 29.2699C58.0657 29.2998 58.0035 29.3237 57.9355 29.3358C57.5566 29.4084 57.1913 29.1551 57.1187 28.7763C57.1006 28.6964 57.0706 28.6077 57.011 28.5042C56.9095 28.318 56.7548 28.1291 56.594 27.9283C56.4125 27.7009 56.2279 27.4677 56.0847 27.2135C55.7834 26.6756 55.7574 26.0952 56.0071 25.5758C56.2509 25.0595 56.6792 24.7616 56.9127 24.6362C57.8556 24.1379 58.7859 24.1875 59.42 24.2383C59.3064 23.984 59.1153 23.5908 58.7782 22.982L58.4798 22.45C58.2024 21.9446 57.8831 21.3564 57.6525 20.7235C57.5208 20.3597 57.7117 19.9591 58.0725 19.8214C58.4363 19.6896 58.8399 19.8717 58.9716 20.2355C59.1693 20.7738 59.4528 21.3058 59.7123 21.7609L60.0106 22.2929C60.8876 23.8682 61.1868 24.6223 60.813 25.2043C60.4744 25.724 59.8729 25.679 59.3366 25.6308C58.7944 25.5855 58.1722 25.5287 57.6018 25.8539C57.4599 25.9255 57.339 26.0534 57.2861 26.1691C57.2509 26.2462 57.2217 26.35 57.326 26.5273C57.4125 26.684 57.5554 26.8641 57.7043 27.056C57.8918 27.2952 58.0883 27.5373 58.2464 27.821C58.3806 28.0575 58.4674 28.2881 58.5098 28.519C58.5703 28.8298 58.4056 29.1355 58.1337 29.2729L58.1248 29.2699Z" fill="#288357"/>
<path d="M38.9661 26.2715C38.9306 26.2895 38.8952 26.3074 38.8538 26.3283C33.4232 28.9889 27.9673 28.2641 24.2731 24.3867C24.0054 24.1064 24.0185 23.662 24.2988 23.3943C24.5791 23.1266 25.0235 23.1397 25.2912 23.42C28.5421 26.8312 33.3874 27.4488 38.2416 25.0718C38.2712 25.0569 38.3066 25.039 38.3362 25.0241C42.5575 22.8925 44.4772 17.7458 44.508 13.5604C44.5124 13.1724 44.831 12.8631 45.2161 12.8615C45.6041 12.8659 45.9193 13.1816 45.915 13.5696C45.8829 18.1786 43.7225 23.8772 38.975 26.2745L38.9661 26.2715Z" fill="#D1C143"/>
<path d="M51.5025 52.7139C51.467 52.7318 51.4315 52.7497 51.3961 52.7676C49.4272 53.7321 46.9376 54.0915 44.7472 53.7211C42.8029 53.397 40.1685 52.353 38.6396 49.2371C37.5825 47.085 37.4655 44.473 38.3121 42.0793C39.1586 39.6856 40.8953 37.6883 43.1155 36.6191C43.3224 36.5146 43.5412 36.4189 43.7571 36.3322C45.2949 35.7189 46.6592 35.4084 48.054 35.3495C51.2998 35.2093 54.2422 36.9956 55.7174 40.0199C58.0526 44.7912 56.1997 50.3494 51.4996 52.7228L51.5025 52.7139ZM43.6508 37.9143C41.8122 38.8428 40.3526 40.5221 39.6379 42.545C38.9174 44.5857 39.012 46.8009 39.9019 48.6219C41.2487 51.3772 45.5188 54.0883 50.778 51.5142C50.8075 51.4993 50.8371 51.4843 50.8726 51.4664C54.881 49.4423 56.4647 44.7028 54.4669 40.6291C52.9948 37.6255 50.2274 36.656 48.1218 36.7473C46.8868 36.7996 45.6706 37.0799 44.2806 37.6334C44.0943 37.7052 43.914 37.7889 43.7336 37.8725C43.704 37.8874 43.6804 37.8994 43.6508 37.9143Z" fill="#288357"/>
</svg>
