<svg width="326" height="342" viewBox="0 0 326 342" fill="none" xmlns="http://www.w3.org/2000/svg">
<path d="M325.075 178.742C325.075 268.509 252.304 341.279 162.537 341.279C72.7704 341.279 -8.51909e-05 268.509 -7.73432e-05 178.742L-6.31338e-05 16.2043L162.538 16.2043C252.305 16.2043 325.075 88.9748 325.075 178.742Z" fill="#21432A"/>
<g opacity="0.08" clip-path="url(#clip0_168_1585)">
<path d="M59.853 49.0758C46.3668 88.9139 49.3134 113.906 83.0352 146.564C116.757 179.216 119.288 212.464 118.444 226.462" stroke="#2C1600" stroke-width="2" stroke-miterlimit="10"/>
<path d="M54.0962 102.074C51.2799 86.5207 60.6098 78.8545 68.2214 75.7474" stroke="#2C1600" stroke-width="2" stroke-miterlimit="10"/>
<path d="M52.3406 81.6847C51.2799 69.4841 45.8767 65.3434 44.6484 65.0973" stroke="#2C1600" stroke-width="2" stroke-miterlimit="10"/>
<path d="M60.9014 119.16C52.7563 108.922 44.6546 106.947 44.6546 106.947" stroke="#2C1600" stroke-width="2" stroke-miterlimit="10"/>
<path d="M72.1792 135.071C65.2562 128.1 65.1756 107.649 65.1756 104" stroke="#2C1600" stroke-width="2" stroke-miterlimit="10"/>
<path d="M78.8231 142.356C68.6805 135.477 53.4573 134.499 53.4573 134.499" stroke="#2C1600" stroke-width="2" stroke-miterlimit="10"/>
<path d="M83.8355 147.339C78.7797 134.942 80.498 122.027 81.4782 118.619" stroke="#2C1600" stroke-width="2" stroke-miterlimit="10"/>
<path d="M91.2052 155.153C82.7747 151.406 70.1507 151.505 70.1507 151.505" stroke="#2C1600" stroke-width="2" stroke-miterlimit="10"/>
<path d="M94.493 158.918C95.9632 151.006 101.366 148.816 101.366 148.816" stroke="#2C1600" stroke-width="2" stroke-miterlimit="10"/>
<path d="M54.8716 66.3893C52.1421 53.8687 62.9051 42.7448 71.2053 37.4043C79.5055 32.0639 86.0129 28.7292 89.3751 27.1725C92.7374 25.6159 92.9669 26.5081 92.2908 27.1725C91.6146 27.837 81.2114 32.7653 73.513 44.2091C65.8207 55.653 56.925 62.6669 54.8654 66.3893H54.8716Z" fill="#2C1600"/>
<path d="M65.2004 77.1995C69.6854 71.9697 80.1817 67.8413 87.5948 63.7129C95.0141 59.5845 101.708 53.1981 102.433 52.5336C103.159 51.8692 101.168 59.1169 96.8255 65.0973C92.4831 71.0715 83.0725 73.7663 77.4645 75.0214C71.8566 76.2766 65.2004 77.1995 65.2004 77.1995Z" fill="#2C1600"/>
<path d="M48.5007 67.8413C47.6074 60.8396 43.4449 54.5578 37.4772 51.3277C31.5033 48.0976 24.2701 40.3822 24.2701 40.3822C24.2701 40.3822 24.45 47.7407 28.2527 55.9975C32.0554 64.2543 44.1521 67.4844 48.5069 67.8413H48.5007Z" fill="#2C1600"/>
<path d="M49.9647 109.353C47.7873 104.812 44.1707 97.6323 31.3234 93.8669C18.4761 90.0953 14.4935 84.7118 14.4935 84.7118C14.4935 84.7118 16.125 96.1556 27.5207 103.557C38.9226 110.959 49.9647 109.353 49.9647 109.353Z" fill="#2C1600"/>
<path d="M107.706 179.29C95.622 174.146 90.6344 176.238 90.6344 176.238" stroke="#2C1600" stroke-width="2" stroke-miterlimit="10"/>
<path d="M96.4595 175.85C96.3664 175.918 93.1406 173.629 92.8181 173.445C91.0625 172.442 89.1828 171.624 87.2226 171.101C84.5303 170.387 81.5402 170.455 78.7549 170.098C74.8033 169.593 70.7959 169.083 66.8567 169.661C61.9808 170.381 54.0962 174.361 53.6248 179.93C55.3369 177.555 58.0292 178.219 60.3555 177.555C67.1731 175.604 73.6184 180.779 80.3864 181.092C85.9446 181.351 92.0364 179.13 96.4595 175.844V175.85Z" fill="#2C1600"/>
<path d="M66.2612 119.246C63.4572 114.275 60.0205 106.018 60.3803 101.176C60.7401 96.3278 61.8257 86.2806 64.183 78.7437C66.5341 71.2067 73.0477 59.0246 73.5936 58.6554C74.1395 58.2863 75.039 64.0267 75.9447 70.6715C76.8504 77.3101 73.0477 87.5419 70.5167 93.4669C67.9857 99.3918 66.2674 119.259 66.2674 119.259L66.2612 119.246Z" fill="#2C1600"/>
<path d="M114.449 195.828C111.739 189.14 116.943 174.564 117.992 172.079" stroke="#2C1600" stroke-width="2" stroke-miterlimit="10"/>
<path d="M114.363 182.76C113.879 178.588 113.91 172.005 115.541 168.812C117.179 165.619 120.796 159.091 124.555 154.63C128.314 150.169 136.236 143.721 136.707 143.623C137.185 143.524 136.149 147.684 134.865 152.452C133.575 157.22 128.06 163.108 124.642 166.418C121.224 169.728 114.363 182.754 114.363 182.754V182.76Z" fill="#2C1600"/>
<path d="M80.436 130.721C78.1841 116.896 82.3467 105.668 92.8429 98.8996C103.339 92.1318 107.322 89.7938 112.024 88.7171C116.726 87.6404 122.88 84.361 123.606 84.7425C124.331 85.1301 117.632 95.3557 110.938 100.026C104.245 104.689 98.9781 103.256 91.3851 108.818C83.7983 114.38 79.7598 124.267 80.436 130.715V130.721Z" fill="#2C1600"/>
<path d="M71.745 138.978C63.178 132.665 58.4758 131.767 52.5019 129.97C46.528 128.174 37.8432 126.919 29.1584 125.664C20.4736 124.408 12.6945 120.858 11.9687 121.104C11.2429 121.357 23.2155 132.025 34.3321 135.212C45.4486 138.399 56.1247 136.246 61.7326 137.323C67.3405 138.399 71.745 138.972 71.745 138.972V138.978Z" fill="#2C1600"/>
<path d="M84.9583 153.123C77.5018 150.822 59.6235 144.872 51.2985 145.949C42.9735 147.025 38.0914 154.919 37.1857 157.614C36.28 160.309 36.28 163.896 37.1857 163.896C38.0914 163.896 38.8172 161.386 45.3308 160.487C51.8444 159.589 58.8294 157.085 66.1929 154.839C73.5564 152.594 84.9583 153.123 84.9583 153.123Z" fill="#2C1600"/>
<path d="M97.2163 151.738C97.9111 146.533 104.425 139.162 113.835 138.99C123.246 138.818 128.86 140.584 129.046 141.365C129.232 142.146 124.877 140.405 116.732 145.352C108.587 150.299 97.2225 151.732 97.2225 151.732L97.2163 151.738Z" fill="#2C1600"/>
</g>
<g clip-path="url(#clip1_168_1585)">
<path d="M252.057 42.6657C254.173 37.0229 249.376 33.1924 244.506 32.6321C244.174 37.2356 246.047 43.0099 252.057 42.6657Z" fill="#21432A"/>
</g>
<g clip-path="url(#clip2_168_1585)">
<path d="M37.0563 279.596C33.8123 267.434 21.0103 266.734 12.0473 271.687C17.0644 279.919 27.251 287.469 37.0563 279.596Z" fill="#21432A"/>
</g>
<g clip-path="url(#clip3_168_1585)">
<path d="M285.904 32.927C289.759 39.4011 297.246 37.7121 301.599 33.3955C297.364 29.4745 290.265 26.7909 285.904 32.927Z" fill="#21432A"/>
</g>
<g clip-path="url(#clip4_168_1585)">
<path d="M36.1401 301.232C28.6063 301.371 26.3613 308.71 27.9522 314.63C33.4567 312.897 39.3072 308.061 36.1401 301.232Z" fill="#21432A"/>
</g>
<g clip-path="url(#clip5_168_1585)">
<path d="M260.466 49.6098C267.639 55.992 276.084 51.0615 279.712 44.144C273.061 41.0091 263.404 40.4791 260.466 49.6098Z" fill="#21432A"/>
</g>
<g clip-path="url(#clip6_168_1585)">
<path d="M38.3856 279.953C29.3701 276.652 23.3261 284.339 22.4928 292.106C29.8307 292.578 39.007 289.525 38.3856 279.953Z" fill="#21432A"/>
</g>
<g clip-path="url(#clip7_168_1585)">
<path d="M280.951 8.96405C285.731 8.91983 287.198 4.27656 286.223 0.51145C282.721 1.57927 278.981 4.61319 280.951 8.96405Z" fill="#21432A"/>
</g>
<g clip-path="url(#clip8_168_1585)">
<path d="M15.0488 311.986C10.3139 311.326 8.17969 315.703 8.58998 319.57C12.2112 319.03 16.3568 316.579 15.0488 311.986Z" fill="#21432A"/>
</g>
<g clip-path="url(#clip9_168_1585)">
<path d="M254.175 52.8576C269.53 50.9919 272.572 35.5332 268.08 23.7786C257.204 28.4747 246.273 39.5782 254.175 52.8576Z" fill="#21432A"/>
</g>
<defs>
<clipPath id="clip0_168_1585">
<rect width="124.888" height="200.187" fill="white" transform="translate(11.9377 26.3051)"/>
</clipPath>
<clipPath id="clip1_168_1585">
<rect width="8.14079" height="10.0791" fill="white" transform="matrix(-0.279279 0.96021 0.96021 0.279279 244.55 32.4786)"/>
</clipPath>
<clipPath id="clip2_168_1585">
<rect width="17.0038" height="21.0524" fill="white" transform="matrix(0.329994 0.943983 0.943983 -0.329994 11.9373 271.373)"/>
</clipPath>
<clipPath id="clip3_168_1585">
<rect width="10.1788" height="12.6024" fill="white" transform="matrix(-0.575105 -0.81808 -0.81808 0.575105 301.713 33.5587)"/>
</clipPath>
<clipPath id="clip4_168_1585">
<rect width="10.1788" height="12.6024" fill="white" transform="matrix(0.995585 -0.093869 -0.093869 -0.995585 27.7536 314.649)"/>
</clipPath>
<clipPath id="clip5_168_1585">
<rect width="12.9696" height="16.0576" fill="white" transform="matrix(-0.79517 -0.606386 -0.606386 0.79517 279.914 44.2982)"/>
</clipPath>
<clipPath id="clip6_168_1585">
<rect width="12.9696" height="16.0576" fill="white" transform="matrix(0.962314 0.27194 0.27194 -0.962314 22.248 292.036)"/>
</clipPath>
<clipPath id="clip7_168_1585">
<rect width="6.45805" height="7.99568" fill="white" transform="matrix(-0.996399 0.0847845 0.0847845 0.996399 286.349 0.500732)"/>
</clipPath>
<clipPath id="clip8_168_1585">
<rect width="6.45805" height="7.99568" fill="white" transform="matrix(0.998027 0.0627938 0.0627938 -0.998027 8.46358 319.562)"/>
</clipPath>
<clipPath id="clip9_168_1585">
<rect width="20.8951" height="25.8701" fill="white" transform="matrix(-0.980746 0.195287 0.195287 0.980746 268.481 23.6986)"/>
</clipPath>
</defs>
</svg>
