<svg width="11" height="11" viewBox="0 0 11 11" fill="none" xmlns="http://www.w3.org/2000/svg">
<path d="M11.0002 5.35205C11.0002 5.08683 10.8949 4.83248 10.7074 4.64494C10.5198 4.45741 10.2655 4.35205 10.0002 4.35205H6.84024L7.32024 2.06705C7.33042 2.01433 7.33544 1.96074 7.33524 1.90705C7.33474 1.70827 7.25566 1.51775 7.11524 1.37705L6.58524 0.852051L3.30024 4.14205C3.20576 4.23467 3.13059 4.34511 3.07909 4.46699C3.02759 4.58886 3.00079 4.71974 3.00024 4.85205V9.85205C3.00024 10.1173 3.1056 10.3716 3.29314 10.5592C3.48067 10.7467 3.73503 10.8521 4.00024 10.8521H8.50024C8.69674 10.8528 8.88904 10.7953 9.05281 10.6867C9.21658 10.5781 9.34446 10.4233 9.42024 10.2421L10.9302 6.71705C10.9765 6.60091 11.0002 6.47705 11.0002 6.35205V5.35205ZM0.000244141 10.8521H2.00024V4.85205H0.000244141V10.8521Z" fill="#9DCE87"/>
</svg>
