<svg width="11" height="11" viewBox="0 0 11 11" fill="none" xmlns="http://www.w3.org/2000/svg">
<path d="M0.000244141 6.35206C0.000244141 6.61727 0.105601 6.87163 0.293137 7.05917C0.480674 7.2467 0.735028 7.35206 1.00024 7.35206H4.16024L3.68024 9.63706C3.67007 9.68978 3.66504 9.74336 3.66524 9.79706C3.66575 9.99584 3.74483 10.1864 3.88524 10.3271L4.41524 10.8521L7.70024 7.56206C7.79473 7.46944 7.8699 7.359 7.9214 7.23712C7.9729 7.11525 7.99969 6.98437 8.00024 6.85206V1.85206C8.00024 1.58684 7.89489 1.33249 7.70735 1.14495C7.51981 0.957415 7.26546 0.852058 7.00024 0.852058H2.50024C2.30375 0.8513 2.11144 0.908857 1.94767 1.01744C1.7839 1.12603 1.65603 1.28076 1.58024 1.46206L0.0702442 4.98706C0.0240315 5.1032 0.000277936 5.22706 0.000244141 5.35206V6.35206ZM11.0002 0.852058H9.00024V6.85206H11.0002V0.852058Z" fill="#E6857F"/>
</svg>
