<svg width="175" height="277" viewBox="0 0 175 277" fill="none" xmlns="http://www.w3.org/2000/svg">
<g clip-path="url(#clip0_133_1653)">
<path d="M165.044 6.11494C158.2 9.63221 151.349 13.2657 144.713 17.2263C144.325 16.972 143.837 16.8702 143.299 17.0446C136.261 19.3265 129.259 21.7391 122.171 23.8757C120.692 24.319 120.512 25.9322 121.13 26.9569C121.001 27.7563 120.993 28.6211 120.936 29.4568C120.764 31.8912 120.412 34.3185 120.196 36.7457C120.182 36.7602 120.168 36.7675 120.16 36.782C119.751 37.1453 119.816 37.6613 120.103 38.0174C120.096 38.1627 120.081 38.3081 120.074 38.4534C119.995 40.0013 122.293 40.2556 122.695 38.8095C122.853 38.2572 122.983 37.6904 123.112 37.1308C127.808 34.2094 132.462 31.2299 137.065 28.1487C142.092 24.7913 147.399 21.5938 152.132 17.8295C152.799 17.299 152.922 16.5868 152.72 15.9473C157.065 13.0768 161.388 10.17 165.726 7.30675C166.465 6.81985 165.819 5.70799 165.036 6.11494H165.044ZM123.859 33.6135C123.895 33.4391 123.938 33.2647 123.974 33.083C124.081 33.1485 124.196 33.1993 124.311 33.2357C124.16 33.3592 124.01 33.4827 123.859 33.6135ZM124.993 28.4176C125.051 28.2577 125.108 28.0978 125.173 27.9452C125.489 27.6763 125.712 27.2985 125.819 26.8842C126.753 26.579 127.686 26.2665 128.62 25.9686C127.399 26.7752 126.193 27.5891 124.993 28.4249V28.4176ZM128.778 29.5876C128.828 29.4568 128.843 29.326 128.85 29.1879C129.288 28.9481 129.726 28.7155 130.164 28.4757C129.697 28.8391 129.238 29.217 128.778 29.5876Z" fill="#DAD0C6"/>
<path d="M172.519 7.37232C170.501 10.3373 168.627 13.3895 166.832 16.4925C167.658 14.6757 168.476 12.8517 169.273 11.0277C169.719 10.0175 168.311 9.11642 167.765 10.1338C160.009 24.7915 152.476 39.5727 144.39 54.0487C143.643 53.213 142.853 52.4209 142.128 51.6651C141.001 50.4951 139.801 49.4269 138.58 48.3659C138.717 47.8935 138.681 47.363 138.379 46.8616C137.683 45.7061 136.692 44.5434 135.593 43.5405C135.694 41.92 134.817 40.2922 132.886 39.6599C131.607 39.2457 130.315 40.016 129.805 41.1642C128.232 41.3604 126.616 41.9781 125.309 42.4432C124.742 42.6467 124.347 42.981 124.089 43.3734C122.602 43.4824 121.123 43.5042 119.636 43.6423C118.121 43.7803 117.812 45.7933 119.277 46.3238C122.3 47.4139 126.94 48.3659 130.616 47.799C131.528 48.3077 132.577 48.6348 133.489 48.8237C133.819 48.8964 134.135 48.9036 134.43 48.8673C134.817 49.1289 135.227 49.376 135.65 49.6303C135.694 49.6594 135.744 49.6739 135.787 49.6957C136.799 51.2146 137.755 52.7697 138.767 54.2958C140.002 56.1634 141.137 58.3508 142.695 59.9496C143.83 61.1123 145.331 60.7635 146.178 59.797C146.372 59.8478 146.573 59.8769 146.774 59.8769C148.433 59.8551 149.381 58.9685 150.171 57.5878C151.536 55.2042 152.641 52.6244 153.869 50.1608C156.167 45.539 158.473 40.9171 160.771 36.2953C165.395 26.9861 170.128 17.6407 173.668 7.84468C173.927 7.13977 172.907 6.80549 172.534 7.35779L172.519 7.37232Z" fill="#DAD0C6"/>
<path d="M146.717 57.1227C146.473 57.1227 146.243 57.0137 146.085 56.8248C141.223 50.9457 137.123 45.946 133.051 40.75C127.385 42.3778 122.602 43.5842 118.042 44.5507C117.776 44.6088 117.503 44.5289 117.302 44.3399C117.108 44.151 117.015 43.8749 117.058 43.606C117.611 40.1105 118.056 36.5351 118.494 33.0687C118.832 30.3872 119.177 27.6257 119.572 24.9005C118.049 23.0256 116.548 21.0926 115.098 19.2249C112.979 16.4998 110.789 13.6874 108.527 11.0277C108.333 10.7951 108.275 10.4754 108.376 10.192C108.484 9.90856 108.728 9.70508 109.029 9.65421C115.457 8.68769 121.984 7.66303 128.297 6.67471C143.241 4.32745 158.702 1.90024 173.963 0.00353898C174.272 -0.0327964 174.573 0.105278 174.745 0.366893C174.918 0.628507 174.932 0.962792 174.781 1.23894C167.363 14.7484 152.304 45.2847 147.471 56.614C147.356 56.8829 147.119 57.0646 146.832 57.1082C146.789 57.1082 146.753 57.1155 146.71 57.1155L146.717 57.1227ZM133.36 38.955C133.611 38.955 133.848 39.0713 134.006 39.2748C137.941 44.3036 141.877 49.1362 146.494 54.7173C151.643 42.9374 165.166 15.526 172.562 1.86391C157.855 3.72428 142.961 6.05701 128.548 8.3098C122.717 9.22545 116.699 10.1629 110.739 11.0713C112.685 13.404 114.566 15.824 116.39 18.1785C117.913 20.1333 119.485 22.1608 121.08 24.1084C121.23 24.2901 121.295 24.5299 121.259 24.7625C120.843 27.5821 120.484 30.4671 120.139 33.2577C119.751 36.3389 119.356 39.5146 118.882 42.6467C123.198 41.702 127.765 40.5247 133.137 38.9768C133.209 38.955 133.288 38.9478 133.36 38.9478V38.955Z" fill="#796E63"/>
<path d="M134.028 39.987C133.841 39.987 133.654 39.9216 133.496 39.7908C133.151 39.4928 133.101 38.9696 133.396 38.6135C136.433 34.9727 139.457 31.2447 142.387 27.633C146.071 23.091 149.869 18.4111 153.74 13.8473C151.133 14.7048 148.534 15.5696 145.927 16.4344C137.733 19.1523 129.266 21.9574 120.929 24.5299C120.491 24.6607 120.031 24.4137 119.902 23.9776C119.773 23.5343 120.017 23.0692 120.448 22.9384C128.764 20.3732 137.23 17.5681 145.41 14.8502C148.957 13.6729 152.498 12.5029 156.045 11.3402C156.397 11.2239 156.785 11.362 156.986 11.6745C157.187 11.987 157.166 12.4012 156.921 12.6846C152.39 17.9387 147.952 23.4108 143.665 28.7012C140.735 32.313 137.704 36.0482 134.659 39.6963C134.494 39.8925 134.264 39.9943 134.028 39.9943V39.987Z" fill="#796E63"/>
<path d="M161.331 10.2138C161.022 10.2138 160.728 10.0394 160.584 9.74146C160.39 9.32724 160.562 8.82581 160.972 8.6296C165.532 6.43494 169.604 3.56445 173.324 0.788429C173.69 0.51228 174.207 0.592218 174.48 0.962839C174.753 1.33346 174.674 1.85669 174.307 2.13284C170.516 4.95973 166.365 7.88109 161.683 10.1411C161.568 10.1993 161.446 10.2211 161.331 10.2211V10.2138Z" fill="#796E63"/>
<path d="M165.984 27.1387C165.855 27.1387 165.726 27.1097 165.604 27.0443C165.202 26.8335 165.044 26.3248 165.252 25.9179C166.789 22.9311 168.081 19.8135 169.338 16.7977C170.315 14.4504 171.32 12.016 172.44 9.66142C172.634 9.2472 173.13 9.07279 173.539 9.269C173.948 9.46521 174.121 9.96664 173.927 10.3809C172.828 12.6991 171.83 15.1117 170.86 17.4372C169.596 20.4821 168.289 23.636 166.724 26.6809C166.58 26.9643 166.286 27.1315 165.991 27.1315L165.984 27.1387Z" fill="#796E63"/>
<path d="M106.351 50.8586C106.121 50.8586 105.884 50.7568 105.726 50.5679C105.432 50.2191 105.467 49.6886 105.812 49.3906C105.999 49.2308 106.186 49.0709 106.387 48.9037C107.651 47.8355 109.087 46.6292 109.087 45.3574C109.087 44.4418 108.563 44.0711 107.715 43.5552C107.004 43.1192 106.121 42.5814 106.121 41.455C106.121 39.9943 107.392 39.115 108.512 38.3374C109.475 37.6689 110.387 37.0366 110.387 36.2445C110.387 35.4524 109.618 35.1908 107.981 34.7693C106.458 34.3769 104.383 33.8318 104.383 31.7317C104.383 29.8059 105.661 28.883 106.681 28.1345C107.579 27.4804 108.089 27.0735 108.089 26.3395C108.089 25.7581 107.643 25.4311 106.631 24.8352C105.568 24.203 104.239 23.4181 104.239 21.6668C104.239 20.1261 105.223 18.5637 107.105 18.5637C107.557 18.5637 107.931 18.9343 107.931 19.3994C107.931 19.8645 107.564 20.2351 107.105 20.2351C105.927 20.2351 105.891 21.5287 105.891 21.674C105.891 22.4298 106.487 22.8222 107.471 23.4036C108.484 24.0068 109.74 24.748 109.74 26.3468C109.74 27.9455 108.577 28.8248 107.643 29.5007C106.645 30.2274 106.028 30.7215 106.028 31.7389C106.028 32.4656 106.782 32.7418 108.39 33.1633C109.927 33.563 112.031 34.108 112.031 36.259C112.031 37.9305 110.595 38.9261 109.439 39.7254C108.613 40.2995 107.765 40.8882 107.765 41.4695C107.765 41.6439 108.081 41.8474 108.563 42.1454C109.424 42.6759 110.731 43.468 110.731 45.3792C110.731 47.4358 108.907 48.9764 107.442 50.2118C107.248 50.3717 107.062 50.5316 106.889 50.6842C106.731 50.8223 106.545 50.8877 106.351 50.8877V50.8586Z" fill="#796E63"/>
<path d="M138.588 59.9497C138.401 59.9497 138.214 59.8843 138.063 59.7535C136.62 58.5326 135.916 56.9775 135.349 55.7275C134.738 54.3831 134.437 53.8381 133.927 53.8381C133.302 53.8381 132.39 54.4485 131.507 55.0299C130.351 55.7929 129.159 56.585 127.923 56.585C126.573 56.585 125.69 55.6912 124.914 54.8991C124.203 54.1724 123.586 53.5474 122.688 53.5474C122.336 53.5474 121.726 54.2741 121.281 54.8046C120.527 55.7057 119.672 56.7231 118.494 56.7231C117.884 56.7231 117.23 56.3307 116.397 55.8293C115.449 55.2624 114.272 54.5575 113.266 54.5575C112.8 54.5575 112.096 54.6883 111.335 55.8438C111.083 56.229 110.573 56.3307 110.193 56.0763C109.812 55.822 109.712 55.306 109.963 54.9209C110.853 53.5692 111.959 52.8861 113.266 52.8861C114.731 52.8861 116.125 53.7218 117.238 54.3977C117.683 54.6665 118.3 55.0372 118.502 55.059C118.911 55.059 119.521 54.325 120.017 53.7291C120.778 52.8207 121.568 51.876 122.681 51.876C124.261 51.876 125.266 52.9006 126.071 53.7218C126.803 54.4631 127.277 54.9209 127.916 54.9209C128.656 54.9209 129.64 54.2668 130.595 53.6346C131.679 52.9152 132.807 52.1667 133.92 52.1667C135.543 52.1667 136.203 53.6201 136.843 55.0299C137.367 56.1854 137.956 57.4934 139.119 58.4672C139.471 58.7652 139.514 59.2884 139.227 59.6445C139.062 59.8407 138.832 59.9424 138.595 59.9424L138.588 59.9497Z" fill="#796E63"/>
<path d="M118.401 43.5478C118.142 43.5478 117.884 43.4243 117.726 43.1917C117.467 42.8139 117.554 42.2906 117.927 42.029C119.528 40.8953 120.713 39.362 121.97 37.7414C123.478 35.7866 125.037 33.7736 127.406 32.4655C127.808 32.2475 128.304 32.3929 128.527 32.7998C128.742 33.2068 128.598 33.7082 128.196 33.9335C126.135 35.0744 124.742 36.8694 123.27 38.7734C121.999 40.423 120.685 42.1235 118.875 43.4025C118.731 43.5042 118.566 43.5551 118.401 43.5551V43.5478Z" fill="#796E63"/>
<path d="M124.907 26.8118C124.491 26.8118 124.132 26.492 124.089 26.0633C124.045 25.6054 124.376 25.1985 124.828 25.1476C129.546 24.668 134.157 23.1492 138.624 21.674C141.108 20.8528 143.679 20.0098 146.272 19.334C146.71 19.2177 147.162 19.4866 147.277 19.9371C147.392 20.3804 147.126 20.8382 146.681 20.9545C144.146 21.6158 141.597 22.4515 139.141 23.2654C134.595 24.7625 129.891 26.3176 125.001 26.8118C124.972 26.8118 124.943 26.8118 124.914 26.8118H124.907Z" fill="#796E63"/>
</g>
<path d="M1 211.312C28.4721 235.162 100.624 279.377 100.624 232.143C100.624 202.874 59.8687 194.373 59.8687 238.482C59.8687 281.667 153.153 295.252 153.153 232.143C153.153 158.496 36.3212 143.1 100.624 60.6833" stroke="#796E63" stroke-width="2" stroke-linecap="round" stroke-linejoin="round" stroke-dasharray="10 10"/>
<defs>
<clipPath id="clip0_133_1653">
<rect width="70.6424" height="60.68" fill="white" transform="translate(104.247 0.00341797)"/>
</clipPath>
</defs>
</svg>
