<svg width="404" height="616" viewBox="0 0 404 616" fill="none" xmlns="http://www.w3.org/2000/svg">
<g opacity="0.05" clip-path="url(#clip0_21_407)">
<path d="M215.94 133.411C114.888 183.723 72.9526 236.745 74.3485 362.224C75.7561 487.693 17.3533 555.618 -10.8249 580.622" stroke="#2C1600" stroke-width="2" stroke-miterlimit="10"/>
<path d="M104.427 223.265C128.677 188.419 160.792 191.407 181.014 199.823" stroke="#2C1600" stroke-width="2" stroke-miterlimit="10"/>
<path d="M139.86 181.227C161.042 156.054 158.744 138.023 156.901 135.245" stroke="#2C1600" stroke-width="2" stroke-miterlimit="10"/>
<path d="M84.7702 268.526C88.897 233.754 77.408 214.761 77.408 214.761" stroke="#2C1600" stroke-width="2" stroke-miterlimit="10"/>
<path d="M75.76 319.968C75.9793 293.701 114.68 254.697 121.611 247.766" stroke="#2C1600" stroke-width="2" stroke-miterlimit="10"/>
<path d="M74.4195 346.306C68.4067 314.158 41.6271 283.661 41.6271 283.661" stroke="#2C1600" stroke-width="2" stroke-miterlimit="10"/>
<path d="M74.3812 365.203C88.4223 332.139 116.189 310.838 124.508 306.207" stroke="#2C1600" stroke-width="2" stroke-miterlimit="10"/>
<path d="M73.4008 393.911C64.6596 370.933 40.7242 347.372 40.7242 347.372" stroke="#2C1600" stroke-width="2" stroke-miterlimit="10"/>
<path d="M72.4326 407.249C90.2297 394.984 104.555 400.987 104.555 400.987" stroke="#2C1600" stroke-width="2" stroke-miterlimit="10"/>
<path d="M173.678 156.931C192.329 128.011 233.709 127.125 259.469 132.594C285.229 138.063 303.806 143.97 313.088 147.338C322.371 150.706 321.108 152.832 318.573 152.823C316.039 152.813 287.106 142.605 250.883 149.863C214.672 157.133 184.613 153.723 173.667 156.92L173.678 156.931Z" fill="#2C1600"/>
<path d="M172.572 196.898C190.945 195.401 218.533 207.303 240.322 213.406C262.122 219.52 286.846 219.98 289.474 220.083C292.102 220.186 274.587 230.209 255.057 233.401C235.538 236.581 212.716 223.997 199.782 215.832C186.847 207.667 172.572 196.898 172.572 196.898Z" fill="#2C1600"/>
<path d="M158.935 147.705C170.556 132.723 174.659 112.958 169.569 95.5956C164.467 78.221 165.517 49.9566 165.517 49.9566C165.517 49.9566 151.876 64.2743 143.344 87.1138C134.812 109.953 151.432 138.846 158.947 147.716L158.935 147.705Z" fill="#2C1600"/>
<path d="M82.8274 229.32C87.3573 216.598 94.194 196.154 77.1788 164.833C60.1754 133.499 62.9106 115.78 62.9106 115.78C62.9106 115.78 44.2394 140.589 51.6159 176.088C59.0042 211.599 82.8274 229.32 82.8274 229.32Z" fill="#2C1600"/>
<path d="M58.5893 470.806C45.6278 438.302 32.271 432.893 32.271 432.893" stroke="#2C1600" stroke-width="2" stroke-miterlimit="10"/>
<path d="M43.9656 443.115C43.6619 443.068 41.9417 432.652 41.6855 431.695C40.2881 426.487 38.3066 421.396 35.6124 416.715C31.9035 410.294 26.15 404.798 21.5881 398.88C15.1128 390.488 8.54418 381.979 0.0350481 375.667C-10.5051 367.862 -32.9 360.592 -44.3649 370.283C-36.6323 368.992 -32.8299 375.32 -27.1913 378.433C-10.6608 387.554 -8.36564 409.509 3.77018 422.837C13.7356 433.784 29.415 441.024 43.9772 443.103L43.9656 443.115Z" fill="#2C1600"/>
<path d="M94.6894 278.772C98.8588 264.053 108.079 241.902 117.955 233.38C127.842 224.847 148.972 207.802 167.725 197.918C186.466 188.023 221.862 177.133 223.591 177.459C225.319 177.785 216.106 190.382 205.186 204.709C194.278 219.025 167.687 231.309 151.669 237.804C135.652 244.298 94.6777 278.807 94.6777 278.807L94.6894 278.772Z" fill="#2C1600"/>
<path d="M39.8561 514.91C47.4616 497.105 84.9425 479.206 91.6369 476.456" stroke="#2C1600" stroke-width="2" stroke-miterlimit="10"/>
<path d="M64.519 489.92C71.5334 481.085 84.0984 468.637 93.2338 465.64C102.381 462.655 121.586 457.057 137.132 455.655C152.678 454.253 179.83 456.906 180.904 457.606C181.99 458.317 172.139 464.27 160.665 470.913C149.179 477.544 127.619 478.355 114.9 478.213C102.182 478.071 64.5307 489.909 64.5307 489.909L64.519 489.92Z" fill="#2C1600"/>
<path d="M99.5564 327.237C121.584 296.737 150.746 283.236 183.349 290.125C215.951 297.013 227.885 300.063 238.776 306.864C249.668 313.664 267.474 319.011 268.115 321.101C268.744 323.203 236.714 330.025 215.251 326.305C193.799 322.573 186.615 309.942 161.765 306.224C136.926 302.518 110.546 313.704 99.5681 327.225L99.5564 327.237Z" fill="#2C1600"/>
<path d="M67.521 326.573C63.3971 298.465 56.2578 287.912 48.4326 273.261C40.6074 258.61 26.6539 239.888 12.7004 221.165C-1.25307 202.443 -9.14298 181.065 -10.9759 180.167C-12.8205 179.281 -10.5652 222.071 4.2928 249.038C19.1508 276.006 43.3257 291.999 51.8299 304.594C60.334 317.189 67.5327 326.562 67.5327 326.562L67.521 326.573Z" fill="#2C1600"/>
<path d="M65.5064 378.302C55.8505 359.903 33.5204 314.968 15.8138 301.352C-1.89272 287.736 -26.0732 293.548 -32.8965 296.964C-39.7198 300.38 -46.5342 307.194 -44.8304 308.898C-43.1265 310.602 -36.9923 307.198 -23.0323 317.745C-9.07237 328.292 8.82517 336.675 26.9437 346.261C45.0622 355.847 65.5064 378.302 65.5064 378.302Z" fill="#2C1600"/>
<path d="M91.1961 398.732C102.391 390.15 128.648 388.401 146.678 405.777C164.709 423.153 171.916 437.069 170.781 438.904C169.647 440.738 164.762 429.238 140.042 423.313C115.322 417.388 91.2194 398.732 91.2194 398.732L91.1961 398.732Z" fill="#2C1600"/>
</g>
<defs>
<clipPath id="clip0_21_407">
<rect width="332.255" height="537.833" fill="white" transform="translate(169.06 0.0136719) rotate(45)"/>
</clipPath>
</defs>
</svg>
