<svg width="375" height="504" viewBox="0 0 375 504" fill="none" xmlns="http://www.w3.org/2000/svg">
<g opacity="0.05" clip-path="url(#clip0_21_261)">
<path d="M165.133 347.081C167.172 348.614 168.987 350.688 171.271 351.607C187.194 357.983 202.959 364.861 219.243 370.136C237.042 375.914 254.979 374.266 272.794 368.43C282.408 365.279 292.528 363.29 302.573 361.903C321.553 359.28 336.452 365.331 345.851 383.301C348.544 388.451 353.94 392.185 357.771 397.397C334.584 381.271 309.456 385.982 284.295 388.837C268.756 390.597 253.021 390.718 237.378 391.732C235.383 391.861 233.444 392.96 231.478 393.621C232.298 395.584 232.623 398.088 234.045 399.407C236.748 401.919 239.882 404.119 243.169 405.802C269.364 419.206 296.633 426.258 326.16 419.469C335.597 417.306 345.011 414.72 354.58 413.564C359.576 412.952 364.931 414.896 370.07 415.957C372.184 416.393 374.074 417.866 376.184 418.336C382.237 419.682 384.775 417.525 382.521 411.949C379.875 405.393 382.378 401.061 385.398 395.525C396.543 375.115 410.26 355.809 410.993 330.959C411.414 316.519 403.598 306.421 395.765 296.234C392.586 292.101 388.324 293.844 386.807 298.85C382.954 311.467 378.534 324.012 375.974 336.907C373.061 351.556 371.566 366.519 370.173 381.413C369.519 388.415 370.527 395.564 370.784 403.026C348.022 380.06 338.622 354.314 347.817 322.232C353.558 302.226 357.341 281.458 359.813 260.77C361.261 248.698 358.534 236.087 357.329 223.769C357.159 221.977 355.14 219.144 353.725 218.973C351.809 218.738 349.11 220.121 347.65 221.674C329.028 241.352 320.899 265.841 317.416 291.932C315.149 308.955 321.06 324.899 327.74 340.315C330.711 347.156 334.384 353.685 338.777 362.435C330.197 353.74 323.145 346.535 316.014 339.421C311.609 335.019 307.435 330.279 302.505 326.557C293.372 319.686 291.266 310.688 292.807 300.101C295.394 282.405 300.535 265.534 309.069 249.829C315.82 237.388 318.966 224.302 317.149 210.204C314.951 193.175 312.664 176.161 309.996 159.201C309.611 156.798 306.903 154.767 305.261 152.552C302.993 154.438 299.473 155.887 298.646 158.287C290.371 182.315 281.371 206.185 274.917 230.721C268.344 255.73 271.549 280.995 278.554 306.501C274.468 302.417 269.606 298.847 266.446 294.133C258.513 282.352 250.848 270.333 244.016 257.876C236.289 243.786 235.079 228.021 241.192 213.633C256.383 177.856 248.727 144.356 233.848 111.073C230.39 103.35 226.957 95.6026 223.029 88.1257C221.96 86.0912 219.159 84.9715 217.149 83.429C215.943 85.3872 213.889 87.2454 213.651 89.3256C210.713 115.336 206.795 141.325 205.785 167.423C205.239 181.779 209.674 196.343 211.935 210.795C212.386 213.654 213.202 216.464 213.851 219.301C213.277 219.615 212.684 219.92 212.109 220.235C200.932 202.508 189.257 185.085 178.729 166.985C168.756 149.824 158.758 132.368 142.207 121.183C121.849 107.429 100.066 95.8229 78.8422 83.3643C76.7571 82.1516 74.3028 81.5642 71.1386 80.3648C81.2889 105.799 95.671 127.01 116.093 144.063C139.927 163.968 163.915 183.723 187.083 204.406C195.5 211.913 201.741 221.88 210.073 232.083C207.427 231.403 206.429 231.42 205.755 230.955C181.079 213.454 153.173 206.403 123.446 205.487C108.024 205.002 92.5591 205.347 77.1598 204.566C64.5541 203.935 52.0079 202.116 39.4129 201.018C37.7509 200.869 35.9777 201.942 34.256 202.437C34.9054 203.917 35.1671 205.789 36.2458 206.814C64.77 233.735 96.7678 252.071 137.832 248.892C155.19 247.545 172.649 247.614 190.004 246.395C209.198 245.054 224.427 251.228 235.642 267.345C239.878 273.435 245.504 278.541 250.36 284.222C252.579 286.808 254.466 289.672 257.817 294.158C254.098 293.554 252.002 293.846 250.901 292.941C224.666 271.152 195.029 274.196 164.941 280.976C144.83 285.498 124.786 290.301 104.763 295.207C102.709 295.708 101.009 297.713 99.1455 299.025C100.863 300.415 102.416 302.694 104.329 303.057C129.298 307.791 154.18 313.451 179.363 316.305C192.873 317.831 207.092 315.355 220.69 312.97C236.316 310.237 251.392 310.78 266.376 315.443C273.658 317.697 281.101 319.958 287.713 323.614C290.902 325.38 292.322 330.356 295.082 334.748C250.867 330.798 209.497 349.781 165.898 344.416L165.135 347.176L165.133 347.081Z" fill="#2C1600"/>
</g>
<defs>
<clipPath id="clip0_21_261">
<rect width="315" height="422" fill="white" transform="matrix(-0.943058 0.332628 0.332628 0.943058 297.083 0.639404)"/>
</clipPath>
</defs>
</svg>
