<svg width="453" height="449" viewBox="0 0 453 449" fill="none" xmlns="http://www.w3.org/2000/svg">
<path d="M409.724 329.325C401.793 345.476 414.929 358.257 429.239 361.341C431.567 347.759 427.685 330.054 409.724 329.325Z" fill="#D1C143"/>
<path d="M409.067 333.764C396.105 338.311 396.415 352.299 402.554 361.637C411.091 355.489 418.454 343.774 409.067 333.764Z" fill="#D1C143"/>
<path d="M429.793 396.15C425.366 409.154 436.56 417.547 447.696 418.484C448.132 407.973 443.463 394.947 429.793 396.15Z" fill="#D1C143"/>
<path d="M412.295 428.666C403.257 432.192 403.817 442.058 408.378 448.499C414.254 443.952 419.165 435.503 412.295 428.666Z" fill="#D1C143"/>
<path d="M408.203 35.2402C247.333 -29.459 85.1741 12.2136 24.2035 41.1373C-16.5831 133.468 7.20907 271.684 24.2035 329.251C124.272 407.429 321.899 365.756 408.203 335.148C450.475 193.156 420.363 91.6835 408.203 35.2402Z" stroke="#D1C143" stroke-width="2"/>
<g clip-path="url(#clip0_168_1583)">
<path d="M299.62 117.323C299.249 117.919 298.47 118.097 297.871 117.716C297.273 117.335 297.093 116.572 297.476 115.977C298.075 115.035 298.602 113.999 299.165 112.903C299.728 111.807 300.315 110.675 300.961 109.639C301.333 109.043 302.111 108.864 302.71 109.246C303.309 109.627 303.488 110.389 303.105 110.985C302.506 111.926 301.979 112.963 301.417 114.059C300.854 115.155 300.267 116.286 299.62 117.323Z" fill="#796E63"/>
<path d="M220.958 291.022C221.09 291.701 220.635 292.369 219.952 292.5C219.269 292.631 218.599 292.178 218.467 291.499C218.251 290.403 217.94 289.283 217.593 288.104C217.257 286.924 216.898 285.697 216.67 284.494C216.539 283.815 216.994 283.147 217.677 283.016C218.359 282.885 219.03 283.338 219.162 284.017C219.377 285.113 219.689 286.233 220.036 287.413C220.371 288.592 220.731 289.819 220.958 291.022Z" fill="#796E63"/>
<path d="M215.126 89.2189C215.03 89.7788 214.563 90.2196 213.964 90.2553C213.269 90.303 212.658 89.7788 212.61 89.0878C212.551 88.2777 212.239 87.4199 211.916 86.5145C211.628 85.7163 211.329 84.8942 211.161 84.0126C211.03 83.3336 211.485 82.6664 212.167 82.5354C212.862 82.4043 213.521 82.857 213.652 83.5361C213.784 84.2152 214.036 84.9181 214.299 85.6448C214.67 86.6694 215.054 87.7416 215.137 88.8853C215.137 88.9925 215.137 89.0997 215.126 89.195V89.2189Z" fill="#796E63"/>
<path d="M77.2635 118.49C76.8323 117.942 76.9401 117.144 77.491 116.715C78.0419 116.286 78.8444 116.394 79.2755 116.942C79.6827 117.454 80.1738 117.931 80.7007 118.443C81.2636 118.991 81.8505 119.551 82.3655 120.206C82.7966 120.754 82.6888 121.552 82.1379 121.981C81.587 122.41 80.7846 122.303 80.3534 121.755C79.9462 121.242 79.4552 120.766 78.9282 120.254C78.3653 119.706 77.7785 119.146 77.2635 118.49Z" fill="#796E63"/>
<path d="M332.831 176.581C330.172 173.9 324.723 174.77 321.166 174.27C319.13 173.984 315.884 172.935 313.764 173.853C313.609 172.995 313.381 172.185 313.034 171.494C312.519 170.481 311.68 169.814 310.686 169.671C310.579 168.885 310.459 168.11 310.327 167.324C309.884 164.655 305.692 165.763 306.219 168.456C306.519 169.969 306.758 171.506 306.974 173.043C306.626 174.615 306.662 176.414 306.542 177.665C305.836 185.409 305.92 193.248 304.974 200.956C301.884 210.475 294.422 216.777 285.033 219.982C275.403 223.258 265.367 224.581 255.235 225.033C251.75 225.188 248.229 225.331 244.708 225.343C242.935 225.14 241.163 224.914 239.39 224.688C237.546 224.45 234.683 224.223 232.204 223.616C229.857 222.484 227.881 220.697 226.024 218.004C225.868 217.766 225.557 217.873 225.521 218.135C225.342 219.529 225.689 220.864 226.36 222.079C226.132 222.317 225.976 222.639 225.964 223.044C225.916 224.616 226.228 225.915 226.815 227.011C226.575 227.309 226.395 227.69 226.336 228.19C226.216 229.203 226.108 230.216 226.012 231.24C225.353 232.134 225.246 233.42 225.689 234.516C225.653 234.85 225.617 235.184 225.593 235.517C225.497 236.577 226.503 237.995 227.605 238.15C232.911 238.901 238.013 238.948 243.163 238.4C243.558 238.46 243.965 238.519 244.372 238.579C246.085 238.817 247.546 238.317 248.935 237.566C249.259 237.507 249.57 237.459 249.881 237.4C250.049 237.364 250.181 237.304 250.337 237.257C249.175 238.4 248.061 239.353 245.845 239.425C242.228 239.544 238.623 239.52 235.007 239.699C233.785 239.758 225.641 239.782 225.282 240.831C225.389 240.533 225.114 240.223 224.815 240.223C223.797 240.223 223.27 240.58 222.779 241.522C222.359 242.32 222.455 243.237 223.09 243.892C225.821 246.764 231.354 246.251 235.007 246.454C239.725 246.704 245.474 247.586 250.109 246.525C254.193 245.584 255.606 241.891 258.672 239.568C260.565 238.138 263.427 237.233 262.193 234.409C261.81 233.551 260.816 233.23 259.978 233.146C259.451 233.087 258.9 233.099 258.361 233.146C261.882 232.42 266.086 232.277 268.709 234.159C270.218 235.243 270.9 237.149 272.469 238.222C273.978 239.246 275.787 239.377 277.547 239.461C282.625 239.711 287.775 239.592 292.865 239.568C297.572 239.556 303.357 240.426 307.944 239.365C311.86 238.46 312.483 235.47 312.543 231.919C312.639 226.32 312.651 220.709 312.71 215.109C312.734 213.036 311.501 211.845 309.992 211.488C312.914 206.603 313.836 200.98 314.088 195.202C314.267 191.02 314.16 186.874 314.016 182.704C313.956 181.06 314.1 178.987 314.064 176.95C316.459 178.404 320.89 178.749 322.807 179.059C326.1 179.583 330.136 180.87 332.867 178.559C333.442 178.07 333.358 177.105 332.867 176.617L332.831 176.581ZM252.061 235.636C252.061 235.636 252.097 235.577 252.109 235.553C252.241 235.47 252.361 235.398 252.492 235.315C252.349 235.422 252.205 235.529 252.061 235.636ZM290.901 231.753C292.686 231.407 294.47 231.085 296.255 230.764C296.279 231.085 296.338 231.407 296.422 231.717C294.578 231.717 292.734 231.741 290.889 231.753H290.901Z" fill="#DAD0C6"/>
<path d="M247.606 166.323C245.235 164.822 242.264 164.775 239.366 165.323C237.174 164.084 234.252 164.596 231.773 164.798C228.503 165.06 224.994 165.299 222.12 166.979C221.377 167.407 220.91 168.408 221.186 169.254C221.856 171.267 221.701 173.853 222.096 176.128C221.772 176.664 221.473 177.224 221.222 177.796C220.838 178.654 221.749 179.357 222.407 178.964C222.623 178.809 222.755 178.701 222.898 178.594C223.03 178.833 223.174 179.071 223.341 179.297C223.892 178.749 224.24 178.094 224.467 177.379C227.713 174.877 230.935 172.435 234.851 170.958C238.971 169.397 243.618 169.754 247.582 167.991C248.277 167.681 248.133 166.693 247.582 166.335L247.606 166.323ZM224.97 170.862C225.641 170.874 226.312 170.85 226.982 170.803C226.276 171.339 225.605 171.923 224.97 172.542C224.97 171.97 224.97 171.41 224.97 170.862Z" fill="#DAD0C6"/>
<path d="M342.089 188.363C337.322 187.279 330.4 186.112 325.777 188.363C321.561 190.401 321.226 197.108 321.369 201.147C321.549 206.115 322.615 211.511 326.807 214.692C330.496 217.48 335.214 217.79 339.49 216.229C340.149 215.991 340.292 215.145 339.682 214.752C337.526 213.346 334.939 212.464 332.891 210.904C330.064 208.747 329.957 204.852 329.502 201.564C329.298 200.086 329.094 198.633 328.855 197.168C328.328 193.939 327.981 192.974 331.154 191.604C334.376 190.21 338.652 189.936 342.089 189.245C342.52 189.162 342.508 188.483 342.089 188.375V188.363Z" fill="#DAD0C6"/>
<path d="M357.06 238.269C355.958 238.496 354.904 238.781 353.814 239.103C353.011 239.353 352.209 239.592 351.407 239.842C350.628 240.294 350.425 240.259 350.772 239.723C350.185 239.294 348.951 236.768 348.029 235.946C345.514 233.694 342.436 232.324 339.071 232.015C334.843 231.621 329.501 233.373 326.855 236.947C326.244 236.851 325.801 236.875 325.154 236.923C325.01 236.959 324.891 237.018 324.771 237.066C321.681 236.971 318.459 237.388 315.357 237.554C313.106 237.685 311.369 239.675 311.98 241.962C312.028 242.129 312.076 242.284 312.136 242.451C310.926 242.522 309.68 242.498 308.866 242.57C307.201 242.725 305.536 242.844 303.872 242.951C300.267 243.189 296.65 243.404 293.033 243.487C289.44 243.571 285.775 243.571 282.194 243.976C282.17 243.976 282.134 243.976 282.11 243.976C282.613 242.51 281.464 240.39 279.619 240.163C276.218 239.758 272.864 240.271 269.499 240.783C267.918 241.033 267.188 242.927 267.499 244.297C269.08 251.446 258.217 252.816 254.265 248.944C253.798 248.479 252.923 248.67 252.756 249.337C251.438 254.769 258.493 256.676 262.601 256.116C268.325 255.341 272.673 251.422 273.188 246.084C274.888 245.93 276.577 245.799 278.266 245.608C278.242 245.644 278.218 245.679 278.194 245.715C277.499 246.93 278.661 248.622 280.086 248.157C280.601 247.991 283.619 249.003 284.697 249.158C287.188 249.516 289.679 249.742 292.195 249.825C297.476 250.004 302.758 249.885 308.016 249.468C311.201 249.218 316.351 249.718 318.89 247.443C320.028 246.43 320.363 245.513 320.304 244.619C323.801 244.679 327.585 244.393 328.975 241.915C329.346 241.259 329.466 240.461 329.358 239.687C334.34 237.733 338.999 236.446 344.293 240.128C345.287 240.819 346.101 241.915 346.975 242.892C345.203 247.276 340.819 249.623 336.113 248.455C335.154 248.217 331.023 245.87 330.256 247.24C327.945 251.41 337.155 254.078 339.813 254.055C345.67 253.995 350.52 250.064 352.58 244.822C354.604 244.44 356.772 243.475 358.317 242.915C361.239 241.843 360.126 237.614 357.024 238.245L357.06 238.269Z" fill="#DAD0C6"/>
<path d="M364.725 221.709C363.946 210.654 361.443 197.215 351.838 190.258C351.478 189.996 351.071 190.496 351.263 190.829C355.574 198.264 358.401 205.614 359.467 214.049C355.503 214.668 351.67 215.812 347.634 216.205C343.73 216.587 339.777 216.682 335.861 216.694C335.454 216.694 335.37 217.289 335.765 217.397C343.155 219.434 352.245 220.482 359.922 218.755C360.114 221.948 360.149 225.152 360.09 228.345C360.042 230.978 359.934 233.671 359.084 236.196C358.964 236.542 358.628 237.28 358.173 238.138C357.922 237.602 357.215 237.423 356.664 237.507C353.838 237.924 352.449 240.962 350.868 243.094C350.113 244.119 350.7 245.751 351.718 246.335C356.018 248.777 360.629 243.892 362.509 240.366C365.479 234.779 365.156 227.797 364.713 221.697L364.725 221.709Z" fill="#DAD0C6"/>
<path d="M328.412 172.209C328.412 172.209 328.328 172.256 328.364 172.28C330.843 173.817 331.609 176.617 333.418 178.702C333.813 179.154 334.388 178.654 334.316 178.177C333.873 175.187 330.747 173.603 328.4 172.209H328.412Z" fill="#DAD0C6"/>
<path d="M317.154 237.126C315.764 230.895 315.98 223.949 315.393 217.587C314.818 211.428 313.932 205.352 312.639 199.3C312.615 199.193 312.471 199.229 312.459 199.324C312.052 206.258 312.1 213.144 312.267 220.077C312.399 225.831 311.405 232.729 312.866 238.305C313.597 241.069 317.776 239.901 317.166 237.126H317.154Z" fill="#DAD0C6"/>
<path d="M225.677 241.808C225.018 241.808 224.455 241.295 224.407 240.628C224.024 234.743 223.593 228.857 223.162 222.972C221.856 205.209 220.515 186.838 220.515 168.742C220.515 167.253 220.515 165.775 220.539 164.286C220.539 163.607 221.09 163.059 221.772 163.035C243.019 162.404 264.505 162.225 285.284 162.046C292.949 161.975 300.626 161.915 308.339 161.832H308.71C310.471 161.832 312.471 161.832 313.609 196.917C314.16 213.977 314.207 231.359 314.207 231.514C314.207 232.67 314.112 233.754 314.028 234.79C313.98 235.303 313.944 235.815 313.908 236.339L313.884 236.649C313.824 237.554 313.764 238.472 313.74 239.389C313.716 240.02 313.225 240.545 312.591 240.604C307.105 241.117 298.674 241.343 296.243 241.343C292.662 241.343 289.057 241.212 285.572 241.093C280.865 240.926 276.002 240.747 271.248 240.902C270.721 240.902 270.218 240.592 270.026 240.092C268.265 235.565 265.211 233.468 260.433 233.468C255.654 233.468 251.69 236.363 250.013 240.676C249.822 241.152 249.366 241.474 248.851 241.486C245.642 241.533 242.815 241.569 241.618 241.569C236.432 241.569 231.054 241.569 225.713 241.808H225.677ZM223.066 165.537C223.066 166.609 223.054 167.681 223.054 168.754C223.054 186.755 224.395 205.078 225.701 222.793C226.108 228.274 226.503 233.754 226.874 239.234C231.809 239.044 236.779 239.044 241.594 239.044C242.684 239.044 245.115 239.02 247.965 238.972C250.205 234.135 255.091 230.942 260.409 230.942C265.726 230.942 269.81 233.432 272.026 238.353C276.565 238.245 281.176 238.412 285.643 238.567C289.117 238.686 292.698 238.817 296.231 238.817C298.47 238.817 305.872 238.627 311.237 238.186C311.273 237.614 311.297 237.054 311.333 236.494L311.357 236.184C311.393 235.636 311.441 235.112 311.489 234.576C311.585 233.54 311.668 232.563 311.668 231.514C311.668 209.951 310.674 168.825 308.279 164.358C300.602 164.441 292.949 164.512 285.308 164.572C264.936 164.751 243.893 164.929 223.066 165.525V165.537Z" fill="#796E63"/>
<path d="M352.676 243.678C352.053 243.678 351.431 243.654 350.808 243.63C350.185 243.606 349.682 243.142 349.598 242.534C349.514 241.891 349.407 241.212 349.275 240.509C348.556 236.732 345.251 232.706 338.125 232.706C328.46 232.706 326.735 236.399 325.801 240.187C325.681 240.652 325.585 241.128 325.501 241.629C325.406 242.213 324.914 242.653 324.328 242.689C319.154 242.987 314.746 243.666 314.698 243.666C314.639 243.666 314.567 243.678 314.507 243.678C311.668 243.678 311.453 241.831 311.453 241.259C311.453 240.688 311.609 240.068 311.764 239.484C311.848 239.175 311.932 238.853 311.992 238.543C312.112 237.852 312.746 237.388 313.453 237.507C314.148 237.626 314.615 238.269 314.495 238.96C314.435 239.341 314.327 239.746 314.219 240.128C314.124 240.473 314.028 240.854 313.992 241.117C314.076 241.14 314.219 241.152 314.411 241.164C315.082 241.057 318.723 240.533 323.19 240.235C323.238 240.02 323.286 239.806 323.334 239.592C324.483 234.945 327.142 230.192 338.125 230.192C346.796 230.192 350.892 235.505 351.766 240.044C351.838 240.426 351.91 240.795 351.958 241.164C352.197 241.164 352.425 241.164 352.664 241.164C357.407 241.164 357.754 239.651 358.09 237.709C358.125 235.922 358.137 234.123 358.137 232.336C358.137 214.406 356.077 202.791 351.455 194.666C345.838 184.789 336.029 179.988 321.453 179.988C318.1 179.988 314.639 180.25 311.573 180.489C310.878 180.536 310.267 180.024 310.207 179.321C310.147 178.63 310.674 178.022 311.381 177.963C314.483 177.725 318.016 177.462 321.453 177.462C355.922 177.462 360.664 203.827 360.664 232.324C360.664 234.159 360.641 236.006 360.617 237.84C360.617 237.9 360.617 237.971 360.593 238.031C360.09 240.89 359.072 243.666 352.652 243.666L352.676 243.678Z" fill="#796E63"/>
<path d="M357.323 234.695C353.898 234.695 351.85 233.051 351.85 230.299C351.85 227.547 354.329 225.426 357.383 225.426C357.802 225.426 358.209 225.474 358.616 225.557C359.299 225.7 359.742 226.379 359.587 227.059C359.443 227.738 358.76 228.178 358.078 228.024C356.425 227.678 354.377 228.667 354.377 230.299C354.377 230.764 354.377 232.181 357.311 232.181C357.563 232.181 357.802 232.181 358.042 232.181C358.293 232.181 358.533 232.181 358.76 232.181C359.455 232.181 360.03 232.741 360.03 233.444C360.03 234.147 359.467 234.707 358.76 234.707C358.557 234.707 358.329 234.707 358.101 234.707C357.838 234.707 357.575 234.707 357.311 234.707L357.323 234.695Z" fill="#796E63"/>
<path d="M338.843 217.075C322.615 217.075 321.142 209.45 321.058 187.672C321.058 186.993 321.585 186.433 322.268 186.41C330.34 186.04 338.759 185.647 347.155 185.802C347.85 185.814 348.412 186.386 348.401 187.089C348.389 187.78 347.838 188.351 347.107 188.328C339.203 188.185 331.262 188.518 323.609 188.876C323.741 209.653 325.358 214.549 338.855 214.549C343.298 214.549 349.682 214.061 358.365 213.06C359.06 212.977 359.694 213.477 359.766 214.168C359.85 214.859 359.347 215.491 358.652 215.562C349.874 216.575 343.394 217.075 338.855 217.075H338.843Z" fill="#796E63"/>
<path d="M329.837 179.512C329.31 179.512 328.807 179.178 328.639 178.654C326.016 170.827 321.908 170.064 313.74 168.539C312.746 168.361 311.716 168.158 310.626 167.944C309.944 167.813 309.489 167.145 309.632 166.454C309.764 165.775 310.435 165.335 311.129 165.466C312.207 165.68 313.225 165.871 314.207 166.049C322.483 167.586 327.956 168.599 331.046 177.844C331.262 178.499 330.903 179.214 330.244 179.44C330.112 179.488 329.981 179.5 329.849 179.5L329.837 179.512Z" fill="#796E63"/>
<path d="M280.577 246.847C279.907 246.847 279.344 246.323 279.308 245.644C279.296 245.286 279.284 244.929 279.272 244.571C279.248 243.416 279.224 242.332 278.853 241.295C278.613 240.64 278.949 239.913 279.607 239.675C280.266 239.437 280.996 239.77 281.236 240.426C281.727 241.772 281.775 243.046 281.811 244.297C286.17 244.25 290.53 244.226 294.889 244.202C299.333 244.178 303.788 244.166 308.231 244.107C308.147 242.546 308.147 241.009 308.147 239.401C308.147 238.71 308.71 238.138 309.417 238.138C310.123 238.138 310.686 238.698 310.686 239.401C310.686 241.414 310.686 243.309 310.866 245.227C310.902 245.572 310.782 245.918 310.543 246.18C310.303 246.442 309.968 246.597 309.62 246.597C304.722 246.668 299.812 246.692 294.913 246.704C290.147 246.728 285.38 246.752 280.601 246.811L280.577 246.847Z" fill="#796E63"/>
<path d="M260.253 253.34C255.379 253.34 251.834 249.885 251.834 245.131C251.834 241.45 253.87 237.066 258.325 236.137C258.804 236.041 259.283 235.994 259.798 235.994C265.535 235.994 269.248 239.389 269.248 244.643C269.248 249.516 265.295 253.34 260.253 253.34ZM258.852 238.603C255.906 239.222 254.373 242.356 254.373 245.131C254.373 248.527 256.732 250.814 260.253 250.814C263.427 250.814 266.72 248.503 266.72 244.643C266.72 240.783 264.134 238.507 259.81 238.507C259.475 238.507 259.163 238.543 258.852 238.603Z" fill="#796E63"/>
<path d="M260.672 248.289C258.421 248.289 256.672 246.609 256.672 244.464C256.672 243.225 257.271 242.082 258.301 241.355L259.043 242.379L258.325 241.331C258.72 241.045 259.223 240.7 259.978 240.7C260.014 240.7 260.169 240.7 260.205 240.7C262.457 240.902 264.229 242.689 264.229 244.774C264.229 246.859 262.732 248.277 260.684 248.277L260.672 248.289ZM259.032 242.379L259.774 243.404C259.415 243.654 259.211 244.047 259.211 244.464C259.211 245.274 259.954 245.763 260.684 245.763C261.331 245.763 261.69 245.417 261.69 244.786C261.69 244.012 260.912 243.309 259.966 243.225C259.99 243.249 259.906 243.321 259.798 243.392L259.043 242.379H259.032Z" fill="#796E63"/>
<path d="M338.125 253.554C333.13 253.554 329.645 250.159 329.645 245.298C329.645 241.593 331.693 237.185 336.184 236.244C336.663 236.149 337.154 236.101 337.669 236.101C343.454 236.101 347.179 239.52 347.179 244.81C347.179 249.718 343.203 253.566 338.125 253.566V253.554ZM337.669 238.615C337.322 238.615 337.011 238.65 336.711 238.71C333.741 239.33 332.184 242.499 332.184 245.298C332.184 248.729 334.58 251.041 338.125 251.041C341.334 251.041 344.652 248.705 344.652 244.81C344.652 240.914 342.041 238.615 337.669 238.615Z" fill="#796E63"/>
<path d="M338.556 248.455C336.292 248.455 334.532 246.775 334.532 244.619C334.532 243.392 335.142 242.224 336.172 241.486L336.915 242.51L336.196 241.474C336.604 241.188 337.107 240.831 337.861 240.831C337.897 240.831 338.053 240.831 338.089 240.831C340.364 241.033 342.137 242.832 342.137 244.929C342.137 247.026 340.64 248.443 338.568 248.443L338.556 248.455ZM336.903 242.51L337.646 243.535C337.274 243.797 337.071 244.19 337.071 244.607C337.071 245.429 337.825 245.93 338.568 245.93C339.226 245.93 339.598 245.572 339.598 244.929C339.598 244.155 338.795 243.428 337.849 243.344C337.861 243.368 337.777 243.44 337.669 243.523L336.915 242.51H336.903Z" fill="#796E63"/>
<path d="M222.144 242.332C218.814 242.332 218.814 237.817 218.814 233.837C218.814 233.42 218.982 233.015 219.293 232.706C220.024 231.991 221.461 231.872 223.713 231.872H223.94C224.635 231.872 225.21 232.443 225.21 233.134C225.21 233.825 224.647 234.397 223.94 234.397H223.689C222.419 234.385 221.725 234.433 221.341 234.493C221.377 238.758 221.796 239.651 222.06 239.794C222.491 239.794 222.934 239.711 223.389 239.615C223.928 239.508 224.539 239.377 225.174 239.377C225.868 239.377 226.443 239.937 226.443 240.64C226.443 241.343 225.88 241.903 225.174 241.903C224.803 241.903 224.359 241.998 223.904 242.082C223.365 242.189 222.767 242.32 222.132 242.32L222.144 242.332Z" fill="#796E63"/>
<path d="M239.761 223.616C234.899 223.449 229.976 222.984 225.09 222.234C224.395 222.126 223.928 221.483 224.024 220.792C224.132 220.101 224.767 219.648 225.473 219.732C230.264 220.47 235.09 220.923 239.809 221.09C240.504 221.114 241.055 221.697 241.031 222.4C241.007 223.079 240.444 223.616 239.761 223.616Z" fill="#796E63"/>
<path d="M250.037 223.544C249.366 223.544 248.804 223.02 248.768 222.341C248.732 221.65 249.271 221.054 249.977 221.018C260.038 220.542 269.152 218.898 277.092 216.11C277.751 215.884 278.481 216.229 278.709 216.884C278.937 217.54 278.601 218.266 277.931 218.493C269.763 221.364 260.397 223.056 250.097 223.544C250.073 223.544 250.061 223.544 250.037 223.544Z" fill="#796E63"/>
<path d="M281.38 217.087C280.889 217.087 280.41 216.801 280.206 216.313C279.931 215.669 280.242 214.931 280.889 214.657C295.979 208.342 305.98 197.668 310.614 182.907C310.818 182.24 311.537 181.87 312.207 182.073C312.878 182.276 313.249 182.99 313.046 183.658C308.171 199.157 297.692 210.368 281.883 216.98C281.727 217.051 281.559 217.075 281.392 217.075L281.38 217.087Z" fill="#796E63"/>
<path d="M161.626 153.04C160.944 152.051 159.758 151.479 158.225 151.991C156.716 152.492 155.243 153.195 153.83 154.017C153.758 153.266 153.686 152.515 153.626 151.765C155.506 152.575 158.273 151.682 158.309 149.001C158.381 143.866 157.997 138.708 156.44 133.799C156.297 133.335 155.913 133.144 155.53 133.18C155.351 132.441 155.147 131.714 154.919 131C154.548 129.82 152.776 129.749 152.44 131C152.045 132.441 151.794 133.918 151.638 135.42C151.291 133.585 150.895 131.75 150.392 129.951C150.165 129.141 148.871 129.082 148.68 129.951C146.787 138.648 146.871 147.81 146.464 156.673C146.428 157.507 146.632 158.186 146.991 158.734C144.859 160.319 142.2 162.261 141.158 164.703C139.518 163.667 137.925 162.571 136.404 161.701C133.146 159.866 129.841 158.055 126.343 156.745C124.81 156.173 124.092 158.198 124.906 159.199C127.625 162.571 131.062 165.358 134.571 167.872C137.613 170.064 141.709 173.984 145.494 174.651C148.859 175.247 151.135 171.911 153.051 169.671C154.608 167.86 156.153 166.014 157.818 164.31C158.62 163.583 159.423 162.833 160.189 162.094C160.932 161.463 161.71 160.867 162.548 160.319C165.698 158.258 164.273 153.945 161.626 153.028V153.04ZM145.709 167.169C145.326 167.014 144.955 166.836 144.572 166.657C145.53 166.299 146.464 165.799 147.374 165.275C146.847 165.954 146.296 166.597 145.709 167.169Z" fill="#DAD0C6"/>
<path d="M191.22 178.058C192.071 175.675 193.412 173.722 192.885 171.148C192.789 170.672 192.334 170.505 191.927 170.588C192.035 168.313 189.963 166.085 187.448 167.646C183.879 169.874 181.388 173.769 177.495 175.473C173.555 177.188 169.04 176.462 165.004 177.975C164.129 178.296 163.938 179.69 165.004 179.929C167.447 180.489 170.046 181.132 172.657 181.418C166.609 182.228 160.536 183.384 154.476 183.884C153.698 183.943 153.674 185.099 154.476 185.111C159.842 185.206 165.195 185.957 170.561 186.278C171.902 186.362 173.244 186.445 174.585 186.517C175.04 186.541 175.507 186.576 175.962 186.6C175.795 189.221 176.058 191.961 176.19 194.57C176.753 205.447 176.046 216.801 177.615 227.571C177.711 228.226 177.926 228.738 178.226 229.155C177.471 230.347 176.944 230.239 175.471 230.513C169.854 231.574 164.129 232.169 158.464 232.944C152.332 233.778 145.59 235.1 138.955 235.47C138.667 234.326 137.865 233.313 136.44 232.884C134.787 232.384 134.356 227.797 133.984 226.511C133.278 223.985 132.583 221.459 131.865 218.934C130.631 214.573 129.876 209.105 127.242 205.364C126.798 204.733 125.936 204.864 125.673 205.567C123.529 211.13 125.038 219.041 126.212 225.176C125.613 225.403 125.098 225.891 124.87 226.737C124.271 228.929 123.96 231.264 123.84 233.528C123.816 234.028 123.948 234.481 124.188 234.874C123.816 235.291 123.673 235.886 124.032 236.411C125.002 237.793 126.128 238.817 127.361 239.568C125.864 239.341 124.355 239.163 122.822 239.139C122.164 239.139 121.768 239.866 122.08 240.426C126.319 247.943 141.29 247.335 148.62 247.431C160.417 247.586 173.555 246.609 185.004 243.654C186.537 243.261 187.46 242.117 187.843 240.795C190.621 237.566 190.921 232.539 190.849 228.393C190.729 221.292 190.023 214.228 189.687 207.139C189.388 200.73 188.705 194.141 189.292 187.732C189.592 184.515 190.13 181.096 191.22 178.046V178.058ZM182.968 183.467C182.837 183.955 182.741 184.444 182.633 184.932C181.867 182.657 180.561 181.596 178.705 181.227C178.98 181.168 179.256 181.096 179.519 181.025C181.471 180.465 183.448 179.404 185.292 178.106C184.262 179.833 183.436 181.656 182.957 183.467H182.968Z" fill="#DAD0C6"/>
<path d="M116.271 175.556C116.103 175.544 115.948 175.532 115.78 175.521C111.109 171.267 106.007 167.681 100.761 164.143C100.079 163.679 99.1686 164.596 99.6237 165.275C102.067 168.873 104.522 172.399 107.217 175.771C106.247 175.83 105.277 175.866 104.33 175.854C102.247 175.854 101.732 179.047 103.827 179.524C106.438 180.131 109.301 180.905 112.103 181.334C113.253 182.323 114.618 182.264 115.708 181.632C115.9 181.632 116.091 181.644 116.271 181.632C120.271 181.513 120.14 175.914 116.271 175.544V175.556Z" fill="#DAD0C6"/>
<path d="M130.775 242.951C129.864 242.951 128.942 242.915 128.02 242.844C123.996 242.498 120.259 241.105 116.654 239.746C115.708 239.389 114.762 239.044 113.804 238.698L108.187 236.708C107.66 236.518 107.013 236.292 106.45 235.803C104.498 234.099 104.259 230.216 104.163 225.7C104.139 224.771 104.127 223.973 104.079 223.425C103.66 218.898 103.312 214.287 103.049 209.736C102.51 200.599 102.282 191.33 102.354 182.18C101.133 181.013 99.8992 179.798 98.6536 178.582C95.0367 175.044 91.3 171.387 87.5873 168.325C86.5932 167.515 85.5992 166.705 84.6051 165.894L84.5093 165.811C84.1859 165.549 83.8386 165.275 83.5512 165.192C82.9763 165.037 82.593 164.489 82.629 163.905C82.6649 163.309 83.108 162.821 83.6949 162.725C88.8688 161.903 94.3181 160.247 99.0129 158.746C99.4321 158.615 99.8872 158.711 100.223 158.985C108.019 165.62 115.756 172.911 123.229 180.679C140.44 180.941 160.273 180.155 182.166 178.332C184.058 176.259 186.011 174.019 187.915 171.851C189.927 169.552 192.011 167.169 194.023 164.977C194.502 164.465 195.304 164.429 195.819 164.894C196.334 165.358 196.37 166.168 195.903 166.681C193.915 168.849 191.843 171.22 189.831 173.507C187.807 175.818 185.723 178.201 183.711 180.393C183.495 180.631 183.196 180.774 182.873 180.798C160.465 182.681 140.2 183.479 122.655 183.193C122.319 183.193 121.996 183.05 121.756 182.8C114.403 175.127 106.786 167.92 99.1087 161.355C95.384 162.535 91.2401 163.786 87.1082 164.643C87.8028 165.215 88.5095 165.775 89.2041 166.347C93.0126 169.48 96.7853 173.174 100.438 176.748C101.815 178.094 103.181 179.428 104.522 180.703C104.774 180.941 104.917 181.275 104.917 181.632C104.822 190.901 105.061 200.301 105.6 209.558C105.863 214.085 106.211 218.671 106.63 223.163C106.69 223.806 106.702 224.64 106.726 225.617C106.774 228.107 106.87 232.753 108.139 233.873C108.331 234.04 108.702 234.171 109.049 234.302L114.666 236.292C115.636 236.637 116.594 236.994 117.553 237.352C121.158 238.698 124.571 239.973 128.248 240.294C130.487 240.485 132.811 240.366 135.05 240.235L178.298 237.864C180.429 237.745 181.962 237.209 182.513 236.375C182.885 235.803 182.861 234.969 182.453 233.897C182.202 233.242 182.537 232.515 183.196 232.265C183.855 232.015 184.585 232.348 184.837 233.003C185.543 234.874 185.484 236.482 184.645 237.757C183.615 239.329 181.519 240.223 178.441 240.39L135.194 242.749C133.745 242.832 132.272 242.904 130.775 242.904V242.951Z" fill="#796E63"/>
<path d="M183.747 238.46C183.052 238.46 182.489 237.912 182.477 237.221L181.196 179.571C181.184 178.868 181.735 178.296 182.441 178.284C183.148 178.284 183.723 178.821 183.735 179.523L185.016 237.173C185.028 237.876 184.478 238.448 183.747 238.46Z" fill="#796E63"/>
<path d="M125.182 236.899C124.523 236.899 123.972 236.399 123.912 235.743C122.415 218.088 121.661 200.158 121.649 182.442C121.649 181.739 122.211 181.179 122.918 181.179C123.625 181.179 124.188 181.739 124.188 182.442C124.188 200.086 124.954 217.945 126.439 235.529C126.499 236.22 125.984 236.84 125.277 236.899C125.242 236.899 125.206 236.899 125.17 236.899H125.182Z" fill="#796E63"/>
<path d="M103.935 182.55C103.277 182.55 102.726 182.049 102.666 181.394C102.606 180.703 103.121 180.083 103.827 180.024C109.684 179.535 115.636 179.535 121.505 180.024C122.199 180.083 122.726 180.691 122.667 181.394C122.607 182.085 121.996 182.609 121.289 182.55C115.564 182.073 109.756 182.073 104.043 182.55C104.007 182.55 103.971 182.55 103.935 182.55Z" fill="#796E63"/>
<path d="M160.477 181.513C160.141 181.513 159.806 181.382 159.566 181.12C159.075 180.62 159.099 179.821 159.602 179.333C164.129 174.996 168.8 170.672 173.495 166.502C173.735 166.288 174.034 166.168 174.357 166.18C180.513 166.24 187.041 165.513 193.364 164.81L194.574 164.679C195.268 164.608 195.903 165.096 195.975 165.799C196.047 166.49 195.556 167.122 194.849 167.193L193.64 167.324C187.412 168.015 180.932 168.742 174.812 168.718C170.273 172.769 165.746 176.95 161.351 181.156C161.099 181.394 160.788 181.513 160.465 181.513H160.477Z" fill="#796E63"/>
<path d="M157.315 214.049C157.039 214.049 156.704 213.966 156.357 213.703C154.883 212.572 153.53 211.285 152.321 209.879C150.692 211.225 148.943 212.453 147.135 213.537C146.536 213.894 145.745 213.703 145.386 213.108C145.027 212.512 145.218 211.738 145.817 211.368C147.877 210.141 149.829 208.712 151.626 207.127C151.889 206.901 152.237 206.782 152.584 206.817C152.931 206.853 153.255 207.032 153.47 207.306C154.644 208.807 155.985 210.177 157.47 211.368C157.554 211.368 157.638 211.392 157.722 211.416C158.237 211.571 158.608 212.024 158.668 212.572C158.716 213.072 158.441 213.632 157.997 213.882C157.89 213.942 157.638 214.061 157.303 214.061L157.315 214.049Z" fill="#796E63"/>
<path d="M152.488 228.035C151.794 228.035 151.231 227.487 151.219 226.785L150.943 208.759C150.943 208.056 151.494 207.485 152.201 207.473C152.931 207.473 153.482 208.021 153.494 208.724L153.77 226.749C153.77 227.452 153.219 228.024 152.5 228.035H152.488Z" fill="#796E63"/>
<path d="M161.075 213.215C160.716 213.215 160.369 213.072 160.117 212.774C159.662 212.25 159.722 211.452 160.249 210.987L166.704 205.447C166.992 205.197 167.387 205.09 167.758 205.161C168.142 205.233 168.465 205.459 168.645 205.793C169.148 206.698 170.058 207.401 171.016 208.152C171.866 208.819 172.753 209.498 173.459 210.403C173.483 210.403 173.507 210.427 173.543 210.439C174.07 210.677 174.381 211.237 174.309 211.833C174.25 212.369 173.794 212.881 173.267 212.989C173.04 213.036 172.249 213.132 171.687 212.286C171.16 211.488 170.321 210.844 169.447 210.153C168.704 209.581 167.95 208.998 167.315 208.271L161.914 212.917C161.674 213.12 161.375 213.227 161.087 213.227L161.075 213.215Z" fill="#796E63"/>
<path d="M167.423 226.749C166.728 226.749 166.165 226.201 166.153 225.51C166.046 219.577 166.022 213.549 166.094 207.592C166.094 206.889 166.68 206.341 167.375 206.341C168.082 206.341 168.645 206.925 168.633 207.616C168.561 213.549 168.585 219.553 168.692 225.462C168.704 226.165 168.153 226.737 167.423 226.749Z" fill="#796E63"/>
<path d="M147.075 229.644C146.392 229.644 145.829 229.108 145.805 228.417C145.781 227.714 146.332 227.142 147.039 227.118L171.627 226.415C172.321 226.391 172.908 226.939 172.932 227.642C172.956 228.345 172.405 228.917 171.699 228.941C171.699 228.941 147.111 229.644 147.075 229.644Z" fill="#796E63"/>
<path d="M144.476 169.993C144.188 169.993 143.901 169.897 143.661 169.695C141.542 167.932 139.302 166.264 136.99 164.751C134.128 162.88 131.062 161.177 128.104 159.533L117.972 153.909C117.493 153.647 117.241 153.099 117.337 152.563C117.445 152.027 117.876 151.622 118.415 151.55C120.643 151.265 122.942 151.193 125.17 151.134C127.301 151.074 129.493 151.014 131.589 150.752C131.529 144.557 130.811 137.552 129.326 128.831C129.266 128.474 129.361 128.105 129.589 127.819C129.817 127.533 130.164 127.366 130.523 127.354C133.996 127.211 137.673 126.901 141.23 126.592C144.823 126.282 148.524 125.96 152.057 125.829C152.416 125.829 152.776 125.96 153.027 126.222C153.279 126.484 153.41 126.842 153.374 127.211C152.596 135.646 152.464 143.985 152.967 152.027C153.77 151.896 154.596 151.729 155.458 151.574C157.985 151.098 160.608 150.609 163.004 150.633C163.542 150.633 164.01 150.979 164.189 151.491C164.369 151.991 164.201 152.551 163.782 152.885C157.219 158.151 151.027 163.774 145.386 169.6C145.135 169.862 144.799 169.993 144.476 169.993ZM122.87 153.743L129.326 157.329C132.332 158.996 135.434 160.724 138.38 162.642C140.44 163.988 142.452 165.454 144.38 167.014C148.955 162.356 153.865 157.829 159.027 153.516C158.009 153.671 156.967 153.874 155.937 154.064C154.8 154.279 153.638 154.505 152.512 154.66C152.404 154.755 152.308 154.815 152.225 154.851C151.734 155.101 151.147 155.041 150.716 154.684C150.272 154.314 150.081 153.743 150.237 153.206C150.284 153.052 150.356 152.909 150.452 152.79C149.925 144.891 150.009 136.706 150.704 128.426C147.662 128.581 144.5 128.855 141.434 129.117C138.332 129.379 135.134 129.653 132.044 129.82C133.469 138.541 134.128 145.57 134.104 151.848C134.104 152.468 133.649 152.992 133.038 153.087C130.451 153.516 127.781 153.588 125.206 153.659C124.427 153.683 123.637 153.695 122.846 153.731L122.87 153.743Z" fill="#796E63"/>
<path d="M248.19 120.1C259.572 118.067 261.186 106.393 257.333 97.7999C249.414 101.76 241.727 110.509 248.19 120.1Z" stroke="#796E63" stroke-width="2.5" stroke-linejoin="round"/>
<path d="M187.421 271.758C180.536 272.695 179.276 279.665 181.375 284.921C186.229 282.74 191.063 277.678 187.421 271.758Z" stroke="#796E63" stroke-width="2.5" stroke-linejoin="round"/>
<path d="M101.158 101.087C104.93 95.2516 100.461 89.7572 95.105 87.9281C93.5998 93.0317 94.2938 99.9964 101.158 101.087Z" stroke="#796E63" stroke-width="2.5" stroke-linejoin="round"/>
</g>
<defs>
<clipPath id="clip0_168_1583">
<rect width="288" height="210" fill="white" transform="translate(77 82.5234)"/>
</clipPath>
</defs>
</svg>
