<svg width="388" height="502" viewBox="0 0 388 502" fill="none" xmlns="http://www.w3.org/2000/svg">
<path d="M70.2836 394.686C58.3401 408.144 67.6012 423.96 80.5743 430.741C86.4334 418.268 87.4029 400.169 70.2836 394.686Z" fill="#D1C143"/>
<path d="M71.409 395.7C58.8468 388.77 48.1689 398.746 45.1687 410.026C55.8979 412.396 70.1458 409.977 71.409 395.7Z" fill="#D1C143"/>
<path d="M49.0348 440.771C38.0435 438.345 32.223 448.223 32.4693 457.376C41.0692 456.778 51.2535 451.795 49.0348 440.771Z" fill="#D1C143"/>
<path d="M71.3459 487.262C66.1268 491.271 68.3601 497.59 72.5506 500.922C75.5166 496.847 77.1152 490.414 71.3459 487.262Z" fill="#D1C143"/>
<path d="M307.22 66.3271C315.046 78.8619 329.656 75.241 338.012 66.5974C329.548 59.0842 315.516 54.1157 307.22 66.3271Z" fill="#D1C143"/>
<path d="M307.102 67.3548C315.763 61.7532 313.074 51.5969 306.948 45.861C301.799 51.8519 298.487 61.7003 307.102 67.3548Z" fill="#D1C143"/>
<path d="M324.412 15.4982C330.561 11.8335 328.954 4.72127 324.852 0.587547C321.128 4.61153 318.581 11.3576 324.412 15.4982Z" fill="#D1C143"/>
<path d="M59.4744 385.699C-6.91181 324.845 -3.22369 238.174 6.91865 202.445C59.4744 -8.46913 266.24 33.0221 318.795 75.205C371.351 117.388 399.012 168.561 381.033 293.726C363.053 418.892 142.457 461.766 59.4744 385.699Z" stroke="#D1C143" stroke-width="2"/>
<g clip-path="url(#clip0_168_1584)">
<path d="M260.301 222.724C260.097 222.724 259.893 222.667 259.712 222.554L254.077 218.978L247.082 221.759C246.674 221.918 246.198 221.816 245.891 221.498C245.585 221.18 245.506 220.703 245.676 220.295L248.476 213.96L244.112 208.283C243.851 207.943 243.817 207.477 244.009 207.103C244.214 206.728 244.622 206.49 245.053 206.524L251.753 206.989L255.313 200.734C255.528 200.359 255.948 200.132 256.39 200.189C256.821 200.234 257.183 200.541 257.308 200.961L259.36 207.829L265.902 209.169C266.333 209.26 266.661 209.589 266.752 210.02C266.843 210.452 266.661 210.883 266.31 211.144L261.106 214.789L261.378 221.6C261.39 222.009 261.185 222.384 260.834 222.588C260.664 222.69 260.471 222.736 260.29 222.736L260.301 222.724ZM254.19 216.662C254.394 216.662 254.598 216.719 254.78 216.832L259.133 219.591L258.929 214.255C258.918 213.88 259.088 213.528 259.394 213.313L262.999 210.792L258.306 209.839C257.909 209.759 257.592 209.464 257.478 209.078L255.97 204.037L253.34 208.669C253.136 209.033 252.728 209.26 252.32 209.214L247.354 208.862L250.63 213.131C250.88 213.449 250.925 213.869 250.767 214.244L248.782 218.728L253.805 216.73C253.93 216.673 254.066 216.65 254.202 216.65L254.19 216.662Z" fill="#796E63"/>
<path d="M182.356 293.133C182.481 293.78 182.05 294.416 181.404 294.541C180.758 294.666 180.123 294.234 179.998 293.587C179.794 292.543 179.499 291.476 179.17 290.352C178.853 289.228 178.513 288.058 178.297 286.912C178.173 286.265 178.603 285.629 179.25 285.504C179.896 285.379 180.531 285.81 180.656 286.458C180.86 287.502 181.154 288.569 181.483 289.693C181.801 290.817 182.141 291.986 182.356 293.133Z" fill="#796E63"/>
<path d="M158.672 304.288C154.281 309.673 158.12 315.626 163.243 318.032C165.299 313.125 165.375 306.126 158.672 304.288Z" stroke="#796E63" stroke-width="2.5" stroke-linejoin="round"/>
<path d="M192.432 173.258C198.861 170.623 198.332 163.56 194.98 158.999C190.83 162.328 187.421 168.441 192.432 173.258Z" stroke="#796E63" stroke-width="2.5" stroke-linejoin="round"/>
<path d="M131.123 304.032C130.817 304.475 130.239 304.668 129.717 304.475C129.094 304.236 128.788 303.544 129.014 302.919C129.286 302.204 129.366 301.33 129.445 300.422C129.513 299.616 129.592 298.787 129.797 297.958C129.955 297.311 130.613 296.925 131.259 297.084C131.905 297.243 132.291 297.901 132.132 298.548C131.973 299.195 131.905 299.888 131.837 300.626C131.747 301.659 131.656 302.738 131.259 303.771C131.225 303.861 131.18 303.952 131.123 304.032Z" fill="#796E63"/>
<path d="M153.155 166.72C152.746 166.198 152.848 165.438 153.37 165.029C153.892 164.62 154.651 164.722 155.059 165.245C155.445 165.733 155.91 166.187 156.408 166.675C156.941 167.197 157.497 167.731 157.984 168.355C158.392 168.878 158.29 169.638 157.769 170.047C157.247 170.456 156.488 170.353 156.08 169.831C155.694 169.343 155.229 168.889 154.73 168.401C154.198 167.878 153.642 167.345 153.155 166.72Z" fill="#796E63"/>
<path d="M299.864 191.493C299.234 191.698 298.554 191.341 298.348 190.712C298.143 190.082 298.499 189.403 299.129 189.198C299.72 189.003 300.306 188.722 300.935 188.42C301.608 188.099 302.3 187.759 303.054 187.515C303.684 187.31 304.364 187.667 304.569 188.297C304.775 188.927 304.419 189.605 303.788 189.81C303.197 190.005 302.612 190.286 301.982 190.588C301.309 190.91 300.618 191.249 299.864 191.493Z" fill="#796E63"/>
<path d="M126.135 218.023C125.194 217.807 124.151 218.761 124.536 219.737C126.316 224.199 129.15 227.934 129.252 232.94C129.354 237.799 127.336 242.761 124.468 246.621C121.43 250.708 117.099 254.363 112.122 255.726C109.673 256.395 107.009 256.532 104.514 256.055C102.054 255.578 100.025 254.045 97.6101 253.648C97.0319 253.557 96.3516 254.091 96.6124 254.726C98.5964 259.608 106.385 261.084 111.09 260.959C118.267 260.766 124.956 257.008 129.309 251.4C133.424 246.098 136.043 239.548 135.556 232.747C135.148 226.878 132.495 219.465 126.123 218.023H126.135Z" fill="#DAD0C6"/>
<path d="M145.011 224.971C143.855 221.701 142.268 218.148 139.524 215.934C136.803 213.743 133.799 210.541 130.307 209.69C129.332 209.451 128.799 210.666 129.445 211.336C132.155 214.129 134.808 215.434 136.486 219.226C137.755 222.121 139.456 224.653 140.284 227.763C141.95 233.962 141.327 240.615 138.787 246.496C136.191 252.49 131.985 257.304 126.747 261.129C123.901 263.207 121.01 265.023 117.643 266.159C114.276 267.294 110.705 267.271 107.326 268.304C107.122 268.361 107.133 268.611 107.292 268.724C113.505 272.868 123.947 269.338 129.717 265.773C136.304 261.686 141.485 254.738 144.274 247.586C147.097 240.354 147.607 232.35 145.011 224.982V224.971Z" fill="#DAD0C6"/>
<path d="M147.902 204.116C146.53 201.856 143.413 203.219 143.288 205.546C143.231 206.613 143.56 207.839 142.472 208.498C141.463 209.111 140.079 208.906 139.014 209.395C138.583 209.588 138.095 210.019 138.186 210.564C138.742 213.924 142.902 213.947 145.317 212.539C148.084 210.927 149.637 206.976 147.913 204.116H147.902Z" fill="#DAD0C6"/>
<path d="M162.414 226.662C156.065 228.99 149.682 231.249 143.333 233.553C143.175 234.564 143.141 235.665 143.129 236.834C143.061 242.113 142.177 247.2 140.714 252.263C140.34 253.557 140.669 254.681 141.361 255.532C138.991 257.224 136.576 258.802 134.105 260.289C133.923 260.38 133.742 260.471 133.561 260.562C133.164 260.732 132.846 260.959 132.563 261.209C127.348 264.263 121.94 266.965 116.441 269.61C116.203 267.759 114.593 266.147 112.11 266.772C108.267 267.737 103.426 268.327 99.0159 267.805C93.7554 263.582 89.572 258.405 85.91 252.751C85.6379 252.331 85.3318 252.013 85.003 251.763C82.2934 253.228 79.5498 254.624 76.7722 255.975C80.933 264.74 85.4339 273.368 88.835 282.427C91.692 281.962 94.6057 280.554 97.0659 279.725C102.372 277.932 107.598 276.149 112.745 274.004C120.874 272.857 128.708 270.007 136.089 266.25C146.44 263.491 156.927 260.323 166.835 256.248C170.112 254.897 171.744 252.433 170.894 248.88C169.681 243.782 167.107 238.674 165.271 233.769C164.511 231.726 163.854 228.74 162.403 226.662H162.414Z" fill="#DAD0C6"/>
<path d="M153.514 193.24C153.446 193.262 153.48 193.364 153.548 193.342C153.616 193.319 153.582 193.217 153.514 193.24Z" fill="#DAD0C6"/>
<path d="M143.787 254.204C142.71 255.226 141.361 255.873 140.408 257.02C139.49 258.132 140.488 260.017 141.984 259.506C142.449 259.347 142.914 259.188 143.311 258.893C143.685 258.609 144.013 258.212 144.32 257.848C144.898 257.167 145.419 256.441 145.884 255.68C146.7 254.363 144.796 253.239 143.787 254.204Z" fill="#DAD0C6"/>
<path d="M121.6 192.763C120.375 191.809 118.709 191.639 117.269 191.083C116.237 190.685 114.389 190.061 113.845 191.537C113.301 193.013 114.967 193.989 115.988 194.613C117.258 195.385 118.731 196.384 120.251 196.384C121.974 196.384 123.028 193.898 121.588 192.774L121.6 192.763Z" fill="#DAD0C6"/>
<path d="M145.646 187.586C145.317 187.109 145 186.678 144.478 186.394C144.184 186.235 143.866 186.099 143.56 185.962C142.653 185.554 141.791 185.02 140.748 185.327C139.773 185.61 139.275 186.678 139.535 187.631C139.807 188.63 140.816 189.107 141.61 189.652C141.859 189.822 142.109 190.027 142.381 190.174C142.914 190.469 143.492 190.504 144.093 190.526C145.544 190.606 146.417 188.721 145.635 187.586H145.646Z" fill="#DAD0C6"/>
<path d="M171.574 229.739C171.166 226.072 170.815 222.394 169.364 218.965C167.527 214.64 164.5 210.768 162.187 206.693C159.33 201.652 157.369 196.169 154.364 191.219C154.33 191.173 154.274 191.196 154.262 191.253C154.07 196.396 154.841 201.766 156.689 206.602C158.605 211.642 162.459 215.514 164.33 220.532C166.087 225.277 165.328 230.465 166.178 235.37C167.187 241.16 169.33 246.484 171.744 251.797C171.37 252.762 170.667 253.625 169.454 254.318C161.541 258.825 153.174 262.469 144.66 265.659C136.622 268.668 128.436 271.256 120.205 273.686C111.997 276.104 103.846 279.896 95.5013 281.678C94.9798 281.792 95.0365 282.609 95.5354 282.7C104.616 284.38 114.627 280.668 123.278 278.193C133.572 275.252 143.809 272.028 153.752 268.021C158.446 266.136 163.071 264.081 167.618 261.845C170.905 260.221 175.406 258.689 177.277 255.283C179.182 251.843 177.991 247.824 177.084 244.259C175.803 239.207 174.465 234.371 171.699 229.909C171.665 229.852 171.62 229.796 171.574 229.739Z" fill="#DAD0C6"/>
<path d="M85.7286 285.073C83.2118 285.856 80.5135 284.55 79.5498 282.087C77.9513 277.977 76.364 273.901 74.7882 269.86C68.4166 253.512 62.3852 238.083 57.2608 222.984C56.4331 220.566 57.6349 217.898 60.0044 216.91C62.1358 216.025 64.2785 215.139 66.4213 214.276C67.0335 214.027 67.7364 214.322 67.9858 214.935C68.2352 215.548 67.9405 216.252 67.3282 216.501C65.1968 217.364 63.0541 218.238 60.934 219.124C59.7436 219.624 59.1314 220.974 59.5509 222.201C64.664 237.254 70.6841 252.66 77.0443 268.974C78.6202 273.016 80.2187 277.091 81.8059 281.213C82.3048 282.495 83.7219 283.177 85.0371 282.768C93.0185 280.179 101.102 277.625 108.913 275.15C128.924 268.827 149.614 262.276 169.704 254.897C170.293 254.681 170.792 254.227 171.053 253.648C171.314 253.069 171.336 252.399 171.11 251.809C164.851 235.529 158.99 218.466 153.163 199.665C152.573 197.769 151.995 195.862 151.417 193.955C150.861 192.104 149.002 191.003 147.109 191.389C135.499 193.762 123.3 196.918 110.841 200.789C98.381 204.66 86.3408 208.941 72.8722 214.276C72.2486 214.526 71.557 214.22 71.319 213.595C71.0809 212.982 71.3757 212.278 71.9992 212.04C85.5359 206.693 98.0069 202.254 110.138 198.496C122.269 194.738 134.944 191.423 146.632 189.039C149.75 188.403 152.8 190.22 153.718 193.262C154.296 195.158 154.875 197.054 155.464 198.961C161.269 217.716 167.119 234.723 173.354 250.957C173.808 252.149 173.774 253.489 173.241 254.658C172.719 255.816 171.733 256.736 170.531 257.167C150.396 264.569 129.672 271.12 109.639 277.455C101.828 279.93 93.7554 282.484 85.808 285.05L85.7513 285.073H85.7286Z" fill="#796E63"/>
<path d="M79.9239 211.54C79.7425 211.597 79.5385 211.608 79.3457 211.574C78.6995 211.449 78.2687 210.814 78.3934 210.167C78.7902 208.078 78.3141 205.671 77.8492 203.82C77.7018 203.219 78.0306 202.606 78.6088 202.401C87.2478 199.325 93.5287 197.065 98.2676 195.374C106.714 192.343 110.206 191.094 113.233 190.083C113.811 189.845 114.48 190.186 114.718 190.765C115.546 192.774 116.611 195.079 118.119 196.861C118.55 197.372 118.493 198.121 117.983 198.553C117.473 198.984 116.725 198.927 116.294 198.416C114.831 196.691 113.777 194.636 112.938 192.717C110.126 193.671 106.544 194.954 99.0726 197.633C94.5263 199.268 88.5403 201.402 80.4228 204.309C80.8423 206.227 81.1597 208.498 80.7402 210.632C80.6495 211.086 80.3207 211.427 79.9126 211.552L79.9239 211.54Z" fill="#796E63"/>
<path d="M140.193 191.764C139.603 191.945 138.968 191.65 138.73 191.071C138.345 190.14 138.027 189.266 137.71 188.381C136.588 188.562 135.454 188.721 134.331 188.88C132.54 189.13 130.704 189.402 128.901 189.754C128.924 189.868 128.946 189.981 128.969 190.106C129.23 191.332 129.49 192.592 129.592 193.966C129.638 194.625 129.139 195.204 128.481 195.249C127.824 195.294 127.246 194.795 127.2 194.136C127.11 192.933 126.872 191.798 126.622 190.594C126.509 190.072 126.407 189.561 126.305 189.039C126.191 188.403 126.599 187.79 127.223 187.643C129.479 187.143 131.769 186.814 133.98 186.507C135.409 186.303 136.848 186.099 138.277 185.849C138.844 185.747 139.411 186.076 139.615 186.621L139.887 187.359C140.215 188.278 140.544 189.187 140.952 190.152C141.202 190.765 140.918 191.469 140.295 191.718C140.261 191.73 140.227 191.741 140.193 191.752V191.764Z" fill="#796E63"/>
<path d="M142.472 210.712C140.216 211.415 137.245 210.348 136.406 207.646C135.873 205.909 136.372 203.945 137.721 202.538C139.853 200.312 144.592 200.46 145.861 204.547C146.689 207.204 144.376 210.11 142.472 210.7V210.712ZM140.442 203.605C140.057 203.718 139.717 203.934 139.456 204.206C138.708 204.99 138.424 206.034 138.708 206.942C139.15 208.362 140.794 208.713 141.769 208.418C142.653 208.146 143.923 206.42 143.571 205.274C142.982 203.378 141.27 203.366 140.442 203.616V203.605Z" fill="#796E63"/>
<path d="M117.802 261.833C106.725 265.262 92.5083 259.869 87.8827 244.906C84.2661 233.236 88.9371 218.829 104.855 213.89C106.884 213.266 108.947 212.88 110.999 212.755C118.765 212.267 125.726 214.617 130.59 219.385C133.016 221.758 134.83 224.857 135.987 228.592C139.762 240.808 134.683 256.611 117.813 261.845L117.802 261.833ZM105.557 216.184C94.651 219.567 85.8647 230.272 90.1728 244.191C93.4606 254.817 104.424 263.468 117.087 259.54C132.472 254.772 137.12 240.399 133.685 229.296C132.654 225.947 131.044 223.188 128.901 221.099C123.3 215.616 116.158 214.844 111.147 215.151C109.287 215.264 107.405 215.616 105.557 216.184Z" fill="#796E63"/>
<path d="M119.106 267.578C105.421 271.824 87.8374 265.148 82.112 246.632C79.8333 239.264 80.1394 231.941 83.0077 225.459C83.2798 224.846 83.9827 224.573 84.5949 224.846C85.1958 225.118 85.4792 225.822 85.2071 226.435C82.5769 232.373 82.3048 239.116 84.4135 245.917C89.6967 262.991 105.841 269.167 118.403 265.273C137.801 259.256 143.651 241.126 139.32 227.128C138.016 222.893 135.975 219.408 133.277 216.763C127.756 211.359 119.797 208.691 110.875 209.258C108.528 209.406 106.158 209.849 103.823 210.564C96.9298 212.698 91.0912 216.933 87.3839 222.473C87.0211 223.029 86.2728 223.177 85.7173 222.802C85.1618 222.439 85.0144 221.69 85.3885 221.133C89.3906 215.139 95.6827 210.564 103.109 208.271C105.614 207.487 108.176 207.022 110.716 206.863C120.33 206.261 128.935 209.168 134.944 215.048C137.937 217.977 140.181 221.803 141.61 226.424C146.281 241.546 139.989 261.107 119.106 267.578Z" fill="#796E63"/>
<path d="M69.6637 253.625C69.0402 253.818 68.3713 253.478 68.1672 252.853C67.9518 252.229 68.2919 251.548 68.9268 251.332L83.3365 246.518C83.96 246.314 84.6402 246.643 84.8557 247.279C85.0711 247.903 84.7309 248.585 84.0961 248.8C84.0961 248.8 69.6864 253.614 69.6637 253.614V253.625Z" fill="#796E63"/>
<path d="M141.315 229.705C140.692 229.898 140.023 229.557 139.819 228.933C139.603 228.308 139.943 227.627 140.578 227.412L161.133 220.554C161.711 220.327 162.437 220.691 162.652 221.315C162.867 221.94 162.527 222.621 161.892 222.836C161.892 222.836 141.338 229.693 141.304 229.705H141.315Z" fill="#796E63"/>
<path d="M117.824 251.934C114.831 252.865 111.385 253.126 107.859 252.694C107.201 252.615 106.737 252.013 106.816 251.355C106.895 250.696 107.496 250.231 108.154 250.31C111.339 250.708 114.446 250.469 117.121 249.64C119.797 248.812 122.087 247.324 123.686 245.315C124.094 244.793 124.854 244.702 125.375 245.122C125.897 245.531 125.987 246.291 125.568 246.814C123.663 249.22 121.067 250.946 117.836 251.945L117.824 251.934Z" fill="#796E63"/>
<path d="M128.992 240.808C128.776 240.876 128.538 240.887 128.3 240.808C127.665 240.615 127.302 239.945 127.484 239.309C128.277 236.63 128.357 234.337 127.722 232.305C127.642 232.044 127.552 231.794 127.45 231.544C127.2 230.931 127.484 230.227 128.107 229.977C128.731 229.716 129.422 230.011 129.672 230.636C129.808 230.954 129.921 231.283 130.023 231.612C130.794 234.11 130.726 236.857 129.797 240.002C129.683 240.399 129.366 240.694 129.003 240.808H128.992Z" fill="#796E63"/>
<path d="M68.8928 259.199C67.4189 259.654 66.2739 257.985 65.0154 255.328C64.1425 253.478 63.3829 251.457 63.2355 250.969C62.1244 247.37 64.3012 246.269 65.2875 245.962C65.537 245.883 65.7977 245.826 66.1038 245.78C66.7614 245.678 67.3736 246.132 67.4643 246.791C67.5663 247.449 67.1128 248.062 66.4553 248.153C66.2852 248.176 66.1378 248.21 65.9905 248.255C65.5483 248.392 65.0041 248.562 65.5256 250.253C65.9224 251.514 67.623 255.612 68.5527 256.725C68.8588 256.566 69.1309 256.429 69.4143 256.339C70.0492 256.146 70.7181 256.497 70.9108 257.133C71.1036 257.769 70.7521 258.439 70.1172 258.643C69.9925 258.677 69.8565 258.768 69.7091 258.836C69.4597 258.961 69.1762 259.109 68.8928 259.199Z" fill="#796E63"/>
<path d="M165.668 227.57C165.35 227.673 164.999 227.741 164.647 227.809C164.387 227.854 164.137 227.911 163.922 227.968C163.287 228.161 162.618 227.809 162.414 227.173C162.21 226.537 162.573 225.868 163.207 225.663C163.502 225.572 163.842 225.504 164.182 225.436C164.421 225.391 164.647 225.345 164.874 225.289C165.237 224.63 164.885 221.781 164.126 219.294C162.754 214.855 162.3 214.969 161.087 215.253C160.645 215.355 160.146 215.48 159.557 215.536C158.899 215.605 158.31 215.128 158.242 214.469C158.174 213.811 158.65 213.221 159.307 213.152C159.738 213.107 160.135 213.016 160.521 212.914C163.366 212.221 164.681 212.982 166.416 218.579C167.153 220.974 168.57 226.651 165.679 227.548L165.668 227.57Z" fill="#796E63"/>
<g clip-path="url(#clip1_168_1584)">
<path d="M218.806 287.209C218.366 286.069 217.286 284.849 215.906 284.999C211.656 285.459 214.196 289.539 211.946 291.769C208.806 294.869 204.906 293.789 201.076 293.339C200.056 293.219 199.406 294.569 199.916 295.359C205.106 303.449 222.636 297.129 218.816 287.209H218.806Z" fill="#DAD0C6"/>
<path d="M267.006 286.059C263.026 283.679 262.356 288.979 261.176 291.279C258.796 295.919 253.386 295.249 249.906 292.309C249.536 291.999 248.876 291.869 248.526 292.309C244.746 296.999 253.196 300.569 256.726 300.779C263.306 301.179 268.136 294.979 268.646 288.909C268.746 287.769 267.946 286.619 267.016 286.059H267.006Z" fill="#DAD0C6"/>
<path d="M259.136 285.379C258.686 284.679 257.856 284.299 257.036 284.529C256.126 284.779 255.386 285.579 255.006 286.419C254.646 287.219 254.496 287.959 254.786 288.809C255.036 289.529 255.906 289.799 256.476 289.259C256.486 289.249 256.696 289.069 256.626 289.119C256.716 289.049 256.806 288.989 256.896 288.919C257.016 288.829 257.116 288.729 257.226 288.629C257.246 288.609 257.256 288.589 257.276 288.579C257.286 288.579 257.296 288.569 257.316 288.559C257.496 288.439 257.686 288.339 257.886 288.239C257.906 288.229 257.946 288.209 257.986 288.179C258.116 288.129 258.246 288.069 258.376 288.019C258.536 287.899 258.696 287.769 258.856 287.649C259.466 287.159 259.556 286.029 259.146 285.399L259.136 285.379Z" fill="#DAD0C6"/>
<path d="M206.816 284.089C205.886 283.599 204.346 283.759 203.876 284.859C203.766 285.109 203.656 285.359 203.506 285.589C203.496 285.609 203.496 285.609 203.486 285.629C203.396 285.719 203.326 285.809 203.236 285.889C202.966 286.139 202.716 286.429 202.526 286.749C201.986 287.609 202.276 288.779 203.106 289.319C204.836 290.439 206.886 288.539 207.606 287.039C208.096 286.029 207.916 284.669 206.836 284.099L206.816 284.089Z" fill="#DAD0C6"/>
<path d="M193.936 223.609C192.756 221.469 189.836 222.209 189.096 224.239C188.556 225.719 186.346 224.729 185.646 224.069C185.436 223.869 185.136 223.979 185.036 224.229C184.266 226.229 185.576 228.149 187.476 228.969C188.366 229.349 189.286 229.399 190.156 229.209C190.436 229.989 190.816 230.709 191.416 231.279C192.176 231.999 193.276 231.969 194.046 231.279C196.226 229.319 195.166 225.819 193.946 223.609H193.936Z" fill="#DAD0C6"/>
<path d="M289.126 232.079C288.996 231.889 288.636 231.819 288.526 232.079C288.396 232.379 288.276 232.679 288.176 232.979C287.986 232.649 287.776 232.329 287.496 232.019C286.736 231.159 285.036 231.339 284.526 232.399C283.206 235.169 282.736 238.109 281.156 240.829C279.586 243.549 277.686 246.329 274.766 247.719C268.736 250.599 260.616 248.209 255.416 244.739C255.216 244.599 254.866 244.779 254.896 245.039C254.976 245.689 255.126 246.299 255.326 246.869C254.676 246.209 254.026 245.529 253.386 244.819C253.226 244.649 252.916 244.729 252.856 244.959C251.966 248.639 253.166 251.589 255.436 253.829C254.336 253.559 253.156 253.419 251.956 253.349C251.906 253.069 251.856 252.789 251.806 252.519C251.696 251.969 250.836 251.989 250.716 252.519C250.656 252.769 250.596 253.029 250.536 253.279C248.676 253.229 246.806 253.279 245.126 253.209C242.906 253.119 240.676 253.059 238.446 253.019C238.426 252.169 238.416 251.319 238.416 250.479C238.416 248.229 238.976 244.189 238.156 241.359C241.956 241.079 245.746 240.749 249.536 240.359C251.596 240.149 251.616 236.899 249.536 237.109C241.536 237.929 233.516 238.529 225.486 238.879C217.936 239.199 210.036 238.719 202.586 240.089C201.986 240.199 202.016 241.139 202.586 241.269C208.216 242.539 214.256 242.489 220.126 242.269C219.826 245.829 220.056 249.459 220.176 252.999C220.176 253.109 220.176 253.219 220.176 253.329C219.986 253.329 219.806 253.349 219.616 253.359C215.526 253.589 210.966 253.629 207.116 255.109C206.726 255.259 206.626 255.899 207.116 256.009C210.936 256.799 215.046 256.329 218.926 256.219C219.366 256.209 219.806 256.199 220.236 256.179C220.296 259.539 220.356 263.009 220.986 266.209C221.146 267.009 222.136 267.519 222.886 267.289C223.756 267.009 223.846 266.609 224.016 265.799C224.246 264.689 223.756 262.949 223.696 261.769C223.606 260.199 223.516 258.619 223.426 257.049C223.406 256.739 223.396 256.419 223.376 256.099C226.256 256.039 229.126 255.989 232.006 256.009C233.006 256.009 233.996 256.029 234.996 256.049C234.806 259.649 234.626 263.289 235.126 266.789C235.326 268.199 237.696 268.159 237.936 266.789C238.546 263.359 238.556 259.709 238.476 256.099C240.446 256.139 242.426 256.199 244.396 256.279C246.076 256.349 247.886 256.569 249.696 256.749C249.156 259.239 248.726 261.799 248.856 264.159C248.946 265.979 251.606 266.469 252.116 264.599C252.756 262.229 252.736 259.549 252.446 256.939C254.046 256.989 255.616 256.919 257.076 256.559C257.556 256.439 257.786 256.129 257.856 255.779C259.106 256.569 260.506 257.209 261.966 257.719C261.956 257.759 261.936 257.789 261.926 257.829C260.986 261.749 260.636 267.099 256.946 269.589C254.716 271.089 251.746 271.189 249.156 271.439C246.166 271.739 243.166 271.909 240.156 272.009C234.366 272.199 228.576 272.059 222.796 272.129C217.076 272.199 210.186 272.629 206.736 267.019C206.556 266.729 206.096 266.849 206.086 267.199C205.976 273.189 211.536 276.109 216.846 276.939C224.636 278.149 232.996 277.869 240.856 277.579C247.086 277.359 255.666 277.819 260.806 273.679C265.086 270.239 266.726 264.229 267.286 258.949C269.046 259.159 270.746 259.159 272.206 258.959C277.056 258.299 281.816 256.169 285.166 252.529C291.086 248.259 293.146 238.009 289.086 232.109L289.126 232.079ZM235.206 251.859C235.196 252.229 235.176 252.609 235.166 252.979C234.126 252.979 233.076 252.979 232.036 252.979C229.106 253.009 226.186 253.069 223.256 253.179C223.076 249.499 222.836 245.759 222.096 242.179C223.236 242.129 224.366 242.089 225.486 242.039C228.896 241.919 232.296 241.729 235.696 241.499C235.236 244.899 235.296 248.519 235.206 251.839V251.859Z" fill="#DAD0C6"/>
<path d="M236.696 273.579C233.706 273.579 231.426 273.409 229.026 273.219C225.956 272.989 222.476 272.719 216.556 272.719C204.156 272.719 200.556 257.449 197.076 242.679C194.396 231.319 191.626 219.569 184.946 216.229C184.426 215.969 184.206 215.329 184.476 214.809C184.736 214.289 185.376 214.069 185.896 214.339C193.466 218.119 196.226 229.819 199.146 242.209C202.436 256.169 205.846 270.609 216.566 270.609C222.566 270.609 226.086 270.879 229.196 271.109C231.666 271.299 233.796 271.459 236.706 271.459C257.886 271.459 258.616 268.039 260.076 261.229C260.566 258.919 261.126 256.309 262.436 253.319C262.676 252.779 263.296 252.539 263.836 252.779C264.376 253.019 264.616 253.639 264.376 254.179C263.146 256.969 262.616 259.469 262.146 261.669C260.386 269.929 258.676 273.579 236.706 273.579H236.696Z" fill="#796E63"/>
<path d="M187.896 225.699C184.866 225.699 181.806 223.619 181.806 219.639C181.806 217.429 182.866 215.389 184.646 214.209C185.136 213.879 185.796 214.019 186.116 214.499C186.446 214.989 186.306 215.649 185.826 215.969C184.656 216.749 183.936 218.149 183.936 219.639C183.936 222.739 186.426 223.569 187.906 223.569C189.046 223.569 190.266 222.649 190.266 221.289C190.266 220.899 190.166 220.499 189.966 220.099C189.706 219.579 189.916 218.939 190.436 218.679C190.956 218.419 191.596 218.629 191.856 219.149C192.206 219.839 192.376 220.559 192.376 221.289C192.376 223.679 190.326 225.699 187.886 225.699H187.896Z" fill="#796E63"/>
<path d="M188.416 221.899C186.896 221.899 185.276 220.999 185.276 219.329C185.276 218.169 185.926 217.149 187.016 216.599C187.536 216.339 188.176 216.549 188.436 217.069C188.696 217.589 188.486 218.229 187.966 218.489C187.756 218.599 187.396 218.839 187.396 219.319C187.396 219.519 187.876 219.769 188.406 219.769C188.936 219.769 189.546 219.579 190.176 219.369C190.736 219.179 191.336 219.489 191.516 220.039C191.706 220.599 191.396 221.199 190.846 221.379C190.046 221.649 189.256 221.889 188.406 221.889L188.416 221.899Z" fill="#796E63"/>
<path d="M196.726 239.349C196.186 239.349 195.726 238.939 195.676 238.389C195.616 237.809 196.046 237.289 196.636 237.229C200.076 236.899 203.646 236.559 207.176 236.709L249.746 235.669C250.336 235.639 250.816 236.119 250.836 236.699C250.846 237.289 250.386 237.769 249.806 237.789L207.196 238.829C207.196 238.829 207.146 238.829 207.126 238.829C203.716 238.679 200.226 239.019 196.836 239.339C196.806 239.339 196.766 239.339 196.736 239.339L196.726 239.349Z" fill="#796E63"/>
<path d="M228.136 268.509C210.196 268.509 209.376 267.189 204.376 252.589C203.376 249.659 202.126 246.019 200.496 241.749C200.286 241.199 200.566 240.589 201.106 240.379C201.656 240.169 202.266 240.449 202.476 240.989C204.116 245.299 205.366 248.959 206.376 251.899C208.906 259.299 210.176 263.009 213.236 264.709C216.406 266.469 221.846 266.439 232.676 266.369C235.036 266.349 237.636 266.339 240.536 266.339C254.046 266.339 254.396 265.349 256.706 258.879C257.406 256.919 258.276 254.479 259.696 251.499C259.946 250.969 260.576 250.749 261.106 250.999C261.636 251.249 261.856 251.889 261.606 252.409C260.236 255.289 259.386 257.679 258.696 259.589C256.086 266.909 255.026 268.449 240.526 268.449C237.636 268.449 235.036 268.469 232.686 268.479C231.046 268.489 229.526 268.499 228.116 268.499L228.136 268.509Z" fill="#796E63"/>
<path d="M205.516 296.519C205.416 296.519 205.316 296.519 205.216 296.519C200.596 296.379 197.076 293.059 196.846 288.619C196.716 286.129 197.656 283.609 199.436 281.709C201.096 279.939 203.276 278.949 205.586 278.929C205.806 278.929 206.026 278.929 206.256 278.949C209.136 279.149 211.586 280.439 213.166 282.569C214.196 283.959 214.686 286.039 214.716 287.489C214.756 289.679 213.676 292.139 211.886 293.899C210.666 295.109 208.586 296.519 205.526 296.519H205.516ZM205.666 281.049C205.666 281.049 205.626 281.049 205.596 281.049C203.876 281.069 202.236 281.819 200.976 283.159C199.616 284.619 198.856 286.609 198.956 288.499C199.156 292.239 202.286 294.299 205.276 294.389C207.726 294.459 209.416 293.339 210.376 292.379C211.746 291.029 212.606 289.119 212.576 287.519C212.556 286.629 212.246 284.899 211.446 283.819C209.906 281.739 207.686 281.169 206.096 281.059C205.956 281.049 205.806 281.049 205.666 281.049Z" fill="#796E63"/>
<path d="M205.886 292.349C204.546 292.349 203.286 291.869 202.346 290.999C201.396 290.119 200.886 288.909 200.906 287.599C200.926 285.619 202.086 283.969 203.846 283.389C204.566 283.149 205.246 283.039 205.886 283.059C208.286 283.119 210.386 285.109 210.466 287.409C210.556 289.919 208.716 292.129 206.356 292.329C206.196 292.339 206.036 292.349 205.876 292.349H205.886ZM205.766 285.179C205.386 285.179 204.966 285.259 204.506 285.409C203.426 285.769 203.036 286.829 203.026 287.629C203.016 288.529 203.436 289.119 203.796 289.449C204.406 290.009 205.276 290.289 206.186 290.219C207.406 290.119 208.396 288.869 208.346 287.489C208.306 286.339 207.086 285.219 205.836 285.189C205.816 285.189 205.786 285.189 205.766 285.189V285.179Z" fill="#796E63"/>
<path d="M256.556 296.519C256.456 296.519 256.356 296.519 256.256 296.519C251.646 296.379 248.116 293.059 247.876 288.619C247.746 286.129 248.686 283.609 250.466 281.709C252.126 279.939 254.306 278.949 256.616 278.929C256.836 278.929 257.056 278.929 257.286 278.949C260.166 279.149 262.616 280.439 264.196 282.569C265.226 283.969 265.716 286.049 265.746 287.489C265.786 289.679 264.706 292.139 262.916 293.899C261.696 295.109 259.616 296.519 256.556 296.519ZM256.706 281.049C256.706 281.049 256.666 281.049 256.636 281.049C254.916 281.069 253.276 281.819 252.016 283.159C250.656 284.619 249.896 286.609 249.996 288.509C250.196 292.249 253.326 294.309 256.316 294.399C258.766 294.469 260.456 293.349 261.416 292.389C262.786 291.039 263.646 289.129 263.616 287.529C263.596 286.639 263.286 284.909 262.486 283.829C260.946 281.749 258.726 281.179 257.136 281.069C256.996 281.059 256.846 281.059 256.706 281.059V281.049Z" fill="#796E63"/>
<path d="M256.926 292.349C255.586 292.349 254.326 291.869 253.386 290.999C252.436 290.119 251.926 288.909 251.946 287.599C251.966 285.619 253.126 283.969 254.886 283.389C255.606 283.149 256.296 283.049 256.926 283.059C259.326 283.119 261.426 285.109 261.506 287.409C261.596 289.919 259.756 292.129 257.396 292.329C257.236 292.339 257.076 292.349 256.916 292.349H256.926ZM256.806 285.179C256.426 285.179 256.006 285.259 255.546 285.409C254.466 285.769 254.076 286.829 254.066 287.629C254.056 288.529 254.476 289.119 254.836 289.449C255.446 290.009 256.316 290.289 257.226 290.219C258.446 290.119 259.436 288.869 259.386 287.489C259.346 286.339 258.126 285.219 256.876 285.189C256.856 285.189 256.826 285.189 256.806 285.189V285.179Z" fill="#796E63"/>
<path d="M206.976 280.999C206.916 280.999 206.856 280.999 206.796 280.989C206.216 280.889 205.826 280.349 205.926 279.769C206.456 276.609 207.216 272.929 208.856 269.639C209.116 269.119 209.756 268.899 210.276 269.169C210.796 269.429 211.016 270.069 210.746 270.589C209.226 273.629 208.506 277.109 208.006 280.119C207.916 280.639 207.466 281.009 206.956 281.009L206.976 280.999Z" fill="#796E63"/>
<path d="M214.246 285.949C213.936 285.949 213.636 285.829 213.416 285.599C213.006 285.189 213.006 284.509 213.416 284.099C213.556 283.959 213.726 283.869 213.906 283.819C214.136 283.649 214.536 283.489 214.936 283.599L249.126 283.039C249.736 283.039 250.196 283.499 250.206 284.079C250.206 284.669 249.746 285.149 249.166 285.159L214.966 285.719C214.796 285.839 214.566 285.949 214.266 285.949H214.246Z" fill="#796E63"/>
<path d="M226.856 290.329C224.956 290.329 223.026 290.309 221.126 290.259C220.536 290.249 220.076 289.759 220.096 289.169C220.106 288.579 220.566 288.109 221.186 288.139C228.786 288.329 236.486 288.139 243.956 287.579C244.536 287.539 245.046 287.969 245.096 288.559C245.136 289.139 244.706 289.649 244.116 289.699C238.446 290.129 232.636 290.339 226.866 290.339L226.856 290.329Z" fill="#796E63"/>
<path fill-rule="evenodd" clip-rule="evenodd" d="M255.064 222.303L253.05 221.384C250.244 224.745 248.564 229.053 248.526 233.819C248.426 245.039 257.016 253.979 268.076 254.169H268.426V254.189C273.856 254.189 279.166 251.999 283.036 248.149C286.926 244.269 289.036 239.139 288.966 233.679C288.886 227.349 285.706 221.159 280.866 217.909C279.596 217.049 278.366 216.389 276.996 215.799C274.496 214.729 271.826 214.179 269.046 214.159H268.876C267.079 214.159 265.343 214.375 263.694 214.783L263.849 216.925C265.441 216.497 267.126 216.269 268.876 216.269V216.259H269.036C271.526 216.279 273.926 216.769 276.166 217.729C277.416 218.269 278.536 218.879 279.686 219.649C283.906 222.479 286.776 228.119 286.846 233.679C286.906 238.559 285.026 243.149 281.546 246.619C277.996 250.149 273.106 252.139 268.116 252.039C258.226 251.869 250.556 243.869 250.646 233.829C250.686 229.371 252.335 225.362 255.064 222.303Z" fill="#796E63"/>
<path d="M220.586 267.749C220.036 267.749 219.576 267.329 219.526 266.769C218.776 257.349 217.626 247.959 216.506 238.869L218.606 238.579L217.556 238.709L218.616 238.609C219.726 247.719 220.886 257.129 221.636 266.599C221.686 267.179 221.246 267.699 220.666 267.739C220.636 267.739 220.606 267.739 220.576 267.739L220.586 267.749Z" fill="#796E63"/>
<path d="M234.576 267.119C233.986 267.119 233.516 266.649 233.516 266.059C233.516 263.639 233.506 261.239 233.496 258.849C233.486 256.469 233.476 254.099 233.476 251.729C233.476 245.969 233.546 241.539 233.716 237.359C233.736 236.769 234.236 236.329 234.816 236.339C235.406 236.359 235.856 236.859 235.836 237.439C235.676 241.589 235.596 245.999 235.596 251.729C235.596 254.099 235.606 256.459 235.616 258.839C235.626 261.239 235.636 263.639 235.636 266.059C235.636 266.649 235.156 267.119 234.576 267.119Z" fill="#796E63"/>
<path d="M248.186 266.819C248.186 266.819 248.096 266.819 248.046 266.819C247.466 266.749 247.056 266.209 247.126 265.629C247.876 259.819 248.066 253.889 248.256 248.149C248.276 247.559 248.756 247.099 249.346 247.119C249.936 247.139 250.396 247.629 250.376 248.209C250.186 253.999 249.996 259.979 249.236 265.889C249.166 266.429 248.706 266.819 248.186 266.819Z" fill="#796E63"/>
<path d="M206.596 254.909C206.016 254.909 205.536 254.439 205.536 253.849C205.536 253.259 206.006 252.789 206.596 252.779L255.556 252.589C256.146 252.589 256.616 253.059 256.626 253.649C256.626 254.239 256.156 254.709 255.566 254.719C255.566 254.719 206.606 254.909 206.596 254.909Z" fill="#796E63"/>
<path d="M275.88 240.312C275.257 240.312 274.724 239.824 274.679 239.199C274.599 238.075 274.554 236.883 274.554 235.521C274.554 234.159 274.599 232.694 274.633 231.332C274.633 231.116 274.645 230.9 274.656 230.685C274.599 230.719 274.531 230.764 274.475 230.798C273.862 231.173 273.273 231.536 272.797 231.979C272.309 232.433 271.55 232.399 271.096 231.911C270.643 231.423 270.677 230.662 271.175 230.208C271.833 229.606 272.536 229.175 273.227 228.755C273.908 228.335 274.554 227.937 275.075 227.427C275.416 227.075 275.948 226.984 276.391 227.165C276.844 227.358 277.127 227.801 277.127 228.289C277.116 229.334 277.082 230.378 277.048 231.411C277.003 232.762 276.969 234.159 276.969 235.532C276.969 236.827 277.003 237.973 277.082 239.029C277.127 239.688 276.629 240.267 275.971 240.323C275.937 240.323 275.914 240.323 275.88 240.323V240.312Z" fill="#796E63"/>
<path d="M257.367 235.192C257.14 234.965 257.004 234.658 257.015 234.306C257.026 233.636 257.582 233.114 258.251 233.137C259.407 233.171 260.541 233.205 261.686 233.25C263.908 233.33 266.017 233.398 268.16 233.398C268.829 233.398 269.361 233.932 269.361 234.601C269.361 235.271 268.829 235.805 268.16 235.805C265.972 235.805 263.749 235.725 261.607 235.657C260.473 235.623 259.339 235.578 258.194 235.555C257.877 235.555 257.582 235.408 257.378 235.203L257.367 235.192Z" fill="#796E63"/>
<path d="M262.4 240.755C262.321 240.63 262.253 240.494 262.219 240.335C261.539 237.247 261.754 235.01 261.947 233.023C262.083 231.604 262.208 230.378 261.947 229.061C261.822 228.403 262.253 227.778 262.899 227.654C263.557 227.529 264.18 227.96 264.305 228.607C264.622 230.265 264.475 231.718 264.328 233.25C264.146 235.135 263.954 237.088 264.554 239.801C264.702 240.448 264.294 241.095 263.636 241.243C263.137 241.356 262.65 241.141 262.378 240.743L262.4 240.755Z" fill="#796E63"/>
</g>
</g>
<defs>
<clipPath id="clip0_168_1584">
<rect width="254" height="167" fill="white" transform="translate(57 156.014)"/>
</clipPath>
<clipPath id="clip1_168_1584">
<rect width="109.44" height="86.77" fill="white" transform="translate(181.806 214.029)"/>
</clipPath>
</defs>
</svg>
