<svg width="173" height="50" viewBox="0 0 173 50" fill="none" xmlns="http://www.w3.org/2000/svg">
<g clip-path="url(#clip0_21_430)">
<path d="M63.6444 24.2054H59.7129V20.0586H63.6444V18.3731C63.6103 17.4005 63.7731 16.4311 64.123 15.5229C64.473 14.6148 65.0028 13.7868 65.6807 13.0885C66.3585 12.3903 67.1706 11.8362 68.0679 11.4596C68.9653 11.0829 69.9295 10.8915 70.9027 10.8968C71.8176 10.8751 72.7318 10.9623 73.6262 11.1563V15.3914C73.0862 15.2765 72.5356 15.2186 71.9835 15.2188C71.5645 15.1763 71.1412 15.2299 70.7459 15.3754C70.3506 15.5208 69.9937 15.7545 69.7021 16.0585C69.4106 16.3625 69.1922 16.729 69.0634 17.13C68.9347 17.5311 68.899 17.9562 68.959 18.3731V20.0586H73.4523V24.2054H68.9577V41.7906H63.6444V24.2054Z" fill="#2C1600"/>
<path d="M76.7323 35.0072V11.5442H82.0483V33.9263C82.0483 36.2165 82.8696 37.2973 84.7236 37.2973C85.1818 37.2945 85.6354 37.2065 86.0613 37.0378L86.1483 41.5324C85.0835 41.8517 83.9773 42.0117 82.8656 42.0073C79.3649 42.0073 76.7283 39.8897 76.7283 35.0072" fill="#2C1600"/>
<path d="M88.7875 13.4945C88.7875 12.5778 89.1517 11.6986 89.7999 11.0504C90.4482 10.4021 91.3274 10.038 92.2441 10.038C93.1609 10.038 94.04 10.4021 94.6883 11.0504C95.3365 11.6986 95.7007 12.5778 95.7007 13.4945C95.7007 14.4113 95.3365 15.2905 94.6883 15.9387C94.04 16.5869 93.1609 16.9511 92.2441 16.9511C91.3274 16.9511 90.4482 16.5869 89.7999 15.9387C89.1517 15.2905 88.7875 14.4113 88.7875 13.4945ZM89.5661 20.0626H94.8794V41.7906H89.5661V20.0626Z" fill="#2C1600"/>
<path d="M122.272 30.9875C122.272 37.6425 117.992 42.3083 111.773 42.3083C110.402 42.3493 109.041 42.0512 107.813 41.4405C106.584 40.8299 105.525 39.9255 104.73 38.8076V49.9987H99.4154V20.0572H104.726V23.1232C105.51 21.9874 106.564 21.0646 107.793 20.4385C109.023 19.8123 110.389 19.5025 111.769 19.5369C117.991 19.5369 122.268 24.2469 122.268 30.9861M116.91 30.9861C116.91 26.7952 114.317 23.9432 110.687 23.9432C106.972 23.9432 104.421 26.838 104.421 30.9861C104.421 35.0915 106.972 37.8993 110.687 37.8993C114.359 37.8993 116.91 35.0902 116.91 30.9861Z" fill="#2C1600"/>
<path d="M146.55 32.3706H130.434C130.401 33.1499 130.526 33.9279 130.802 34.6573C131.079 35.3867 131.5 36.0523 132.042 36.6139C132.583 37.1755 133.233 37.6213 133.952 37.9244C134.67 38.2274 135.443 38.3813 136.223 38.3768C137.402 38.4638 138.575 38.1357 139.538 37.4492C140.501 36.7627 141.193 35.7611 141.495 34.6179L146.161 35.0059C145.685 39.2865 141.582 42.438 136.223 42.438C129.742 42.438 125.076 37.6839 125.076 30.9446C125.076 24.2482 129.57 19.4084 136.045 19.4084C142.224 19.4084 146.673 24.0315 146.673 30.645C146.669 31.2235 146.624 31.801 146.539 32.3733M141.44 29.0465C141.472 28.3096 141.353 27.574 141.09 26.8846C140.828 26.1952 140.428 25.5664 139.915 25.0367C139.402 24.5069 138.786 24.0873 138.105 23.8034C137.425 23.5195 136.693 23.3773 135.956 23.3854C135.219 23.3868 134.49 23.5352 133.811 23.8218C133.132 24.1085 132.517 24.5276 132.002 25.0548C131.487 25.5819 131.082 26.2064 130.812 26.8918C130.541 27.5772 130.41 28.3097 130.426 29.0465H141.44Z" fill="#2C1600"/>
<path d="M149.615 30.9447C149.602 28.6553 150.27 26.4136 151.533 24.5041C152.796 22.5946 154.598 21.1033 156.709 20.2192C158.821 19.3352 161.148 19.0983 163.395 19.5386C165.642 19.9789 167.707 21.0766 169.329 22.6924C170.951 24.3082 172.057 26.3693 172.505 28.6143C172.954 30.8593 172.726 33.1871 171.85 35.3023C170.975 37.4176 169.49 39.2251 167.585 40.4955C165.681 41.7659 163.442 42.442 161.152 42.4381C159.632 42.4711 158.12 42.1967 156.709 41.6314C155.297 41.066 154.014 40.2214 152.936 39.1481C151.859 38.0748 151.009 36.7949 150.438 35.3853C149.868 33.9756 149.588 32.4652 149.615 30.9447ZM167.328 30.9447C167.328 26.7979 164.824 23.9018 161.152 23.9018C157.522 23.9018 154.974 26.7965 154.974 30.9447C154.974 35.0928 157.522 37.9448 161.152 37.9448C164.824 37.9448 167.328 35.0928 167.328 30.9447Z" fill="#2C1600"/>
<path d="M32.9445 0C29.3879 0.00495594 25.9784 1.4202 23.4637 3.93538C20.949 6.45055 19.5345 9.86034 19.5302 13.417L19.5168 19.4887H13.3769C10.9128 19.4999 8.49929 20.1892 6.40095 21.4811C4.30261 22.7729 2.60038 24.6175 1.48082 26.8126H19.5142V32.9071C19.5233 33.7707 19.3488 34.6264 19.0022 35.4174C18.6557 36.2085 18.145 36.9169 17.504 37.4957C16.863 38.0746 16.1063 38.5105 15.2841 38.7748C14.4618 39.0391 13.5928 39.1257 12.7346 39.0288C11.8764 38.9319 11.0486 38.6537 10.306 38.2127C9.56343 37.7717 8.92304 37.1779 8.42726 36.4707C7.93148 35.7635 7.59163 34.9591 7.43022 34.1106C7.26882 33.2622 7.28955 32.3891 7.49104 31.5493H0.0682216C-0.114987 33.3596 0.0717485 35.1882 0.617084 36.9241C1.16242 38.66 2.05497 40.267 3.24051 41.6473C4.42605 43.0276 5.87983 44.1524 7.51353 44.9535C9.14723 45.7546 10.9267 46.2152 12.7439 46.3074C14.5612 46.3995 16.3781 46.1213 18.0845 45.4895C19.7908 44.8577 21.3509 43.8857 22.67 42.6324C23.989 41.3791 25.0396 39.8707 25.7577 38.1988C26.4758 36.527 26.8465 34.7266 26.8473 32.9071V26.834H32.986C35.4504 26.8233 37.8642 26.1343 39.9629 24.8424C42.0615 23.5505 43.7639 21.7056 44.8834 19.5101H26.8473V13.417C26.8406 12.555 27.0167 11.7014 27.3641 10.9124C27.7115 10.1235 28.2223 9.41726 28.8627 8.84026C29.5031 8.26326 30.2586 7.82866 31.0794 7.56512C31.9001 7.30159 32.7674 7.21513 33.6241 7.31144C34.4807 7.40775 35.3071 7.68465 36.0489 8.12386C36.7906 8.56307 37.4308 9.1546 37.9271 9.8594C38.4234 10.5642 38.7646 11.3663 38.9281 12.2126C39.0917 13.059 39.0738 13.9304 38.8758 14.7694H46.2919C46.3361 14.3239 46.3602 13.8731 46.3602 13.417C46.3563 9.86 44.9416 6.44981 42.4266 3.93452C39.9115 1.41923 36.5015 0.00424882 32.9445 0" fill="#288357"/>
</g>
<defs>
<clipPath id="clip0_21_430">
<rect width="172.73" height="50" fill="white"/>
</clipPath>
</defs>
</svg>
