<svg width="202" height="326" viewBox="0 0 202 326" fill="none" xmlns="http://www.w3.org/2000/svg">
<g opacity="0.08" clip-path="url(#clip0_21_278)">
<path d="M77.58 37.5786C55.84 102.329 60.59 142.949 114.95 196.029C169.31 249.099 173.39 303.139 172.03 325.889" stroke="#2C1600" stroke-width="2" stroke-miterlimit="10"/>
<path d="M68.3 123.719C63.76 98.4386 78.8 85.9786 91.07 80.9286" stroke="#2C1600" stroke-width="2" stroke-miterlimit="10"/>
<path d="M65.47 90.5786C63.76 70.7486 55.05 64.0186 53.07 63.6186" stroke="#2C1600" stroke-width="2" stroke-miterlimit="10"/>
<path d="M79.27 151.489C66.14 134.849 53.08 131.639 53.08 131.639" stroke="#2C1600" stroke-width="2" stroke-miterlimit="10"/>
<path d="M97.45 177.349C86.29 166.019 86.16 132.779 86.16 126.849" stroke="#2C1600" stroke-width="2" stroke-miterlimit="10"/>
<path d="M108.16 189.189C91.81 178.009 67.27 176.419 67.27 176.419" stroke="#2C1600" stroke-width="2" stroke-miterlimit="10"/>
<path d="M116.24 197.289C108.09 177.139 110.86 156.149 112.44 150.609" stroke="#2C1600" stroke-width="2" stroke-miterlimit="10"/>
<path d="M128.12 209.989C114.53 203.899 94.18 204.059 94.18 204.059" stroke="#2C1600" stroke-width="2" stroke-miterlimit="10"/>
<path d="M133.42 216.109C135.79 203.249 144.5 199.689 144.5 199.689" stroke="#2C1600" stroke-width="2" stroke-miterlimit="10"/>
<path d="M69.55 65.7186C65.15 45.3686 82.5 27.2886 95.88 18.6086C109.26 9.92863 119.75 4.50863 125.17 1.97863C130.59 -0.55137 130.96 0.89863 129.87 1.97863C128.78 3.05863 112.01 11.0686 99.6 29.6686C87.2 48.2686 72.8599 59.6686 69.5399 65.7186H69.55Z" fill="#2C1600"/>
<path d="M86.2 83.2886C93.43 74.7886 110.35 68.0786 122.3 61.3686C134.26 54.6586 145.05 44.2786 146.22 43.1986C147.39 42.1186 144.18 53.8986 137.18 63.6186C130.18 73.3286 115.01 77.7086 105.97 79.7486C96.9299 81.7886 86.2 83.2886 86.2 83.2886Z" fill="#2C1600"/>
<path d="M59.28 68.0786C57.84 56.6986 51.13 46.4886 41.51 41.2386C31.88 35.9886 20.22 23.4486 20.22 23.4486C20.22 23.4486 20.51 35.4086 26.64 48.8286C32.77 62.2486 52.27 67.4986 59.29 68.0786H59.28Z" fill="#2C1600"/>
<path d="M61.64 135.549C58.13 128.169 52.3 116.499 31.59 110.379C10.88 104.249 4.45996 95.4986 4.45996 95.4986C4.45996 95.4986 7.08996 114.099 25.46 126.129C43.84 138.159 61.64 135.549 61.64 135.549Z" fill="#2C1600"/>
<path d="M154.72 249.219C135.24 240.859 127.2 244.259 127.2 244.259" stroke="#2C1600" stroke-width="2" stroke-miterlimit="10"/>
<path d="M136.59 243.629C136.44 243.739 131.24 240.019 130.72 239.719C127.89 238.089 124.86 236.759 121.7 235.909C117.36 234.749 112.54 234.859 108.05 234.279C101.68 233.459 95.22 232.629 88.87 233.569C81.01 234.739 68.3 241.209 67.54 250.259C70.3 246.399 74.64 247.479 78.39 246.399C89.38 243.229 99.77 251.639 110.68 252.149C119.64 252.569 129.46 248.959 136.59 243.619V243.629Z" fill="#2C1600"/>
<path d="M87.91 151.629C83.39 143.549 77.85 130.129 78.43 122.259C79.01 114.379 80.76 98.0486 84.56 85.7986C88.35 73.5486 98.85 53.7486 99.73 53.1486C100.61 52.5486 102.06 61.8786 103.52 72.6786C104.98 83.4686 98.85 100.099 94.77 109.729C90.69 119.359 87.92 151.649 87.92 151.649L87.91 151.629Z" fill="#2C1600"/>
<path d="M165.59 276.099C161.22 265.229 169.61 241.539 171.3 237.499" stroke="#2C1600" stroke-width="2" stroke-miterlimit="10"/>
<path d="M165.45 254.859C164.67 248.079 164.72 237.379 167.35 232.189C169.99 226.999 175.82 216.389 181.88 209.139C187.94 201.889 200.71 191.409 201.47 191.249C202.24 191.089 200.57 197.849 198.5 205.599C196.42 213.349 187.53 222.919 182.02 228.299C176.51 233.679 165.45 254.849 165.45 254.849V254.859Z" fill="#2C1600"/>
<path d="M110.76 170.279C107.13 147.809 113.84 129.559 130.76 118.559C147.68 107.559 154.1 103.759 161.68 102.009C169.26 100.259 179.18 94.9286 180.35 95.5486C181.52 96.1786 170.72 112.799 159.93 120.389C149.14 127.969 140.65 125.639 128.41 134.679C116.18 143.719 109.67 159.789 110.76 170.269V170.279Z" fill="#2C1600"/>
<path d="M96.75 183.699C82.94 173.439 75.36 171.979 65.73 169.059C56.1 166.139 42.1 164.099 28.1 162.059C14.1 160.019 1.55997 154.249 0.389972 154.649C-0.780028 155.059 18.52 172.399 36.44 177.579C54.36 182.759 71.57 179.259 80.61 181.009C89.65 182.759 96.75 183.689 96.75 183.689V183.699Z" fill="#2C1600"/>
<path d="M118.05 206.689C106.03 202.949 77.21 193.279 63.79 195.029C50.37 196.779 42.5 209.609 41.04 213.989C39.58 218.369 39.58 224.199 41.04 224.199C42.5 224.199 43.67 220.119 54.17 218.659C64.67 217.199 75.93 213.129 87.8 209.479C99.67 205.829 118.05 206.689 118.05 206.689Z" fill="#2C1600"/>
<path d="M137.81 204.439C138.93 195.979 149.43 183.999 164.6 183.719C179.77 183.439 188.82 186.309 189.12 187.579C189.42 188.849 182.4 186.019 169.27 194.059C156.14 202.099 137.82 204.429 137.82 204.429L137.81 204.439Z" fill="#2C1600"/>
</g>
<defs>
<clipPath id="clip0_21_278">
<rect width="201.32" height="325.37" fill="white" transform="translate(0.339966 0.568604)"/>
</clipPath>
</defs>
</svg>
