<svg width="397" height="242" viewBox="0 0 397 242" fill="none" xmlns="http://www.w3.org/2000/svg">
<path d="M101 120.858C101 54.2139 155.026 0.188232 221.67 0.188232C288.314 0.188232 342.34 54.2139 342.34 120.858V241.528H221.67C155.026 241.528 101 187.502 101 120.858Z" fill="#288357"/>
<g clip-path="url(#clip0_168_1586)">
<path d="M105.305 121.747C105.714 105.397 90.0095 99.8382 77.0219 102.731C80.2628 114.831 90.1983 127.973 105.305 121.747Z" fill="#288357"/>
</g>
<g clip-path="url(#clip1_168_1586)">
<path d="M294.646 26.6289C299.596 56.0012 329.603 60.4826 351.816 50.7982C341.819 30.2931 319.49 10.2506 294.646 26.6289Z" fill="#288357"/>
</g>
<g clip-path="url(#clip2_168_1586)">
<path d="M106.831 122.679C96.8006 115.263 86.4508 122.634 82.5685 132.011C91.5435 135.287 104.102 134.84 106.831 122.679Z" fill="#288357"/>
</g>
<g clip-path="url(#clip3_168_1586)">
<path d="M21.7954 100.162C18.7787 89.7546 7.74735 89.3894 0.12449 93.8177C4.5947 100.81 13.5016 107.12 21.7954 100.162Z" fill="#288357"/>
</g>
<g clip-path="url(#clip4_168_1586)">
<path d="M59.7144 145.551C48.42 139.68 39.1675 148.763 36.7536 158.834C46.3222 160.701 58.9069 158.243 59.7144 145.551Z" fill="#288357"/>
</g>
<path opacity="0.2" d="M251.717 49.5825C240.773 49.5978 230.281 53.9528 222.543 61.6925C214.804 69.4323 210.451 79.925 210.438 90.8695L210.397 109.554H191.503C183.92 109.588 176.494 111.709 170.037 115.684C163.58 119.66 158.341 125.336 154.896 132.091H210.389V150.845C210.417 153.502 209.88 156.135 208.814 158.57C207.747 161.004 206.176 163.184 204.203 164.965C202.231 166.746 199.902 168.088 197.372 168.901C194.842 169.715 192.168 169.981 189.527 169.683C186.886 169.384 184.339 168.528 182.053 167.171C179.768 165.814 177.798 163.987 176.272 161.811C174.746 159.635 173.701 157.159 173.204 154.548C172.707 151.938 172.771 149.251 173.391 146.667H150.549C149.986 152.237 150.56 157.865 152.238 163.206C153.917 168.548 156.663 173.493 160.311 177.74C163.959 181.988 168.433 185.449 173.46 187.914C178.488 190.38 183.964 191.797 189.555 192.081C195.147 192.364 200.739 191.508 205.989 189.564C211.24 187.62 216.041 184.628 220.1 180.772C224.159 176.915 227.392 172.273 229.602 167.129C231.811 161.984 232.952 156.444 232.955 150.845V132.157H251.845C259.428 132.124 266.856 130.003 273.314 126.028C279.772 122.053 285.011 116.376 288.456 109.62H232.955V90.8695C232.934 88.217 233.476 85.5902 234.545 83.1625C235.614 80.7349 237.186 78.5615 239.156 76.786C241.127 75.0104 243.452 73.673 245.978 72.8621C248.503 72.0511 251.172 71.7851 253.808 72.0814C256.444 72.3778 258.987 73.2299 261.27 74.5814C263.552 75.933 265.522 77.7532 267.05 79.9221C268.577 82.0909 269.627 84.559 270.13 87.1635C270.633 89.7679 270.578 92.4495 269.969 95.0312H292.79C292.926 93.6604 293 92.2732 293 90.8695C292.988 79.9239 288.635 69.43 280.896 61.6899C273.156 53.9498 262.663 49.5956 251.717 49.5825" fill="#47D792"/>
<g clip-path="url(#clip5_168_1586)">
<path d="M360.988 89.7605C371.159 103.245 387.428 97.6543 396.073 86.9736C385.682 79.2704 369.207 75.0238 360.988 89.7605Z" fill="#288357"/>
</g>
<defs>
<clipPath id="clip0_168_1586">
<rect width="22.0938" height="27.3543" fill="white" transform="matrix(0.0506299 0.998717 0.998717 -0.0506299 77 102.299)"/>
</clipPath>
<clipPath id="clip1_168_1586">
<rect width="40.2375" height="49.8178" fill="white" transform="matrix(-0.240229 -0.970716 -0.970716 0.240229 352.006 51.5636)"/>
</clipPath>
<clipPath id="clip2_168_1586">
<rect width="16.852" height="20.8644" fill="white" transform="matrix(0.846695 0.532078 0.532078 -0.846695 82.2888 131.835)"/>
</clipPath>
<clipPath id="clip3_168_1586">
<rect width="14.6382" height="18.1235" fill="white" transform="matrix(0.350174 0.936685 0.936685 -0.350174 0.0239868 93.5488)"/>
</clipPath>
<clipPath id="clip4_168_1586">
<rect width="17.1958" height="21.29" fill="white" transform="matrix(0.919583 0.392896 0.392896 -0.919583 36.4434 158.701)"/>
</clipPath>
<clipPath id="clip5_168_1586">
<rect width="22.816" height="28.2484" fill="white" transform="matrix(-0.660766 -0.750592 -0.750592 0.660766 396.369 87.3096)"/>
</clipPath>
</defs>
</svg>
