<svg width="460" height="562" viewBox="0 0 460 562" fill="none" xmlns="http://www.w3.org/2000/svg">
<g opacity="0.08" clip-path="url(#clip0_21_301)">
<path d="M283.319 477.146C332.885 329.286 322.055 236.528 198.117 115.317C74.179 -5.87099 64.8768 -129.274 67.9775 -181.225" stroke="#2C1600" stroke-width="2" stroke-miterlimit="10"/>
<path d="M304.477 280.441C314.828 338.169 280.538 366.622 252.563 378.154" stroke="#2C1600" stroke-width="2" stroke-miterlimit="10"/>
<path d="M310.929 356.118C314.828 401.401 334.686 416.769 339.201 417.683" stroke="#2C1600" stroke-width="2" stroke-miterlimit="10"/>
<path d="M279.466 217.027C309.402 255.025 339.178 262.355 339.178 262.355" stroke="#2C1600" stroke-width="2" stroke-miterlimit="10"/>
<path d="M238.016 157.974C263.461 183.847 263.757 259.752 263.757 273.294" stroke="#2C1600" stroke-width="2" stroke-miterlimit="10"/>
<path d="M213.598 130.937C250.875 156.467 306.825 160.098 306.825 160.098" stroke="#2C1600" stroke-width="2" stroke-miterlimit="10"/>
<path d="M195.176 112.44C213.758 158.454 207.442 206.385 203.84 219.036" stroke="#2C1600" stroke-width="2" stroke-miterlimit="10"/>
<path d="M168.09 83.4388C199.075 97.3457 245.472 96.9803 245.472 96.9803" stroke="#2C1600" stroke-width="2" stroke-miterlimit="10"/>
<path d="M156.007 69.4635C150.603 98.83 130.745 106.959 130.745 106.959" stroke="#2C1600" stroke-width="2" stroke-miterlimit="10"/>
<path d="M301.627 412.887C311.659 459.358 272.102 500.644 241.596 520.465C211.09 540.287 187.174 552.664 174.816 558.441C162.459 564.218 161.615 560.907 164.1 558.441C166.586 555.975 204.82 537.683 233.115 495.209C261.386 452.735 294.08 426.703 301.65 412.887L301.627 412.887Z" fill="#2C1600"/>
<path d="M263.666 372.765C247.182 392.175 208.605 407.498 181.36 422.821C154.091 438.143 129.491 461.847 126.823 464.313C124.156 466.779 131.474 439.879 147.434 417.683C163.394 395.509 197.98 385.507 218.591 380.849C239.202 376.191 263.666 372.765 263.666 372.765Z" fill="#2C1600"/>
<path d="M325.042 407.498C328.325 433.485 343.624 456.8 365.557 468.789C387.513 480.777 414.097 509.413 414.097 509.413C414.097 509.413 413.436 482.102 399.46 451.456C385.484 420.811 341.025 408.822 325.019 407.498L325.042 407.498Z" fill="#2C1600"/>
<path d="M319.662 253.427C327.664 270.279 340.956 296.928 388.174 310.904C435.392 324.902 450.029 344.883 450.029 344.883C450.029 344.883 444.033 302.409 402.15 274.938C360.245 247.467 319.662 253.427 319.662 253.427Z" fill="#2C1600"/>
<path d="M107.444 -6.14499C151.857 12.9455 170.188 5.18142 170.188 5.18142" stroke="#2C1600" stroke-width="2" stroke-miterlimit="10"/>
<path d="M148.779 6.62015C149.121 6.36896 160.977 14.8638 162.162 15.5489C168.615 19.271 175.523 22.3082 182.728 24.2492C192.623 26.8981 203.612 26.6469 213.849 27.9714C228.372 29.8439 243.101 31.7392 257.578 29.5927C275.499 26.9209 304.477 12.1463 306.21 -8.51984C299.917 0.294678 290.022 -2.17156 281.472 0.294684C256.416 7.53355 232.727 -11.6711 207.853 -12.8357C187.424 -13.7948 165.035 -5.55121 148.779 6.64297L148.779 6.62015Z" fill="#2C1600"/>
<path d="M259.767 216.707C270.073 235.158 282.703 265.803 281.381 283.775C280.059 301.769 276.069 339.06 267.405 367.033C258.764 395.007 234.825 440.221 232.818 441.591C230.812 442.962 227.506 421.656 224.177 396.994C220.848 372.354 234.824 334.379 244.127 312.388C253.429 290.397 259.744 216.661 259.744 216.661L259.767 216.707Z" fill="#2C1600"/>
<path d="M82.6605 -67.5269C92.6239 -42.7047 73.4951 11.3927 69.642 20.6183" stroke="#2C1600" stroke-width="2" stroke-miterlimit="10"/>
<path d="M82.9797 -19.0242C84.7581 -3.54175 84.6441 20.8923 78.6478 32.7439C72.6287 44.5956 59.3366 68.8241 45.5201 85.3798C31.7036 101.936 2.5886 125.867 0.855835 126.233C-0.899727 126.598 2.9078 111.161 7.62729 93.4636C12.3696 75.7661 32.6384 53.9125 45.2009 41.627C57.7635 29.3414 82.9797 -19.0014 82.9797 -19.0014L82.9797 -19.0242Z" fill="#2C1600"/>
<path d="M207.67 174.119C215.947 225.43 200.648 267.105 162.071 292.224C123.494 317.343 108.857 326.021 91.5751 330.017C74.2931 334.013 51.676 346.185 49.0084 344.769C46.3409 343.33 70.9644 305.378 95.5651 288.045C120.166 270.736 139.523 276.057 167.429 255.413C195.313 234.77 210.155 198.073 207.67 174.142L207.67 174.119Z" fill="#2C1600"/>
<path d="M239.612 143.473C271.098 166.903 288.381 170.237 310.336 176.905C332.292 183.573 364.212 188.231 396.131 192.89C428.05 197.548 456.641 210.724 459.309 209.811C461.976 208.874 417.973 169.278 377.116 157.449C336.26 145.62 297.022 153.612 276.411 149.616C255.8 145.62 239.612 143.496 239.612 143.496L239.612 143.473Z" fill="#2C1600"/>
<path d="M191.049 90.9746C218.454 99.5151 284.163 121.597 314.76 117.601C345.357 113.605 363.3 84.3066 366.629 74.3047C369.957 64.3027 369.957 50.9896 366.629 50.9896C363.3 50.9896 360.632 60.3065 336.693 63.6405C312.753 66.9745 287.081 76.2685 260.018 84.6035C232.955 92.9385 191.049 90.9746 191.049 90.9746Z" fill="#2C1600"/>
<path d="M145.998 96.1126C143.444 115.431 119.505 142.788 84.9177 143.428C50.3308 144.067 29.6972 137.513 29.0132 134.613C28.3293 131.713 44.3345 138.176 74.2703 119.816C104.206 101.456 145.975 96.1354 145.975 96.1354L145.998 96.1126Z" fill="#2C1600"/>
</g>
<defs>
<clipPath id="clip0_21_301">
<rect width="459" height="743" fill="white" transform="translate(459.423 561.661) rotate(180)"/>
</clipPath>
</defs>
</svg>
