<svg width="316" height="422" viewBox="0 0 316 422" fill="none" xmlns="http://www.w3.org/2000/svg">
<g opacity="0.08" clip-path="url(#clip0_21_259)">
<path d="M240.111 282.824C238.698 284.947 237.676 287.508 235.828 289.134C222.933 300.443 210.353 312.174 196.752 322.565C181.888 333.935 164.423 338.347 145.682 338.769C135.567 338.994 125.362 340.485 115.428 342.518C96.6562 346.358 84.6177 357.02 81.732 377.094C80.9054 382.846 77.0579 388.162 75.1792 394.352C91.6814 371.432 116.946 367.516 141.624 361.839C156.864 358.33 171.743 353.21 186.832 348.964C188.756 348.421 190.95 348.813 193.024 348.783C192.904 350.906 193.43 353.376 192.528 355.093C190.815 358.36 188.591 361.478 186.051 364.158C165.806 385.512 142.436 401.234 112.332 404.652C102.713 405.751 92.974 406.444 83.5656 408.537C78.651 409.621 74.2474 413.236 69.7536 415.946C67.905 417.061 66.6125 419.079 64.7789 420.223C59.5187 423.506 56.4076 422.316 56.6781 416.308C56.9937 409.245 53.1913 405.992 48.5021 401.776C31.2034 386.235 11.8456 372.591 2.88808 349.4C-2.31207 335.922 1.70076 323.8 5.69857 311.587C7.32174 306.633 11.9207 306.858 15.0168 311.075C22.847 321.692 31.1883 332.052 37.8914 343.362C45.5113 356.207 51.8988 369.82 58.166 383.404C61.1118 389.789 62.5396 396.866 64.7789 403.989C78.6059 374.76 78.9065 347.352 59.5637 320.156C47.4952 303.199 37.0197 284.872 27.8067 266.184C22.4262 255.281 20.8031 242.481 17.8423 230.464C17.4064 228.717 18.3683 225.374 19.6458 224.741C21.3742 223.883 24.38 224.29 26.2737 225.268C50.3808 237.632 66.1917 258.022 78.155 281.469C85.9553 296.769 85.6847 313.771 84.5124 330.531C83.9864 337.97 82.6939 345.349 81.4615 355.062C86.6616 344.009 90.9149 334.868 95.2735 325.788C97.9637 320.171 100.323 314.313 103.735 309.162C110.062 299.645 109.055 290.459 104.081 280.987C95.7544 265.16 85.294 250.959 72.0231 238.987C61.5176 229.5 54.1983 218.206 51.2225 204.306C47.6304 187.515 44.1286 170.709 41.0025 153.828C40.5666 151.434 42.4453 148.618 43.2569 145.982C46.0223 147.007 49.8247 147.202 51.4028 149.19C67.1986 169.098 83.6257 188.615 97.8735 209.607C112.392 231.006 117.772 255.899 119.651 282.282C122.146 277.072 125.543 272.087 126.955 266.59C130.517 252.842 133.749 238.957 136.048 224.937C138.648 209.08 134.545 193.81 123.995 182.275C97.7683 153.587 93.8457 119.448 96.8064 83.1109C97.4978 74.6778 98.1591 66.2297 99.3765 57.8719C99.7071 55.598 101.977 53.6102 103.359 51.4869C105.148 52.9326 107.703 54.0018 108.62 55.8841C120.042 79.4365 132.381 102.643 142.015 126.918C147.305 140.275 147.966 155.485 150.642 169.866C151.168 172.712 151.333 175.634 151.664 178.525C152.31 178.631 152.971 178.721 153.617 178.826C158.261 158.391 163.477 138.076 167.384 117.506C171.081 98.0043 174.704 78.2167 186.592 62.1638C201.215 42.4213 217.898 24.23 233.769 5.42123C235.332 3.58403 237.451 2.21365 240.036 0.0300903C238.924 27.3924 232.416 52.1796 218.83 75.0543C202.974 101.754 186.922 128.363 171.953 155.575C166.513 165.454 163.943 176.929 159.479 189.322C161.748 187.801 162.695 187.485 163.176 186.823C180.625 162.111 204.597 146.178 232.326 135.426C246.709 129.839 261.408 125.02 275.671 119.162C287.348 114.374 298.575 108.485 310.088 103.26C311.606 102.567 313.635 102.989 315.423 102.883C315.303 104.495 315.679 106.347 315.002 107.672C297.057 142.549 272.98 170.484 233.198 181.145C216.38 185.648 199.938 191.521 183.165 196.144C164.619 201.264 152.31 212.152 147.095 231.081C145.126 238.234 141.519 244.921 138.828 251.893C137.596 255.07 136.769 258.398 135.101 263.744C138.408 261.937 140.482 261.516 141.218 260.296C158.712 231.021 187.674 224.034 218.304 220.419C238.774 217.995 259.274 215.857 279.789 213.824C281.893 213.613 284.162 214.938 286.357 215.555C285.199 217.438 284.493 220.103 282.81 221.082C260.837 233.852 239.255 247.465 216.455 258.534C204.221 264.467 189.988 266.862 176.372 269.135C160.726 271.756 146.689 277.282 134.109 286.664C127.992 291.212 121.725 295.82 116.705 301.467C114.286 304.193 114.601 309.358 113.459 314.418C153.843 295.986 199.171 300.127 238.503 280.565L240.141 282.914L240.111 282.824Z" fill="#2C1600"/>
</g>
<defs>
<clipPath id="clip0_21_259">
<rect width="315" height="422" fill="white" transform="translate(0.438293)"/>
</clipPath>
</defs>
</svg>
