<svg width="209" height="418" viewBox="0 0 209 418" fill="none" xmlns="http://www.w3.org/2000/svg">
<g filter="url(#filter0_f_21_379)">
<path d="M249.986 64.0886C249.986 86.7235 209.003 208.609 209.003 208.609C209.003 208.609 168.021 86.7235 168.021 64.0886C168.021 53.2193 172.338 42.7952 180.024 35.1094C187.71 27.4236 198.134 23.1058 209.003 23.1058C219.873 23.1058 230.297 27.4236 237.983 35.1094C245.668 42.7952 249.986 53.2193 249.986 64.0886Z" fill="#288357"/>
<path d="M135.791 77.438C151.798 93.4448 209.039 208.609 209.039 208.609C209.039 208.609 93.8752 151.404 77.8685 135.361C70.1826 127.675 65.8647 117.251 65.8647 106.382C65.8647 95.5122 70.1826 85.088 77.8685 77.4021C85.5543 69.7163 95.9785 65.3984 106.848 65.3984C117.717 65.3984 128.142 69.7163 135.827 77.4021" fill="#288357"/>
<path d="M64.483 167.626C87.1179 167.626 209.003 208.609 209.003 208.609C209.003 208.609 87.1179 249.592 64.483 249.592C53.6137 249.592 43.1896 245.274 35.5038 237.588C27.8181 229.902 23.5002 219.478 23.5002 208.609C23.5002 197.74 27.8181 187.316 35.5038 179.63C43.1896 171.944 53.6137 167.626 64.483 167.626Z" fill="#288357"/>
<path d="M77.8324 281.821C93.8392 265.814 209.003 208.573 209.003 208.573C209.003 208.573 151.798 323.737 135.755 339.744C128.07 347.43 117.645 351.747 106.776 351.747C95.9066 351.747 85.4824 347.43 77.7965 339.744C70.1107 332.058 65.7928 321.634 65.7928 310.764C65.7928 299.895 70.1107 289.471 77.7965 281.785" fill="#288357"/>
<path d="M168.021 353.122C168.021 330.488 209.003 208.602 209.003 208.602C209.003 208.602 249.986 330.488 249.986 353.122C249.986 363.992 245.668 374.416 237.983 382.102C230.297 389.787 219.873 394.105 209.003 394.105C198.134 394.105 187.71 389.787 180.024 382.102C172.338 374.416 168.021 363.992 168.021 353.122Z" fill="#288357"/>
<path d="M282.214 339.78C266.207 323.773 208.967 208.609 208.967 208.609C208.967 208.609 324.131 265.814 340.137 281.857C347.823 289.543 352.141 299.967 352.141 310.836C352.141 321.706 347.823 332.13 340.137 339.816C332.451 347.501 322.027 351.819 311.158 351.819C300.288 351.819 289.864 347.501 282.178 339.816" fill="#288357"/>
<path d="M353.517 249.592C330.882 249.592 208.997 208.609 208.997 208.609C208.997 208.609 330.882 167.626 353.517 167.626C364.386 167.626 374.81 171.944 382.496 179.63C390.182 187.316 394.5 197.74 394.5 208.609C394.5 219.478 390.182 229.902 382.496 237.588C374.81 245.274 364.386 249.592 353.517 249.592Z" fill="#288357"/>
</g>
<defs>
<filter id="filter0_f_21_379" x="0.500244" y="0.105835" width="416.999" height="416.999" filterUnits="userSpaceOnUse" color-interpolation-filters="sRGB">
<feFlood flood-opacity="0" result="BackgroundImageFix"/>
<feBlend mode="normal" in="SourceGraphic" in2="BackgroundImageFix" result="shape"/>
<feGaussianBlur stdDeviation="11.5" result="effect1_foregroundBlur_21_379"/>
</filter>
</defs>
</svg>
