<svg width="98" height="91" viewBox="0 0 98 91" fill="none" xmlns="http://www.w3.org/2000/svg">
<path d="M48.5434 52.146C52.3162 51.198 55.2431 47.5758 55.4825 43.7005C55.6161 41.5407 54.8169 39.4438 53.4216 37.9002L48.5434 52.146Z" fill="#21432A" fill-opacity="0.2"/>
<path d="M44.535 51.9664L50.0837 35.7571C49.6003 35.608 49.0935 35.5152 48.569 35.4758C47.5913 35.4056 46.6499 35.5249 45.7653 35.8009L41.1419 49.3022C41.9849 50.5162 43.1616 51.4653 44.5291 51.9694L44.535 51.9664Z" fill="#21432A" fill-opacity="0.2"/>
<path d="M40.4974 18.9918C37.4022 20.5029 34.1605 22.4292 30.6999 22.9227C30.4334 22.9534 30.1759 22.987 29.9064 23.0118C29.7998 23.0211 29.6992 23.0422 29.6046 23.0752C29.3407 23.0081 29.0797 22.9321 28.8187 22.8413C26.6891 22.1063 25.616 25.6235 27.7148 26.0624C33.3502 27.2456 38.8035 25.82 42.5326 21.3178C43.5879 20.0429 41.8277 18.3349 40.4885 18.9889L40.4974 18.9918Z" fill="#21432A" fill-opacity="0.2"/>
<path d="M26.006 41.7944C25.702 42.074 25.404 42.3654 25.1149 42.6598C25.0998 42.6007 25.0848 42.5415 25.0697 42.4823C24.7028 41.065 22.8288 40.557 21.9542 41.8519C20.9648 43.3161 20.927 44.2404 20.9602 45.9078C21.0136 48.9229 18.1009 50.1341 16.0583 51.9371C16.0318 51.958 16.023 51.9847 16.0053 52.0084C15.6212 52.2469 15.2519 52.5001 14.9095 52.7918C14.319 53.2828 14.7194 54.1639 15.407 54.2619C17.2445 54.5212 19.1258 53.8829 20.8293 53.2304C22.5654 52.5689 24.5672 51.7138 25.6422 50.1545C25.8395 49.8694 25.9064 49.5463 25.8785 49.2413C27.6688 48.0553 28.27 45.793 29.1837 43.9144C30.0739 42.0922 27.3694 40.542 26.0089 41.8003L26.006 41.7944Z" fill="#21432A" fill-opacity="0.2"/>
<path d="M71.9274 8.63355C70.5195 9.90094 70.9004 11.8306 70.8985 13.6049C70.8949 15.6694 70.9829 17.7099 71.1421 19.7589C67.831 21.3567 64.3777 22.9373 61.3111 24.9458C60.174 24.2809 58.7815 24.9322 58.5412 26.3371C58.3716 26.8828 58.1723 27.4138 57.9285 27.9301C57.6409 28.6096 58.4608 29.2194 59.0639 28.9297C59.1349 28.8939 59.2147 28.861 59.2857 28.8252C61.4015 34.3083 64.6 39.4228 66.6361 44.9685C67.6093 47.6156 68.4155 49.9909 70.4111 52.0475C70.9851 52.6406 71.5623 53.284 72.1544 53.9422C67.7922 56.3972 63.8699 59.9879 60.793 63.8566C60.7163 63.9546 60.8472 64.0963 60.9536 64.0425C64.8373 61.9182 68.7806 59.8973 72.8822 58.2194C71.0118 60.1284 68.6808 61.6246 66.5485 63.2206C64.1652 64.9954 61.782 66.7702 59.4016 68.5509C54.7976 71.9962 49.9826 75.2883 45.8368 79.2886C45.3934 79.5125 44.9619 79.7452 44.5215 79.9751C44.5442 79.741 44.4751 79.4865 44.2816 79.2355C40.6081 74.6057 38.9296 68.872 35.6226 64.0126C35.5004 63.8294 35.2108 64.0054 35.256 64.1977C36.3678 69.6908 38.4603 76.7439 42.8147 80.5476C42.9068 80.6272 43.0018 80.6831 43.0997 80.7301C42.6948 80.942 42.2839 81.1569 41.879 81.3688C41.5242 81.5479 41.589 82.1904 42.0362 82.1797C44.5537 82.1401 47.0359 81.3987 49.4546 80.3406C49.5228 80.3433 49.5849 80.3341 49.6589 80.3042C50.6642 79.8707 51.6485 79.3514 52.6119 78.7908C55.0592 77.4808 57.4111 76.0112 59.6397 74.8116C61.0703 74.0447 62.4949 73.266 63.9225 72.4932C65.1699 71.8633 66.4114 71.2215 67.641 70.5561C68.3917 70.1474 69.1246 69.7179 69.8426 69.2737C72.698 67.7873 75.918 66.3913 78.2256 64.2022C78.3171 64.1189 78.3671 64.0121 78.3992 63.8994C80.2413 63.0805 82.1307 62.2525 83.1669 60.646C84.3092 58.882 83.3913 57.4758 82.3575 55.9426C80.3254 52.9176 78.3583 49.8449 76.4946 46.7126C72.8329 40.5632 69.8842 34.1799 67.5826 27.4179C69.3128 26.7891 71.04 26.1395 72.6898 25.3806C74.1385 24.7084 76.3658 23.9176 76.9191 22.2656C77.5309 20.4504 76.3147 17.748 75.9077 15.9576C75.3591 13.5635 74.654 11.2708 73.7652 8.98171C73.4869 8.26897 72.4675 8.14566 71.9421 8.6187L71.9274 8.63355ZM72.2148 63.9505C69.4917 65.9488 66.5958 67.6634 63.6432 69.2953C61.9615 70.2261 60.037 71.1609 58.1128 72.1993C58.7538 71.7495 59.4037 71.3026 60.0476 70.8587C62.3606 69.2678 64.6705 67.6711 66.9893 66.0772C69.2343 64.5281 71.5019 62.7004 73.9492 61.3904C74.6262 61.8054 75.5383 61.7455 76.4641 61.4338C75.0275 62.174 73.6176 62.9231 72.2207 63.9475L72.2148 63.9505ZM64.1843 27.1974C64.2114 27.3247 64.2475 27.4549 64.2806 27.5791C64.0388 27.8496 64.2001 28.1985 64.485 28.3366C64.5091 28.4283 64.5331 28.52 64.5601 28.6029C64.2741 28.1982 63.9823 27.8113 63.6846 27.4275C63.8531 27.3498 64.0217 27.2721 64.1902 27.1944L64.1843 27.1974ZM72.4804 46.5359C73.0202 47.4579 73.5718 48.374 74.1322 49.2781C73.4269 48.4249 72.9019 47.5028 72.4804 46.5359ZM79.1272 60.0074C78.9322 60.1207 78.7401 60.2251 78.5479 60.3296C79.1209 59.9215 79.6197 59.4693 79.9646 59.0503C80.1445 58.8334 80.2261 58.5102 80.2248 58.1844C80.6004 58.7812 80.4749 59.2527 79.1302 60.0133L79.1272 60.0074Z" fill="#21432A" fill-opacity="0.2"/>
<path d="M40.441 74.2597C39.6081 72.6102 38.9636 69.9381 37.2331 69.0238C37.1203 68.962 37.0111 69.0395 37.0234 69.1668C37.1714 71.3699 37.9058 73.5737 38.6397 75.6442C39.2747 77.4307 39.8679 79.8838 41.7694 80.5931C42.069 80.7015 42.4918 80.5251 42.5735 80.2019C43.0865 78.1176 41.3664 76.0777 40.4499 74.2626L40.441 74.2597Z" fill="#21432A" fill-opacity="0.2"/>
<path d="M53.9493 37.3147C53.3028 37.1366 52.6922 37.764 52.9909 38.3997C53.2896 39.0205 53.6296 39.6204 53.9844 40.2055C53.9907 40.3062 54.003 40.4039 54.0419 40.5104C55.0397 43.4121 55.9564 46.0062 54.0988 48.8807C52.1352 51.9275 48.9512 52.7043 45.6335 53.3928C45.5063 53.42 45.4148 53.5181 45.3679 53.6308C45.2111 53.6729 45.0513 53.7091 44.8944 53.7512C44.5039 53.8593 44.3966 54.4403 44.8385 54.5808C49.7557 56.1489 55.71 54.0993 58.2272 49.4893C60.4533 45.4196 58.7737 38.6552 53.9463 37.3088L53.9493 37.3147Z" fill="#21432A" fill-opacity="0.2"/>
<path d="M49.0224 79.3141C48.8037 79.4246 48.5908 79.532 48.3721 79.6425C45.6789 80.9651 43.6675 81.6987 41.9016 82.3009C41.5732 82.4148 41.2172 82.2681 41.053 81.9577C40.7336 81.3399 40.3513 80.5684 39.8645 79.5751C36.7436 73.2046 36.007 70.4826 35.4206 68.2932C35.0508 66.9292 34.7651 65.8493 33.9587 64.2086C33.1494 62.5621 32.3102 61.6057 31.3283 60.4989C30.1797 59.1943 28.8734 57.7244 27.4698 54.8569C26.4603 52.7995 25.5898 50.6644 24.7403 48.6004C23.3335 49.4145 21.9001 50.2198 20.514 51.0013C18.4393 52.1675 16.2965 53.3754 14.2191 54.6246C13.9117 54.7798 13.5443 54.7427 13.321 54.4771C11.3002 52.1066 8.82125 49.2256 5.94364 45.9226C5.7145 45.6599 5.7129 45.2601 5.94588 45.0015C9.98271 40.4185 12.1832 37.3562 14.1244 34.6622C14.6046 33.9969 15.0612 33.3583 15.5208 32.7404C15.7506 32.4315 16.1887 32.3587 16.5007 32.5944C16.8097 32.8242 16.8766 33.2653 16.6468 33.5742C16.1931 34.1891 15.7394 34.8187 15.2652 35.4811C13.3681 38.1157 11.2324 41.0859 7.40511 45.4667C9.93756 48.3801 12.1546 50.9482 14.0087 53.1208C15.9444 51.9729 17.9127 50.8604 19.8308 49.7807C21.4474 48.868 23.1173 47.9285 24.7338 46.9862C24.9022 46.8789 25.1243 46.8633 25.3112 46.9247C25.5069 46.9891 25.6556 47.1366 25.7364 47.3258L26.0385 48.0711C26.8761 50.1114 27.7377 52.2287 28.7292 54.2507C30.0552 56.9497 31.2365 58.2897 32.3792 59.5825C33.3819 60.7159 34.3282 61.7814 35.2182 63.6024C36.0813 65.3702 36.4001 66.5596 36.7788 67.9413C37.3502 70.0716 38.0658 72.7226 41.124 78.969C41.4764 79.6814 41.769 80.2756 42.0258 80.784C43.5226 80.2657 45.3238 79.5863 47.7628 78.392C52.9157 75.8572 57.8608 72.485 62.6434 69.2171C67.2813 66.0445 71.6622 63.0536 76.0938 60.883C77.4626 60.2142 78.873 59.5837 80.2303 58.9949C78.6042 56.0839 76.3184 53.365 74.2826 50.9502C72.2945 48.5856 70.4194 46.3567 69.3891 44.2579C69.3771 44.2342 69.3682 44.2165 69.3562 44.1928C69.3293 44.1248 66.823 37.3994 62.2414 27.2257C62.083 26.8828 62.2295 26.4824 62.5665 26.3122L63.0454 26.0704C63.4475 25.8675 63.8495 25.6645 64.2515 25.4615C66.1436 24.5359 68.22 23.7843 70.2225 23.0627C71.521 22.5926 72.858 22.1105 74.1562 21.5811C73.0748 17.8238 72.0852 14.0721 71.1587 10.5186C62.9986 11.4036 57.6024 12.3548 53.633 13.0605C50.1786 13.6694 47.8549 14.0784 45.6513 14.1225C43.5494 15.9109 40.0437 18.5044 34.9469 20.9886C31.6683 22.592 28.5151 23.7091 25.3157 24.3822C23.2907 26.1169 21.6264 27.6991 20.2254 29.2151C19.9629 29.5035 19.5187 29.52 19.2362 29.2545C18.9537 28.9891 18.9371 28.5449 19.1967 28.2655C20.6714 26.6751 22.4184 25.0215 24.5409 23.2005C24.6294 23.1261 24.7418 23.0694 24.8542 23.0423C28.0004 22.3961 31.1033 21.3117 34.3317 19.7263C39.4461 17.2183 42.9222 14.6249 44.9325 12.8903C45.0564 12.7832 45.2191 12.7233 45.388 12.7197C47.5473 12.7053 49.871 12.2963 53.3934 11.6753C57.4753 10.9573 63.0669 9.96687 71.6149 9.05662C71.9614 9.02268 72.2792 9.2406 72.3664 9.57495C73.3803 13.4776 74.4722 17.6377 75.6766 21.7855C75.7757 22.1286 75.6113 22.4936 75.2771 22.6252C73.772 23.2738 72.2073 23.8338 70.7017 24.3788C68.643 25.1214 66.6967 25.8221 64.8697 26.7149C64.515 26.894 64.1543 27.0761 63.7996 27.2552C68.0676 36.7637 70.4747 43.1459 70.6634 43.6664C71.619 45.6027 73.4375 47.7636 75.3543 50.0456C77.5865 52.7025 80.1223 55.7106 81.8269 59.0123C81.9135 59.1838 81.9291 59.391 81.8647 59.572C81.8003 59.7529 81.6646 59.8956 81.4842 59.9792C79.9377 60.6487 78.2907 61.369 76.709 62.1453C72.3691 64.2771 68.0325 67.2381 63.436 70.375C58.8129 73.5327 54.0362 76.7976 49.0284 79.3259L49.0224 79.3141Z" fill="#21432A"/>
<path d="M29.3153 45.0128C29.0493 45.1472 28.7203 45.0981 28.4973 44.8769C28.3307 44.7087 28.1937 44.5108 28.0772 44.2654C27.9309 43.9757 27.8438 43.671 27.7568 43.381C27.6848 43.1503 27.6187 42.9314 27.541 42.7628C27.3739 42.4317 27.0631 42.4922 26.8325 42.6086C26.2057 42.8955 25.9353 43.4327 25.6618 43.9047C25.3911 44.3679 25.094 44.8963 24.466 44.8721C23.7698 44.8452 23.3258 44.1717 22.5344 42.5457L22.2598 42.0018C22.0357 41.5288 21.7641 40.9908 21.4364 40.5181C21.2159 40.1991 21.2912 39.7604 21.6102 39.54C21.9263 39.3136 22.3679 39.3948 22.5884 39.7138C22.9786 40.2662 23.2801 40.8633 23.5339 41.3806L23.8086 41.9246C24.1073 42.5602 24.3221 42.9414 24.4681 43.1719C24.7799 42.6286 25.2478 41.8359 26.1878 41.3612C26.1996 41.3553 26.2114 41.3493 26.2233 41.3433C27.1042 40.9133 28.2777 41.0479 28.8093 42.1447C28.9436 42.4107 29.0277 42.6947 29.1088 42.9728C29.1808 43.2184 29.2558 43.4551 29.3425 43.6413C29.3962 43.7477 29.4498 43.8245 29.5034 43.8865C29.777 44.1639 29.7698 44.6052 29.4925 44.8788C29.4364 44.9294 29.3774 44.9741 29.3182 45.0039L29.3153 45.0128Z" fill="#288357"/>
<path d="M58.2386 29.161C58.1795 29.1909 58.1173 29.2148 58.0493 29.2269C57.6704 29.2995 57.3051 29.0463 57.2325 28.6674C57.2144 28.5875 57.1844 28.4988 57.1248 28.3953C57.0233 28.2091 56.8686 28.0202 56.7078 27.8194C56.5263 27.592 56.3417 27.3588 56.1985 27.1046C55.8972 26.5667 55.8712 25.9863 56.1209 25.4669C56.3647 24.9506 56.793 24.6527 57.0265 24.5274C57.9694 24.029 58.8997 24.0786 59.5338 24.1294C59.4202 23.8751 59.2291 23.4819 58.892 22.8731L58.5936 22.3411C58.3162 21.8357 57.9969 21.2476 57.7663 20.6146C57.6346 20.2508 57.8255 19.8502 58.1863 19.7125C58.5501 19.5807 58.9537 19.7628 59.0854 20.1266C59.2831 20.6649 59.5666 21.1969 59.8261 21.652L60.1244 22.184C61.0014 23.7593 61.3006 24.5134 60.9268 25.0954C60.5882 25.6151 59.9867 25.5701 59.4504 25.5219C58.9082 25.4766 58.286 25.4199 57.7156 25.745C57.5737 25.8166 57.4528 25.9445 57.3999 26.0602C57.3647 26.1373 57.3355 26.2411 57.4398 26.4184C57.5263 26.5751 57.6692 26.7552 57.8181 26.9471C58.0056 27.1863 58.2021 27.4284 58.3602 27.7121C58.4944 27.9486 58.5812 28.1793 58.6236 28.4101C58.6841 28.7209 58.5194 29.0266 58.2475 29.164L58.2386 29.161Z" fill="#288357"/>
<path d="M39.0804 26.1625C39.0449 26.1805 39.0094 26.1984 38.9681 26.2193C33.5374 28.8799 28.0815 28.1551 24.3874 24.2777C24.1197 23.9974 24.1327 23.553 24.4131 23.2853C24.6934 23.0176 25.1377 23.0307 25.4054 23.311C28.6564 26.7222 33.5017 27.3398 38.3559 24.9628C38.3854 24.9479 38.4209 24.93 38.4505 24.9151C42.6717 22.7835 44.5914 17.6368 44.6222 13.4514C44.6266 13.0634 44.9453 12.7541 45.3304 12.7525C45.7184 12.7569 46.0336 13.0726 46.0292 13.4606C45.9971 18.0696 43.8367 23.7682 39.0893 26.1655L39.0804 26.1625Z" fill="#21432A"/>
<path d="M51.6166 52.6049C51.5811 52.6228 51.5457 52.6407 51.5102 52.6587C49.5413 53.6232 47.0517 53.9826 44.8614 53.6121C42.917 53.2881 40.2826 52.244 38.7537 49.1282C37.6967 46.976 37.5797 44.364 38.4262 41.9703C39.2727 39.5767 41.0094 37.5793 43.2296 36.5101C43.4366 36.4056 43.6554 36.31 43.8713 36.2232C45.4091 35.6099 46.7733 35.2994 48.1682 35.2406C51.414 35.1004 54.3564 36.8866 55.8316 39.9109C58.1668 44.6823 56.3139 50.2404 51.6137 52.6138L51.6166 52.6049ZM43.765 37.8054C41.9263 38.7338 40.4668 40.4131 39.7521 42.436C39.0315 44.4767 39.1262 46.6919 40.0161 48.513C41.3628 51.2682 45.6329 53.9793 50.8921 51.4052C50.9217 51.3903 50.9512 51.3754 50.9867 51.3575C54.9951 49.3334 56.5788 44.5938 54.5811 40.5201C53.1089 37.5166 50.3415 36.5471 48.2359 36.6384C47.001 36.6907 45.7847 36.971 44.3948 37.5244C44.2084 37.5963 44.0281 37.6799 43.8477 37.7636C43.8182 37.7785 43.7945 37.7904 43.765 37.8054Z" fill="#288357"/>
</svg>
