<svg width="76" height="78" viewBox="0 0 76 78" fill="none" xmlns="http://www.w3.org/2000/svg">
<path d="M69.5995 43.9269C70.0704 40.8661 69.8539 37.8607 67.8648 35.3579C66.0759 33.0989 63.703 32.1738 61.1667 31.1883C61.3217 28.482 61.6106 25.4516 60.4448 22.9889C60.3792 22.847 60.1548 22.7875 60.0722 22.9599C58.8628 25.5991 59.0935 28.8981 58.7963 31.7375C58.7367 32.2932 58.9295 32.7383 59.4192 33.0211C60.1486 33.4543 60.9685 33.9736 61.7608 34.5616C61.9987 35.1174 62.368 35.5918 62.594 36.1721C62.9921 37.2001 62.9865 38.4496 62.8596 39.5323C62.5737 41.8873 61.9058 44.2587 61.4174 46.579C60.5293 50.8524 59.6594 55.1363 58.7778 59.411C58.3729 59.3416 57.9601 59.2774 57.5551 59.2081C56.7374 59.0745 55.8651 58.9433 54.9937 58.9069C55.4692 55.9891 55.9621 52.9531 53.5495 50.7355C50.6881 48.1015 45.7162 47.422 42.1054 46.5005C37.2659 45.2734 32.3105 44.1173 27.3431 43.6145C25.3891 43.4174 19.5399 42.004 18.6088 44.5717C18.2104 44.7674 17.9023 45.1167 17.8234 45.6346C17.5467 47.3831 17.283 49.1341 17.0115 50.8903C16.9874 51.0409 16.962 51.198 16.9379 51.3485C16.7946 51.157 16.5849 50.9923 16.3074 50.895C14.1364 50.1397 11.7561 50.0109 9.48309 49.6877C7.78909 49.4424 5.86995 48.7116 4.59164 50.2009C4.0328 50.8505 4.00159 51.7297 4.4283 52.4525C4.57781 52.713 4.7847 52.9243 5.01636 53.1137C4.99128 53.2032 4.97783 53.3019 4.98003 53.3902C5.14958 55.2705 6.74176 55.9141 8.35919 56.4344C9.83004 56.9112 11.321 57.2569 12.8249 57.6052C14.4507 57.9853 16.0896 58.6317 17.7473 58.2949C18.4311 58.1577 19.0474 57.459 19.0153 56.7899C19.5298 55.8947 19.5508 54.6686 19.7097 53.6938C20.0208 51.8104 20.337 49.9349 20.6481 48.0516C24.8793 49.3772 29.3588 50.0506 33.6697 50.9869C39.0225 52.15 44.378 53.3001 49.7495 54.3723C49.7442 54.3983 49.7402 54.4178 49.7388 54.4243C49.7428 54.4048 49.7455 54.3918 49.7495 54.3723C49.7402 54.4178 49.7362 54.4372 49.7388 54.4243C49.7017 54.6059 49.6645 54.7876 49.6273 54.9693C49.1276 54.3059 48.3155 54.0789 47.056 54.5513C45.1746 55.2546 44.8868 58.6098 44.5094 60.2227C44.148 61.7577 43.8514 63.3059 43.4834 64.8396C43.3247 65.4832 43.0538 66.8069 42.7518 67.82C42.093 67.8677 41.4266 67.8868 40.7641 67.8864C40.2368 67.8867 39.7937 68.2016 39.5151 68.6381C39.1323 68.5598 38.7611 68.4906 38.3951 68.4292C36.1186 68.0241 33.8501 67.5801 31.5724 67.1478C27.1273 66.3057 22.4679 65.1899 17.9213 65.2735C17.0938 65.2866 16.831 66.5376 17.5933 66.8762C23.4891 69.4822 30.4872 70.4682 36.7867 71.6966C39.5237 72.2297 43.3389 73.3417 46.1048 72.6436C47.3376 72.3347 47.8968 71.3202 48.219 70.1422C48.4312 70.0301 48.6396 69.9038 48.8298 69.767C50.5291 68.5328 50.8281 66.4442 50.7966 64.4839C52.1572 64.9381 53.6395 65.1604 54.9463 65.4481C56.2933 65.7373 58.0163 66.4685 59.5283 66.4467C60.5928 67.4555 62.6393 67.5971 63.2532 65.9516C64.6112 62.3219 65.6892 58.5742 66.7813 54.8564C67.8326 51.2721 69.0297 47.6029 69.5957 43.9126L69.5995 43.9269ZM35.2099 48.1518C30.638 47.2026 25.7855 46.5678 21.3527 45.0049C23.7838 45.4145 26.1842 46.0071 28.6187 46.4986C32.3524 47.2492 36.0732 47.9634 39.7605 48.9073C41.5847 49.3753 43.5416 49.7893 45.4512 50.3356C42.041 49.5903 38.6267 48.8646 35.2099 48.1518ZM51.6443 61.3989C51.6994 60.9978 51.7493 60.5888 51.8043 60.1877C51.8313 60.2541 51.8674 60.3088 51.9166 60.3662C51.9421 60.4728 51.9624 60.5716 51.9944 60.6795C52.2478 61.5224 53.2195 61.7956 53.9455 61.5183C54.2269 61.63 54.5095 61.7351 54.8001 61.8351C53.7486 61.6876 52.7036 61.5413 51.6508 61.4002L51.6443 61.3989Z" fill="#21432A" fill-opacity="0.2"/>
<path d="M51.0624 39.038C50.823 38.5563 50.035 38.4424 49.6284 38.7445C49.0224 39.1951 48.919 39.6675 48.5564 40.2829C48.3182 40.6871 47.9642 40.8647 47.4952 40.8769C46.4832 40.8997 46.2107 39.6879 45.9543 38.9255C45.8762 38.6797 45.5662 38.5757 45.3473 38.7202C43.3318 40.0789 45.1779 42.9175 46.9605 43.3905C49.3412 44.013 52.2841 41.4919 51.0559 39.0367L51.0624 39.038Z" fill="#21432A" fill-opacity="0.2"/>
<path d="M57.733 40.0718C57.3658 39.6857 56.6217 39.6551 56.2008 39.9611C55.6144 40.3819 55.5553 40.8025 55.2681 41.413C55.1225 41.728 54.9464 41.8947 54.5941 41.9646C53.8323 42.1197 53.429 41.3814 52.876 41.0113C52.7517 40.925 52.5684 40.9619 52.4512 41.0393C51.7465 41.4765 51.7701 42.5833 52.1179 43.2291C52.6332 44.1796 53.6542 44.7739 54.7297 44.7709C56.8456 44.7713 59.5895 42.0337 57.7395 40.0732L57.733 40.0718Z" fill="#21432A" fill-opacity="0.2"/>
<path d="M56.4454 10.2247C55.8957 9.70658 54.8805 9.8774 54.5617 10.5761C54.2084 10.2875 53.8578 9.98584 53.4863 9.68673C52.9569 9.26741 52.0144 9.74379 52.3138 10.4608C52.8458 11.7595 53.4274 12.9805 54.2471 14.1285C54.8267 14.93 56.1217 14.9449 56.5793 13.9974C57.1339 12.8399 57.4815 11.2074 56.4454 10.2247Z" fill="#21432A" fill-opacity="0.2"/>
<path d="M55.2439 17.7804C54.7997 17.1757 54.0677 17.0529 53.4206 17.4072C53.0924 17.5902 52.8911 17.8802 52.8232 18.2449C52.4242 18.0145 52.0303 17.792 51.613 17.5849C50.5891 17.0711 49.5893 16.4068 48.4138 16.4028C48.015 16.4024 47.7675 16.852 47.879 17.1993C48.2915 18.4871 49.6483 19.4881 50.6826 20.2812C51.647 21.0194 53.1195 22.2807 54.3252 22.5004C55.0235 22.623 55.6458 22.2907 55.9901 21.6986C56.5594 20.7335 55.839 18.6052 55.2309 17.7777L55.2439 17.7804Z" fill="#21432A" fill-opacity="0.2"/>
<path d="M56.2192 30.8857C56.4956 28.0488 57.8131 24.1877 56.7707 21.419C56.6526 21.1041 56.2181 20.9814 55.9856 21.2583C55.6735 21.6271 55.4391 22.0456 55.2397 22.4915C55.1392 21.7273 54.8865 21.0131 54.3197 20.5456C54.2278 20.4659 54.0772 20.4418 53.973 20.5219C53.9247 20.5594 53.8843 20.5917 53.8426 20.6304C53.809 20.0016 53.7339 19.3778 53.5821 18.7653C53.5182 18.5156 53.1765 18.5336 53.0626 18.7266C52.0495 20.4731 51.7698 22.5994 51.409 24.5605C51.2626 25.3418 51.0707 26.1476 50.9957 26.9435C47.5453 26.163 43.7493 26.0148 40.3568 25.645C35.9725 25.1669 31.3446 24.2604 26.9319 24.6147C26.7331 24.6281 26.5665 24.7157 26.4321 24.8437C26.4351 24.7632 26.4315 24.6813 26.4215 24.5981C26.3976 24.4175 26.3387 24.2432 26.2458 24.1025C26.2723 23.9727 26.2989 23.8429 26.3033 23.7221C26.3376 23.3235 26.2393 22.9451 25.9952 22.618C25.4646 21.9077 24.5024 21.819 23.8709 22.4604C23.486 22.8548 22.7826 22.9881 22.2868 23.1976C21.6205 23.4804 21.1164 23.7964 20.7732 24.4495C20.5164 24.9445 21.0179 25.5001 21.5382 25.3362C22.1313 25.1466 22.7354 25.135 23.3278 25.1143C23.4575 25.4383 23.6771 25.7198 23.9814 25.9173C24.6731 26.3699 25.6402 26.2027 26.1234 25.6255C26.1443 25.8867 26.2821 26.138 26.5881 26.2615C30.6724 27.9086 35.2941 28.4488 39.6014 29.3033C41.7518 29.7299 43.8957 30.1551 46.0569 30.496C48.3622 30.8596 50.7597 31.499 53.0932 31.3614C53.2777 31.3518 53.4494 31.3058 53.6107 31.2442C54.1517 32.2675 56.0845 32.271 56.2179 30.8921L56.2192 30.8857Z" fill="#21432A" fill-opacity="0.2"/>
<path d="M4.50937 53.2128C4.13952 53.1371 3.88915 52.7749 3.95968 52.3972C4.50963 49.3797 5.15721 44.8611 5.85275 40.075C6.42772 36.1094 7.01762 32.0049 7.63623 28.1563C7.69378 27.776 8.05862 27.5126 8.43762 27.5767C8.81928 27.6277 9.08132 27.9991 9.01728 28.3781C8.40133 32.2137 7.81275 36.3117 7.23779 40.2774C6.59699 44.7298 5.98457 48.9447 5.46057 51.9675L15.5006 53.8465C15.7735 51.7863 16.0859 49.599 16.4741 47.0419C16.4955 46.9043 16.5168 46.7667 16.5434 46.6369C17.0693 44.0674 18.6063 43.9899 19.4757 44.1678L51.1316 49.9973C51.1965 50.0106 51.2549 50.0226 51.3093 50.054C52.7934 50.7633 53.5248 51.9135 53.3281 53.2051C53.0044 55.2819 52.582 57.974 52.1294 60.714L60.3005 62.2443C60.4652 61.4397 60.59 60.8298 60.7812 59.8954C62.06 53.6468 63.3085 47.2162 64.5906 40.2247C65.1057 37.4434 63.2733 34.736 60.5027 34.169L60.4508 34.1584L13.4434 25.0181C12.461 24.8306 11.4222 25.0506 10.5961 25.6185C10.4775 25.7024 10.3655 25.7876 10.2572 25.8871C9.96769 26.1456 9.52097 26.115 9.26897 25.8269C9.01048 25.5373 9.04108 25.0907 9.32926 24.8387C9.47793 24.7068 9.63173 24.5828 9.79588 24.4744C10.9308 23.6859 12.3584 23.3831 13.7107 23.6464L60.718 32.7866C60.718 32.7866 60.7634 32.7959 60.7829 32.7999C64.2932 33.5183 66.6199 36.9488 65.9637 40.4854C64.6737 47.4821 63.4305 53.9205 62.149 60.182C61.9073 61.363 61.7705 62.0313 61.5224 63.2109C61.4453 63.5873 61.0793 63.8233 60.7081 63.7541L51.1885 61.9749C50.8446 61.9045 50.5656 61.55 50.6232 61.1697C51.1144 58.2077 51.5784 55.247 51.93 53.0001C52.0518 52.207 51.3891 51.6793 50.7761 51.3713L19.198 45.5577C18.8477 45.486 18.2312 45.3598 17.9085 46.9366C17.8859 47.0469 17.8634 47.1572 17.8473 47.2688C17.4176 50.1284 17.0783 52.513 16.7837 54.7783C16.7581 54.9692 16.6547 55.144 16.5036 55.2551C16.3459 55.3648 16.1535 55.4133 15.9653 55.3748C15.9653 55.3748 4.51837 53.2349 4.50539 53.2323L4.50937 53.2128Z" fill="#21432A"/>
<path d="M46.8716 41.4794C45.8269 41.2656 44.5578 40.1338 44.8791 38.5635C45.1726 37.1295 46.5075 36.3548 47.5197 36.562C47.6365 36.5859 47.7506 36.6228 47.8713 36.661C47.9413 36.6821 48.01 36.7097 48.0814 36.7243C49.1066 36.9341 50.0704 37.8074 49.9258 39.0758C49.915 39.1614 49.9055 39.2406 49.8882 39.325C49.5815 40.8239 48.0123 41.7196 46.8703 41.4859L46.8716 41.4794ZM47.2369 37.9441C46.9708 37.8896 46.3862 38.2027 46.2534 38.8515C46.0941 39.6302 46.8663 40.0519 47.1518 40.1103C47.4892 40.1793 48.348 39.8481 48.5127 39.0435C48.5206 39.0045 48.5286 38.9656 48.5366 38.9267C48.6056 38.2918 47.8829 38.1236 47.8051 38.1077C47.6883 38.0838 47.5741 38.0469 47.4535 38.0087C47.3834 37.9876 47.3147 37.96 47.2433 37.9454L47.2369 37.9441Z" fill="#288357"/>
<path d="M54.2444 42.9139C52.7455 42.6071 51.8639 41.3653 52.1507 39.9638C52.3034 39.2176 52.7868 38.6067 53.4689 38.2798C53.9544 38.0546 54.5145 37.9935 55.0984 38.113C56.6233 38.4251 57.4631 39.7057 57.2679 40.6595C56.9187 42.366 55.2696 43.1237 54.2444 42.9139ZM54.0671 39.5515C53.6779 39.7355 53.5557 40.0688 53.5185 40.2505C53.3883 40.8863 53.7849 41.3934 54.5246 41.5448C54.7776 41.5966 55.6958 41.3383 55.891 40.3845C55.9177 40.2209 55.5877 39.6531 54.8156 39.4951C54.5366 39.438 54.2689 39.4576 54.0658 39.558L54.0671 39.5515Z" fill="#288357"/>
<path d="M19.2329 26.1286C18.8566 26.0516 18.6075 25.6829 18.6859 25.3C19.2356 22.6137 19.6779 19.8581 20.1145 17.196L20.2909 16.1031C20.3977 15.4489 20.7679 14.8621 21.3061 14.4788C21.8443 14.0954 22.5295 13.9517 23.1758 14.0637L26.9825 14.7548C27.3809 14.8229 27.617 15.1889 27.5451 15.5731C27.4746 15.9507 27.1111 16.2076 26.7269 16.1357L22.9202 15.4446C22.6412 15.3875 22.3422 15.4615 22.1063 15.6228C21.8705 15.7841 21.7096 16.0419 21.6655 16.3235L21.4891 17.4165C21.0563 20.0929 20.6049 22.8602 20.0498 25.5724C19.9715 25.9553 19.6041 26.1978 19.2212 26.1195L19.2329 26.1286Z" fill="#21432A"/>
<path d="M57.5736 33.583C57.2102 33.5087 56.965 33.1543 57.0199 32.7869C57.4768 29.9599 58.0151 27.2307 58.4865 24.9272L58.7919 23.4348C58.8663 23.0714 58.7901 22.684 58.5823 22.3778C58.3745 22.0717 58.0404 21.8545 57.6757 21.7867L55.154 21.3247C54.7775 21.2814 54.5194 20.8906 54.5913 20.5064C54.6631 20.1223 55.0254 19.8719 55.4095 19.9438L57.9313 20.4058C58.6671 20.5428 59.3303 20.9693 59.7496 21.5959C60.1703 22.2161 60.3227 22.9909 60.1727 23.7242L59.8686 25.2101C59.4011 27.4941 58.859 30.209 58.4074 33.01C58.3434 33.389 57.985 33.6537 57.5736 33.583Z" fill="#21432A"/>
<path d="M25.143 27.2773C24.7797 27.2029 24.5383 26.8628 24.588 26.4877L24.7502 25.3648C25.7157 18.5992 26.7147 11.6037 27.5207 4.75814C27.5411 4.5595 27.651 4.38594 27.81 4.26975C27.969 4.15356 28.1563 4.09724 28.3612 4.15271C30.9917 4.71132 33.6261 5.25046 36.258 5.76881C36.6408 5.84716 36.8834 6.21455 36.8063 6.59089C36.7293 6.96724 36.3606 7.21627 35.9842 7.13925C33.6002 6.66488 31.2124 6.1762 28.8208 5.67322C28.0274 12.2916 27.0672 19.0313 26.1379 25.5542L25.9758 26.677C25.9247 27.0587 25.5663 27.3234 25.1847 27.2723C25.1717 27.2696 25.1587 27.267 25.1457 27.2643L25.143 27.2773Z" fill="#21432A"/>
<path d="M53.4453 32.7788C53.0819 32.7044 52.8354 32.3565 52.8916 31.9826C53.954 25.0408 55.055 17.8769 55.7977 10.6803C51.0678 9.94219 46.3005 9.12204 41.2299 8.16544C40.8562 8.07545 40.5967 7.72488 40.6672 7.3472C40.7443 6.97086 41.1078 6.71401 41.4855 6.78454C46.7715 7.77847 51.7348 8.63196 56.6621 9.39697C57.0281 9.45836 57.2916 9.78947 57.2561 10.1608C56.5019 17.6119 55.3699 25.0263 54.274 32.198C54.2164 32.5783 53.8581 32.843 53.4777 32.7854C53.4648 32.7827 53.4518 32.7801 53.4453 32.7788Z" fill="#21432A"/>
<path d="M55.6207 17.7561C55.4585 17.7229 55.3018 17.6299 55.1959 17.4866L54.2056 16.1482C52.5956 13.9731 50.9339 11.7198 49.4167 9.42173C49.2051 9.10125 49.2941 8.66651 49.6159 8.44843C49.9364 8.23684 50.3711 8.32581 50.5892 8.64762C52.0845 10.9209 53.7371 13.1521 55.3368 15.3115L56.3258 16.6564C56.553 16.9666 56.49 17.4066 56.1785 17.6404C56.0117 17.7617 55.8076 17.8011 55.6194 17.7626L55.6207 17.7561Z" fill="#21432A"/>
<path d="M55.5239 18.4934C53.1973 17.97 51.1029 17.5008 48.9551 17.0613L48.0727 16.8807C47.7028 16.805 47.4576 16.4506 47.5204 16.078C47.8688 13.9792 48.2549 11.8611 48.633 9.81572L48.8167 8.81897C48.8872 8.4413 49.2507 8.18445 49.6349 8.25631C50.0166 8.30737 50.2694 8.69039 50.1976 9.07455L50.0139 10.0713C49.681 11.8961 49.3361 13.7793 49.0212 15.6483L49.2483 15.6948C51.4091 16.137 53.5099 16.6075 55.83 17.1297C56.205 17.2132 56.4463 17.587 56.3615 17.9685C56.278 18.3435 55.9119 18.5796 55.5356 18.5026L55.5239 18.4934Z" fill="#21432A"/>
<path d="M17.1663 65.626C16.7965 65.5503 16.5526 65.1894 16.6153 64.8169C16.8283 63.6436 17.0428 62.4639 17.2585 61.2776C18.0373 57.0427 18.8466 52.6586 19.3529 48.3679C19.3784 48.1771 19.4754 48.0009 19.6344 47.8847C19.7933 47.7685 19.9845 47.7265 20.1805 47.7598L49.5103 53.2282C49.8762 53.3234 50.1384 53.661 50.0757 54.0335C49.7223 56.0907 49.3588 58.0648 48.9994 60.0193C48.3418 63.5624 47.7255 66.9044 47.2168 70.5794C47.1912 70.7702 47.0892 70.9386 46.9302 71.0548C46.7726 71.1645 46.5801 71.213 46.3919 71.1745C46.3919 71.1745 17.1806 65.6222 17.1677 65.6195L17.1663 65.626ZM20.6608 49.2778C20.1463 53.3775 19.386 57.5216 18.6459 61.5345C18.4715 62.4859 18.2984 63.4307 18.124 64.382L45.9297 69.667C46.4204 66.2452 47.0034 63.0992 47.6171 59.7702C47.9379 58.0376 48.2614 56.292 48.5773 54.484L20.6608 49.2778Z" fill="#288357"/>
<path d="M35.5775 57.7525C33.8969 57.4086 32.2088 57.0023 30.5791 56.6079C28.9365 56.2109 27.2367 55.7954 25.5302 55.4462C25.1539 55.3691 24.9048 55.0004 24.9832 54.6176C25.0615 54.2348 25.4289 53.9922 25.8117 54.0706C27.5377 54.4238 29.2518 54.8354 30.9061 55.2416C32.5228 55.6333 34.1979 56.037 35.8525 56.3756C38.3312 56.8829 40.416 57.1675 42.4094 57.2713C42.799 57.2834 43.0949 57.6211 43.0698 58.0081C43.0447 58.3951 42.7199 58.6937 42.333 58.6686C40.2669 58.5567 38.1158 58.2652 35.5658 57.7434L35.5775 57.7525Z" fill="#288357"/>
<path d="M24.414 60.2069C24.0311 60.1285 23.7886 59.7611 23.8669 59.3783C23.9453 58.9955 24.3127 58.7529 24.6955 58.8313C30.5288 60.0251 36.4238 61.0828 42.2104 61.9763C42.5972 62.0352 42.8554 62.3923 42.7965 62.7791C42.739 63.1594 42.3806 63.4241 41.9938 63.3652C36.1812 62.4663 30.2668 61.4047 24.414 60.2069Z" fill="#288357"/>
</svg>
