<svg width="90" height="76" viewBox="0 0 90 76" fill="none" xmlns="http://www.w3.org/2000/svg">
<path d="M35.3609 33.8053C33.9716 31.5644 30.2636 31.5115 27.8836 31.3068C26.2976 31.1659 25.2511 31.4062 24.1722 30.2356C23.1632 29.1357 22.3452 28.0573 21.0623 27.2248C20.4088 26.8001 19.6302 27.2205 19.6544 28.0075C19.776 31.2592 21.0681 35.1528 24.5089 36.0165C27.4268 36.7494 33.0522 37.7354 35.3299 35.3272C35.7273 34.9039 35.6359 34.2543 35.3599 33.8118L35.3609 33.8053Z" fill="#21432A" fill-opacity="0.2"/>
<path d="M62.5057 43.2498C60.4209 43.4034 59.7434 45.1779 58.5999 46.6625C56.9256 48.8385 56.3515 50.1395 53.3737 50.1744C48.1693 50.2349 43.5464 48.808 38.4783 47.8107C36.065 47.3333 33.6277 46.9728 31.1795 46.7312C29.1938 46.5313 25.9069 46.9356 24.3386 45.4985C23.7782 44.9871 22.7792 45.2679 22.5042 45.9503C21.3474 48.792 23.874 50.0428 26.3299 50.232C31.2746 50.6151 36.1103 50.875 40.9794 51.95C45.797 53.0107 50.5043 54.9991 55.4428 55.2876C59.8374 55.5426 62.4774 54.3061 64.3506 50.1509C65.3469 47.9416 66.682 42.9435 62.5179 43.2583L62.5057 43.2498Z" fill="#21432A" fill-opacity="0.2"/>
<path d="M69.7632 20.0732C68.1365 17.3554 65.5415 14.0324 62.3375 13.197C62.3179 13.1941 62.2953 13.2108 62.299 13.2314C63.0755 16.4462 65.3249 19.39 66.6417 22.4369C67.6049 24.6615 68.2455 27.5281 69.4384 29.8738C69.264 29.9216 69.0951 29.977 68.9449 30.0418C68.8927 29.8065 68.8329 29.5767 68.7666 29.3459C67.3226 24.1712 64.6789 18.5513 61.4358 14.2687C61.2237 13.9829 60.8059 14.1823 60.8239 14.513C61.1468 21.2024 64.4452 27.3745 63.7443 33.6982C63.1671 33.9342 62.5619 34.1326 61.9289 34.2934C57.9467 35.3246 53.7606 34.9733 49.7337 35.7636C49.1402 35.8834 49.1382 36.6665 49.7201 36.8061C53.6579 37.75 57.7332 39.4843 61.8418 39.5898C61.3019 41.5654 63.9832 43.3545 65.6664 42.0234C67.1221 40.8729 68.1015 39.4109 68.6808 37.8027C70.5073 36.6802 72.1142 35.0499 72.3763 33.1873C73.2696 33.4399 74.3202 32.9458 74.433 31.9114C74.871 27.9992 71.7205 23.3621 69.7566 20.0722L69.7632 20.0732Z" fill="#21432A" fill-opacity="0.2"/>
<path d="M62.0097 66.8373C60.1634 63.8393 55.1649 64.6801 52.1125 64.4496C47.7614 64.1274 43.444 63.6228 39.1144 63.1097C35.0021 62.622 30.8933 62.1549 26.7967 61.5155C24.2902 61.1247 20.6836 59.7075 18.0559 60.5441C16.8667 59.7121 16.0408 58.1438 14.9382 57.2241C14.5147 56.8736 13.955 57.3532 14.1184 57.8327C14.8175 59.8509 16.3906 63.7458 18.4323 64.7441C20.4179 65.714 23.2662 65.921 25.4145 66.3794C28.185 66.9766 30.9708 67.5158 33.7569 68.0082C38.9115 68.9179 44.1064 69.4653 49.3226 69.8685C52.7851 70.1329 59.6017 71.9378 61.9607 68.6177C62.3663 68.0484 62.3525 67.417 61.9966 66.8354L62.0097 66.8373Z" fill="#21432A" fill-opacity="0.2"/>
<path d="M85.4312 42.5631C85.5652 38.9407 83.3722 35.5701 80.0095 34.2693C78.0108 33.4782 75.9557 36.3278 77.9386 37.6789C78.3885 37.9864 78.8289 38.3127 79.2299 38.68C79.1793 40.0182 78.146 41.7534 77.622 42.399C76.8285 43.373 75.965 43.9148 74.9965 44.6687C73.2476 46.037 71.9639 47.474 70.9471 49.4594C69.7866 51.7382 68.9847 54.2174 67.9494 56.5549C67.274 58.0886 66.5032 59.5881 65.7773 61.101C63.2317 60.6576 60.4954 60.9157 57.9243 60.9171C53.8732 60.9205 49.8388 60.7657 45.7884 60.6286C38.7936 60.3908 31.4599 58.7772 24.5202 59.7058C24.4246 59.7184 24.4203 59.8383 24.4941 59.8827C30.629 63.5351 38.7647 64.3433 45.7456 65.3089C49.3343 65.8062 52.9654 66.062 56.5791 66.255C59.1495 66.3942 62.1003 66.7235 64.7856 66.3574C64.9929 66.6759 65.2585 66.9629 65.5674 67.1827C65.2566 67.3376 64.9589 67.4944 64.7753 67.6949C64.4711 68.0315 63.9601 68.4983 64.0644 69.0158C64.0799 69.0918 64.0955 69.1677 64.112 69.2371C64.25 69.9337 64.7655 70.6126 65.5314 70.6857C69.221 71.0439 70.9484 67.7844 72.2032 64.8232C73.9507 60.703 74.9567 54.4445 78.6147 51.5308C81.9465 48.8768 85.2292 47.414 85.4115 42.5602L85.4312 42.5631Z" fill="#21432A" fill-opacity="0.2"/>
<path d="M14.7045 26.03C14.7045 26.03 14.682 26.0468 14.6866 26.0608C14.9102 27.6271 16.1456 28.7806 16.7031 30.2624C16.9813 31.0065 17.1771 31.7653 17.3316 32.5313C17.2576 32.5337 17.1911 32.5306 17.1161 32.5396C16.5049 32.6434 16.0653 32.8997 15.5439 33.2109C15.2639 33.3838 14.9733 33.6287 14.6249 33.6307C13.867 33.6391 13.3347 32.757 12.7925 32.3487C12.4369 32.0819 11.916 32.1186 11.6285 32.4778C10.1788 34.3122 12.1197 36.7618 13.9247 37.3233C15.0769 37.6812 16.7162 37.4617 17.8308 36.716C17.8396 36.8378 17.8483 36.9596 17.8636 37.0824C18.079 39.5647 18.2606 42.0487 18.402 44.5334C18.5221 46.5731 18.3342 48.2058 19.4853 49.9293C19.9613 50.6491 20.933 50.371 21.2959 49.7284C22.9826 46.7441 21.8883 22.908 14.699 26.0225L14.7045 26.03Z" fill="#21432A" fill-opacity="0.2"/>
<path d="M77.7564 42.7135C77.1612 42.6188 76.6053 42.7106 76.013 42.777C75.625 42.8201 75.0529 42.9765 74.6663 42.9193C73.9456 42.8127 73.5807 42.1562 73.0705 41.7125C72.4961 41.2057 71.3539 41.2778 70.9197 41.9501C69.6625 43.8865 70.8892 46.4113 72.8508 47.3173C74.9881 48.303 78.2895 47.8004 79.185 45.3217C79.5953 44.1772 79.0115 42.9192 77.7489 42.7191L77.7564 42.7135Z" fill="#21432A" fill-opacity="0.2"/>
<path d="M16.0849 65.361C15.718 65.3067 15.4527 64.9729 15.4883 64.5966C15.5444 64.0358 15.5406 63.4728 15.5352 62.8761C15.5313 62.1324 15.5238 61.368 15.6392 60.5884C15.6866 60.2673 15.7499 59.9754 15.8328 59.6864C15.9415 59.3141 16.3284 59.0968 16.7007 59.2055C17.073 59.3141 17.2902 59.7011 17.1816 60.0733C17.1149 60.2978 17.0669 60.5317 17.0291 60.7872C16.9303 61.4555 16.9363 62.1393 16.944 62.8569C16.9467 63.2456 16.9495 63.6343 16.9372 64.0342C18.011 64.1529 19.1176 64.2763 20.2102 64.3576C20.2316 64.2135 20.2538 64.0628 20.2752 63.9186C20.4467 62.759 20.5297 61.8808 20.5411 61.079C20.5449 60.6913 20.8649 60.3837 21.2527 60.3875C21.6404 60.3913 21.948 60.7113 21.9442 61.0991C21.9296 61.9673 21.8454 62.8989 21.6642 64.1241C21.6099 64.491 21.5566 64.8513 21.4958 65.2173C21.4434 65.5711 21.1181 65.8242 20.7594 65.8047C19.3727 65.7201 17.9769 65.5605 16.6335 65.4087C16.6335 65.4087 16.1196 65.3528 16.0934 65.3489L16.0849 65.361Z" fill="#288357"/>
<path d="M63.4598 72.5151C62.8701 72.4279 62.3003 72.2967 61.7427 72.1741C61.1916 72.0524 60.6667 71.9346 60.136 71.8561C59.756 71.7999 59.487 71.4455 59.5442 71.0589L60.2216 66.4792C60.2778 66.0991 60.6322 65.8302 61.0188 65.8874C61.4053 65.9445 61.6677 66.298 61.6106 66.6846L61.033 70.5895C61.3774 70.6605 61.7152 70.7306 62.052 70.8072C62.7967 70.9776 63.5303 71.1329 64.1848 71.1896L64.8379 66.7736C64.8941 66.3936 65.2486 66.1246 65.6351 66.1818C66.0217 66.239 66.2841 66.5924 66.2269 66.979L65.4807 72.024C65.4294 72.3712 65.1312 72.6217 64.7828 72.6237C64.3678 72.6226 63.9381 72.5858 63.4598 72.5151Z" fill="#288357"/>
<path d="M40.2213 64.137L16.2988 60.3378C16.2661 60.3329 16.2268 60.3271 16.195 60.3157C13.901 59.5747 11.3844 57.2609 11.2344 54.4267C11.1469 52.8002 11.1343 50.6224 11.1142 47.861C11.1054 46.7885 11.0981 45.6158 11.0876 44.3287C11.0732 43.0679 10.8948 41.8297 10.7065 40.523L10.6756 40.3243C7.29006 39.2679 4.39871 35.6399 5.16812 30.4377C6.09451 24.1741 11.2424 23.2282 14.1449 23.6575C14.7411 23.7457 15.309 23.89 15.8363 24.0818C20.9019 25.9558 21.4334 34.2226 21.8642 40.861C21.9349 41.9226 21.9946 42.9223 22.0763 43.8182C22.214 45.3316 22.3255 46.8411 22.4426 48.3582L22.4937 49.0084C27.0194 50.0059 31.9972 50.8894 38.1101 51.7935C39.3877 51.9825 40.6654 52.1714 41.9515 52.3482C43.2403 52.5522 44.5179 52.7412 45.7955 52.9302C51.9084 53.8343 56.9298 54.4229 61.5495 54.7848L61.799 54.1388C62.6747 51.8849 63.5817 49.5552 64.5663 47.2436C65.0079 46.2042 65.41 45.0251 65.8357 43.7758C67.4572 39.0143 69.4788 33.0868 75.2854 32.8475C75.797 32.8295 76.3354 32.8556 76.8792 32.936C79.7752 33.3643 84.4354 35.7608 83.509 42.0244C82.7396 47.2266 78.9219 49.8623 75.3689 49.8925L75.2799 50.0869C74.7214 51.2831 74.1922 52.4166 73.821 53.6137C73.4384 54.8426 73.0909 55.9696 72.772 56.9937C71.5517 60.9441 70.7436 63.5562 69.976 65.1701C69.0238 67.1717 66.5823 67.2926 64.8022 67.3775C64.5867 67.3858 64.3778 67.3951 64.1744 67.4119C64.1276 67.4117 64.0808 67.4114 64.0349 67.4047L40.2203 64.1436L40.2213 64.137ZM16.5764 58.9594L40.4267 62.748L64.1552 66.003C64.3445 65.9909 64.5403 65.9797 64.7351 65.975C66.3204 65.8948 68.1201 65.8128 68.706 64.5671C69.4264 63.0467 70.2221 60.473 71.4272 56.5805C71.747 55.5499 72.0945 54.4229 72.4771 53.194C72.8815 51.9081 73.4514 50.6801 74.0024 49.4895L74.2865 48.8821C74.4058 48.6186 74.6772 48.4579 74.9628 48.4733C78.0033 48.6485 81.4332 46.4174 82.1144 41.8115C83.0563 35.443 77.3244 34.4078 76.6692 34.3109C76.2105 34.2431 75.7592 34.2165 75.3348 34.2341C70.4847 34.434 68.7919 39.4059 67.1506 44.2113C66.7143 45.4858 66.3084 46.6912 65.8394 47.7801C64.8652 50.0664 63.9602 52.3829 63.092 54.6313L62.6499 55.7644C62.5408 56.0495 62.2523 56.2345 61.9415 56.2086C57.1466 55.8543 51.9473 55.246 45.5723 54.3031C44.2882 54.1132 43.0106 53.9243 41.7283 53.7212C40.4553 53.5463 39.1712 53.3564 37.887 53.1665C31.512 52.2236 26.3602 51.2943 21.6671 50.252C21.3686 50.1878 21.146 49.9272 21.1175 49.6217L21.0287 48.457C20.9106 46.9465 20.7982 45.4435 20.6595 43.9367C20.5797 43.0277 20.5154 42.014 20.4467 40.9393C20.0684 35.0317 19.5445 26.9401 15.3353 25.3869C14.8968 25.2283 14.4263 25.1051 13.9218 25.0305C13.2666 24.9336 7.48035 24.2653 6.53845 30.6337C5.85626 35.2462 8.49342 38.3746 11.4554 39.0805C11.7333 39.1484 11.9466 39.3808 11.9845 39.6676L12.076 40.3172C12.2587 41.6163 12.4554 42.9576 12.4693 44.3121C12.4798 45.5992 12.4871 46.7719 12.4959 47.8444C12.5123 50.5852 12.5269 52.7499 12.6127 54.3427C12.7222 56.4545 14.6939 58.3329 16.5567 58.9565L16.5764 58.9594Z" fill="#21432A"/>
<path d="M17.1119 26.4129C16.8563 26.3751 16.6287 26.1941 16.5466 25.9343C16.4266 25.5684 16.6328 25.1704 16.9987 25.0504C21.6595 23.5504 24.4055 20.0131 27.3098 16.2648C30.5121 12.1321 33.8284 7.86233 39.9283 6.27389C40.3044 6.17553 40.6864 6.3994 40.7847 6.77549C40.8831 7.15158 40.6592 7.53357 40.2832 7.63193C34.6503 9.09529 31.482 13.1794 28.4211 17.1255C25.5102 20.8728 22.5059 24.7535 17.4304 26.3863C17.3254 26.4177 17.2167 26.4284 17.1119 26.4129Z" fill="#21432A"/>
<path d="M72.5423 34.8722C72.3916 34.8499 72.2478 34.7818 72.1388 34.6586C69.6014 31.9868 68.2455 28.2981 66.8017 24.3888C64.0308 16.8687 61.1692 9.1008 49.4872 7.37302C47.1613 7.02901 44.9971 6.94995 43.061 7.13896C42.6739 7.17545 42.3334 6.89745 42.2969 6.51043C42.2604 6.12341 42.5384 5.7829 42.9255 5.74641C44.9703 5.54669 47.2478 5.62912 49.6917 5.99057C62.1927 7.83948 65.3417 16.3796 68.1108 23.9129C69.5019 27.6805 70.8096 31.2416 73.1504 33.7035C73.4169 33.9839 73.4044 34.4306 73.1239 34.6971C72.9602 34.8537 72.7435 34.9154 72.5404 34.8853L72.5423 34.8722Z" fill="#21432A"/>
<path d="M20.8299 38.2576C20.5678 38.2189 20.3411 38.0314 20.26 37.7649C20.1476 37.3935 20.3593 37.003 20.7308 36.8906C27.9266 34.7277 35.2925 34.1768 42.6175 35.2602C51.1088 36.5161 58.4439 39.3417 66.8445 43.202C67.1959 43.3611 67.3484 43.7786 67.1893 44.13C67.0302 44.4814 66.6182 44.6414 66.2612 44.4748C57.9671 40.6638 50.7405 37.8743 42.4131 36.6427C35.2912 35.5893 28.1286 36.1234 21.1354 38.2292C21.0303 38.2605 20.9291 38.2656 20.8309 38.2511L20.8299 38.2576Z" fill="#21432A"/>
</svg>
