<svg width="110" height="119" viewBox="0 0 110 119" fill="none" xmlns="http://www.w3.org/2000/svg">
<path d="M55.331 30.1583C52.886 26.0437 47.4347 23.1222 42.7741 22.6623C41.5344 22.5441 40.8562 24.5244 42.1762 24.8823C45.2041 25.7098 49.5832 29.4777 50.9316 32.3413C51.5971 33.7523 51.6494 35.2137 51.4356 36.6689C51.3933 36.7548 51.3441 36.8241 51.3053 36.9183C50.4545 39.1168 49.7346 41.3485 48.793 43.5165C48.3507 44.5399 47.9637 45.8134 47.3155 46.7175C47.3024 46.7328 47.2892 46.748 47.276 46.7632C48.2106 42.0709 47.0152 37.2311 44.0622 33.3963C43.2136 32.2956 41.393 33.3367 41.9415 34.6305C43.6416 38.5967 43.7577 42.5783 42.6278 46.708C42.4162 47.4889 42.59 48.1874 42.9723 48.7308C42.9203 49.0744 43.0276 49.4493 43.3089 49.703C47.593 53.6179 50.9409 49.8235 53.1124 45.2895C53.5455 45.1579 53.9419 44.9148 54.2497 44.5525C57.2718 40.9133 57.733 34.1933 55.3206 30.1334L55.331 30.1583Z" fill="#21432A" fill-opacity="0.2"/>
<path d="M48.014 59.6682C45.4111 55.268 40.4833 53.6508 35.4707 53.0251C34.4216 52.896 33.9681 54.4314 34.9859 54.837C37.607 55.8827 40.5759 57.2714 42.3063 59.5759C40.0603 60.2281 37.8364 60.91 35.5413 61.3973C33.348 61.8714 33.6971 65.0534 35.9783 64.8843C38.7058 64.6854 41.452 64.3909 44.1373 63.8096C44.2481 63.9586 44.3589 64.1076 44.4927 64.2178C41.9067 69.022 37.4857 71.8092 32.712 74.8507C31.732 75.4734 32.4723 77.2045 33.5949 76.9713C41.3195 75.3456 49.004 70.858 50.9658 62.7033C51.4181 60.8367 49.641 59.6152 48.014 59.6682Z" fill="#21432A" fill-opacity="0.2"/>
<path d="M77.7722 46.0679C76.212 50.0546 75.839 53.5179 72.1373 56.2984C69.4835 58.2913 66.1876 59.2342 62.9031 59.1966C64.1529 57.6517 65.6111 56.42 67.3929 55.4732C70.2427 53.9744 67.5413 49.8299 65.252 51.8077C64.7363 52.2566 64.2394 52.727 63.7694 53.2154C64.5362 51.7056 65.5005 50.3186 66.5888 48.9483C68.1768 46.9502 64.947 44.4895 63.415 46.5519C61.3757 49.2941 60.3069 52.7737 60.0365 56.1552C59.9878 56.7414 60.2427 57.1427 60.6037 57.3535C60.4401 57.6167 60.2883 57.8849 60.1364 58.153C59.9846 58.4211 59.9464 58.681 59.9783 58.9214C58.9499 58.8422 58.6925 60.1691 59.3867 60.7583C59.2883 60.7797 59.1968 60.8178 59.1005 60.8677C57.2168 61.8276 55.6982 63.2893 54.4422 64.9832C53.3684 66.4353 55.4503 67.9202 56.637 66.6455C57.8104 65.386 59.2381 64.4793 60.6825 63.5657C61.4171 63.1037 61.4284 62.2403 61.0579 61.5847C65.5476 63.4624 70.6325 63.2773 74.883 60.6196C79.1335 57.9619 83.4742 51.9587 82.3849 46.6941C81.9254 44.4655 78.7076 43.6976 77.7756 46.0762L77.7722 46.0679Z" fill="#21432A" fill-opacity="0.2"/>
<path d="M78.8508 72.2579C78.402 71.5081 77.2626 71.9824 77.1426 72.7252C76.7685 75.0375 76.9709 77.4219 77.3001 79.7829C76.8279 78.3206 76.2857 76.8778 75.6555 75.4814C75.6105 75.3732 75.544 75.2838 75.4692 75.1979C78.127 73.6131 76.2552 69.094 73.4747 70.642C64.0459 75.8851 53.9826 79.9091 44.7442 85.4925C43.8252 86.0508 44.5524 87.563 45.5372 87.3969C53.8487 85.9855 61.5904 82.5963 69.044 78.7025C71.7922 84.1546 72.9471 90.2798 74.4984 96.1619C74.5656 96.4169 74.6292 96.6636 74.6929 96.9103C74.7511 97.1203 74.8273 97.3032 74.9083 97.4744C73.3351 98.266 71.6913 98.9114 70.5193 99.5653C67.1858 101.402 63.5242 104.537 59.8015 105.345C58.5223 105.624 58.7352 107.448 60.0608 107.374C65.7056 107.034 71.4467 104.136 76.5875 101.976C80.8301 100.19 85.5352 97.7336 84.9864 92.3611C84.8951 91.4623 84.3811 90.8371 83.7153 90.4801C83.2116 87.7234 82.6628 84.9758 82.0558 82.2524C81.2938 78.8519 80.6704 75.3157 78.8598 72.303L78.8508 72.2579Z" fill="#21432A" fill-opacity="0.2"/>
<path d="M67.7407 27.1772C67.8619 27.4682 67.9679 27.8633 67.4363 28.1334C67.1355 28.2781 66.7073 28.1637 66.3941 28.1379C65.7677 28.0865 65.1538 28.0884 64.5308 28.1624C63.3098 28.3 63.0946 29.7752 63.8996 30.5134C65.6925 32.1478 68.1016 33.2232 70.4468 32.0125C72.9133 30.7416 74.0062 27.5544 72.8919 25.0422C71.4425 21.7718 66.2878 23.8985 67.7442 27.1855L67.7407 27.1772Z" fill="#21432A" fill-opacity="0.2"/>
<path d="M16.5956 34.2449C14.9464 34.2681 13.8526 35.3675 13.4863 36.9251C13.2276 38.0379 13.5351 38.7295 12.9028 39.8124C12.7704 40.0334 12.5964 40.2718 12.4218 40.4616C12.3608 40.526 12.1785 40.6507 12.0295 40.7615C10.9833 40.2409 9.62763 41.1566 9.44233 42.2583C9.19665 43.7072 10.1851 45.0032 11.5085 45.4866C13.0051 46.0344 14.6171 45.3827 15.8771 44.5654C18.0838 43.1392 20.4213 39.707 19.6833 36.9503C19.2825 35.4486 18.2933 34.2211 16.5956 34.2449Z" fill="#21432A" fill-opacity="0.2"/>
<path d="M41.8357 99.1544C41.3617 99.3518 40.8655 99.5194 40.3756 99.655C39.8406 99.7997 39.2808 99.4864 39.1361 98.9514C38.9914 98.4164 39.3048 97.8566 39.8397 97.7119C40.6097 97.4987 41.3782 97.1884 42.1087 96.7867C42.5917 96.5173 43.2132 96.6976 43.4827 97.1807C43.7556 97.672 43.5718 98.2852 43.0887 98.5547C42.6854 98.7812 42.2599 98.9778 41.8441 99.151L41.8357 99.1544ZM47.3361 94.4834C47.0451 94.6046 46.7069 94.5892 46.4201 94.4159C45.9476 94.1247 45.7967 93.5045 46.0844 93.0237L46.1301 92.9461C46.4178 92.4653 47.0346 92.3061 47.5154 92.5938C47.9962 92.8815 48.1554 93.4982 47.8678 93.979L47.8123 94.0802C47.6944 94.2659 47.5274 94.4037 47.3361 94.4834ZM34.5272 99.4359C34.3027 99.5294 34.0435 99.5397 33.7948 99.4579C33.4047 99.3178 33.0243 99.1542 32.6536 98.967C32.1499 98.7181 31.6642 98.4422 31.2 98.1476C30.7324 97.8446 30.5898 97.221 30.8927 96.7533C31.1957 96.2856 31.8194 96.1431 32.287 96.446C32.6854 96.6997 33.117 96.9396 33.5618 97.1642C33.8584 97.314 34.1764 97.445 34.4875 97.5594C35.0155 97.7494 35.2863 98.3295 35.0928 98.8492C34.9929 99.1249 34.785 99.3286 34.5272 99.4359ZM27.9471 93.9205C27.4814 94.1144 26.9368 93.9313 26.6847 93.4898C26.4326 93.0484 26.2102 92.5847 26.0129 92.1107C25.8363 91.6866 25.6777 91.2354 25.551 90.7905C25.3946 90.2507 25.7079 89.6909 26.2395 89.5379C26.7793 89.3814 27.3356 89.6864 27.4921 90.2263C27.5994 90.6012 27.7351 90.974 27.884 91.3316C28.0468 91.7225 28.2379 92.1113 28.4505 92.4814C28.7283 92.961 28.5563 93.579 28.0767 93.8568C28.0351 93.8741 28.0018 93.8879 27.9603 93.9052L27.9471 93.9205ZM26.7644 85.4552C26.5731 85.5348 26.3576 85.5563 26.1393 85.5008C25.5954 85.3662 25.2699 84.8187 25.3961 84.2782C25.5827 83.5077 25.8421 82.7948 26.1659 82.1428C26.2733 81.9322 26.3891 81.7181 26.5083 81.5123C26.796 81.0315 27.4128 80.8723 27.8936 81.16C28.3744 81.4477 28.5337 82.0644 28.246 82.5452C28.1496 82.7122 28.0532 82.8792 27.9687 83.051C27.7149 83.5665 27.5055 84.1416 27.3536 84.761C27.2745 85.0867 27.0471 85.3375 26.7644 85.4552ZM35.0529 79.0671C34.9032 79.1294 34.7279 79.1536 34.5554 79.1376C33.7696 79.0549 33.0025 79.1109 32.2693 79.3186C31.7343 79.4633 31.1745 79.1499 31.0215 78.6184C30.8768 78.0834 31.1902 77.5236 31.7217 77.3706C32.7016 77.0992 33.7293 77.0128 34.7749 77.1337C35.3278 77.1962 35.7296 77.6925 35.6671 78.2454C35.6289 78.6224 35.3773 78.932 35.0529 79.0671Z" fill="#288357"/>
<path d="M79.5638 42.9412L79.4724 42.9793C79.173 43.104 78.8667 43.212 78.5534 43.3034C78.0136 43.4599 77.4572 43.1548 77.3008 42.615C77.1443 42.0751 77.4459 41.5105 77.9892 41.3623C78.2324 41.2903 78.4639 41.2135 78.7051 41.113L78.7882 41.0784C79.2789 40.8741 79.7439 40.6317 80.175 40.3547C80.6477 40.0603 81.2685 40.1921 81.5629 40.6648C81.8656 41.134 81.7254 41.7583 81.2562 42.061C80.7323 42.3962 80.1626 42.6919 79.5638 42.9412ZM84.8226 37.5023C84.5981 37.5958 84.3389 37.6062 84.0985 37.5209C83.5705 37.3309 83.3032 36.7591 83.4849 36.2346C83.7505 35.4898 83.9066 34.6929 83.9504 33.8843C83.9811 33.3251 84.4586 32.9018 85.0178 32.9324C85.577 32.9631 86.0003 33.4406 85.9696 33.9998C85.9167 34.9977 85.7231 35.9857 85.3882 36.9156C85.2883 37.1913 85.0756 37.4068 84.8261 37.5107L84.8226 37.5023ZM67.6887 38.4888C67.223 38.6827 66.6784 38.4996 66.4228 38.0498C66.2323 37.7095 66.055 37.354 65.9061 36.9964C65.8681 36.9049 65.83 36.8134 65.7919 36.722C65.6146 36.2493 65.4706 35.7628 65.355 35.2743C65.2353 34.7289 65.5874 34.192 66.121 34.0674C66.6664 33.9477 67.2082 34.288 67.3279 34.8334C67.4172 35.2353 67.5315 35.6269 67.6789 36.0046C67.7101 36.0794 67.7413 36.1543 67.7724 36.2291C67.8902 36.5119 68.028 36.796 68.1824 37.0732C68.4553 37.5646 68.2798 38.1743 67.7968 38.4438C67.7635 38.4576 67.722 38.4749 67.6887 38.4888ZM83.8748 29.0856C83.4257 29.2726 82.8915 29.1145 82.6262 28.6883C82.2085 28.0132 81.6911 27.3797 81.0877 26.8211C80.6776 26.4454 80.6618 25.7982 81.0409 25.3964C81.4201 24.9946 82.0638 24.9705 82.4656 25.3496C83.1979 26.0303 83.831 26.801 84.3429 27.632C84.6373 28.1046 84.4888 28.7324 84.0162 29.0268C83.9697 29.0559 83.9198 29.0766 83.8699 29.0974L83.8748 29.0856ZM67.3195 30.0556C67.07 30.1595 66.7873 30.1601 66.5247 30.045C66.0113 29.8196 65.7821 29.2223 66.0074 28.7088C66.4227 27.7846 66.9662 26.9338 67.6233 26.1918C67.9955 25.7734 68.6323 25.7327 69.0508 26.1049C69.4692 26.4771 69.5099 27.1139 69.1377 27.5324C68.6206 28.1184 68.1901 28.7953 67.8525 29.5312C67.7422 29.782 67.5523 29.9586 67.3195 30.0556ZM76.6707 24.7667C76.5377 24.8221 76.3824 24.8477 76.2251 24.8449C75.4283 24.8059 74.6127 24.8625 73.7901 25.0196C73.2413 25.131 72.7092 24.7671 72.6095 24.2231C72.4981 23.6743 72.8537 23.1456 73.406 23.0425C74.3887 22.8481 75.3747 22.779 76.3324 22.8292C76.8916 22.8598 77.3148 23.3374 77.2842 23.8965C77.2647 24.295 77.0151 24.6331 76.6659 24.7785L76.6707 24.7667Z" fill="#288357"/>
<path d="M40.0452 88.1514C39.5545 88.3557 38.9912 88.1511 38.7537 87.6743C38.0375 86.2356 37.363 84.7795 36.7058 83.3651L36.2383 82.3595C36.1192 82.0968 36.1116 81.7975 36.2267 81.5349C36.3418 81.2723 36.5581 81.0652 36.8346 80.9793C37.6073 80.7259 38.3904 80.4974 39.1603 80.2842C40.355 79.9429 41.6031 79.5891 42.7258 79.1217C43.6988 78.7166 44.4971 78.2671 45.1805 77.7288C45.6123 77.3832 46.2491 77.4596 46.5982 77.8997C46.9474 78.3398 46.8675 78.9682 46.4274 79.3174C45.6033 79.963 44.6407 80.5101 43.5014 80.9845C42.2623 81.5004 40.9608 81.8667 39.7044 82.2239C39.3212 82.3347 38.9345 82.4371 38.5464 82.5597C39.052 83.6567 39.5679 84.7787 40.1054 85.882C44.5858 83.7531 49.071 81.8466 52.9131 80.2469C54.5181 79.5786 56.1231 78.9104 57.7351 78.2587C59.3401 77.5905 60.9486 76.9305 62.5536 76.2623C67.7097 74.1155 73.2074 71.7582 78.6345 69.0204C78.2024 67.9123 77.832 66.9053 77.5142 65.9545C71.9658 68.5183 66.2498 70.9373 60.7084 73.2835C57.2641 74.7371 53.7152 76.244 50.2584 77.7613C49.7359 77.9594 49.1524 77.7534 48.9295 77.2413C48.7065 76.7291 48.9374 76.1353 49.4495 75.9124C52.9146 74.3916 56.4753 72.8895 59.9162 71.4276C65.7902 68.9429 71.852 66.3702 77.6859 63.6484C77.9451 63.521 78.2479 63.5218 78.5223 63.6417C78.7849 63.7568 78.9872 63.9849 79.0813 64.2579C79.5452 65.7236 80.1123 67.2732 80.8512 69.1415C81.052 69.6239 80.8322 70.174 80.3755 70.413C74.6185 73.3661 68.7881 75.862 63.3327 78.1334C61.7277 78.8017 60.1226 79.4699 58.5024 80.125C56.8974 80.7933 55.2889 81.4533 53.6838 82.1215C49.6089 83.8182 44.8077 85.8562 40.0736 88.1493C40.057 88.1563 40.0403 88.1632 40.0237 88.1701L40.0452 88.1514Z" fill="#21432A"/>
<path d="M63.4795 105.297C55.5875 108.583 54.6737 107.607 47.6301 96.3614C46.0883 93.9004 44.1683 90.8357 41.7786 87.2054C41.4676 86.7397 41.5959 86.1106 42.0651 85.8079C42.5343 85.5052 43.16 85.6252 43.4627 86.0944C45.8628 89.7496 47.7863 92.8226 49.3316 95.292C52.7713 100.788 54.6657 103.814 56.4574 104.649C58.0371 105.397 59.9686 104.622 64.5432 102.649C65.5342 102.217 66.6285 101.751 67.851 101.242C74.7035 98.3891 78.6447 96.6994 80.0539 95.1857C81.097 94.0585 80.7571 92.9608 79.5266 89.6773C78.2372 86.2525 76.2942 81.0702 75.5217 72.395C75.4755 71.8386 75.8851 71.346 76.4416 71.2997C76.998 71.2535 77.4906 71.6631 77.5369 72.2196C78.2837 80.6224 80.1693 85.6432 81.4171 88.9683C84.2167 96.4188 83.1716 97.0491 68.6266 103.105C67.4124 103.611 66.3216 104.084 65.3354 104.505C64.6736 104.79 64.045 105.061 63.4629 105.304L63.4795 105.297Z" fill="#21432A"/>
<path d="M43.5744 79.6368C43.2252 79.7822 42.8129 79.7294 42.5164 79.4626C42.0979 79.0903 42.0572 78.4535 42.4294 78.0351C42.8675 77.5404 43.3215 76.9904 43.797 76.4216C45.8765 73.9164 48.2374 71.0795 51.2146 69.8399C52.8446 69.1612 53.5139 69.1753 54.2831 69.2649C54.8076 69.3294 55.4042 69.4031 57.8076 68.4024C59.4542 67.7168 61.2434 67.772 62.984 67.8279C63.7574 67.8572 64.487 67.8754 65.1924 67.8354C65.744 67.8009 66.2234 68.2258 66.2614 68.7857C66.2959 69.3373 65.871 69.8167 65.3111 69.8547C64.5204 69.9009 63.7021 69.8806 62.917 69.8464C61.3253 69.7968 59.8306 69.7458 58.5832 70.2652C55.9054 71.3801 54.9803 71.3847 54.0435 71.2674C53.6028 71.2167 53.2626 71.173 51.9902 71.7027C49.4704 72.7519 47.2772 75.3824 45.3475 77.7081C44.8588 78.2921 44.3916 78.8574 43.9404 79.3673C43.835 79.4892 43.7123 79.5696 43.571 79.6285L43.5744 79.6368Z" fill="#21432A"/>
<path d="M56.5564 70.4358C56.009 70.6442 55.4249 70.3898 55.2268 69.8672C54.9526 69.1618 54.6666 68.4514 54.3758 67.7529C52.6722 63.6613 50.6346 59.6112 48.6608 55.6907C47.3788 53.1508 46.0622 50.5276 44.8378 47.9149C44.5982 47.4097 44.8173 46.8111 45.3225 46.5714C45.8277 46.3318 46.4264 46.5509 46.666 47.0562C47.8717 49.6474 49.1932 52.2587 50.4599 54.7855C52.4476 58.7393 54.5073 62.8192 56.2386 66.9773C56.5364 67.6924 56.8293 68.4194 57.1104 69.1415C57.305 69.6557 57.0637 70.2246 56.5564 70.4358Z" fill="#21432A"/>
<path d="M45.4182 49.3321C45.3434 49.3633 45.2568 49.3896 45.175 49.4041C38.1428 50.4195 32.7655 47.7697 30.418 42.1313C28.4893 37.4992 29.7911 33.3371 31.0595 29.3059C32.158 25.804 33.1942 22.5038 32.1113 19.0125C31.9763 18.5711 32.1504 18.0985 32.5468 17.8554C32.9432 17.6123 33.4442 17.6671 33.7781 17.977C35.2752 19.393 37.6219 20.553 40.0981 21.7663C44.734 24.0417 49.9782 26.6298 52.2323 32.0437C54.753 38.0979 51.8251 41.6588 48.116 46.1793C47.3757 47.073 46.6208 48.002 45.8403 49.01C45.7336 49.1521 45.5929 49.2594 45.4266 49.3287L45.4182 49.3321ZM34.543 21.103C34.7785 24.1763 33.8623 27.085 32.9802 29.9113C31.7728 33.761 30.6326 37.3972 32.2808 41.3557C34.8708 47.5762 40.8695 47.8986 44.4902 47.4547C45.1952 46.5465 45.8828 45.7137 46.5489 44.8997C50.2088 40.4485 52.4144 37.7542 50.3612 32.8227C48.3079 27.8912 43.7232 25.8091 39.1968 23.5857C37.5409 22.7724 35.9356 21.9869 34.5513 21.0996L34.543 21.103Z" fill="#21432A"/>
<path d="M43.5507 45.8552C43.3927 45.921 43.2174 45.9452 43.0414 45.9209C42.485 45.85 42.0915 45.3503 42.1624 44.7939C42.386 42.9639 42.0636 41.088 41.146 38.8842C40.5331 37.4123 39.7075 35.9215 38.9145 34.4856C38.0923 33.0031 37.2377 31.466 36.5798 29.8859C36.3132 29.2456 36.0923 28.6447 35.9233 28.0515C35.7586 27.5151 36.0636 26.9588 36.6 26.794C37.1364 26.6292 37.6962 26.9426 37.8575 27.4706C38.0188 27.9987 38.212 28.533 38.4509 29.1068C39.0638 30.5788 39.8894 32.0695 40.6824 33.5055C41.508 34.9962 42.3592 36.5251 43.0171 38.1052C44.0732 40.6416 44.442 42.8397 44.1732 45.03C44.1232 45.4021 43.8799 45.7084 43.5556 45.8434L43.5507 45.8552Z" fill="#21432A"/>
<path d="M40.5204 41.0377C40.3375 41.1139 40.122 41.1353 39.9189 41.093C39.2309 40.9404 38.6413 40.6492 38.0752 40.3677C37.3138 39.9919 36.6618 39.6681 35.9626 39.7934C35.4151 39.8847 34.8914 39.5173 34.8 38.9699C34.7087 38.4224 35.0761 37.8986 35.6236 37.8073C36.9638 37.5811 38.0301 38.1031 38.9668 38.5718C39.4469 38.811 39.9001 39.0322 40.3532 39.1362C40.8985 39.2507 41.2407 39.7913 41.1262 40.3366C41.0506 40.6706 40.8184 40.9332 40.5273 41.0543L40.5204 41.0377Z" fill="#21432A"/>
<path d="M44.4628 36.8203C44.2217 36.9207 43.9507 36.9262 43.6916 36.8194C43.1733 36.6058 42.9275 36.0154 43.141 35.4971C43.6944 34.1543 44.3045 32.9245 44.8834 31.737C45.1323 31.2333 45.7317 31.0325 46.2354 31.2814C46.7391 31.5303 46.9399 32.1297 46.691 32.6334C46.1184 33.7891 45.5311 34.9801 45.0055 36.2723C44.8988 36.5314 44.6957 36.7233 44.4628 36.8203Z" fill="#21432A"/>
<path d="M70.1722 59.0781C66.7293 60.5116 62.2225 60.3974 59.044 60.0522C58.6553 60.0092 58.3304 59.7444 58.1981 59.3799C55.4991 51.585 53.6579 43.6475 63.2299 39.6621C64.4191 39.167 65.6644 38.7363 66.88 38.3278C68.0588 37.9248 69.2791 37.5045 70.4101 37.0336C72.7886 36.0433 74.3847 34.9787 75.5679 33.5786C75.8098 33.2925 76.1861 33.1651 76.552 33.2469C76.9178 33.3288 77.206 33.5991 77.3064 33.9574L77.5847 34.9539C79.5938 41.9822 82.9591 53.7444 70.1605 59.0732L70.1722 59.0781ZM59.9017 58.1046C62.406 58.3305 66.461 58.4375 69.3966 57.2153C80.1744 52.7278 77.7655 42.9581 75.8368 36.1696C74.6253 37.2204 73.1317 38.0862 71.1858 38.8965C69.9882 39.3951 68.7394 39.8174 67.5274 40.2343C66.3486 40.6372 65.1365 41.0541 64.0055 41.525C56.8868 44.4889 56.9749 49.458 59.9017 58.1046Z" fill="#21432A"/>
<path d="M61.9828 57.7356C61.725 57.8429 61.4305 57.8387 61.1645 57.7153C60.6642 57.4747 60.4433 56.8739 60.6922 56.3702C63.1916 51.1239 67.4432 47.2265 71.5575 43.4448C72.2429 42.8179 72.9201 42.1944 73.5855 41.5661C73.9917 41.1823 74.6361 41.2067 75.0115 41.6163C75.3953 42.0225 75.3709 42.6669 74.9613 43.0424C74.2876 43.6742 73.6021 44.3011 72.9118 44.9398C68.9444 48.5823 64.835 52.3522 62.5096 57.2431C62.4007 57.4738 62.2108 57.6504 61.9863 57.7439L61.9828 57.7356Z" fill="#21432A"/>
<path d="M63.2966 50.1338C63.2301 50.1615 63.1552 50.1927 63.0783 50.1954C62.5308 50.2868 62.0071 49.9194 61.9158 49.3719C61.6293 47.6762 62.3379 46.3078 62.9667 45.0995C63.0873 44.8736 63.2079 44.6478 63.3168 44.417C63.5574 43.9168 64.1617 43.7042 64.6619 43.9448C65.1622 44.1854 65.3747 44.7897 65.1341 45.2899C65.0121 45.5359 64.8901 45.7819 64.7563 46.023C64.2024 47.083 63.7316 47.9913 63.9067 49.0211C63.9869 49.4951 63.7256 49.9454 63.3014 50.122L63.2966 50.1338Z" fill="#21432A"/>
<path d="M75.3689 52.4355C75.3689 52.4355 75.3356 52.4493 75.319 52.4562C73.8907 52.9631 72.459 53.3445 71.0723 53.717C70.3356 53.9163 69.599 54.1157 68.8492 54.3303C68.3093 54.4868 67.753 54.1818 67.5965 53.6419C67.4401 53.1021 67.7534 52.5423 68.2849 52.3893C69.0431 52.1712 69.7964 51.9649 70.5413 51.762C71.9529 51.3792 73.2897 51.0275 74.6397 50.5435C75.1657 50.3538 75.7401 50.6318 75.9298 51.1578C76.1126 51.6672 75.8561 52.2229 75.3654 52.4271L75.3689 52.4355Z" fill="#21432A"/>
<path d="M36.393 73.9424C23.478 79.3197 16.7397 66.3468 13.1154 59.3762C12.677 58.5342 12.2746 57.7552 11.9006 57.0913C11.7496 56.8224 11.7317 56.4981 11.8482 56.2154C11.9646 55.9327 12.2058 55.7152 12.5108 55.6273C28.4981 51.137 37.9877 49.2741 46.8752 63.1671C47.065 63.4589 47.0885 63.8199 46.9373 64.1366C44.8961 68.5383 40.082 72.3967 36.3813 73.9375L36.393 73.9424ZM14.2815 57.2319C14.481 57.6172 14.6957 58.0157 14.9125 58.4426C18.4648 65.287 24.412 76.7353 35.614 72.0713C38.7325 70.7728 42.9389 67.47 44.8745 63.7757C37.0425 51.9022 28.8246 53.1868 14.2815 57.2319Z" fill="#21432A"/>
<path d="M43.8854 65.4073C43.8188 65.435 43.7606 65.4593 43.6872 65.4703C31.7361 67.7726 29.4553 66.3023 24.9125 63.3831C24.2086 62.9346 23.4437 62.4334 22.5631 61.9121C22.0823 61.6244 21.9314 61.0042 22.2191 60.5234C22.5068 60.0425 23.127 59.8916 23.6078 60.1793C24.5037 60.7138 25.2886 61.2164 26.0078 61.6781C30.3615 64.4711 32.1628 65.6336 43.308 63.4815C43.8603 63.3784 44.3889 63.734 44.4885 64.278C44.5806 64.7569 44.3144 65.219 43.8819 65.399L43.8854 65.4073Z" fill="#21432A"/>
<path d="M29.7793 69.6118C29.0226 69.9269 28.2485 70.2004 27.491 70.467C26.965 70.6567 26.3907 70.3787 26.2009 69.8527C26.0112 69.3267 26.301 68.7572 26.8152 68.5626C27.5394 68.3098 28.2969 68.0433 28.9954 67.7524C30.4757 67.1361 31.4973 66.4961 32.3172 65.6765C32.7082 65.2796 33.354 65.2839 33.7426 65.6783C34.1396 66.0692 34.1352 66.715 33.7409 67.1037C32.7296 68.12 31.5008 68.895 29.771 69.6152L29.7793 69.6118Z" fill="#21432A"/>
<path d="M34.4505 63.9102C34.0098 64.0937 33.479 63.9439 33.2137 63.5177C32.8168 62.8925 32.3271 62.3256 31.8117 61.7205C30.9901 60.755 30.1263 59.7583 29.5792 58.4444C29.5272 58.3196 29.4753 58.1949 29.4317 58.0667C29.242 57.5407 29.5318 56.9712 30.046 56.7766C30.572 56.5869 31.1463 56.8649 31.3361 57.3909C31.3742 57.4824 31.4122 57.5738 31.4503 57.6653C31.8762 58.6882 32.5939 59.5213 33.3524 60.4057C33.8865 61.0323 34.4476 61.6768 34.9249 62.4246C35.2276 62.8938 35.0874 63.5182 34.6182 63.8208C34.5635 63.8534 34.517 63.8825 34.4588 63.9067L34.4505 63.9102Z" fill="#21432A"/>
<path d="M53.5388 66.54C53.3725 66.6093 53.1972 66.6335 53.0011 66.6078C51.9617 66.4551 50.9952 66.1257 50.0688 65.7991C48.9526 65.4149 47.8952 65.055 46.8226 65.0332C46.262 65.0227 45.8172 64.5638 45.8278 64.0032C45.8383 63.4426 46.2971 62.9979 46.8577 63.0084C48.2533 63.0324 49.5074 63.4665 50.7262 63.886C51.6138 64.1898 52.4459 64.4775 53.2975 64.6011C53.8491 64.6837 54.2294 65.1987 54.1467 65.7502C54.0933 66.114 53.8514 66.4001 53.5354 66.5317L53.5388 66.54Z" fill="#21432A"/>
<path d="M55.0774 65.8996C54.7864 66.0208 54.4482 66.0055 54.1579 65.8238C53.6854 65.5327 53.5428 64.909 53.834 64.4365C54.9743 62.6053 56.3988 60.9877 58.1828 59.4838C58.6077 59.1215 59.2458 59.1778 59.6033 59.6144C59.9573 60.0428 59.9093 60.6775 59.4726 61.0349C57.8439 62.3961 56.5595 63.8579 55.5369 65.5034C55.4191 65.6891 55.2521 65.8269 55.0691 65.9031L55.0774 65.8996Z" fill="#21432A"/>
<path d="M14.6364 43.2962C12.574 44.1549 9.29736 43.0114 8.15472 40.267C7.07788 37.6807 7.84933 34.237 8.46123 31.4647C8.52714 31.1543 8.74271 30.8986 9.02685 30.7608C9.31585 30.6112 9.64914 30.6383 9.92559 30.7867C10.4819 31.0917 11.073 31.3628 11.6993 31.6485C13.9102 32.6698 16.1952 33.7285 17.1613 36.0487C18.3109 38.8097 17.1112 42.2561 14.6412 43.2844L14.6364 43.2962ZM10.1564 33.1691C9.7082 35.3268 9.32851 37.8365 10.0176 39.4914C10.7066 41.1464 12.8462 41.8558 13.8608 41.4334C15.2995 40.8344 16.0104 38.5575 15.2936 36.8361C14.6288 35.2394 12.7934 34.3935 10.8451 33.4873C10.6144 33.3785 10.3837 33.2696 10.1529 33.1608L10.1564 33.1691Z" fill="#288357"/>
<path d="M64.3035 23.6425C62.9313 24.2138 59.8388 24.028 58.5784 21.0009C57.6089 18.6723 58.2243 15.6741 58.7662 13.0383L58.9008 12.3773C58.9681 12.0468 59.1934 11.7676 59.5011 11.6395C59.8088 11.5114 60.1622 11.5399 60.4442 11.725C62.982 13.3908 65.5405 15.2236 66.4996 17.5272C67.715 20.4461 65.5059 23.1321 64.3 23.6342L64.3035 23.6425ZM60.58 14.2542C60.1533 16.3932 59.7937 18.6701 60.4412 20.2253C61.2619 22.1962 63.2036 21.9147 63.5279 21.7797C63.7289 21.6765 65.4159 20.1739 64.6403 18.3111C64.0136 16.8058 62.1679 15.3495 60.58 14.2542Z" fill="#288357"/>
</svg>
