<svg width="102" height="86" viewBox="0 0 102 86" fill="none" xmlns="http://www.w3.org/2000/svg">
<path d="M44.7109 56.6752C42.8996 54.2842 38.6979 51.4042 35.6083 51.6155C34.916 51.666 34.6997 52.517 35.1743 52.9593C37.2439 54.8922 38.7362 55.7022 39.0396 58.6956C39.2835 61.0701 39.6669 63.2049 38.9361 65.5481C37.0889 71.4978 30.0851 72.1516 25.1013 69.9171C24.9934 69.8712 24.8887 69.9719 24.9204 70.0802C25.9083 73.5322 30.0045 74.0514 33.1116 74.066C37.3606 74.0875 41.3925 72.2031 44.0156 68.8176C46.6022 65.4875 47.3637 60.2003 44.694 56.6672L44.7109 56.6752Z" fill="#21432A" fill-opacity="0.2"/>
<path d="M81.1987 36.9918C80.0394 36.956 79.2789 38.6065 80.0246 39.4723C81.112 40.7435 80.8838 43.2728 81.0714 44.8798C81.3117 46.9883 81.5708 49.2872 80.7494 51.3181C80.0037 53.1672 78.4114 54.7141 76.7406 55.7264C75.0902 56.7173 73.0872 56.9972 71.5425 58.1262C71.4311 58.2082 71.42 58.3739 71.5288 58.4617C73.5493 60.159 77.0465 59.7106 79.3487 58.8313C82.3721 57.6872 84.7938 55.45 86.0087 52.4343C87.7449 48.1421 87.6093 37.197 81.1964 36.9855L81.1987 36.9918Z" fill="#21432A" fill-opacity="0.2"/>
<path d="M68.8174 55.3233C68.7549 55.3457 68.7907 55.4458 68.8532 55.4234C68.9158 55.401 68.88 55.301 68.8174 55.3233Z" fill="#21432A" fill-opacity="0.2"/>
<path d="M80.1182 36.9208C79.9867 36.5528 79.7451 36.2312 79.3682 36.0424C76.4473 34.5615 73.397 36.5944 71.1494 38.4529C70.7419 38.7885 70.3326 39.1388 69.9192 39.4976C69.2181 39.8186 68.5281 40.1708 67.8621 40.5706C66.8011 41.2031 62.2843 43.915 63.9008 45.7216C63.858 45.7791 63.813 45.8303 63.7765 45.8855C62.0152 48.2384 62.5883 50.432 64.167 52.7233C65.0776 54.0507 66.6394 56.2355 68.4561 55.572C68.5434 55.5408 68.575 55.4521 68.5522 55.3688C68.0777 53.6675 66.7938 52.5158 66.8266 50.5417C66.8719 48.4646 69.6033 46.602 71.0776 45.3153C72.5951 43.9921 74.2062 42.8324 75.9135 41.7648C76.1719 41.6022 76.4325 41.4457 76.6846 41.2852C78.2741 40.8718 79.7981 40.334 80.9601 39.2363C81.7997 38.4368 81.0455 37.1731 80.1352 36.9288L80.1182 36.9208Z" fill="#21432A" fill-opacity="0.2"/>
<path d="M28.4407 52.9328C26.5855 54.3345 24.2114 56.2523 22.3369 58.4065C21.9146 58.8388 21.5201 59.2893 21.1522 59.7162C21.0542 59.8357 21.0173 59.9684 21.0222 60.1003C20.2607 61.2166 19.6823 62.3729 19.4122 63.5456C18.6144 67.0592 21.7216 70.4781 24.9658 71.4074C25.2082 71.4755 25.4104 71.2344 25.4036 71.0187C25.3564 69.6078 24.6442 68.737 24.1845 67.4313C23.5481 65.612 24.1259 65.2015 25.4956 64.114C28.0166 62.1155 30.588 60.0217 32.6544 57.5386C34.9008 54.8506 31.3323 50.7315 28.426 52.931L28.4407 52.9328Z" fill="#21432A" fill-opacity="0.2"/>
<path d="M38.953 52.551C38.5304 51.8018 37.7693 51.2861 36.7719 51.4668C35.2318 51.7431 34.2505 52.4807 33.0756 53.4634C32.3019 54.1128 31.1665 54.8915 30.8335 55.8686C30.7249 56.1747 30.8069 56.483 31.11 56.6419C31.7859 56.9982 32.6592 56.9814 33.4771 56.9281C33.2941 57.1835 33.1173 57.4366 32.9445 57.6812C31.6432 59.5109 30.5051 61.6199 30.3677 63.8917C30.3078 64.9048 31.0699 65.6593 32.0985 65.369C36.1466 64.2384 42.7476 60.1554 42.0377 55.2183C41.806 53.6061 40.5096 52.4588 38.9615 52.555L38.953 52.551Z" fill="#21432A" fill-opacity="0.2"/>
<path d="M78.4352 37.6631C76.3652 38.9166 74.9667 41.4774 74.1092 43.683C73.4384 45.4069 72.5195 47.6767 72.7798 49.546C72.8784 50.2352 73.6048 50.8899 74.3371 50.5578C78.3414 48.7535 82.8474 45.736 84.0566 41.2876C84.9515 38.0065 80.898 36.1708 78.429 37.6654L78.4352 37.6631Z" fill="#21432A" fill-opacity="0.2"/>
<path d="M29.4677 24.8953C25.1412 26.3294 22.6587 31.9576 21.3331 35.9623C20.8551 37.3993 20.4581 38.9057 20.1832 40.4388C19.9262 40.3689 19.5729 40.5022 19.483 40.8017C18.8056 43.0976 17.7989 45.2792 17.1491 47.5935C16.6632 49.3427 15.7803 51.3394 17.2501 52.7552C17.509 53.0073 17.9754 53.0727 18.31 52.9461C19.9801 52.2857 20.1479 50.3548 20.2579 48.6555C20.4376 49.4142 20.6695 50.1613 20.9723 50.8901C21.4319 51.9988 22.9913 52.1307 23.5434 51.0189C27.4541 43.1289 24.6505 33.1024 30.0106 25.686C30.2911 25.2903 29.9501 24.7299 29.4592 24.8913L29.4677 24.8953Z" fill="#21432A" fill-opacity="0.2"/>
<path d="M51.767 54.8491C50.56 56.195 49.7621 57.7603 48.9927 59.3858C48.1935 61.0853 47.8136 63.0921 46.9587 64.7341C46.5664 65.4862 45.4949 66.5023 44.626 67.6921C43.4561 69.299 42.0686 70.4351 40.3666 71.4585C36.8365 73.5856 33.0404 74.2604 28.9773 74.4046C28.0666 74.4347 26.8197 74.6062 25.9802 74.2451C25.0075 73.8261 24.1727 72.7108 23.4356 71.9474C21.8352 70.3039 20.2451 68.6497 18.6755 66.9741C18.4803 66.7626 18.2126 67.0763 18.3325 67.2937C19.6092 69.6648 20.9838 71.9165 22.5705 74.0924C23.7708 75.7383 24.7778 77.5517 26.7049 78.4172C30.5784 80.1625 36.4421 79.3886 40.4342 78.475C44.6534 77.5083 50.6194 74.5808 51.9444 70.0628C52.6663 67.5962 50.86 65.8293 51.1881 63.3628C51.541 60.6905 52.9162 58.6937 54.3203 56.4826C55.2786 54.9724 52.8839 53.6058 51.7732 54.8469L51.767 54.8491Z" fill="#21432A" fill-opacity="0.2"/>
<path d="M88.5402 35.1973C84.6871 40.3166 91.6719 47.519 87.506 52.4126C85.2114 55.1038 81.1918 57.7505 77.9635 59.1085C75.4516 60.1683 71.4993 61.567 68.7623 61.1317C68.3966 61.0725 68.1802 61.5297 68.4578 61.7751C71.1142 64.1102 73.6915 65.3974 77.3508 64.5957C81.9171 63.5964 85.8404 60.5621 89.3618 57.6433C92.3995 55.1225 93.7753 52.3799 93.5803 48.3912C93.492 46.5308 93.0428 44.743 92.6498 42.9352C92.1595 40.6979 92.456 38.517 92.0695 36.3341C91.7884 34.7606 89.691 33.6746 88.5464 35.1951L88.5402 35.1973Z" fill="#21432A" fill-opacity="0.2"/>
<path d="M77.4414 30.5347C75.7629 28.1806 73.6135 26.1425 71.6245 24.0612C69.7492 22.101 67.9157 19.943 65.4832 18.6674C65.3539 18.601 65.227 18.7378 65.2654 18.8648C66.0168 21.3604 67.657 23.489 69.1212 25.6173C70.7717 28.0306 72.2997 30.5933 74.2491 32.7802C75.8722 34.6055 78.9408 32.6433 77.4414 30.5347Z" fill="#21432A" fill-opacity="0.2"/>
<path d="M89.3233 25.6611C84.3164 20.8041 76.2553 19.74 70.1281 16.845C69.6709 16.6286 69.2447 17.2663 69.6498 17.5928C72.1186 19.5799 74.476 21.5507 77.134 23.2803C79.4797 24.805 81.9915 26.0665 84.2477 27.7147C86.2463 29.1736 87.6417 30.9325 88.4203 33.1301C88.1993 33.1809 88.0207 33.3503 88.0769 33.6256C88.3107 34.7518 88.1934 35.8206 88.22 36.9576C88.2309 37.4601 88.7068 37.6698 89.1068 37.569C89.1124 39.7686 88.9438 42.0515 90.1552 43.827C90.6745 44.5909 91.774 44.5776 92.3632 43.9239C94.4151 41.636 93.9326 37.2366 93.5174 34.4027C93.0304 31.053 91.7775 28.0403 89.3211 25.6548L89.3233 25.6611Z" fill="#21432A" fill-opacity="0.2"/>
<path d="M73.838 29.2696C71.0239 30.2122 68.3553 32.0735 65.8333 33.6363C63.1023 35.323 60.4729 37.1562 58.07 39.2883C55.8314 41.2702 53.7256 43.3875 51.2632 45.0977C48.6936 46.8814 45.8479 47.9128 42.8828 48.8461C42.8266 48.8662 42.8138 48.9482 42.8605 48.9807C47.8042 52.559 53.9127 47.9839 57.6506 44.7064C60.3069 42.3782 62.954 40.1026 65.8988 38.1285C68.9446 36.0831 72.585 34.5988 75.3987 32.2777C76.8498 31.0837 75.7473 28.6292 73.838 29.2696Z" fill="#21432A" fill-opacity="0.2"/>
<path d="M76.1207 61.6663C73.7473 61.087 71.3266 60.7495 68.9683 60.0944C68.492 59.9623 68.0259 59.8194 67.5639 59.6681C67.7606 59.0772 67.6918 58.4125 67.1704 57.8393C64.7731 55.1865 60.5621 53.7166 56.974 54.2256C54.9732 54.5118 52.1879 56.1054 52.8092 58.4927C52.8618 58.699 53.1635 58.7951 53.326 58.6596C55.3611 56.9545 56.8896 58.0821 58.9357 59.1231C60.3041 59.8226 61.7113 60.5715 63.1879 61.0425C66.8035 64.5258 72.0351 66.8828 76.7101 64.4168C77.9654 63.757 77.2475 61.9458 76.1145 61.6685L76.1207 61.6663Z" fill="#21432A" fill-opacity="0.2"/>
<path d="M77.8595 60.9407C71.2671 63.2964 66.8963 60.378 63.0421 57.8025C59.9554 55.7406 57.2916 53.9565 53.9575 55.0775C50.6992 56.3122 49.7643 59.3822 48.6848 62.933C47.3374 67.3672 45.8142 72.3917 39.2156 74.7496C26.461 79.3073 22.5717 73.4668 18.0631 66.7013C17.3939 65.6955 16.7073 64.6608 15.9709 63.6439C15.8836 63.6751 15.79 63.7085 15.7026 63.7397C13.7131 64.4507 12.4148 63.6134 11.4893 61.0253C10.8068 59.117 13.2701 48.6574 15.9126 40.4688C18.1385 33.5544 22.5582 21.7205 27.1361 20.0847C29.2754 19.3202 31.0585 20.2937 31.5514 21.6719C32.0911 23.1811 30.9381 24.6974 29.5229 25.4211C27.4817 26.46 26.0181 27.5597 24.9109 28.8697C23.9877 29.9662 22.2307 34.0615 20.8297 49.1633L20.7978 49.5263C20.7121 50.408 20.6688 51.2112 20.6584 51.9886C20.6563 52.3761 20.3383 52.6867 19.9484 52.6783C19.5608 52.6762 19.2501 52.3582 19.2584 51.9684C19.2701 51.1553 19.3148 50.3165 19.4058 49.3907L19.4377 49.0277C20.5416 37.2252 22.022 30.1341 23.8417 27.9647C25.0713 26.5054 26.6708 25.2938 28.8901 24.1632C29.7521 23.7215 30.4936 22.8447 30.2393 22.1337C30.0186 21.5163 29.0599 20.8813 27.6129 21.3983C24.7315 22.428 20.8585 29.7129 17.2521 40.8904C14.0975 50.6757 12.4141 59.4218 12.8155 60.5444C13.6809 62.9641 14.4729 62.681 15.2338 62.4091C15.4646 62.3267 15.6972 62.2295 15.9275 62.1261C16.2117 61.9964 16.5824 62.089 16.7746 62.3509C17.651 63.5428 18.4544 64.7468 19.2297 65.9116C23.5845 72.4438 27.0213 77.609 38.7467 73.419C44.6781 71.2996 46.0352 66.8337 47.3452 62.5114C48.4813 58.7646 49.5528 55.2308 53.4864 53.7407C57.4986 52.3914 60.5684 54.4454 63.8232 56.6232C67.5776 59.1359 71.4594 61.7296 77.3845 59.6123C89.1099 55.4224 88.4921 49.2499 87.7173 41.4384C87.5782 40.0463 87.4359 38.6061 87.3578 37.1289C87.3381 36.7983 87.5683 36.498 87.8704 36.4182C88.1141 36.3522 88.3555 36.28 88.5863 36.1976C89.3472 35.9257 90.1393 35.6426 89.2739 33.2229C88.8725 32.1004 82.0175 26.4053 73.3782 20.8345C63.5065 14.4731 55.8912 11.2935 53.0035 12.3253C51.5565 12.8424 51.2178 13.941 51.4386 14.5584C51.6929 15.2694 52.8225 15.4776 53.7692 15.273C56.2026 14.741 58.2058 14.6582 60.0845 15.0138C62.8676 15.5384 68.5075 20.0781 76.8463 28.5064L77.1098 28.7709C77.7588 29.4252 78.3316 30.0435 78.8585 30.671C79.1059 30.9695 79.0673 31.4123 78.7751 31.6574C78.4789 31.9109 78.036 31.8722 77.7886 31.5738C77.2876 30.9792 76.7446 30.3855 76.1193 29.7579L75.8558 29.4933C65.1929 18.7165 61.2431 16.6605 59.8337 16.3975C58.1507 16.0775 56.3235 16.1608 54.0798 16.653C52.5263 16.9901 50.6731 16.5481 50.1334 15.0389C49.6405 13.6607 50.4083 11.7757 52.5414 11.0135C57.113 9.37984 68.0384 15.7374 74.149 19.6658C81.388 24.3304 89.9244 30.8523 90.6069 32.7607C91.5324 35.3488 91.0594 36.819 89.0698 37.5299C88.9825 37.5611 88.8952 37.5923 88.8016 37.6257C88.8854 38.8829 89.0022 40.1142 89.1225 41.3161C89.9264 49.4055 90.6225 56.387 77.868 60.9447L77.8595 60.9407Z" fill="#21432A"/>
<path d="M52.2255 48.9105C52.082 48.9618 51.9386 49.013 51.7952 49.0643C51.6954 49.1 51.5519 49.1513 51.4085 49.2026C48.9201 50.0921 46.2625 49.9379 43.1874 49.757C38.3525 49.4738 32.3388 49.1196 23.4142 52.31C19.5537 53.69 15.974 55.5605 12.7728 57.8795C12.4552 58.1126 12.0199 58.0361 11.7952 57.7226C11.5706 57.409 11.6387 56.9697 11.9522 56.745C15.2609 54.3525 18.9585 52.4187 22.9438 50.9941C32.1366 47.7078 38.3076 48.0691 43.2703 48.3558C46.4879 48.542 48.9856 48.662 51.3203 47.7359C51.4887 47.6757 51.6196 47.6289 51.7506 47.5821C53.9709 46.7884 55.7436 45.1559 57.9803 43.0903C61.6304 39.7246 66.1801 35.5309 75.3729 32.2446C79.3581 30.82 83.4438 29.9714 87.5193 29.7242C87.9042 29.6992 88.2354 29.9958 88.2604 30.3807C88.2855 30.7656 87.9911 31.103 87.6039 31.1218C83.6602 31.364 79.7038 32.1805 75.8434 33.5605C66.9187 36.7509 62.4923 40.8372 58.9327 44.1214C56.6692 46.2106 54.7117 48.0147 52.2233 48.9043L52.2255 48.9105Z" fill="#21432A"/>
<path d="M44.1852 71.6337C44.0044 71.6984 43.803 71.686 43.623 71.5956C43.2839 71.4144 43.147 70.9921 43.3322 70.6445C45.6066 66.3428 45.829 61.9868 44.0298 56.9539C41.8494 50.8544 36.935 51.3522 28.0478 54.5292C24.418 55.8268 20.6503 57.5253 20.2034 60.3086C19.9633 61.8012 20.1589 63.4897 20.7631 65.1798C21.7976 68.0736 23.2147 70.6407 25.1013 73.0259C25.3424 73.3266 25.2913 73.7739 24.9884 74.0088C24.6878 74.2499 24.2404 74.1988 24.0055 73.8959C22.0262 71.3891 20.5352 68.6937 19.4494 65.6565C18.765 63.7418 18.5496 61.8213 18.8307 60.089C19.3901 56.5973 23.3676 54.7182 27.5898 53.2088C35.3482 50.4354 42.5424 48.6021 45.3604 56.4852C47.3023 61.9173 47.0582 66.6257 44.5888 71.3066C44.5064 71.4697 44.3643 71.5838 44.2084 71.6395L44.1852 71.6337Z" fill="#21432A"/>
<path d="M72.0257 61.6813C71.8635 61.7393 71.6876 61.7389 71.5205 61.665C66.6454 59.6166 63.4718 56.13 61.5277 50.6916C58.7096 42.8085 65.4356 39.6656 73.194 36.8921C77.4099 35.385 81.6751 34.3105 84.3275 36.654C85.6346 37.8115 86.6941 39.4374 87.3785 41.352C88.4643 44.3892 89.0198 47.4191 89.0783 50.6126C89.0824 50.9979 88.7751 51.3188 88.3897 51.3229C88.0043 51.3271 87.6835 51.0197 87.6793 50.6344C87.6263 47.5937 87.0948 44.71 86.0604 41.8162C85.4562 40.126 84.5371 38.6962 83.4051 37.6941C81.295 35.8249 77.3044 36.8998 73.6747 38.1974C64.7875 41.3744 60.6774 44.1026 62.8579 50.2021C64.6593 55.2413 67.5842 58.4651 72.0703 60.3501C72.4277 60.5037 72.5957 60.9148 72.4483 61.27C72.3687 61.4602 72.2123 61.5935 72.0377 61.6559L72.0257 61.6813Z" fill="#21432A"/>
</svg>
