<svg width="95" height="86" viewBox="0 0 95 86" fill="none" xmlns="http://www.w3.org/2000/svg">
<path d="M46.928 25.194C45.8073 24.239 44.4732 25.4132 44.4993 26.6174C44.569 29.9692 44.4321 32.8084 41.9158 35.3112C39.7876 37.4212 36.9859 38.6718 34.0178 38.9758C30.9846 39.282 27.8734 38.4415 25.3332 36.7749C23.379 35.496 21.4627 32.9961 19.1655 32.4572C17.5567 35.7357 21.8844 39.8143 24.2852 41.3314C27.999 43.6815 32.6186 44.4335 36.9056 43.5209C41.1926 42.6084 45.2627 40.2571 47.547 36.4236C49.6241 32.942 50.3121 28.075 46.9304 25.1878L46.928 25.194Z" fill="#21432A" fill-opacity="0.2"/>
<path d="M74.9491 56.3174C73.8475 54.4696 71.1757 55.3297 69.4725 55.282C65.5311 55.184 58.648 53.2993 57.1578 49.1854C56.9867 48.7086 56.2891 48.7544 56.1037 49.1938C54.6925 52.5667 58.2065 56.0436 60.811 57.6576C64.1266 59.7032 69.7698 61.385 73.5371 59.6041C74.792 59.0125 75.7592 57.6681 74.9552 56.3198L74.9491 56.3174Z" fill="#21432A" fill-opacity="0.2"/>
<path d="M57.5565 55.1795C52.2353 49.2683 43.3431 44.0027 35.0627 45.1392C34.1807 44.9171 33.2747 44.8426 32.3692 44.8898C33.0065 44.6052 33.6169 44.281 34.1271 43.8161C34.7757 43.2216 34.9498 42.3344 34.4135 41.5951C32.9024 39.4882 29.91 39.7466 27.767 40.6069C24.9819 41.7285 22.8605 43.9627 20.893 46.1521C18.8438 48.4371 16.8784 50.463 13.9165 51.5271C12.4688 52.0477 10.5105 52.6112 8.98923 52.0798C7.44094 51.5446 7.16954 50.2052 6.39713 48.9555C6.35318 48.8876 6.25231 48.8896 6.18694 48.9274C4.85314 49.8015 5.17902 51.5705 5.92005 52.9503C5.49159 52.7908 5.06928 52.6338 4.62722 52.4902C4.53267 52.459 4.39579 52.5321 4.42595 52.6515C5.40281 56.3571 10.0802 58.1117 13.5382 58.4496C18.5858 58.9392 23.314 57.0978 27.5975 54.6258C31.9551 52.1123 35.6845 49.7728 40.9502 50.4295C46.624 51.1374 51.0965 54.7887 56.1503 57.0248C57.2058 57.4887 58.3663 56.0726 57.559 55.1733L57.5565 55.1795Z" fill="#21432A" fill-opacity="0.2"/>
<path d="M74.1176 73.4483C75.4499 67.8563 75.7394 62.2272 78.7331 57.1734C81.3411 52.7708 83.9634 47.2233 81.8361 42.1075C81.4629 41.2128 80.1296 41.2222 79.7636 42.1244C78.9829 44.0663 78.5523 46.1145 77.833 48.0812C77.0402 50.2469 75.853 52.081 74.4408 53.8882C71.7551 57.3373 69.5109 60.5081 68.4898 64.8397C67.9988 66.9134 67.7977 69.0475 67.4394 71.1465C67.2279 72.3901 67.0527 74.7777 65.9549 75.6689C62.963 78.0932 58.3954 72.5092 56.254 71.2688C56.0517 71.151 55.7904 71.2665 55.8137 71.5262C56.271 75.8429 59.7106 79.9615 64.0383 80.7809C69.1893 81.7555 72.97 78.2504 74.1151 73.4544L74.1176 73.4483Z" fill="#21432A" fill-opacity="0.2"/>
<path d="M56.9189 52.0118C56.2259 51.6234 55.0168 52.155 54.5269 52.7282C54.0779 53.2536 53.535 53.6052 52.9722 54.0058C52.6908 54.2061 52.9039 54.65 53.2275 54.6097C53.5807 54.5672 53.9339 54.5246 54.2871 54.4821C54.6551 54.4384 54.9193 54.4741 55.282 54.514C55.6323 54.5489 55.9946 54.3957 56.3235 54.3076C56.8555 54.1589 57.3006 53.9249 57.4854 53.3637C57.674 52.7755 57.4352 52.307 56.9164 52.0179L56.9189 52.0118Z" fill="#21432A" fill-opacity="0.2"/>
<path d="M71.4504 48.9442C71.272 47.6925 69.4253 47.0648 68.6719 48.2173C68.2877 48.8119 68.0272 49.7711 67.1772 49.8051C66.2681 49.8437 65.7942 48.9153 65.2965 48.3274C64.8318 47.7815 64.1299 47.9613 63.8061 48.5304C62.6834 50.5051 65.0481 52.851 66.9277 53.0275C69.148 53.2278 71.7916 51.3626 71.4418 48.9478L71.4504 48.9442Z" fill="#21432A" fill-opacity="0.2"/>
<path d="M67.1187 42.6554C67.0286 42.2257 66.7057 41.8588 66.2533 41.8111C65.1482 41.6987 64.47 42.56 63.4751 42.7925C62.6292 42.9925 61.7635 42.4484 61.2784 41.7941C60.9436 41.351 60.1095 41.3985 59.932 41.977C59.3508 43.8854 60.9265 45.6039 62.8048 45.8013C64.5123 45.9793 67.5716 44.869 67.1187 42.6554Z" fill="#21432A" fill-opacity="0.2"/>
<path d="M72.0247 37.8914C71.6474 38.3458 71.2046 38.3449 70.6617 38.2033C70.1126 38.0591 69.5141 37.9664 69.3422 37.4035C69.1909 36.9133 68.5932 36.9067 68.2441 37.1153C67.6163 37.4824 67.3759 38.3569 67.6358 39.0199C67.9601 39.859 68.838 40.4082 69.6234 40.7625C71.4066 41.5646 73.6869 41.2818 74.5476 39.3366C75.2341 37.7853 73.0627 36.6543 72.0309 37.8939L72.0247 37.8914Z" fill="#21432A" fill-opacity="0.2"/>
<path d="M75.91 45.6858C75.1664 45.8273 74.6179 46.3338 73.8839 46.522C73.6069 46.5883 73.3436 46.603 73.0596 46.5807C72.9489 46.5716 72.8284 46.587 72.7215 46.5508C72.6417 46.5184 72.5907 46.3977 72.6245 46.5257C72.5025 46.0688 72.0009 45.7724 71.575 46.1C70.2442 47.1253 71.5255 48.9174 72.7089 49.3832C74.4225 50.057 76.7833 49.6996 77.6773 47.9538C78.2436 46.8398 77.0782 45.4664 75.9013 45.6894L75.91 45.6858Z" fill="#21432A" fill-opacity="0.2"/>
<path d="M39.7573 30.2901C40.0313 28.8217 39.9125 27.2296 38.9863 25.989C38.5354 25.3915 37.9397 25.2213 37.4156 24.7514C36.7605 24.164 36.896 24.605 37.279 23.5024C37.7681 22.0855 36.0774 21.2495 35.0984 22.2532C34.0674 23.3145 33.5136 25.1554 34.4789 26.4405C35.2683 27.4897 36.3499 27.3782 36.3858 29.0867C36.4386 31.1237 35.1505 30.9513 33.6501 30.6857C32.8784 30.5442 32.1698 31.093 31.8615 31.747C31.5857 32.3212 31.7692 33.0318 31.6252 33.5452C31.7461 32.9653 30.5928 33.1478 29.9956 33.0342C29.4525 32.9282 27.3197 32.7062 26.9658 32.3983C26.0926 31.6437 26.7992 30.0077 26.8934 29.0882C26.927 28.7588 26.738 28.4319 26.4275 28.2988C25.6542 27.9851 25.0482 27.9108 24.2214 27.9756C23.7575 28.009 23.6455 28.7784 24.1073 28.9086C24.5116 28.9868 24.8971 29.1289 25.2516 29.3299C24.8684 30.4681 24.3229 31.6191 24.6638 32.8224C25.0943 34.3336 26.6713 34.7804 28.0048 35.2284C29.4266 35.7052 31.5053 36.6772 33.0522 36.2469C34.2678 35.9109 34.445 35.1394 34.6472 34.2709C37.2147 34.3904 39.1992 33.2514 39.7487 30.2937L39.7573 30.2901Z" fill="#21432A" fill-opacity="0.2"/>
<path d="M47.3876 25.259C47.4283 24.9825 47.3809 24.6059 47.2445 24.3433C47.2339 23.9816 47.1028 23.6354 46.8917 23.2924C46.705 22.9951 46.359 22.8261 46.0013 22.774C46.0063 22.7617 46.0015 22.7383 46.0065 22.726C46.1471 22.1327 45.3445 21.7856 44.9186 22.1131C44.4223 22.4908 44.1209 23.0046 44.081 23.6317C44.0648 23.9181 44.0781 24.2023 44.1419 24.4855C44.1781 24.6431 44.2265 24.8057 44.2885 24.9524C44.314 25.0128 44.6274 25.5616 44.4994 25.331C44.6274 25.5616 44.8132 25.8085 45.0474 25.9535C45.3927 26.2651 45.837 26.4383 46.3258 26.3435C46.8822 26.2405 47.3037 25.8182 47.3814 25.2565L47.3876 25.259Z" fill="#21432A" fill-opacity="0.2"/>
<path d="M66.2432 78.3233C61.5978 77.3179 59.4888 71.4876 58.9412 67.2701C58.416 63.2617 59.6469 59.0295 58.078 55.1624C56.6963 51.75 53.4506 49.2325 50.4815 47.2489C46.9423 44.8911 42.9395 42.2665 38.6858 41.4057C38.6289 41.2111 38.5721 41.0165 38.5091 40.8194C38.434 40.5817 38.1059 40.5272 37.9269 40.669C37.559 40.9414 37.1985 41.2312 36.8441 41.5234C36.1625 42.076 36.1698 43.0796 36.846 43.6327C40.6962 46.7742 45.5295 48.5849 49.5392 51.5625C51.3627 52.9169 53.0094 54.4427 54.1312 56.4345C55.4347 58.7358 55.3472 61.0304 55.3974 63.6024C55.4758 67.6725 56.4889 71.7645 58.4602 75.3445C60.0462 78.218 62.8846 81.528 66.5047 80.1805C67.4892 79.8151 67.1106 78.5108 66.237 78.3208L66.2432 78.3233Z" fill="#21432A" fill-opacity="0.2"/>
<path d="M80.0632 36.4352C79.3716 35.7615 78.0689 36.5767 78.2735 37.4817C79.5508 43.1246 78.7731 48.2483 73.8272 51.8597C71.1685 53.7973 68.1991 54.8798 65.1115 53.2413C62.5108 51.8646 60.1438 49.9823 58.6952 47.4219C58.5233 47.1235 58.1077 47.0907 57.956 47.4294C56.5623 50.4949 60.3447 53.6804 62.4323 55.335C66.2253 58.3533 70.2655 58.1197 74.3675 55.7956C80.5946 52.2679 86.4041 42.5813 80.0719 36.4316L80.0632 36.4352Z" fill="#21432A" fill-opacity="0.2"/>
<path d="M75.9033 24.4195C74.1614 23.9916 72.7999 24.7401 70.9494 23.875C69.2254 23.0684 67.697 21.7264 66.1688 20.6133C63.7766 18.8637 61.0431 16.4754 57.8498 16.8238C55.8144 17.0488 53.489 18.4998 53.366 20.7585C53.2985 21.9819 54.033 22.4443 54.9138 23.1447C56.1022 24.0914 57.3312 25.026 58.6137 25.8465C58.5515 25.9999 58.5015 26.1583 58.4331 26.3092C58.3808 26.4381 58.4154 26.6523 58.5491 26.728C59.5523 27.3208 60.3717 27.0099 60.9937 26.0758C61.374 25.5082 61.2763 24.8682 60.7743 24.4144C59.6551 23.4028 58.3812 22.5787 57.1407 21.7252C56.7546 21.4614 55.772 20.9412 55.6886 20.6358C55.4843 19.9239 57.2452 19.2303 57.8521 19.1262C60.8346 18.6279 63.8273 21.8219 66.0072 23.4782C68.1405 25.1084 74.5258 29.7001 76.5876 25.5691C76.8572 25.0281 76.3873 24.5301 75.8996 24.4109L75.9033 24.4195Z" fill="#21432A" fill-opacity="0.2"/>
<path d="M12.5404 51.9767C11.0428 51.898 9.56165 51.4615 8.51317 50.3286C7.61759 49.3649 7.33357 48.0918 6.803 46.9331C6.72756 46.7667 6.48305 46.7175 6.36788 46.878C5.32622 48.371 5.88213 50.3834 6.92094 51.734C8.24565 53.4722 10.4581 54.2553 12.5687 53.7393C13.4725 53.5199 13.6298 52.0398 12.5466 51.9792L12.5404 51.9767Z" fill="#21432A" fill-opacity="0.2"/>
<path d="M76.3968 72.1287C76.4489 70.027 76.1823 67.9533 75.9773 65.8689C75.6961 63.003 75.8615 60.3755 76.2062 57.5349C76.3472 56.377 74.9128 55.9309 74.2055 56.7232C69.5073 61.979 74.0477 69.8677 70.7369 75.6148C66.961 82.1738 59.8394 74.4816 56.4056 71.6877C56.266 71.5739 56.0539 71.6737 56.0347 71.8445C55.056 79.0667 65.4661 85.8058 71.5675 81.8127C74.8175 79.6861 76.2997 75.8917 76.3906 72.1262L76.3968 72.1287Z" fill="#21432A" fill-opacity="0.2"/>
<path d="M18.2347 32.9016C18.1119 32.8518 17.998 32.7627 17.9174 32.6443C16.645 30.7772 15.6933 25.6881 16.9905 22.4906C19.9659 15.1564 28.4264 12.1489 36.6688 15.4928C39.179 16.5111 41.3533 18.0579 42.9649 19.9697C43.2168 20.2649 43.1802 20.7074 42.8789 20.9569C42.5837 21.2088 42.1375 21.1636 41.8917 20.8709C40.4305 19.1345 38.4449 17.7214 36.1434 16.7877C28.5147 13.6929 21.0106 16.3164 18.2917 23.0184C17.2136 25.6759 17.9979 30.2611 19.0762 31.8493C19.2972 32.1677 19.2127 32.6051 18.8881 32.8237C18.6882 32.9641 18.4397 32.9777 18.231 32.893L18.2347 32.9016Z" fill="#21432A"/>
<path d="M26.9594 40.5009C25.6153 39.9556 24.4262 39.1516 23.4204 38.1074C23.1487 37.8257 23.1558 37.3854 23.4375 37.1138C23.7168 36.8482 24.157 36.8553 24.4312 37.1309C25.3012 38.0342 26.3273 38.7292 27.4872 39.1998C32.661 41.2987 40.0973 38.9835 43.0975 31.5881C44.4047 28.366 44.0169 26.1859 42.97 23.7099C42.8205 23.3562 42.9873 22.945 43.3435 22.7893C43.6972 22.6397 44.1084 22.8066 44.2641 23.1628C45.4204 25.8976 45.8826 28.458 44.3986 32.1159C41.0722 40.3154 32.7592 42.8538 26.9594 40.5009Z" fill="#21432A"/>
<path d="M62.0194 79.3615C54.4276 76.2816 54.7483 65.0259 54.9742 56.8051C54.9918 56.2332 55.0044 55.6737 55.0181 55.1289C54.2082 53.2493 52.2036 50.4563 44.6915 47.4087C38.8978 45.0583 30.9777 43.2104 26.1454 47.7398C18.3872 55.0063 11.9995 57.6968 7.15711 55.7323C4.89857 54.816 2.45522 51.2017 4.97244 44.9968C6.12026 42.1675 7.73816 39.5361 9.29781 36.9953C10.1409 35.622 11.0075 34.2081 11.7819 32.7926C12.5352 31.4114 13.3462 30.0465 14.1312 28.7282C14.8058 27.5938 15.504 26.419 16.1654 25.2292C16.3527 24.8907 16.7801 24.771 17.1186 24.9584C17.4572 25.1458 17.5768 25.5731 17.3895 25.9117C16.7145 27.1174 16.0138 28.2983 15.3342 29.445C14.5604 30.7535 13.7543 32.1061 13.011 33.4628C12.218 34.9065 11.3439 36.3387 10.4872 37.728C8.95364 40.2221 7.37291 42.7972 6.26742 45.5222C4.13612 50.7758 5.94809 53.7266 7.67882 54.4287C13.0244 56.5973 20.145 51.4309 25.1824 46.7131C30.5572 41.6746 39.0452 43.6028 45.2132 46.1051C53.3943 49.4241 55.4953 52.6136 56.368 54.726C56.4045 54.8122 56.4213 54.9119 56.4232 55.0128C56.4105 55.608 56.3902 56.2216 56.3712 56.85C56.1439 65.0917 55.8551 75.3526 62.5387 78.0641C65.8774 79.4186 68.4143 78.2392 69.8659 74.6611C71.051 71.7397 72.4744 64.1262 73.8461 56.7633L74.2919 54.3783C74.3602 53.9986 74.7267 53.747 75.1125 53.8178C75.4898 53.8922 75.7413 54.2587 75.6731 54.6384L75.2297 57.0173C73.8429 64.4527 72.4069 72.1326 71.167 75.1889C69.4191 79.4974 66.086 81.0184 62.0108 79.3652L62.0194 79.3615Z" fill="#21432A"/>
<path d="M63.3075 55.9259C56.7406 53.2617 55.8756 48.0649 55.5469 46.1089C55.5194 45.9477 55.4992 45.8037 55.4727 45.6929C55.3922 45.31 55.6399 44.9459 56.0167 44.8629C56.3909 44.786 56.7636 45.0301 56.8467 45.4069C56.8743 45.5325 56.8957 45.6912 56.928 45.8758C57.247 47.785 57.9926 52.2544 63.8354 54.6247C69.359 56.8656 76.3547 55.6011 79.5442 47.7391C81.8224 42.1235 80.7229 35.0732 73.131 31.9933C70.2894 30.8405 67.0368 30.5072 63.9728 31.0654C61.1748 31.567 58.4866 33.7357 57.4334 36.3318C57.299 36.6632 57.1891 37.0046 57.1087 37.3437C57.0195 37.722 56.6396 37.9539 56.2612 37.8647C55.8767 37.773 55.651 37.3956 55.7402 37.0172C55.8357 36.6056 55.9705 36.2029 56.1323 35.804C57.3748 32.7414 60.4259 30.2769 63.7249 29.6854C67.0499 29.0831 70.5779 29.4422 73.665 30.6946C79.7839 33.177 84.3796 39.5729 80.8514 48.2695C77.8213 55.7386 70.611 58.8888 63.3137 55.9284L63.3075 55.9259Z" fill="#21432A"/>
<path d="M64.349 31.0893C64.2508 31.0495 64.1626 30.9851 64.0879 30.9048C63.5045 30.2464 62.6324 29.5067 60.2082 28.5232C57.7839 27.5397 55.4655 26.8064 53.1188 26.0545C50.4062 25.1828 47.5966 24.2859 44.9333 23.134C44.5798 22.9835 44.4134 22.5657 44.5701 22.2147C44.7206 21.8613 45.1211 21.7021 45.4771 21.8465C48.0998 22.9749 50.8677 23.869 53.5496 24.7283C55.927 25.4927 58.3829 26.2746 60.7397 27.2307C63.4278 28.3212 64.4444 29.1982 65.1354 29.9789C65.3898 30.2679 65.368 30.7094 65.0765 30.9699C64.8739 31.1522 64.5859 31.1926 64.3465 31.0955L64.349 31.0893Z" fill="#21432A"/>
<path d="M46.6308 23.0722C46.2687 22.9253 46.0972 22.5198 46.2441 22.1577C46.2939 22.035 46.3389 21.8888 46.3889 21.7304C46.4588 21.5229 46.5275 21.3006 46.6097 21.0981C47.0006 20.1345 48.1322 19.8646 49.9675 20.3089C51.2242 20.6115 52.5953 21.1606 53.5134 21.5402L53.6914 21.6124C54.2376 21.834 55.5387 22.3619 56.6612 22.9602C57.948 23.6466 59.2082 24.4866 58.7825 25.5361C58.7078 25.7202 58.6047 25.9214 58.5005 26.1079C58.4334 26.2379 58.3652 26.3532 58.3229 26.4575C58.176 26.8196 57.7705 26.9911 57.4084 26.8442C57.0463 26.6973 56.8749 26.2918 57.0218 25.9297C57.079 25.7885 57.1697 25.618 57.2603 25.4475C57.3149 25.3481 57.3695 25.2488 57.4154 25.1531C57.2247 24.9185 56.4323 24.2467 53.1917 22.9321L52.977 22.845C52.1116 22.4939 50.7859 21.9561 49.6324 21.6811C48.3093 21.3659 47.9295 21.5621 47.8997 21.6357C47.83 21.8076 47.77 21.9905 47.7126 22.1674C47.6502 22.3565 47.5902 22.5394 47.5305 22.6867C47.3836 23.0488 46.9781 23.2203 46.616 23.0734L46.6308 23.0722Z" fill="#21432A"/>
<path d="M52.2216 21.8881C52.2216 21.8881 52.197 21.8781 52.1786 21.8706C51.8326 21.7017 51.6809 21.2828 51.8499 20.9368C53.9597 16.5465 56.1508 14.4049 61.1159 16.4192C63.6384 17.4425 64.981 19.0307 66.166 20.4263C67.0892 21.5156 67.8914 22.4629 69.0943 22.9509C70.9233 23.6928 73.1547 23.3545 74.7733 22.0956C75.0783 21.8548 75.5195 21.9123 75.7603 22.2172C76.0011 22.5222 75.9436 22.9635 75.6386 23.2043C73.625 24.7675 70.8557 25.1807 68.5726 24.2545C67.0506 23.637 66.1016 22.523 65.1026 21.3386C63.9727 20.0011 62.7975 18.6166 60.5942 17.7228C56.5559 16.0845 55.0272 17.5799 53.1161 21.5505C52.9522 21.8843 52.5628 22.0336 52.2191 21.8942L52.2216 21.8881Z" fill="#21432A"/>
<path d="M26.1372 33.3129C25.9899 33.2532 25.8687 33.1468 25.7894 33.0075C25.6931 32.8397 25.6744 32.6392 25.7257 32.4598C25.9644 31.6776 26.2511 30.9004 26.5278 30.1479C26.66 29.7869 26.7946 29.4198 26.9267 29.0589C26.0607 28.8505 25.1998 28.5941 24.3501 28.2923C23.9953 28.1627 23.8017 27.7768 23.919 27.417C24.0801 26.932 24.2708 26.409 24.5248 25.783C24.6841 25.3902 24.8435 24.9974 25.0151 24.6096C25.1719 24.2229 25.3386 23.8474 25.4955 23.4607L25.5229 23.3932C25.5926 23.2214 25.7273 23.0831 25.8998 23.0101C26.0724 22.9372 26.2778 22.9418 26.4373 23.0066L26.9713 23.2232C27.7998 23.5593 28.4885 23.8173 29.1222 24.0172C29.4917 22.8948 29.8676 21.7394 30.1953 20.6144C30.2491 20.4289 30.379 20.2672 30.5566 20.182C30.728 20.0943 30.9322 20.0842 31.1188 20.1527C32.5514 20.6911 34.022 21.0303 35.6659 21.3828C35.8502 21.4218 36.0107 21.537 36.112 21.6924C36.2109 21.854 36.2468 22.0473 36.2017 22.2291C35.8664 23.6369 35.3802 24.9764 34.9119 26.1659C35.8285 26.602 36.704 26.8929 37.5286 27.0273C37.7215 27.0627 37.8846 27.1717 37.9982 27.3322C38.1056 27.4901 38.1391 27.6895 38.0976 27.8799C37.9682 28.4279 37.8475 28.9721 37.7242 29.5225C37.5356 30.3751 37.3433 31.2191 37.1362 32.0643C37.0547 32.3886 36.7572 32.611 36.4203 32.5958C35.23 32.5346 34.0874 32.2855 33.0679 32.0149C32.8305 32.7762 32.6437 33.501 32.4976 34.2136C32.4585 34.3979 32.3556 34.5634 32.1915 34.6684C32.0299 34.7672 31.8367 34.8032 31.6524 34.7642C30.575 34.5129 29.4941 34.2174 28.4501 33.9367C27.7094 33.7363 26.9749 33.5384 26.2354 33.3528C26.2047 33.3403 26.1716 33.334 26.1409 33.3216L26.1372 33.3129ZM28.1131 27.8963C28.2543 27.9535 28.3755 28.0599 28.4573 28.1931C28.5573 28.3695 28.5821 28.5726 28.5197 28.7617C28.3137 29.3928 28.0806 30.0202 27.8525 30.6352C27.6618 31.1582 27.4699 31.6665 27.3014 32.1699C27.805 32.3028 28.3148 32.4381 28.8159 32.577C29.6265 32.7987 30.4519 33.0192 31.2823 33.2274C31.4557 32.483 31.6759 31.7289 31.9491 30.932C32.0701 30.5808 32.4524 30.3785 32.8085 30.4873C33.7358 30.7563 34.8094 31.0346 35.912 31.1531C36.0664 30.5082 36.2061 29.8644 36.3544 29.2169C36.4273 28.8963 36.4977 28.5818 36.5706 28.2611C35.6493 28.0303 34.6894 27.648 33.6982 27.1315C33.3792 26.9664 33.2421 26.582 33.3766 26.2506C33.9144 24.9249 34.3407 23.7684 34.6624 22.6053C33.5014 22.3487 32.4167 22.0802 31.346 21.7244C31.051 22.6983 30.735 23.6709 30.4229 24.6164L30.2569 25.1137C30.1421 25.4673 29.7659 25.6721 29.4073 25.5695C28.3473 25.2753 27.3395 24.8878 26.5637 24.5803C26.484 24.7767 26.4043 24.973 26.3185 25.167C26.1617 25.5536 25.9925 25.9353 25.8382 26.3158C25.7087 26.6349 25.5892 26.9295 25.4944 27.1984C26.3233 27.4632 27.161 27.6887 28.0002 27.8576C28.0395 27.8664 28.0849 27.8777 28.1218 27.8926L28.1131 27.8963Z" fill="#288357"/>
<path d="M69.5488 39.1669C68.1433 38.5968 67.4804 37.0771 68.0357 35.7084C68.6581 34.1741 70.5201 33.4428 71.9675 34.2444L72.0668 34.299C72.2091 34.371 72.4128 34.468 72.6001 34.6583C73.5388 35.6038 73.8094 36.5927 73.4036 37.5931C72.821 39.0292 71.0217 39.7645 69.5488 39.1669ZM71.1464 35.4051C70.4835 35.1362 69.6231 35.5305 69.3368 36.2363C69.0779 36.8746 69.4015 37.5919 70.0766 37.8658C70.8867 38.1945 71.846 37.6974 72.1025 37.0652C72.2394 36.7277 72.2758 36.3208 71.599 35.6459C71.5794 35.6237 71.5144 35.5902 71.4433 35.5542C71.388 35.5317 71.3353 35.5032 71.2789 35.466C71.2298 35.4461 71.1893 35.4225 71.1402 35.4026L71.1464 35.4051Z" fill="#288357"/>
<path d="M62.3988 43.5423C60.9811 42.9672 60.286 41.4916 60.8139 40.1905C61.2496 39.1164 62.6921 37.8862 64.1528 38.4788C65.055 38.8448 65.724 39.6094 65.9287 40.5144C66.0396 40.981 65.9826 41.8085 65.8183 42.2136C65.4423 43.1403 63.884 44.1449 62.3988 43.5423ZM63.625 39.7799C63.0726 39.5558 62.3266 40.1966 62.115 40.7183C61.8436 41.3873 62.3288 42.0058 62.9242 42.2474C63.6238 42.5312 64.4162 41.9521 64.5208 41.6943C64.5756 41.5593 64.6126 41.0454 64.5632 40.8324C64.4054 40.1465 63.8091 39.8546 63.625 39.7799Z" fill="#288357"/>
<path d="M65.8654 50.9596C64.5888 50.4418 63.9013 48.6833 64.449 47.3331C64.8399 46.3695 66.3018 44.9685 67.83 45.5884C68.0202 45.6656 68.2103 45.7785 68.3843 45.9134C68.8462 46.2723 69.476 46.7637 69.7523 47.5977C69.9196 48.1015 69.8346 48.8747 69.6628 49.2982C69.3217 50.139 67.5347 51.6369 65.8654 50.9596ZM67.3021 46.8895C66.6822 46.6381 65.9195 47.4436 65.7477 47.8671C65.4912 48.4992 65.8322 49.4381 66.3907 49.6647C67.1886 49.9883 68.2324 49.0538 68.3679 48.7728C68.4426 48.5887 68.4667 48.1768 68.4206 48.0437C68.2885 47.6471 67.9639 47.3724 67.5204 47.021C67.4506 46.9641 67.3758 46.9194 67.3083 46.892L67.3021 46.8895Z" fill="#288357"/>
<path d="M73.1586 47.9575C71.6059 47.3276 71.2111 45.5521 71.7315 44.2694C72.1996 43.1156 73.3106 42.2798 74.5658 42.1457C74.8635 42.1164 75.1548 42.156 75.4372 42.2705C76.3884 42.6564 77.9192 44.2566 77.1324 46.196C76.2361 48.4055 73.9074 48.2613 73.1586 47.9575ZM74.9093 43.5716C74.8418 43.5442 74.7816 43.5341 74.7139 43.5424C73.9743 43.6212 73.2979 44.1258 73.024 44.8009C72.7501 45.476 72.9536 46.3662 73.684 46.6625C73.6962 46.6675 75.2512 47.0982 75.8288 45.6743C76.3094 44.4898 75.0971 43.6549 74.9068 43.5778L74.9093 43.5716Z" fill="#288357"/>
<path d="M48.5919 36.0327C47.6406 35.6468 46.7006 35.2154 45.8711 34.8289C45.5226 34.666 45.3623 34.2508 45.5276 33.8961C45.6904 33.5476 46.118 33.3923 46.4603 33.5526C47.2739 33.9256 48.1991 34.3581 49.1197 34.7316C50.1201 35.1374 51.0018 35.4308 51.8199 35.634C52.1958 35.7293 52.4215 36.1068 52.3323 36.4852C52.237 36.8611 51.857 37.0929 51.4811 36.9976C50.5992 36.7755 49.6537 36.4635 48.5919 36.0327Z" fill="#21432A"/>
<path d="M47.1999 38.9702C46.3099 38.6092 45.4227 38.2064 44.4756 37.7221C44.1321 37.547 43.989 37.1244 44.1641 36.7809C44.3392 36.4374 44.7532 36.2979 45.1053 36.4694C47.2057 37.5288 49.063 38.2537 51.0479 38.7873C51.4238 38.8826 51.6445 39.2724 51.5431 39.6458C51.4416 40.0192 51.058 40.2424 50.6846 40.1409C49.5042 39.8264 48.3598 39.4408 47.1937 38.9677L47.1999 38.9702Z" fill="#21432A"/>
</svg>
