<svg width="82" height="86" viewBox="0 0 82 86" fill="none" xmlns="http://www.w3.org/2000/svg">
<path d="M32.7121 50.4323C33.2559 47.0749 33.6195 43.7184 31.8568 40.6674C31.6829 40.3728 31.2925 40.497 31.2532 40.8103C30.529 46.2303 28.6681 51.3139 26.9858 56.4929C26.2207 58.8425 25.6164 61.3236 24.6458 63.5973C23.3317 66.6874 21.3617 66.5212 18.5586 65.7228C17.5277 65.4251 16.791 66.4895 17.1876 67.3981C18.284 69.9295 21.4172 70.62 23.9242 69.9937C27.2487 69.1576 28.864 66.1239 29.8049 63.101C31.0855 58.9768 32.02 54.6927 32.7121 50.4323Z" fill="#21432A" fill-opacity="0.2"/>
<path d="M51.3721 58.1729C51.887 54.6823 52.4326 50.7235 51.2929 47.328C51.197 47.0499 50.8639 47.0531 50.7435 47.3142C49.6839 49.6994 49.3027 52.2895 48.472 54.7645C47.7357 56.9498 46.8497 59.1037 45.9524 61.2265C45.0436 63.3874 44.0363 65.6223 42.8195 67.6347C42.1569 68.7284 41.4949 69.9121 40.162 70.2705C39.2969 70.5004 38.3376 70.2175 37.4608 70.2571C36.7743 70.2849 36.0203 70.8113 36.0696 71.5872C36.2383 74.212 38.8606 75.3571 41.2665 74.8593C44.4847 74.1918 46.4073 71.3547 47.8387 68.6322C49.554 65.3589 50.8309 61.8424 51.3702 58.1793L51.3721 58.1729Z" fill="#21432A" fill-opacity="0.2"/>
<path d="M33.4042 58.2866C34.0754 55.6526 34.5063 52.9669 34.8762 50.2765C35.1626 48.1836 35.8292 45.6106 34.91 43.6377C32.902 45.681 32.4832 49.6781 31.5506 52.3299C30.2557 56.0208 28.9379 59.7186 27.4991 63.3591C26.5058 65.8681 24.8579 69.3762 21.5954 68.6328C18.5669 67.9392 17.4231 64.9922 16.1041 62.442C16.7081 62.3892 17.3035 62.2508 17.8749 62.0083C19.732 61.2202 19.1759 58.4576 17.4673 57.9069C15.5304 57.2871 13.7254 57.3991 11.977 56.1098C9.86053 54.5502 9.58293 52.4461 8.9563 50.0773C8.8058 49.4991 8.12389 49.4661 7.79003 49.8841C5.65405 52.5114 6.69198 56.7479 8.71424 59.1232C9.76114 60.3527 11.2322 61.3922 12.8411 61.9751C13.2647 65.6801 15.1255 69.5287 18.3468 71.5535C21.6917 73.6503 25.7555 73.0238 28.3951 70.1266C31.254 66.9843 32.3796 62.2736 33.3959 58.291L33.4042 58.2866Z" fill="#21432A" fill-opacity="0.2"/>
<path d="M69.1862 44.7356C69.1086 44.5115 68.8803 44.4426 68.6853 44.5843C67.3645 45.5898 66.7283 47.1688 65.8882 48.5755C64.8062 50.3935 63.7141 52.2222 62.5041 53.96C61.2439 55.7725 57.4089 61.7334 54.4905 59.8969C53.4387 59.2332 51.939 59.5481 51.2886 60.6247C51.2345 60.7121 51.1804 60.7996 51.1263 60.887C50.5116 61.8913 50.6328 63.2079 51.4222 64.076C53.6391 66.517 56.9912 65.8415 59.7901 64.2032C59.099 64.6586 58.5344 65.2906 57.8116 65.7365C56.6563 66.446 55.3694 66.9498 54.0588 67.2803C51.3525 67.971 48.7056 66.7701 46.0548 67.2769C44.6313 67.5456 43.8672 69.342 44.5728 70.5792C46.5607 74.0302 53.0968 73.3273 56.2801 72.0196C58.8318 70.9709 62.6568 67.1726 60.9092 64.14C60.7727 63.905 60.4874 63.8188 60.2435 63.9389C60.1794 63.968 60.1261 64.0072 60.0683 64.0382C61.691 63.0409 63.1038 61.7311 63.9587 60.5502C65.6627 58.2076 66.9711 55.434 67.9901 52.7253C68.8433 50.4507 70.0398 47.1314 69.1798 44.7337L69.1862 44.7356Z" fill="#21432A" fill-opacity="0.2"/>
<path d="M21.6483 44.2738C21.3549 41.4661 20.7258 38.7161 20.2135 35.946C19.9681 34.6057 19.7334 33.2756 19.613 31.9108C19.5224 30.8594 19.6517 30.2481 18.9699 29.4817C18.9547 29.4633 18.9338 29.4639 18.9129 29.4645C16.1471 30.0542 15.9048 35.6198 15.8644 37.8147C15.8233 40.0578 16.2352 42.2441 16.286 44.4804C16.3115 45.4498 16.4936 46.7018 15.7803 47.4826C15.2946 48.0139 14.286 48.3526 13.6913 48.8095C12.5185 49.7144 13.0527 51.3356 13.9983 52.0987C15.6813 53.4443 17.9549 52.789 19.4502 51.4349C21.4584 49.62 21.9072 46.829 21.6458 44.2592L21.6483 44.2738Z" fill="#21432A" fill-opacity="0.2"/>
<path d="M53.2402 18.5529C52.0705 15.8748 48.1368 14.5134 45.4843 13.9265C42.0918 13.1784 38.5131 13.2527 35.0885 13.6641C31.7705 14.0662 28.5632 14.9723 25.5471 16.4135C22.7914 17.7258 19.2123 19.6334 18.5013 22.8573C18.011 25.0754 20.5374 26.9041 22.36 25.2684C24.3192 23.501 25.8336 21.786 28.2189 20.4863C30.6785 19.1468 33.2783 18.0988 36.0049 17.4557C38.8063 16.7937 41.6645 16.654 44.5192 16.9837C46.1378 17.1682 47.7467 17.4536 49.2929 17.9692C50.5387 18.3802 51.6281 18.9653 52.9487 19.0598C53.2195 19.0794 53.3514 18.7802 53.2592 18.5586L53.2402 18.5529Z" fill="#21432A" fill-opacity="0.2"/>
<path d="M72.7932 39.5291C73.3993 36.149 73.1634 32.4869 72.142 29.2033C70.1567 22.8125 65.7701 16.7894 59.4318 14.2726C59.1776 14.175 58.9326 14.5507 59.1391 14.7376C59.8763 15.3893 60.5931 16.0625 61.2896 16.7572C60.5425 16.2756 59.763 15.9017 58.9438 15.6819C58.7599 15.6263 58.6333 15.8164 58.7009 15.9821C59.3826 17.7102 60.6594 19.1407 61.768 20.6241C63.0595 22.3496 64.1902 24.1718 65.2244 26.0617C66.3889 28.1847 67.1676 30.3019 67.3932 32.7156C67.5723 34.5962 67.3014 36.5693 67.8181 38.3859C68.072 39.2859 69.0389 39.5435 69.7064 39.1432C69.6206 39.5877 69.5074 40.0309 69.3753 40.4684C68.9993 41.0259 68.7024 41.642 68.2181 42.146C67.4775 42.9255 66.2296 42.9567 65.4144 42.2884C65.1934 42.104 64.7787 42.3316 64.8035 42.6158C64.9166 43.8677 65.8673 44.66 66.9915 44.9235C66.7604 45.3449 66.5806 45.8026 66.5319 46.376C66.4866 46.8466 66.9382 47.2529 67.3765 47.2677C70.7759 47.3745 72.3022 42.1622 72.7805 39.5253L72.7932 39.5291Z" fill="#21432A" fill-opacity="0.2"/>
<path d="M21.7682 24.5016C21.6965 24.1893 21.2437 24.1079 21.082 24.3911C20.9121 24.6788 20.7485 24.9684 20.5849 25.258C20.5716 25.2332 20.5647 25.2104 20.5495 25.192C20.2245 24.6648 19.4383 24.4273 18.9558 24.925C18.3513 25.5518 17.9487 26.4265 17.2233 26.9269C16.5347 27.3969 15.6804 27.2703 14.9059 27.2231C14.4295 27.1968 14.2052 27.7103 14.3732 28.0931C14.9568 29.4594 16.6561 29.9036 18.0269 29.6259C17.5489 30.4293 17.1856 31.2882 17.5043 32.1802C17.6481 32.5972 17.9919 32.9709 18.4715 32.9636C21.8427 32.8889 22.3294 26.9266 21.779 24.5117L21.7682 24.5016Z" fill="#21432A" fill-opacity="0.2"/>
<path d="M66.7605 37.8104C66.6909 34.1016 64.1919 30.2124 62.0298 27.3383C59.4146 23.8568 56.0162 20.9067 52.1542 18.8958C44.8895 15.1167 34.9323 14.0666 27.8004 18.7339C27.5845 18.8763 27.7025 19.1956 27.957 19.1548C35.8733 17.9141 43.7513 17.4643 51.0722 21.378C54.3657 23.141 57.255 25.5775 59.5839 28.4951C62.0065 31.5379 62.9037 35.0262 64.8418 38.2755C65.3388 39.1037 66.7806 38.8889 66.7586 37.8167L66.7605 37.8104Z" fill="#21432A" fill-opacity="0.2"/>
<path d="M67.6966 64.7583C68.2123 61.517 68.6806 58.1575 67.5302 55.0494C68.8485 52.7009 69.7009 50.1771 70.3708 47.5704C70.4916 47.1018 69.7961 46.8848 69.648 47.352C68.9414 49.6224 67.9951 51.7927 67.0172 53.9534C66.3166 53.043 64.7907 53.1701 64.1665 54.137C61.4113 58.4245 62.5873 63.7613 60.7134 68.3151C58.7669 73.0407 50.6523 71.5025 46.908 70.2468C45.8651 69.8971 44.5202 70.5702 44.258 71.6671C43.4317 75.1121 37.1044 76.0857 35.6654 72.5583C35.4425 72.0136 34.4451 72.0859 34.345 72.6922C33.8212 75.8688 36.5402 77.8387 39.4532 78.2275C42.5577 78.6465 45.6806 77.4244 47.3678 74.9313C52.8389 76.7918 60.3249 77.9602 64.5117 73.4686C66.7036 71.1142 67.2111 67.8081 67.6966 64.7583Z" fill="#21432A" fill-opacity="0.2"/>
<path d="M17.7724 63.1952C16.1833 61.2414 13.4495 60.6715 11.5756 59.0191C9.77255 57.4297 9.08448 55.333 7.72607 53.4627C7.64319 53.3477 7.48146 53.3335 7.35835 53.3516C7.07661 53.3911 7.06643 53.4018 6.87569 53.6209C6.78223 53.7242 6.82754 53.9177 6.98677 53.9174C4.95672 53.9268 8.05614 60.5919 8.49089 61.1453C10.3887 63.566 13.9361 66.229 17.1658 65.226C18.0735 64.9467 18.38 63.9323 17.7787 63.1971L17.7724 63.1952Z" fill="#21432A" fill-opacity="0.2"/>
<path d="M20.5883 70.0652C19.0096 69.5883 15.8221 67.4975 16.6287 64.3925C17.4449 61.2558 18.3036 58.0697 19.1381 54.9869C20.209 51.0069 21.3221 46.8875 22.3532 42.8332C22.3762 42.7571 22.3972 42.6874 22.4183 42.6177C23.2438 39.8851 25.4311 36.9965 31.1689 38.7299C34.377 39.6991 35.3932 42.3585 34.1904 46.6377C32.7953 51.599 31.0825 57.8413 29.0991 65.1849C29.0212 65.4657 28.9433 65.7466 28.859 66.0256C27.6235 70.115 25.0011 71.3983 20.5947 70.0671L20.5883 70.0652ZM17.9818 64.7459C17.4244 66.8884 20.0307 68.43 20.9944 68.7211C25.4832 70.0772 26.7807 68.0269 27.5105 65.6113C27.5909 65.345 27.665 65.0768 27.7391 64.8086C29.7244 57.4586 31.4372 51.2164 32.8342 46.2487C34.1246 41.657 32.2674 40.5217 30.7584 40.0658C26.9416 38.9127 24.7138 39.8517 23.758 43.0155C23.7427 43.0662 23.7254 43.1233 23.7082 43.1803C22.6815 47.2428 21.5665 51.3686 20.4874 55.353C19.6548 58.4294 18.796 61.6155 17.9818 64.7459Z" fill="#288357"/>
<path d="M38.5956 75.1801C35.3558 74.2014 33.8323 71.3887 34.8035 68.1743L34.8494 68.0221C36.7445 62.3677 39.457 54.2135 41.6295 47.4805C42.6538 44.296 45.1538 43.0517 48.4887 44.0592C52.9966 45.4211 53.9388 49.6079 53.1707 52.1503C53.1573 52.1947 53.1439 52.2391 53.1286 52.2898C51.7597 56.1798 50.4229 60.1694 49.1308 64.0341C48.1514 66.9554 47.1719 69.8768 46.1754 72.786C45.1687 75.7061 41.5482 76.0791 38.6 75.1884L38.5956 75.1801ZM48.0846 45.397C46.2966 44.8569 43.952 44.8542 42.9679 47.9056C40.7935 54.6449 38.079 62.8055 36.184 68.4599L36.1495 68.574C35.4102 71.0213 36.5309 73.0827 39.0036 73.8297C41.4762 74.5767 44.1723 74.2635 44.8441 72.3147C45.847 69.4073 46.8245 66.4923 47.7976 63.569C49.0897 59.7043 50.4284 55.7084 51.8094 51.8013L51.8304 51.7316C52.3016 50.1719 52.0047 46.5744 48.0865 45.3907L48.0846 45.397Z" fill="#288357"/>
<path d="M16.8897 43.2376C16.6298 43.159 16.4329 42.9404 16.3954 42.6523C16.3448 42.2703 16.6176 41.9169 17.0059 41.8682C18.933 41.627 21.0156 41.6957 23.2054 42.0736C23.5992 42.1442 23.844 42.5018 23.7773 42.8829C23.7106 43.2641 23.3491 43.5216 22.968 43.4549C20.9424 43.1058 18.9417 43.0411 17.1733 43.261C17.073 43.2722 16.9722 43.2625 16.8834 43.2357L16.8897 43.2376Z" fill="#288357"/>
<path d="M57.4983 55.5058C57.4095 55.4789 57.3202 55.4312 57.2429 55.3663C55.8984 54.206 54.1901 53.1502 52.3101 52.3194C51.9558 52.1639 51.7974 51.7493 51.9528 51.395C52.1083 51.0407 52.5165 50.8803 52.8772 51.0377C54.9099 51.9355 56.6866 53.0396 58.1534 54.2992C58.4435 54.5528 58.4832 54.9938 58.2276 55.2902C58.0451 55.5049 57.7519 55.5824 57.4919 55.5038L57.4983 55.5058Z" fill="#288357"/>
<path d="M15.9475 62.9828C8.29496 60.6709 4.87487 56.1436 6.55852 50.5707C7.50664 47.4323 9.25446 45.0821 11.7454 43.5929C12.0814 43.3969 12.5119 43.5062 12.7098 43.8359C12.9078 44.1655 12.7984 44.596 12.4669 44.8003C10.2808 46.1048 8.7454 48.1871 7.90071 50.9831C5.94699 57.45 12.3555 60.4446 16.3497 61.6513C16.8633 61.8065 17.3997 61.9547 17.9418 62.0839C18.3172 62.1696 18.5481 62.5507 18.4604 62.9325C18.3683 63.3059 17.9936 63.5387 17.6119 63.451C17.038 63.3122 16.4743 63.1627 15.9418 63.0018L15.9475 62.9828Z" fill="#288357"/>
<path d="M47.3503 72.4699C46.8114 72.3071 46.2592 72.1195 45.7109 71.9192C45.3489 71.7891 45.1594 71.3859 45.2914 71.0176C45.4279 70.6575 45.833 70.4616 46.193 70.5981C46.7224 70.7926 47.2511 70.9662 47.7583 71.1194C51.7526 72.3261 58.7453 73.387 60.7009 66.9137C61.5456 64.1177 61.418 61.54 60.3218 59.2369C60.1569 58.8896 60.3043 58.4706 60.6535 58.2993C61.0008 58.1344 61.4199 58.2818 61.5911 58.631C62.8472 61.2522 62.9951 64.1751 62.0469 67.3134C60.3614 72.8928 55.0086 74.7627 47.3561 72.4508L47.3503 72.4699Z" fill="#288357"/>
<path d="M14.4567 51.1994C9.23241 49.6211 12.029 34.0892 13.2472 30.0569C13.3123 29.8413 13.3755 29.6321 13.4406 29.4165C12.3737 28.3677 11.9935 26.8552 12.4455 25.359C13.1542 23.0131 15.5441 21.6525 17.7758 22.3268C18.1055 22.4264 18.4281 22.5723 18.7329 22.7543C19.6111 23.2825 20.3013 23.9753 20.726 24.7679C21.1243 25.5109 21.1905 26.3681 20.9242 27.2493C20.5067 28.6315 19.4737 29.7378 18.1163 30.2687C17.2783 34.1875 17.0678 37.4035 17.4662 40.3674C18.0202 44.5339 18.8617 47.6801 19.1062 48.5427C19.1433 48.6716 19.155 48.8619 19.1167 48.9887C18.4329 51.2522 15.9257 51.6502 14.4484 51.2039L14.4567 51.1994ZM17.378 23.6665C15.9134 23.224 14.2748 24.1819 13.7979 25.7606C13.4033 27.0667 13.9964 28.1038 14.6862 28.6374C14.9218 28.8193 15.0145 29.1309 14.9219 29.4143C14.8039 29.7592 14.6986 30.1079 14.5932 30.4566C13.0053 35.7126 11.4283 48.8108 14.871 49.8509C15.5684 50.0616 17.1963 50.0552 17.7272 48.7558C17.4122 47.6228 16.6271 44.542 16.0969 40.5488C15.6616 37.3176 15.9043 33.8347 16.8521 29.5754C16.9058 29.3287 17.0908 29.1286 17.3339 29.0567C18.4352 28.7322 19.2812 27.9015 19.603 26.8363C19.7619 26.3101 19.7318 25.8374 19.5105 25.4246C19.2052 24.855 18.6943 24.3478 18.0315 23.9538C17.8268 23.8297 17.6062 23.7354 17.3843 23.6684L17.378 23.6665Z" fill="#21432A"/>
<path d="M55.1161 63.483C53.6388 63.0367 51.7694 61.3234 52.4551 59.0536C52.4934 58.9268 52.6086 58.7748 52.7109 58.6881C53.3921 58.1052 55.8285 55.9492 58.603 52.7883C60.5778 50.5343 62.1894 47.7417 63.6532 44.0188C62.8188 42.8188 62.5691 41.332 62.9867 39.9498C63.2529 39.0686 63.7827 38.3914 64.5257 37.9932C65.3182 37.5684 66.2765 37.3736 67.3003 37.42C67.6549 37.4372 68.0044 37.4943 68.334 37.5939C70.5658 38.2682 71.8025 40.7244 71.0938 43.0702C70.6418 44.5665 69.4877 45.6154 68.0186 45.898C67.9534 46.1136 67.8902 46.3228 67.8251 46.5384C66.6069 50.5707 60.3296 65.0511 55.1116 63.4747L55.1161 63.483ZM53.75 59.6455C53.4727 61.0216 54.8247 61.9282 55.5221 62.1389C58.9585 63.177 64.9058 51.3921 66.4918 46.1425C66.5971 45.7938 66.7024 45.4451 66.7951 45.0926C66.875 44.8053 67.1247 44.5971 67.4216 44.5761C68.2915 44.5137 69.3595 43.9785 69.7541 42.6724C70.2311 41.0937 69.397 39.3888 67.9324 38.9463C67.7105 38.8793 67.4809 38.8376 67.2354 38.8257C66.4654 38.7868 65.759 38.9262 65.1894 39.2315C64.7766 39.4528 64.4898 39.8297 64.3308 40.3559C64.009 41.4211 64.2536 42.5812 64.9909 43.4612C65.1536 43.6557 65.1968 43.9247 65.105 44.1599C63.5378 48.2252 61.8033 51.2643 59.6581 53.7159C56.9751 56.7799 54.5926 58.9176 53.7564 59.6474L53.75 59.6455Z" fill="#21432A"/>
<path d="M15.994 23.5527C15.994 23.5527 15.9559 23.5412 15.9433 23.5374C15.5851 23.3946 15.4038 22.987 15.5466 22.6288C20.7152 9.39094 36.8095 5.79148 49.329 9.124C61.6438 13.2941 73.0511 25.209 70.0275 39.0879C69.9481 39.4652 69.5714 39.7043 69.1941 39.6249C68.7895 39.5442 68.5777 39.1689 68.6571 38.7916C71.5042 25.7034 60.6158 14.4296 48.9229 10.4681C37.0369 7.3062 21.7277 10.6655 16.8518 23.1407C16.7211 23.4818 16.3408 23.6644 15.9984 23.561L15.994 23.5527Z" fill="#21432A"/>
<path d="M65.9164 38.863C65.6311 38.7768 65.4248 38.5207 65.4159 38.2067C65.351 35.6963 64.9558 33.3629 64.2386 31.2712C62.3972 25.8925 54.9163 18.478 46.7185 16.0014C39.478 13.814 31.9881 14.6508 26.1746 18.2981C23.8277 19.7685 21.7074 21.8401 19.8728 24.4547C19.6514 24.7752 19.2135 24.8505 18.8948 24.6228C18.5806 24.4033 18.499 23.9635 18.7267 23.6449C20.6701 20.8764 22.9251 18.6794 25.4346 17.1059C31.5899 13.2436 39.4974 12.353 47.1309 14.6592C56.0198 17.3446 63.6268 25.1432 65.571 30.8228C66.3362 33.0535 66.7584 35.5265 66.8211 38.1815C66.828 38.571 66.5248 38.8876 66.1397 38.9028C66.0623 38.9071 65.9906 38.8923 65.9209 38.8713L65.9164 38.863Z" fill="#21432A"/>
</svg>
